999
"DXF R12 Output" (www.mydxf.blogspot.com)
 0 
SECTION
 2 
HEADER
 9 
$ACADVER
 1 
AC1009
 9 
$EXTMIN
 10 
 0 
 20 
 0 
 9 
$EXTMAX
 10 
 8.5 
 20 
 11 
 0 
ENDSEC
 0 
SECTION
 2 
ENTITIES
0
LINE
8
Layer 1
10
133.741000
20
59.735500
11
133.564481
21
65.284425
0
LINE
8
Layer 1
10
133.564481
20
65.284425
11
132.992935
21
70.150867
0
LINE
8
Layer 1
10
132.992935
20
70.150867
11
132.082440
21
74.379602
0
LINE
8
Layer 1
10
132.082440
20
74.379602
11
130.889074
21
78.015401
0
LINE
8
Layer 1
10
130.889074
20
78.015401
11
129.468914
21
81.103038
0
LINE
8
Layer 1
10
129.468914
20
81.103038
11
127.878041
21
83.687288
0
LINE
8
Layer 1
10
127.878041
20
83.687288
11
126.172530
21
85.812922
0
LINE
8
Layer 1
10
126.172530
20
85.812922
11
124.408461
21
87.524714
0
LINE
8
Layer 1
10
124.408461
20
87.524714
11
122.641911
21
88.867439
0
LINE
8
Layer 1
10
122.641911
20
88.867439
11
120.928959
21
89.885869
0
LINE
8
Layer 1
10
120.928959
20
89.885869
11
119.325683
21
90.624777
0
LINE
8
Layer 1
10
119.325683
20
90.624777
11
117.888161
21
91.128938
0
LINE
8
Layer 1
10
117.888161
20
91.128938
11
115.734690
21
91.612109
0
LINE
8
Layer 1
10
115.734690
20
91.612109
11
114.917172
21
91.693568
0
LINE
8
Layer 1
10
114.917172
20
91.693568
11
113.865248
21
93.712739
0
LINE
8
Layer 1
10
113.865248
20
93.712739
11
112.708295
21
95.424259
0
LINE
8
Layer 1
10
112.708295
20
95.424259
11
111.470171
21
96.852604
0
LINE
8
Layer 1
10
111.470171
20
96.852604
11
110.174730
21
98.022250
0
LINE
8
Layer 1
10
110.174730
20
98.022250
11
108.845830
21
98.957672
0
LINE
8
Layer 1
10
108.845830
20
98.957672
11
107.507328
21
99.683345
0
LINE
8
Layer 1
10
107.507328
20
99.683345
11
104.896938
21
100.603348
0
LINE
8
Layer 1
10
104.896938
20
100.603348
11
102.534413
21
100.978063
0
LINE
8
Layer 1
10
102.534413
20
100.978063
11
100.610604
21
101.003293
0
LINE
8
Layer 1
10
100.610604
20
101.003293
11
98.842535
21
100.788512
0
LINE
8
Layer 1
10
98.842535
20
100.788512
11
96.868395
21
102.369306
0
LINE
8
Layer 1
10
96.868395
20
102.369306
11
96.868395
21
56.323088
0
LINE
8
Layer 1
10
96.868395
20
56.323088
11
93.693402
21
56.323088
0
LINE
8
Layer 1
10
93.693402
20
56.323088
11
93.693402
21
104.327218
0
LINE
8
Layer 1
10
93.693402
20
104.327218
11
91.595623
21
105.241440
0
LINE
8
Layer 1
10
91.595623
20
105.241440
11
89.551593
21
105.855215
0
LINE
8
Layer 1
10
89.551593
20
105.855215
11
87.568621
21
106.197822
0
LINE
8
Layer 1
10
87.568621
20
106.197822
11
85.654011
21
106.298542
0
LINE
8
Layer 1
10
85.654011
20
106.298542
11
83.815073
21
106.186655
0
LINE
8
Layer 1
10
83.815073
20
106.186655
11
82.059112
21
105.891442
0
LINE
8
Layer 1
10
82.059112
20
105.891442
11
80.393435
21
105.442183
0
LINE
8
Layer 1
10
80.393435
20
105.442183
11
78.825351
21
104.868158
0
LINE
8
Layer 1
10
78.825351
20
104.868158
11
76.011185
21
103.462932
0
LINE
8
Layer 1
10
76.011185
20
103.462932
11
73.675071
21
101.910007
0
LINE
8
Layer 1
10
73.675071
20
101.910007
11
71.875465
21
100.443625
0
LINE
8
Layer 1
10
71.875465
20
100.443625
11
70.670822
21
99.298029
0
LINE
8
Layer 1
10
70.670822
20
99.298029
11
70.670822
21
51.373274
0
LINE
8
Layer 1
10
70.670822
20
51.373274
11
69.070626
21
51.373274
0
LINE
8
Layer 1
10
69.070626
20
51.373274
11
69.070626
21
99.742528
0
LINE
8
Layer 1
10
69.070626
20
99.742528
11
67.449922
21
101.250241
0
LINE
8
Layer 1
10
67.449922
20
101.250241
11
65.828563
21
102.528237
0
LINE
8
Layer 1
10
65.828563
20
102.528237
11
64.211918
21
103.590556
0
LINE
8
Layer 1
10
64.211918
20
103.590556
11
62.605359
21
104.451236
0
LINE
8
Layer 1
10
62.605359
20
104.451236
11
61.014258
21
105.124317
0
LINE
8
Layer 1
10
61.014258
20
105.124317
11
59.443985
21
105.623837
0
LINE
8
Layer 1
10
59.443985
20
105.623837
11
56.387411
21
106.158351
0
LINE
8
Layer 1
10
56.387411
20
106.158351
11
53.478606
21
106.167090
0
LINE
8
Layer 1
10
53.478606
20
106.167090
11
50.760541
21
105.762365
0
LINE
8
Layer 1
10
50.760541
20
105.762365
11
48.276184
21
105.056486
0
LINE
8
Layer 1
10
48.276184
20
105.056486
11
46.068507
21
104.161766
0
LINE
8
Layer 1
10
46.068507
20
104.161766
11
46.068507
21
56.323088
0
LINE
8
Layer 1
10
46.068507
20
56.323088
11
42.893514
21
56.323088
0
LINE
8
Layer 1
10
42.893514
20
56.323088
11
42.893514
21
102.412345
0
LINE
8
Layer 1
10
42.893514
20
102.412345
11
40.678075
21
100.788512
0
LINE
8
Layer 1
10
40.678075
20
100.788512
11
38.610592
21
101.044397
0
LINE
8
Layer 1
10
38.610592
20
101.044397
11
36.689971
21
101.041271
0
LINE
8
Layer 1
10
36.689971
20
101.041271
11
34.914351
21
100.812595
0
LINE
8
Layer 1
10
34.914351
20
100.812595
11
33.281873
21
100.391831
0
LINE
8
Layer 1
10
33.281873
20
100.391831
11
31.790679
21
99.812439
0
LINE
8
Layer 1
10
31.790679
20
99.812439
11
30.438908
21
99.107881
0
LINE
8
Layer 1
10
30.438908
20
99.107881
11
28.146201
21
97.457107
0
LINE
8
Layer 1
10
28.146201
20
97.457107
11
26.388877
21
95.707197
0
LINE
8
Layer 1
10
26.388877
20
95.707197
11
25.152061
21
94.125839
0
LINE
8
Layer 1
10
25.152061
20
94.125839
11
24.180458
21
92.539528
0
LINE
8
Layer 1
10
24.180458
20
92.539528
11
22.027386
21
92.029892
0
LINE
8
Layer 1
10
22.027386
20
92.029892
11
20.039867
21
91.386737
0
LINE
8
Layer 1
10
20.039867
20
91.386737
11
18.211526
21
90.619881
0
LINE
8
Layer 1
10
18.211526
20
90.619881
11
16.535989
21
89.739141
0
LINE
8
Layer 1
10
16.535989
20
89.739141
11
15.006881
21
88.754333
0
LINE
8
Layer 1
10
15.006881
20
88.754333
11
13.617829
21
87.675276
0
LINE
8
Layer 1
10
13.617829
20
87.675276
11
11.234391
21
85.273677
0
LINE
8
Layer 1
10
11.234391
20
85.273677
11
9.334681
21
82.612883
0
LINE
8
Layer 1
10
9.334681
20
82.612883
11
7.867704
21
79.771430
0
LINE
8
Layer 1
10
7.867704
20
79.771430
11
6.782463
21
76.827853
0
LINE
8
Layer 1
10
6.782463
20
76.827853
11
6.027965
21
73.860691
0
LINE
8
Layer 1
10
6.027965
20
73.860691
11
5.553213
21
70.948479
0
LINE
8
Layer 1
10
5.553213
20
70.948479
11
5.307213
21
68.169755
0
LINE
8
Layer 1
10
5.307213
20
68.169755
11
5.297485
21
63.326913
0
LINE
8
Layer 1
10
5.297485
20
63.326913
11
5.590820
21
59.960460
0
LINE
8
Layer 1
10
5.590820
20
59.960460
11
5.779257
21
58.698688
0
LINE
8
Layer 1
10
5.779257
20
58.698688
11
3.595543
21
56.614643
0
LINE
8
Layer 1
10
3.595543
20
56.614643
11
1.986342
21
54.524369
0
LINE
8
Layer 1
10
1.986342
20
54.524369
11
0.891820
21
52.447279
0
LINE
8
Layer 1
10
0.891820
20
52.447279
11
0.252146
21
50.402784
0
LINE
8
Layer 1
10
0.252146
20
50.402784
11
0.007484
21
48.410297
0
LINE
8
Layer 1
10
0.007484
20
48.410297
11
0.098004
21
46.489228
0
LINE
8
Layer 1
10
0.098004
20
46.489228
11
0.463872
21
44.658990
0
LINE
8
Layer 1
10
0.463872
20
44.658990
11
1.045254
21
42.938993
0
LINE
8
Layer 1
10
1.045254
20
42.938993
11
1.782319
21
41.348651
0
LINE
8
Layer 1
10
1.782319
20
41.348651
11
2.615233
21
39.907374
0
LINE
8
Layer 1
10
2.615233
20
39.907374
11
4.329278
21
37.549663
0
LINE
8
Layer 1
10
4.329278
20
37.549663
11
5.708724
21
36.021155
0
LINE
8
Layer 1
10
5.708724
20
36.021155
11
6.274909
21
35.477142
0
LINE
8
Layer 1
10
6.274909
20
35.477142
11
4.756883
21
32.484458
0
LINE
8
Layer 1
10
4.756883
20
32.484458
11
3.793515
21
29.753383
0
LINE
8
Layer 1
10
3.793515
20
29.753383
11
3.321785
21
27.274460
0
LINE
8
Layer 1
10
3.321785
20
27.274460
11
3.278675
21
25.038234
0
LINE
8
Layer 1
10
3.278675
20
25.038234
11
3.601163
21
23.035248
0
LINE
8
Layer 1
10
3.601163
20
23.035248
11
4.226232
21
21.256045
0
LINE
8
Layer 1
10
4.226232
20
21.256045
11
5.090862
21
19.691170
0
LINE
8
Layer 1
10
5.090862
20
19.691170
11
6.132034
21
18.331166
0
LINE
8
Layer 1
10
6.132034
20
18.331166
11
7.286729
21
17.166577
0
LINE
8
Layer 1
10
7.286729
20
17.166577
11
8.491926
21
16.187947
0
LINE
8
Layer 1
10
8.491926
20
16.187947
11
10.801754
21
14.750738
0
LINE
8
Layer 1
10
10.801754
20
14.750738
11
12.557364
21
13.943890
0
LINE
8
Layer 1
10
12.557364
20
13.943890
11
13.254602
21
13.691752
0
LINE
8
Layer 1
10
13.254602
20
13.691752
11
14.115328
21
10.146098
0
LINE
8
Layer 1
10
14.115328
20
10.146098
11
15.166737
21
7.238933
0
LINE
8
Layer 1
10
15.166737
20
7.238933
11
16.374856
21
4.913721
0
LINE
8
Layer 1
10
16.374856
20
4.913721
11
17.705710
21
3.113926
0
LINE
8
Layer 1
10
17.705710
20
3.113926
11
19.125329
21
1.783011
0
LINE
8
Layer 1
10
19.125329
20
1.783011
11
20.599737
21
0.864439
0
LINE
8
Layer 1
10
20.599737
20
0.864439
11
22.094963
21
0.301674
0
LINE
8
Layer 1
10
22.094963
20
0.301674
11
23.577033
21
0.038179
0
LINE
8
Layer 1
10
23.577033
20
0.038179
11
25.011974
21
0.017419
0
LINE
8
Layer 1
10
25.011974
20
0.017419
11
26.365814
21
0.182856
0
LINE
8
Layer 1
10
26.365814
20
0.182856
11
28.694295
21
0.846176
0
LINE
8
Layer 1
10
28.694295
20
0.846176
11
30.290692
21
1.575849
0
LINE
8
Layer 1
10
30.290692
20
1.575849
11
30.883221
21
1.919583
0
LINE
8
Layer 1
10
30.883221
20
1.919583
11
33.721315
21
1.179952
0
LINE
8
Layer 1
10
33.721315
20
1.179952
11
36.294628
21
0.760311
0
LINE
8
Layer 1
10
36.294628
20
0.760311
11
38.614431
21
0.623091
0
LINE
8
Layer 1
10
38.614431
20
0.623091
11
40.691993
21
0.730725
0
LINE
8
Layer 1
10
40.691993
20
0.730725
11
42.538584
21
1.045642
0
LINE
8
Layer 1
10
42.538584
20
1.045642
11
44.165476
21
1.530274
0
LINE
8
Layer 1
10
44.165476
20
1.530274
11
45.583937
21
2.147054
0
LINE
8
Layer 1
10
45.583937
20
2.147054
11
46.805238
21
2.858411
0
LINE
8
Layer 1
10
46.805238
20
2.858411
11
48.701440
21
4.414585
0
LINE
8
Layer 1
10
48.701440
20
4.414585
11
49.944242
21
5.898246
0
LINE
8
Layer 1
10
49.944242
20
5.898246
11
50.623806
21
7.008846
0
LINE
8
Layer 1
10
50.623806
20
7.008846
11
50.830291
21
7.445835
0
LINE
8
Layer 1
10
50.830291
20
7.445835
11
53.203475
21
6.068934
0
LINE
8
Layer 1
10
53.203475
20
6.068934
11
55.415614
21
5.093102
0
LINE
8
Layer 1
10
55.415614
20
5.093102
11
57.467804
21
4.475256
0
LINE
8
Layer 1
10
57.467804
20
4.475256
11
59.361139
21
4.172312
0
LINE
8
Layer 1
10
59.361139
20
4.172312
11
61.096715
21
4.141188
0
LINE
8
Layer 1
10
61.096715
20
4.141188
11
62.675626
21
4.338800
0
LINE
8
Layer 1
10
62.675626
20
4.338800
11
64.098967
21
4.722066
0
LINE
8
Layer 1
10
64.098967
20
4.722066
11
65.367834
21
5.247902
0
LINE
8
Layer 1
10
65.367834
20
5.247902
11
67.446525
21
6.554952
0
LINE
8
Layer 1
10
67.446525
20
6.554952
11
68.920459
21
7.915287
0
LINE
8
Layer 1
10
68.920459
20
7.915287
11
70.089093
21
9.417153
0
LINE
8
Layer 1
10
70.089093
20
9.417153
11
71.042494
21
7.564002
0
LINE
8
Layer 1
10
71.042494
20
7.564002
11
72.185962
21
6.154002
0
LINE
8
Layer 1
10
72.185962
20
6.154002
11
73.484784
21
5.142501
0
LINE
8
Layer 1
10
73.484784
20
5.142501
11
74.904246
21
4.484851
0
LINE
8
Layer 1
10
74.904246
20
4.484851
11
76.409635
21
4.136400
0
LINE
8
Layer 1
10
76.409635
20
4.136400
11
77.966238
21
4.052500
0
LINE
8
Layer 1
10
77.966238
20
4.052500
11
79.539343
21
4.188500
0
LINE
8
Layer 1
10
79.539343
20
4.188500
11
81.094236
21
4.499750
0
LINE
8
Layer 1
10
81.094236
20
4.499750
11
84.010535
21
5.469402
0
LINE
8
Layer 1
10
84.010535
20
5.469402
11
86.437430
21
6.604258
0
LINE
8
Layer 1
10
86.437430
20
6.604258
11
88.712191
21
7.940781
0
LINE
8
Layer 1
10
88.712191
20
7.940781
11
91.576249
21
6.089645
0
LINE
8
Layer 1
10
91.576249
20
6.089645
11
94.222820
21
4.562493
0
LINE
8
Layer 1
10
94.222820
20
4.562493
11
96.656416
21
3.331100
0
LINE
8
Layer 1
10
96.656416
20
3.331100
11
98.881550
21
2.367241
0
LINE
8
Layer 1
10
98.881550
20
2.367241
11
102.724489
21
1.129224
0
LINE
8
Layer 1
10
102.724489
20
1.129224
11
105.787744
21
0.622642
0
LINE
8
Layer 1
10
105.787744
20
0.622642
11
108.107423
21
0.621695
0
LINE
8
Layer 1
10
108.107423
20
0.621695
11
109.719631
21
0.900581
0
LINE
8
Layer 1
10
109.719631
20
0.900581
11
110.966070
21
1.394651
0
LINE
8
Layer 1
10
110.966070
20
1.394651
11
113.777077
21
1.532753
0
LINE
8
Layer 1
10
113.777077
20
1.532753
11
116.247916
21
1.923042
0
LINE
8
Layer 1
10
116.247916
20
1.923042
11
118.400501
21
2.529491
0
LINE
8
Layer 1
10
118.400501
20
2.529491
11
120.256744
21
3.316073
0
LINE
8
Layer 1
10
120.256744
20
3.316073
11
121.838559
21
4.246762
0
LINE
8
Layer 1
10
121.838559
20
4.246762
11
123.167859
21
5.285530
0
LINE
8
Layer 1
10
123.167859
20
5.285530
11
124.266558
21
6.396352
0
LINE
8
Layer 1
10
124.266558
20
6.396352
11
125.156569
21
7.543201
0
LINE
8
Layer 1
10
125.156569
20
7.543201
11
126.398179
21
9.800872
0
LINE
8
Layer 1
10
126.398179
20
9.800872
11
127.067997
21
11.770330
0
LINE
8
Layer 1
10
127.067997
20
11.770330
11
127.393483
21
13.691752
0
LINE
8
Layer 1
10
127.393483
20
13.691752
11
129.807901
21
15.255421
0
LINE
8
Layer 1
10
129.807901
20
15.255421
11
131.753380
21
16.910998
0
LINE
8
Layer 1
10
131.753380
20
16.910998
11
133.273133
21
18.631880
0
LINE
8
Layer 1
10
133.273133
20
18.631880
11
134.410372
21
20.391466
0
LINE
8
Layer 1
10
134.410372
20
20.391466
11
135.208309
21
22.163155
0
LINE
8
Layer 1
10
135.208309
20
22.163155
11
135.710154
21
23.920345
0
LINE
8
Layer 1
10
135.710154
20
23.920345
11
135.959121
21
25.636435
0
LINE
8
Layer 1
10
135.959121
20
25.636435
11
135.998420
21
27.284823
0
LINE
8
Layer 1
10
135.998420
20
27.284823
11
135.871264
21
28.838908
0
LINE
8
Layer 1
10
135.871264
20
28.838908
11
135.620863
21
30.272088
0
LINE
8
Layer 1
10
135.620863
20
30.272088
11
134.923178
21
32.669330
0
LINE
8
Layer 1
10
134.923178
20
32.669330
11
134.251058
21
34.263736
0
LINE
8
Layer 1
10
134.251058
20
34.263736
11
133.950197
21
34.842497
0
LINE
8
Layer 1
10
133.950197
20
34.842497
11
135.665006
21
37.348195
0
LINE
8
Layer 1
10
135.665006
20
37.348195
11
136.932880
21
39.790545
0
LINE
8
Layer 1
10
136.932880
20
39.790545
11
137.800222
21
42.155983
0
LINE
8
Layer 1
10
137.800222
20
42.155983
11
138.313436
21
44.430942
0
LINE
8
Layer 1
10
138.313436
20
44.430942
11
138.518926
21
46.601859
0
LINE
8
Layer 1
10
138.518926
20
46.601859
11
138.463096
21
48.655167
0
LINE
8
Layer 1
10
138.463096
20
48.655167
11
138.192349
21
50.577302
0
LINE
8
Layer 1
10
138.192349
20
50.577302
11
137.753089
21
52.354700
0
LINE
8
Layer 1
10
137.753089
20
52.354700
11
136.554645
21
55.421019
0
LINE
8
Layer 1
10
136.554645
20
55.421019
11
135.238996
21
57.745606
0
LINE
8
Layer 1
10
135.238996
20
57.745606
11
134.177371
21
59.219940
0
LINE
8
Layer 1
10
134.177371
20
59.219940
11
133.741000
21
59.735500
0
LINE
8
Layer 1
10
133.741000
20
59.735500
11
133.741000
21
59.735500
 0 
ENDSEC
 0 
EOF