<?xml version="1.0" encoding="UTF-8" standalone="no"?>
<!-- Created with Inkscape (http://www.inkscape.org/) -->

<svg
   version="1.1"
   id="svg1"
   width="960"
   height="960"
   viewBox="0 0 960 960"
   sodipodi:docname="Brain_cross_PCB_1_inkscape.svg"
   inkscape:version="1.3.1 (91b66b0783, 2023-11-16)"
   xmlns:inkscape="http://www.inkscape.org/namespaces/inkscape"
   xmlns:sodipodi="http://sodipodi.sourceforge.net/DTD/sodipodi-0.dtd"
   xmlns="http://www.w3.org/2000/svg"
   xmlns:svg="http://www.w3.org/2000/svg">
  <defs
     id="defs1">
    <clipPath
       clipPathUnits="userSpaceOnUse"
       id="clipPath2">
      <path
         d="M 0,720 H 720 V 0 H 0 Z"
         transform="translate(-466.28121,-500.85841)"
         id="path2" />
    </clipPath>
  </defs>
  <sodipodi:namedview
     id="namedview1"
     pagecolor="#ffffff"
     bordercolor="#000000"
     borderopacity="0.25"
     inkscape:showpageshadow="2"
     inkscape:pageopacity="0.0"
     inkscape:pagecheckerboard="0"
     inkscape:deskcolor="#d1d1d1"
     inkscape:zoom="0.81979167"
     inkscape:cx="479.39009"
     inkscape:cy="382.41423"
     inkscape:window-width="1920"
     inkscape:window-height="1001"
     inkscape:window-x="-9"
     inkscape:window-y="-9"
     inkscape:window-maximized="1"
     inkscape:current-layer="layer-MC0">
    <inkscape:page
       x="0"
       y="0"
       inkscape:label="1"
       id="page1"
       width="960"
       height="960"
       margin="455.35999 330.02802 9.149333 4.6381865"
       bleed="0" />
  </sodipodi:namedview>
  <g
     id="layer-MC0"
     inkscape:groupmode="layer"
     inkscape:label="Layer 1">
    <path
       id="path1"
       d="m 0,0 c 12.529,48.139 -14.508,57.372 -14.508,57.372 6.595,45.501 -20.443,49.458 -20.443,49.458 -3.297,36.929 -32.972,26.378 -32.972,26.378 -10.551,43.523 -45.501,46.82 -45.501,46.82 -14.508,23.08 -47.48,13.848 -47.48,13.848 -29.016,25.719 -62.648,6.595 -62.648,6.595 -15.826,17.145 -31.653,0 -31.653,0 -60.669,31.653 -112.765,-13.189 -112.765,-13.189 -46.82,0 -54.734,-33.632 -54.734,-33.632 -53.415,-21.761 -35.609,-71.879 -35.609,-71.879 -13.189,-29.675 10.55,-53.415 10.55,-53.415 -4.615,-24.399 34.951,-38.907 34.951,-38.907 14.508,-20.443 52.096,-21.762 52.096,-21.762 -6.524,-36.131 19.791,-40.947 32.744,-41.186 V 40.35 h 9 V -77.129 c 24.985,-40.417 90.669,-0.685 90.669,-0.685 1.719,-1.571 3.385,-2.82 4.985,-3.804 V 58.806 h 4.536 V -83.812 c 8.712,-3.078 14.55,1.381 14.55,1.381 -1.783,-16.486 13.652,-22.421 13.652,-22.421 -9.891,-30.334 27.038,-36.928 27.038,-36.928 15.213,-6.504 28.64,-10.052 40.449,-11.501 V 40.35 h 9 v -194.354 c 48.407,-1.746 65.953,33.326 65.953,33.326 21.762,9.232 11.211,31.653 11.211,31.653 C 11.21,-74.517 -5.275,-47.48 -5.275,-47.48 15.826,-19.124 0,0 0,0 Z"
       style="fill:none;stroke:#231f20;stroke-width:1;stroke-linecap:butt;stroke-linejoin:miter;stroke-miterlimit:10;stroke-dasharray:none;stroke-opacity:1"
       transform="matrix(1.3333333,0,0,-1.3333333,621.70827,292.1888)"
       clip-path="url(#clipPath2)" />
  </g>
</svg>
