<?xml version="1.0" encoding="utf-8"?>
<!-- Generator: Adobe Adobe Illustrator 24.2.0, SVG Export Plug-In . SVG Version: 6.00 Build 0)  -->
<svg version="1.1" id="Layer_1" xmlns="http://www.w3.org/2000/svg" xmlns:xlink="http://www.w3.org/1999/xlink" x="0px" y="0px"
	 width="720px" height="720px" viewBox="0 0 720 720" style="enable-background:new 0 0 720 720;" xml:space="preserve">
<style type="text/css">
	.st0{fill:none;stroke:#231F20;stroke-miterlimit:10;stroke-dasharray:0,0,0,0,0,0;}
</style>
<g>
	<g>
		<path class="st0" d="M466.28,219.14c12.53-48.14-14.51-57.37-14.51-57.37c6.59-45.5-20.44-49.46-20.44-49.46
			c-3.3-36.93-32.97-26.38-32.97-26.38c-10.55-43.52-45.5-46.82-45.5-46.82c-14.51-23.08-47.48-13.85-47.48-13.85
			c-29.02-25.72-62.65-6.59-62.65-6.59c-15.83-17.15-31.65,0-31.65,0C150.41-12.98,98.31,31.86,98.31,31.86
			c-46.82,0-54.73,33.63-54.73,33.63C-9.84,87.25,7.97,137.37,7.97,137.37c-13.19,29.67,10.55,53.41,10.55,53.41
			c-4.62,24.4,34.95,38.91,34.95,38.91c14.51,20.44,52.1,21.76,52.1,21.76c-6.52,36.13,19.79,40.95,32.74,41.19V178.79h9v117.48
			c24.98,40.42,90.67,0.69,90.67,0.69c1.72,1.57,3.38,2.82,4.98,3.8V160.34h4.54v142.62c8.71,3.08,14.55-1.38,14.55-1.38
			c-1.78,16.49,13.65,22.42,13.65,22.42c-9.89,30.33,27.04,36.93,27.04,36.93c15.21,6.5,28.64,10.05,40.45,11.5V178.79h9v194.35
			c48.41,1.75,65.95-33.33,65.95-33.33c21.76-9.23,11.21-31.65,11.21-31.65c48.14-14.51,31.65-41.54,31.65-41.54
			C482.11,238.27,466.28,219.14,466.28,219.14z"/>
	</g>
</g>
</svg>
