M48
;GenerationSoftware,Autodesk,EAGLE,9.6.2*%
;CreationDate,2024-02-04T19:17:30Z*%
FMAT,2
ICI,OFF
METRIC,TZ,000.000
T2C0.600
T1C1.016
%
G90
M71
T1
X75946Y7493
X83566Y7493
X81026Y7493
X78486Y7493
T2
X117196Y48514
X132512Y53518
X128651Y67666
X114071Y82982
X105232Y90576
X108153Y74473
X121539Y61951
X111404Y23774
X89281Y30734
X90576Y56185
X82906Y71399
X86004Y82931
X77191Y95606
X78410Y70891
X80899Y40335
X64338Y30226
X59360Y9296
X52502Y26899
X55016Y52375
X63830Y71501
X57531Y78994
X63906Y95479
X50495Y95682
X38964Y50571
X32512Y36500
X39040Y18771
X26391Y10566
X9881Y20676
X16916Y35890
X13106Y57429
X32029Y59233
X37160Y79019
X30226Y93040
X22454Y83515
X21184Y65786
X107010Y45390
X88646Y15494
X68580Y77851
X68301Y26975
X13056Y68402
X23241Y77191
X35941Y95580
X35154Y76556
X38938Y62535
X25654Y47396
X11074Y40919
X26340Y38405
X17882Y29469
X21285Y16053
X35230Y8484
X36576Y31445
X47727Y19888
X61925Y14834
X57455Y27610
X49936Y42875
X62586Y55601
X51156Y70891
X58801Y83414
X55626Y101143
X73304Y42723
X79096Y56896
X74092Y68326
X83464Y97384
X90983Y80264
X81661Y20599
X81026Y31394
X99924Y46507
X105502Y58090
X110871Y69723
X103759Y96063
X117881Y85979
X125400Y75184
X131420Y67158
X113894Y51105
X129159Y42240
X88544Y60071
X115900Y6680
X105715Y23774
X80620Y15164
X90678Y15494
X73660Y77470
X73152Y26670
X15240Y64770
X106959Y10998
X117069Y14884
X127381Y29566
X117729Y31928
M30