G04 EAGLE Gerber RS-274X export*
G75*
%MOMM*%
%FSLAX34Y34*%
%LPD*%
%INSolderpaste Top*%
%IPPOS*%
%AMOC8*
5,1,8,0,0,1.08239X$1,22.5*%
G01*
%ADD10R,0.850000X1.900000*%
%ADD11R,0.850000X1.000000*%
%ADD12R,0.850000X1.150000*%
%ADD13R,0.850000X2.000000*%
%ADD14R,1.900000X0.850000*%
%ADD15R,1.000000X0.850000*%
%ADD16R,1.150000X0.850000*%
%ADD17R,2.000000X0.850000*%


D10*
X834250Y168800D03*
D11*
X816750Y164300D03*
D12*
X834250Y190550D03*
D13*
X816750Y186300D03*
D14*
X1045100Y727850D03*
D15*
X1040600Y745350D03*
D16*
X1066850Y727850D03*
D17*
X1062600Y745350D03*
D10*
X1197750Y656700D03*
D11*
X1215250Y661200D03*
D12*
X1197750Y634950D03*
D13*
X1215250Y639200D03*
D10*
X1045350Y504300D03*
D11*
X1062850Y508800D03*
D12*
X1045350Y482550D03*
D13*
X1062850Y486800D03*
D10*
X1096150Y275700D03*
D11*
X1113650Y280200D03*
D12*
X1096150Y253950D03*
D13*
X1113650Y258200D03*
D10*
X910450Y270400D03*
D11*
X892950Y265900D03*
D12*
X910450Y292150D03*
D13*
X892950Y287900D03*
D10*
X923150Y524400D03*
D11*
X905650Y519900D03*
D12*
X923150Y546150D03*
D13*
X905650Y541900D03*
D10*
X846950Y676800D03*
D11*
X829450Y672300D03*
D12*
X846950Y698550D03*
D13*
X829450Y694300D03*
D14*
X898000Y846950D03*
D15*
X902500Y829450D03*
D16*
X876250Y846950D03*
D17*
X880500Y829450D03*
D14*
X809100Y973950D03*
D15*
X813600Y956450D03*
D16*
X787350Y973950D03*
D17*
X791600Y956450D03*
D10*
X765950Y745600D03*
D11*
X783450Y750100D03*
D12*
X765950Y723850D03*
D13*
X783450Y728100D03*
D14*
X1032400Y92850D03*
D15*
X1027900Y110350D03*
D16*
X1054150Y92850D03*
D17*
X1049900Y110350D03*
D10*
X791350Y440800D03*
D11*
X808850Y445300D03*
D12*
X791350Y419050D03*
D13*
X808850Y423300D03*
D10*
X626250Y339200D03*
D11*
X643750Y343700D03*
D12*
X626250Y317450D03*
D13*
X643750Y321700D03*
D14*
X631300Y110350D03*
D15*
X635800Y92850D03*
D16*
X609550Y110350D03*
D17*
X613800Y92850D03*
D10*
X542150Y232300D03*
D11*
X524650Y227800D03*
D12*
X542150Y254050D03*
D13*
X524650Y249800D03*
D10*
X567550Y486300D03*
D11*
X550050Y481800D03*
D12*
X567550Y508050D03*
D13*
X550050Y503800D03*
D10*
X656450Y676800D03*
D11*
X638950Y672300D03*
D12*
X656450Y698550D03*
D13*
X638950Y694300D03*
D10*
X592950Y753000D03*
D11*
X575450Y748500D03*
D12*
X592950Y774750D03*
D13*
X575450Y770500D03*
D10*
X656450Y918100D03*
D11*
X638950Y913600D03*
D12*
X656450Y939850D03*
D13*
X638950Y935600D03*
D14*
X542400Y973950D03*
D15*
X546900Y956450D03*
D16*
X520650Y973950D03*
D17*
X524900Y956450D03*
D10*
X372250Y542400D03*
D11*
X389750Y546900D03*
D12*
X372250Y520650D03*
D13*
X389750Y524900D03*
D14*
X1134000Y130950D03*
D15*
X1129500Y148450D03*
D16*
X1155750Y130950D03*
D17*
X1151500Y148450D03*
D10*
X308750Y402700D03*
D11*
X326250Y407200D03*
D12*
X308750Y380950D03*
D13*
X326250Y385200D03*
D10*
X372250Y224900D03*
D11*
X389750Y229400D03*
D12*
X372250Y203150D03*
D13*
X389750Y207400D03*
D14*
X301100Y123050D03*
D15*
X305600Y105550D03*
D16*
X279350Y123050D03*
D17*
X283600Y105550D03*
D14*
X136000Y224650D03*
D15*
X140500Y207150D03*
D16*
X114250Y224650D03*
D17*
X118500Y207150D03*
D10*
X186550Y321200D03*
D11*
X169050Y316700D03*
D12*
X186550Y342950D03*
D13*
X169050Y338700D03*
D10*
X148450Y537100D03*
D11*
X130950Y532600D03*
D12*
X148450Y558850D03*
D13*
X130950Y554600D03*
D14*
X283100Y575450D03*
D15*
X278600Y592950D03*
D16*
X304850Y575450D03*
D17*
X300600Y592950D03*
D10*
X389750Y753000D03*
D11*
X372250Y748500D03*
D12*
X389750Y774750D03*
D13*
X372250Y770500D03*
D14*
X339200Y948550D03*
D15*
X343700Y931050D03*
D16*
X317450Y948550D03*
D17*
X321700Y931050D03*
D10*
X207150Y872600D03*
D11*
X224650Y877100D03*
D12*
X207150Y850850D03*
D13*
X224650Y855100D03*
D10*
X1291450Y257700D03*
D11*
X1273950Y253200D03*
D12*
X1291450Y279450D03*
D13*
X1273950Y275200D03*
D10*
X194450Y694800D03*
D11*
X211950Y699300D03*
D12*
X194450Y673050D03*
D13*
X211950Y677300D03*
D10*
X1189850Y448200D03*
D11*
X1172350Y443700D03*
D12*
X1189850Y469950D03*
D13*
X1172350Y465700D03*
D10*
X1342250Y499000D03*
D11*
X1324750Y494500D03*
D12*
X1342250Y520750D03*
D13*
X1324750Y516500D03*
D10*
X1304150Y638700D03*
D11*
X1286650Y634200D03*
D12*
X1304150Y660450D03*
D13*
X1286650Y656200D03*
D14*
X1177400Y846950D03*
D15*
X1181900Y829450D03*
D16*
X1155650Y846950D03*
D17*
X1159900Y829450D03*
D14*
X1088500Y923150D03*
D15*
X1093000Y905650D03*
D16*
X1066750Y923150D03*
D17*
X1071000Y905650D03*
M02*
