G04 EAGLE Gerber RS-274X export*
G75*
%MOMM*%
%FSLAX34Y34*%
%LPD*%
%INSilkscreen Bottom*%
%IPPOS*%
%AMOC8*
5,1,8,0,0,1.08239X$1,22.5*%
G01*
%ADD10C,0.203200*%

G36*
X574288Y982682D02*
X574288Y982682D01*
X574376Y982691D01*
X574397Y982701D01*
X574421Y982705D01*
X574498Y982751D01*
X574577Y982790D01*
X574594Y982807D01*
X574614Y982820D01*
X574670Y982889D01*
X574731Y982953D01*
X574740Y982975D01*
X574755Y982994D01*
X574784Y983078D01*
X574819Y983160D01*
X574820Y983184D01*
X574827Y983206D01*
X574825Y983295D01*
X574829Y983384D01*
X574821Y983407D01*
X574821Y983431D01*
X574787Y983513D01*
X574760Y983598D01*
X574744Y983619D01*
X574736Y983638D01*
X574702Y983676D01*
X574648Y983748D01*
X564648Y993748D01*
X564575Y993799D01*
X564506Y993855D01*
X564484Y993863D01*
X564464Y993877D01*
X564378Y993899D01*
X564294Y993927D01*
X564270Y993927D01*
X564247Y993933D01*
X564158Y993923D01*
X564069Y993921D01*
X564047Y993912D01*
X564024Y993909D01*
X563944Y993870D01*
X563862Y993836D01*
X563844Y993820D01*
X563823Y993810D01*
X563762Y993745D01*
X563696Y993685D01*
X563685Y993664D01*
X563669Y993647D01*
X563634Y993565D01*
X563593Y993485D01*
X563590Y993459D01*
X563581Y993440D01*
X563579Y993390D01*
X563566Y993300D01*
X563566Y983300D01*
X563577Y983235D01*
X563579Y983169D01*
X563597Y983126D01*
X563605Y983079D01*
X563639Y983022D01*
X563664Y982962D01*
X563695Y982927D01*
X563720Y982886D01*
X563771Y982845D01*
X563815Y982796D01*
X563857Y982774D01*
X563894Y982745D01*
X563956Y982724D01*
X564015Y982693D01*
X564069Y982685D01*
X564106Y982673D01*
X564146Y982674D01*
X564200Y982666D01*
X574200Y982666D01*
X574288Y982682D01*
G37*
G36*
X853688Y944582D02*
X853688Y944582D01*
X853776Y944591D01*
X853797Y944601D01*
X853821Y944605D01*
X853898Y944651D01*
X853977Y944690D01*
X853994Y944707D01*
X854014Y944720D01*
X854070Y944789D01*
X854131Y944853D01*
X854140Y944875D01*
X854155Y944894D01*
X854184Y944978D01*
X854219Y945060D01*
X854220Y945084D01*
X854227Y945106D01*
X854225Y945195D01*
X854229Y945284D01*
X854221Y945307D01*
X854221Y945331D01*
X854187Y945413D01*
X854160Y945498D01*
X854144Y945519D01*
X854136Y945538D01*
X854102Y945576D01*
X854048Y945648D01*
X844048Y955648D01*
X843975Y955699D01*
X843906Y955755D01*
X843884Y955763D01*
X843864Y955777D01*
X843778Y955799D01*
X843694Y955827D01*
X843670Y955827D01*
X843647Y955833D01*
X843558Y955823D01*
X843469Y955821D01*
X843447Y955812D01*
X843424Y955809D01*
X843344Y955770D01*
X843262Y955736D01*
X843244Y955720D01*
X843223Y955710D01*
X843162Y955645D01*
X843096Y955585D01*
X843085Y955564D01*
X843069Y955547D01*
X843034Y955465D01*
X842993Y955385D01*
X842990Y955359D01*
X842981Y955340D01*
X842979Y955290D01*
X842966Y955200D01*
X842966Y945200D01*
X842977Y945135D01*
X842979Y945069D01*
X842997Y945026D01*
X843005Y944979D01*
X843039Y944922D01*
X843064Y944862D01*
X843095Y944827D01*
X843120Y944786D01*
X843171Y944745D01*
X843215Y944696D01*
X843257Y944674D01*
X843294Y944645D01*
X843356Y944624D01*
X843415Y944593D01*
X843469Y944585D01*
X843506Y944573D01*
X843546Y944574D01*
X843600Y944566D01*
X853600Y944566D01*
X853688Y944582D01*
G37*
G36*
X1056888Y931882D02*
X1056888Y931882D01*
X1056976Y931891D01*
X1056997Y931901D01*
X1057021Y931905D01*
X1057098Y931951D01*
X1057177Y931990D01*
X1057194Y932007D01*
X1057214Y932020D01*
X1057270Y932089D01*
X1057331Y932153D01*
X1057340Y932175D01*
X1057355Y932194D01*
X1057384Y932278D01*
X1057419Y932360D01*
X1057420Y932384D01*
X1057427Y932406D01*
X1057425Y932495D01*
X1057429Y932584D01*
X1057421Y932607D01*
X1057421Y932631D01*
X1057387Y932713D01*
X1057360Y932798D01*
X1057344Y932819D01*
X1057336Y932838D01*
X1057302Y932876D01*
X1057248Y932948D01*
X1047248Y942948D01*
X1047175Y942999D01*
X1047106Y943055D01*
X1047084Y943063D01*
X1047064Y943077D01*
X1046978Y943099D01*
X1046894Y943127D01*
X1046870Y943127D01*
X1046847Y943133D01*
X1046758Y943123D01*
X1046669Y943121D01*
X1046647Y943112D01*
X1046624Y943109D01*
X1046544Y943070D01*
X1046462Y943036D01*
X1046444Y943020D01*
X1046423Y943010D01*
X1046362Y942945D01*
X1046296Y942885D01*
X1046285Y942864D01*
X1046269Y942847D01*
X1046234Y942765D01*
X1046193Y942685D01*
X1046190Y942659D01*
X1046181Y942640D01*
X1046179Y942590D01*
X1046166Y942500D01*
X1046166Y932500D01*
X1046177Y932435D01*
X1046179Y932369D01*
X1046197Y932326D01*
X1046205Y932279D01*
X1046239Y932222D01*
X1046264Y932162D01*
X1046295Y932127D01*
X1046320Y932086D01*
X1046371Y932045D01*
X1046415Y931996D01*
X1046457Y931974D01*
X1046494Y931945D01*
X1046556Y931924D01*
X1046615Y931893D01*
X1046669Y931885D01*
X1046706Y931873D01*
X1046746Y931874D01*
X1046800Y931866D01*
X1056800Y931866D01*
X1056888Y931882D01*
G37*
G36*
X345688Y906482D02*
X345688Y906482D01*
X345776Y906491D01*
X345797Y906501D01*
X345821Y906505D01*
X345898Y906551D01*
X345977Y906590D01*
X345994Y906607D01*
X346014Y906620D01*
X346070Y906689D01*
X346131Y906753D01*
X346140Y906775D01*
X346155Y906794D01*
X346184Y906878D01*
X346219Y906960D01*
X346220Y906984D01*
X346227Y907006D01*
X346225Y907095D01*
X346229Y907184D01*
X346221Y907207D01*
X346221Y907231D01*
X346187Y907313D01*
X346160Y907398D01*
X346144Y907419D01*
X346136Y907438D01*
X346102Y907476D01*
X346048Y907548D01*
X336048Y917548D01*
X335975Y917599D01*
X335906Y917655D01*
X335884Y917663D01*
X335864Y917677D01*
X335778Y917699D01*
X335694Y917727D01*
X335670Y917727D01*
X335647Y917733D01*
X335558Y917723D01*
X335469Y917721D01*
X335447Y917712D01*
X335424Y917709D01*
X335344Y917670D01*
X335262Y917636D01*
X335244Y917620D01*
X335223Y917610D01*
X335162Y917545D01*
X335096Y917485D01*
X335085Y917464D01*
X335069Y917447D01*
X335034Y917365D01*
X334993Y917285D01*
X334990Y917259D01*
X334981Y917240D01*
X334979Y917190D01*
X334966Y917100D01*
X334966Y907100D01*
X334977Y907035D01*
X334979Y906969D01*
X334997Y906926D01*
X335005Y906879D01*
X335039Y906822D01*
X335064Y906762D01*
X335095Y906727D01*
X335120Y906686D01*
X335171Y906645D01*
X335215Y906596D01*
X335257Y906574D01*
X335294Y906545D01*
X335356Y906524D01*
X335415Y906493D01*
X335469Y906485D01*
X335506Y906473D01*
X335546Y906474D01*
X335600Y906466D01*
X345600Y906466D01*
X345688Y906482D01*
G37*
G36*
X616965Y842977D02*
X616965Y842977D01*
X617031Y842979D01*
X617074Y842997D01*
X617121Y843005D01*
X617178Y843039D01*
X617238Y843064D01*
X617273Y843095D01*
X617314Y843120D01*
X617356Y843171D01*
X617404Y843215D01*
X617426Y843257D01*
X617455Y843294D01*
X617476Y843356D01*
X617507Y843415D01*
X617515Y843469D01*
X617527Y843506D01*
X617526Y843546D01*
X617534Y843600D01*
X617534Y853600D01*
X617518Y853688D01*
X617509Y853776D01*
X617499Y853797D01*
X617495Y853821D01*
X617449Y853898D01*
X617410Y853977D01*
X617393Y853994D01*
X617380Y854014D01*
X617311Y854070D01*
X617247Y854131D01*
X617225Y854140D01*
X617206Y854155D01*
X617122Y854184D01*
X617040Y854219D01*
X617016Y854220D01*
X616994Y854227D01*
X616905Y854225D01*
X616816Y854229D01*
X616793Y854221D01*
X616769Y854221D01*
X616687Y854187D01*
X616602Y854160D01*
X616581Y854144D01*
X616562Y854136D01*
X616524Y854102D01*
X616452Y854048D01*
X606452Y844048D01*
X606401Y843975D01*
X606345Y843906D01*
X606337Y843884D01*
X606323Y843864D01*
X606301Y843778D01*
X606273Y843694D01*
X606273Y843670D01*
X606268Y843647D01*
X606277Y843558D01*
X606279Y843469D01*
X606288Y843447D01*
X606291Y843424D01*
X606330Y843344D01*
X606364Y843262D01*
X606380Y843244D01*
X606390Y843223D01*
X606455Y843162D01*
X606515Y843096D01*
X606536Y843085D01*
X606553Y843069D01*
X606635Y843034D01*
X606715Y842993D01*
X606741Y842990D01*
X606760Y842981D01*
X606810Y842979D01*
X606900Y842966D01*
X616900Y842966D01*
X616965Y842977D01*
G37*
G36*
X1196588Y830282D02*
X1196588Y830282D01*
X1196676Y830291D01*
X1196697Y830301D01*
X1196721Y830305D01*
X1196798Y830351D01*
X1196877Y830390D01*
X1196894Y830407D01*
X1196914Y830420D01*
X1196970Y830489D01*
X1197031Y830553D01*
X1197040Y830575D01*
X1197055Y830594D01*
X1197084Y830678D01*
X1197119Y830760D01*
X1197120Y830784D01*
X1197127Y830806D01*
X1197125Y830895D01*
X1197129Y830984D01*
X1197121Y831007D01*
X1197121Y831031D01*
X1197087Y831113D01*
X1197060Y831198D01*
X1197044Y831219D01*
X1197036Y831238D01*
X1197002Y831276D01*
X1196948Y831348D01*
X1186948Y841348D01*
X1186875Y841399D01*
X1186806Y841455D01*
X1186784Y841463D01*
X1186764Y841477D01*
X1186678Y841499D01*
X1186594Y841527D01*
X1186570Y841527D01*
X1186547Y841533D01*
X1186458Y841523D01*
X1186369Y841521D01*
X1186347Y841512D01*
X1186324Y841509D01*
X1186244Y841470D01*
X1186162Y841436D01*
X1186144Y841420D01*
X1186123Y841410D01*
X1186062Y841345D01*
X1185996Y841285D01*
X1185985Y841264D01*
X1185969Y841247D01*
X1185934Y841165D01*
X1185893Y841085D01*
X1185890Y841059D01*
X1185881Y841040D01*
X1185879Y840990D01*
X1185866Y840900D01*
X1185866Y830900D01*
X1185877Y830835D01*
X1185879Y830769D01*
X1185897Y830726D01*
X1185905Y830679D01*
X1185939Y830622D01*
X1185964Y830562D01*
X1185995Y830527D01*
X1186020Y830486D01*
X1186071Y830445D01*
X1186115Y830396D01*
X1186157Y830374D01*
X1186194Y830345D01*
X1186256Y830324D01*
X1186315Y830293D01*
X1186369Y830285D01*
X1186406Y830273D01*
X1186446Y830274D01*
X1186500Y830266D01*
X1196500Y830266D01*
X1196588Y830282D01*
G37*
G36*
X881807Y784079D02*
X881807Y784079D01*
X881831Y784079D01*
X881913Y784113D01*
X881998Y784140D01*
X882019Y784156D01*
X882038Y784164D01*
X882076Y784198D01*
X882148Y784252D01*
X892148Y794252D01*
X892199Y794325D01*
X892255Y794394D01*
X892263Y794416D01*
X892277Y794436D01*
X892299Y794522D01*
X892327Y794606D01*
X892327Y794630D01*
X892333Y794653D01*
X892323Y794742D01*
X892321Y794831D01*
X892312Y794853D01*
X892309Y794876D01*
X892270Y794956D01*
X892236Y795038D01*
X892220Y795056D01*
X892210Y795077D01*
X892145Y795138D01*
X892085Y795204D01*
X892064Y795215D01*
X892047Y795231D01*
X891965Y795266D01*
X891885Y795307D01*
X891859Y795310D01*
X891840Y795319D01*
X891790Y795321D01*
X891700Y795334D01*
X881700Y795334D01*
X881635Y795323D01*
X881569Y795321D01*
X881526Y795303D01*
X881479Y795295D01*
X881422Y795261D01*
X881362Y795236D01*
X881327Y795205D01*
X881286Y795180D01*
X881245Y795129D01*
X881196Y795085D01*
X881174Y795043D01*
X881145Y795006D01*
X881124Y794944D01*
X881093Y794885D01*
X881085Y794831D01*
X881073Y794794D01*
X881074Y794754D01*
X881066Y794700D01*
X881066Y784700D01*
X881082Y784612D01*
X881091Y784524D01*
X881101Y784503D01*
X881105Y784479D01*
X881151Y784402D01*
X881190Y784323D01*
X881207Y784306D01*
X881220Y784286D01*
X881289Y784230D01*
X881353Y784169D01*
X881375Y784160D01*
X881394Y784145D01*
X881478Y784116D01*
X881560Y784081D01*
X881584Y784080D01*
X881606Y784073D01*
X881695Y784075D01*
X881784Y784071D01*
X881807Y784079D01*
G37*
G36*
X261365Y779477D02*
X261365Y779477D01*
X261431Y779479D01*
X261474Y779497D01*
X261521Y779505D01*
X261578Y779539D01*
X261638Y779564D01*
X261673Y779595D01*
X261714Y779620D01*
X261756Y779671D01*
X261804Y779715D01*
X261826Y779757D01*
X261855Y779794D01*
X261876Y779856D01*
X261907Y779915D01*
X261915Y779969D01*
X261927Y780006D01*
X261926Y780046D01*
X261934Y780100D01*
X261934Y790100D01*
X261918Y790188D01*
X261909Y790276D01*
X261899Y790297D01*
X261895Y790321D01*
X261849Y790398D01*
X261810Y790477D01*
X261793Y790494D01*
X261780Y790514D01*
X261711Y790570D01*
X261647Y790631D01*
X261625Y790640D01*
X261606Y790655D01*
X261522Y790684D01*
X261440Y790719D01*
X261416Y790720D01*
X261394Y790727D01*
X261305Y790725D01*
X261216Y790729D01*
X261193Y790721D01*
X261169Y790721D01*
X261087Y790687D01*
X261002Y790660D01*
X260981Y790644D01*
X260962Y790636D01*
X260924Y790602D01*
X260852Y790548D01*
X250852Y780548D01*
X250801Y780475D01*
X250745Y780406D01*
X250737Y780384D01*
X250723Y780364D01*
X250701Y780278D01*
X250673Y780194D01*
X250673Y780170D01*
X250668Y780147D01*
X250677Y780058D01*
X250679Y779969D01*
X250688Y779947D01*
X250691Y779924D01*
X250730Y779844D01*
X250764Y779762D01*
X250780Y779744D01*
X250790Y779723D01*
X250855Y779662D01*
X250915Y779596D01*
X250936Y779585D01*
X250953Y779569D01*
X251035Y779534D01*
X251115Y779493D01*
X251141Y779490D01*
X251160Y779481D01*
X251210Y779479D01*
X251300Y779466D01*
X261300Y779466D01*
X261365Y779477D01*
G37*
G36*
X323007Y745979D02*
X323007Y745979D01*
X323031Y745979D01*
X323113Y746013D01*
X323198Y746040D01*
X323219Y746056D01*
X323238Y746064D01*
X323276Y746098D01*
X323348Y746152D01*
X333348Y756152D01*
X333399Y756225D01*
X333455Y756294D01*
X333463Y756316D01*
X333477Y756336D01*
X333499Y756422D01*
X333527Y756506D01*
X333527Y756530D01*
X333533Y756553D01*
X333523Y756642D01*
X333521Y756731D01*
X333512Y756753D01*
X333509Y756776D01*
X333470Y756856D01*
X333436Y756938D01*
X333420Y756956D01*
X333410Y756977D01*
X333345Y757038D01*
X333285Y757104D01*
X333264Y757115D01*
X333247Y757131D01*
X333165Y757166D01*
X333085Y757207D01*
X333059Y757210D01*
X333040Y757219D01*
X332990Y757221D01*
X332900Y757234D01*
X322900Y757234D01*
X322835Y757223D01*
X322769Y757221D01*
X322726Y757203D01*
X322679Y757195D01*
X322622Y757161D01*
X322562Y757136D01*
X322527Y757105D01*
X322486Y757080D01*
X322445Y757029D01*
X322396Y756985D01*
X322374Y756943D01*
X322345Y756906D01*
X322324Y756844D01*
X322293Y756785D01*
X322285Y756731D01*
X322273Y756694D01*
X322274Y756654D01*
X322266Y756600D01*
X322266Y746600D01*
X322282Y746512D01*
X322291Y746424D01*
X322301Y746403D01*
X322305Y746379D01*
X322351Y746302D01*
X322390Y746223D01*
X322407Y746206D01*
X322420Y746186D01*
X322489Y746130D01*
X322553Y746069D01*
X322575Y746060D01*
X322594Y746045D01*
X322678Y746016D01*
X322760Y745981D01*
X322784Y745980D01*
X322806Y745973D01*
X322895Y745975D01*
X322984Y745971D01*
X323007Y745979D01*
G37*
G36*
X1224707Y733279D02*
X1224707Y733279D01*
X1224731Y733279D01*
X1224813Y733313D01*
X1224898Y733340D01*
X1224919Y733356D01*
X1224938Y733364D01*
X1224976Y733398D01*
X1225048Y733452D01*
X1235048Y743452D01*
X1235099Y743525D01*
X1235155Y743594D01*
X1235163Y743616D01*
X1235177Y743636D01*
X1235199Y743722D01*
X1235227Y743806D01*
X1235227Y743830D01*
X1235233Y743853D01*
X1235223Y743942D01*
X1235221Y744031D01*
X1235212Y744053D01*
X1235209Y744076D01*
X1235170Y744156D01*
X1235136Y744238D01*
X1235120Y744256D01*
X1235110Y744277D01*
X1235045Y744338D01*
X1234985Y744404D01*
X1234964Y744415D01*
X1234947Y744431D01*
X1234865Y744466D01*
X1234785Y744507D01*
X1234759Y744510D01*
X1234740Y744519D01*
X1234690Y744521D01*
X1234600Y744534D01*
X1224600Y744534D01*
X1224535Y744523D01*
X1224469Y744521D01*
X1224426Y744503D01*
X1224379Y744495D01*
X1224322Y744461D01*
X1224262Y744436D01*
X1224227Y744405D01*
X1224186Y744380D01*
X1224145Y744329D01*
X1224096Y744285D01*
X1224074Y744243D01*
X1224045Y744206D01*
X1224024Y744144D01*
X1223993Y744085D01*
X1223985Y744031D01*
X1223973Y743994D01*
X1223974Y743954D01*
X1223966Y743900D01*
X1223966Y733900D01*
X1223982Y733812D01*
X1223991Y733724D01*
X1224001Y733703D01*
X1224005Y733679D01*
X1224051Y733602D01*
X1224090Y733523D01*
X1224107Y733506D01*
X1224120Y733486D01*
X1224189Y733430D01*
X1224253Y733369D01*
X1224275Y733360D01*
X1224294Y733345D01*
X1224378Y733316D01*
X1224460Y733281D01*
X1224484Y733280D01*
X1224506Y733273D01*
X1224595Y733275D01*
X1224684Y733271D01*
X1224707Y733279D01*
G37*
G36*
X540765Y715977D02*
X540765Y715977D01*
X540831Y715979D01*
X540874Y715997D01*
X540921Y716005D01*
X540978Y716039D01*
X541038Y716064D01*
X541073Y716095D01*
X541114Y716120D01*
X541156Y716171D01*
X541204Y716215D01*
X541226Y716257D01*
X541255Y716294D01*
X541276Y716356D01*
X541307Y716415D01*
X541315Y716469D01*
X541327Y716506D01*
X541326Y716546D01*
X541334Y716600D01*
X541334Y726600D01*
X541318Y726688D01*
X541309Y726776D01*
X541299Y726797D01*
X541295Y726821D01*
X541249Y726898D01*
X541210Y726977D01*
X541193Y726994D01*
X541180Y727014D01*
X541111Y727070D01*
X541047Y727131D01*
X541025Y727140D01*
X541006Y727155D01*
X540922Y727184D01*
X540840Y727219D01*
X540816Y727220D01*
X540794Y727227D01*
X540705Y727225D01*
X540616Y727229D01*
X540593Y727221D01*
X540569Y727221D01*
X540487Y727187D01*
X540402Y727160D01*
X540381Y727144D01*
X540362Y727136D01*
X540324Y727102D01*
X540252Y727048D01*
X530252Y717048D01*
X530201Y716975D01*
X530145Y716906D01*
X530137Y716884D01*
X530123Y716864D01*
X530101Y716778D01*
X530073Y716694D01*
X530073Y716670D01*
X530068Y716647D01*
X530077Y716558D01*
X530079Y716469D01*
X530088Y716447D01*
X530091Y716424D01*
X530130Y716344D01*
X530164Y716262D01*
X530180Y716244D01*
X530190Y716223D01*
X530255Y716162D01*
X530315Y716096D01*
X530336Y716085D01*
X530353Y716069D01*
X530435Y716034D01*
X530515Y715993D01*
X530541Y715990D01*
X530560Y715981D01*
X530610Y715979D01*
X530700Y715966D01*
X540700Y715966D01*
X540765Y715977D01*
G37*
G36*
X1137665Y703277D02*
X1137665Y703277D01*
X1137731Y703279D01*
X1137774Y703297D01*
X1137821Y703305D01*
X1137878Y703339D01*
X1137938Y703364D01*
X1137973Y703395D01*
X1138014Y703420D01*
X1138056Y703471D01*
X1138104Y703515D01*
X1138126Y703557D01*
X1138155Y703594D01*
X1138176Y703656D01*
X1138207Y703715D01*
X1138215Y703769D01*
X1138227Y703806D01*
X1138226Y703846D01*
X1138234Y703900D01*
X1138234Y713900D01*
X1138218Y713988D01*
X1138209Y714076D01*
X1138199Y714097D01*
X1138195Y714121D01*
X1138149Y714198D01*
X1138110Y714277D01*
X1138093Y714294D01*
X1138080Y714314D01*
X1138011Y714370D01*
X1137947Y714431D01*
X1137925Y714440D01*
X1137906Y714455D01*
X1137822Y714484D01*
X1137740Y714519D01*
X1137716Y714520D01*
X1137694Y714527D01*
X1137605Y714525D01*
X1137516Y714529D01*
X1137493Y714521D01*
X1137469Y714521D01*
X1137387Y714487D01*
X1137302Y714460D01*
X1137281Y714444D01*
X1137262Y714436D01*
X1137224Y714402D01*
X1137152Y714348D01*
X1127152Y704348D01*
X1127101Y704275D01*
X1127045Y704206D01*
X1127037Y704184D01*
X1127023Y704164D01*
X1127001Y704078D01*
X1126973Y703994D01*
X1126973Y703970D01*
X1126968Y703947D01*
X1126977Y703858D01*
X1126979Y703769D01*
X1126988Y703747D01*
X1126991Y703724D01*
X1127030Y703644D01*
X1127064Y703562D01*
X1127080Y703544D01*
X1127090Y703523D01*
X1127155Y703462D01*
X1127215Y703396D01*
X1127236Y703385D01*
X1127253Y703369D01*
X1127335Y703334D01*
X1127415Y703293D01*
X1127441Y703290D01*
X1127460Y703281D01*
X1127510Y703279D01*
X1127600Y703266D01*
X1137600Y703266D01*
X1137665Y703277D01*
G37*
G36*
X769365Y690577D02*
X769365Y690577D01*
X769431Y690579D01*
X769474Y690597D01*
X769521Y690605D01*
X769578Y690639D01*
X769638Y690664D01*
X769673Y690695D01*
X769714Y690720D01*
X769756Y690771D01*
X769804Y690815D01*
X769826Y690857D01*
X769855Y690894D01*
X769876Y690956D01*
X769907Y691015D01*
X769915Y691069D01*
X769927Y691106D01*
X769926Y691146D01*
X769934Y691200D01*
X769934Y701200D01*
X769918Y701288D01*
X769909Y701376D01*
X769899Y701397D01*
X769895Y701421D01*
X769849Y701498D01*
X769810Y701577D01*
X769793Y701594D01*
X769780Y701614D01*
X769711Y701670D01*
X769647Y701731D01*
X769625Y701740D01*
X769606Y701755D01*
X769522Y701784D01*
X769440Y701819D01*
X769416Y701820D01*
X769394Y701827D01*
X769305Y701825D01*
X769216Y701829D01*
X769193Y701821D01*
X769169Y701821D01*
X769087Y701787D01*
X769002Y701760D01*
X768981Y701744D01*
X768962Y701736D01*
X768924Y701702D01*
X768852Y701648D01*
X758852Y691648D01*
X758801Y691575D01*
X758745Y691506D01*
X758737Y691484D01*
X758723Y691464D01*
X758701Y691378D01*
X758673Y691294D01*
X758673Y691270D01*
X758668Y691247D01*
X758677Y691158D01*
X758679Y691069D01*
X758688Y691047D01*
X758691Y691024D01*
X758730Y690944D01*
X758764Y690862D01*
X758780Y690844D01*
X758790Y690823D01*
X758855Y690762D01*
X758915Y690696D01*
X758936Y690685D01*
X758953Y690669D01*
X759035Y690634D01*
X759115Y690593D01*
X759141Y690590D01*
X759160Y690581D01*
X759210Y690579D01*
X759300Y690566D01*
X769300Y690566D01*
X769365Y690577D01*
G37*
G36*
X159765Y690577D02*
X159765Y690577D01*
X159831Y690579D01*
X159874Y690597D01*
X159921Y690605D01*
X159978Y690639D01*
X160038Y690664D01*
X160073Y690695D01*
X160114Y690720D01*
X160156Y690771D01*
X160204Y690815D01*
X160226Y690857D01*
X160255Y690894D01*
X160276Y690956D01*
X160307Y691015D01*
X160315Y691069D01*
X160327Y691106D01*
X160326Y691146D01*
X160334Y691200D01*
X160334Y701200D01*
X160318Y701288D01*
X160309Y701376D01*
X160299Y701397D01*
X160295Y701421D01*
X160249Y701498D01*
X160210Y701577D01*
X160193Y701594D01*
X160180Y701614D01*
X160111Y701670D01*
X160047Y701731D01*
X160025Y701740D01*
X160006Y701755D01*
X159922Y701784D01*
X159840Y701819D01*
X159816Y701820D01*
X159794Y701827D01*
X159705Y701825D01*
X159616Y701829D01*
X159593Y701821D01*
X159569Y701821D01*
X159487Y701787D01*
X159402Y701760D01*
X159381Y701744D01*
X159362Y701736D01*
X159324Y701702D01*
X159252Y701648D01*
X149252Y691648D01*
X149201Y691575D01*
X149145Y691506D01*
X149137Y691484D01*
X149123Y691464D01*
X149101Y691378D01*
X149073Y691294D01*
X149073Y691270D01*
X149068Y691247D01*
X149077Y691158D01*
X149079Y691069D01*
X149088Y691047D01*
X149091Y691024D01*
X149130Y690944D01*
X149164Y690862D01*
X149180Y690844D01*
X149190Y690823D01*
X149255Y690762D01*
X149315Y690696D01*
X149336Y690685D01*
X149353Y690669D01*
X149435Y690634D01*
X149515Y690593D01*
X149541Y690590D01*
X149560Y690581D01*
X149610Y690579D01*
X149700Y690566D01*
X159700Y690566D01*
X159765Y690577D01*
G37*
G36*
X1275507Y644379D02*
X1275507Y644379D01*
X1275531Y644379D01*
X1275613Y644413D01*
X1275698Y644440D01*
X1275719Y644456D01*
X1275738Y644464D01*
X1275776Y644498D01*
X1275848Y644552D01*
X1285848Y654552D01*
X1285899Y654625D01*
X1285955Y654694D01*
X1285963Y654716D01*
X1285977Y654736D01*
X1285999Y654822D01*
X1286027Y654906D01*
X1286027Y654930D01*
X1286033Y654953D01*
X1286023Y655042D01*
X1286021Y655131D01*
X1286012Y655153D01*
X1286009Y655176D01*
X1285970Y655256D01*
X1285936Y655338D01*
X1285920Y655356D01*
X1285910Y655377D01*
X1285845Y655438D01*
X1285785Y655504D01*
X1285764Y655515D01*
X1285747Y655531D01*
X1285665Y655566D01*
X1285585Y655607D01*
X1285559Y655610D01*
X1285540Y655619D01*
X1285490Y655621D01*
X1285400Y655634D01*
X1275400Y655634D01*
X1275335Y655623D01*
X1275269Y655621D01*
X1275226Y655603D01*
X1275179Y655595D01*
X1275122Y655561D01*
X1275062Y655536D01*
X1275027Y655505D01*
X1274986Y655480D01*
X1274945Y655429D01*
X1274896Y655385D01*
X1274874Y655343D01*
X1274845Y655306D01*
X1274824Y655244D01*
X1274793Y655185D01*
X1274785Y655131D01*
X1274773Y655094D01*
X1274774Y655054D01*
X1274766Y655000D01*
X1274766Y645000D01*
X1274782Y644912D01*
X1274791Y644824D01*
X1274801Y644803D01*
X1274805Y644779D01*
X1274851Y644702D01*
X1274890Y644623D01*
X1274907Y644606D01*
X1274920Y644586D01*
X1274989Y644530D01*
X1275053Y644469D01*
X1275075Y644460D01*
X1275094Y644445D01*
X1275178Y644416D01*
X1275260Y644381D01*
X1275284Y644380D01*
X1275306Y644373D01*
X1275395Y644375D01*
X1275484Y644371D01*
X1275507Y644379D01*
G37*
G36*
X361107Y606279D02*
X361107Y606279D01*
X361131Y606279D01*
X361213Y606313D01*
X361298Y606340D01*
X361319Y606356D01*
X361338Y606364D01*
X361376Y606398D01*
X361448Y606452D01*
X371448Y616452D01*
X371499Y616525D01*
X371555Y616594D01*
X371563Y616616D01*
X371577Y616636D01*
X371599Y616722D01*
X371627Y616806D01*
X371627Y616830D01*
X371633Y616853D01*
X371623Y616942D01*
X371621Y617031D01*
X371612Y617053D01*
X371609Y617076D01*
X371570Y617156D01*
X371536Y617238D01*
X371520Y617256D01*
X371510Y617277D01*
X371445Y617338D01*
X371385Y617404D01*
X371364Y617415D01*
X371347Y617431D01*
X371265Y617466D01*
X371185Y617507D01*
X371159Y617510D01*
X371140Y617519D01*
X371090Y617521D01*
X371000Y617534D01*
X361000Y617534D01*
X360935Y617523D01*
X360869Y617521D01*
X360826Y617503D01*
X360779Y617495D01*
X360722Y617461D01*
X360662Y617436D01*
X360627Y617405D01*
X360586Y617380D01*
X360545Y617329D01*
X360496Y617285D01*
X360474Y617243D01*
X360445Y617206D01*
X360424Y617144D01*
X360393Y617085D01*
X360385Y617031D01*
X360373Y616994D01*
X360374Y616954D01*
X360366Y616900D01*
X360366Y606900D01*
X360382Y606812D01*
X360391Y606724D01*
X360401Y606703D01*
X360405Y606679D01*
X360451Y606602D01*
X360490Y606523D01*
X360507Y606506D01*
X360520Y606486D01*
X360589Y606430D01*
X360653Y606369D01*
X360675Y606360D01*
X360694Y606345D01*
X360778Y606316D01*
X360860Y606281D01*
X360884Y606280D01*
X360906Y606273D01*
X360995Y606275D01*
X361084Y606271D01*
X361107Y606279D01*
G37*
G36*
X1086865Y588977D02*
X1086865Y588977D01*
X1086931Y588979D01*
X1086974Y588997D01*
X1087021Y589005D01*
X1087078Y589039D01*
X1087138Y589064D01*
X1087173Y589095D01*
X1087214Y589120D01*
X1087256Y589171D01*
X1087304Y589215D01*
X1087326Y589257D01*
X1087355Y589294D01*
X1087376Y589356D01*
X1087407Y589415D01*
X1087415Y589469D01*
X1087427Y589506D01*
X1087426Y589546D01*
X1087434Y589600D01*
X1087434Y599600D01*
X1087418Y599688D01*
X1087409Y599776D01*
X1087399Y599797D01*
X1087395Y599821D01*
X1087349Y599898D01*
X1087310Y599977D01*
X1087293Y599994D01*
X1087280Y600014D01*
X1087211Y600070D01*
X1087147Y600131D01*
X1087125Y600140D01*
X1087106Y600155D01*
X1087022Y600184D01*
X1086940Y600219D01*
X1086916Y600220D01*
X1086894Y600227D01*
X1086805Y600225D01*
X1086716Y600229D01*
X1086693Y600221D01*
X1086669Y600221D01*
X1086587Y600187D01*
X1086502Y600160D01*
X1086481Y600144D01*
X1086462Y600136D01*
X1086424Y600102D01*
X1086352Y600048D01*
X1076352Y590048D01*
X1076301Y589975D01*
X1076245Y589906D01*
X1076237Y589884D01*
X1076223Y589864D01*
X1076201Y589778D01*
X1076173Y589694D01*
X1076173Y589670D01*
X1076168Y589647D01*
X1076177Y589558D01*
X1076179Y589469D01*
X1076188Y589447D01*
X1076191Y589424D01*
X1076230Y589344D01*
X1076264Y589262D01*
X1076280Y589244D01*
X1076290Y589223D01*
X1076355Y589162D01*
X1076415Y589096D01*
X1076436Y589085D01*
X1076453Y589069D01*
X1076535Y589034D01*
X1076615Y588993D01*
X1076641Y588990D01*
X1076660Y588981D01*
X1076710Y588979D01*
X1076800Y588966D01*
X1086800Y588966D01*
X1086865Y588977D01*
G37*
G36*
X856407Y580879D02*
X856407Y580879D01*
X856431Y580879D01*
X856513Y580913D01*
X856598Y580940D01*
X856619Y580956D01*
X856638Y580964D01*
X856676Y580998D01*
X856748Y581052D01*
X866748Y591052D01*
X866799Y591125D01*
X866855Y591194D01*
X866863Y591216D01*
X866877Y591236D01*
X866899Y591322D01*
X866927Y591406D01*
X866927Y591430D01*
X866933Y591453D01*
X866923Y591542D01*
X866921Y591631D01*
X866912Y591653D01*
X866909Y591676D01*
X866870Y591756D01*
X866836Y591838D01*
X866820Y591856D01*
X866810Y591877D01*
X866745Y591938D01*
X866685Y592004D01*
X866664Y592015D01*
X866647Y592031D01*
X866565Y592066D01*
X866485Y592107D01*
X866459Y592110D01*
X866440Y592119D01*
X866390Y592121D01*
X866300Y592134D01*
X856300Y592134D01*
X856235Y592123D01*
X856169Y592121D01*
X856126Y592103D01*
X856079Y592095D01*
X856022Y592061D01*
X855962Y592036D01*
X855927Y592005D01*
X855886Y591980D01*
X855845Y591929D01*
X855796Y591885D01*
X855774Y591843D01*
X855745Y591806D01*
X855724Y591744D01*
X855693Y591685D01*
X855685Y591631D01*
X855673Y591594D01*
X855674Y591554D01*
X855666Y591500D01*
X855666Y581500D01*
X855682Y581412D01*
X855691Y581324D01*
X855701Y581303D01*
X855705Y581279D01*
X855751Y581202D01*
X855790Y581123D01*
X855807Y581106D01*
X855820Y581086D01*
X855889Y581030D01*
X855953Y580969D01*
X855975Y580960D01*
X855994Y580945D01*
X856078Y580916D01*
X856160Y580881D01*
X856184Y580880D01*
X856206Y580873D01*
X856295Y580875D01*
X856384Y580871D01*
X856407Y580879D01*
G37*
G36*
X820165Y576277D02*
X820165Y576277D01*
X820231Y576279D01*
X820274Y576297D01*
X820321Y576305D01*
X820378Y576339D01*
X820438Y576364D01*
X820473Y576395D01*
X820514Y576420D01*
X820556Y576471D01*
X820604Y576515D01*
X820626Y576557D01*
X820655Y576594D01*
X820676Y576656D01*
X820707Y576715D01*
X820715Y576769D01*
X820727Y576806D01*
X820726Y576846D01*
X820734Y576900D01*
X820734Y586900D01*
X820718Y586988D01*
X820709Y587076D01*
X820699Y587097D01*
X820695Y587121D01*
X820649Y587198D01*
X820610Y587277D01*
X820593Y587294D01*
X820580Y587314D01*
X820511Y587370D01*
X820447Y587431D01*
X820425Y587440D01*
X820406Y587455D01*
X820322Y587484D01*
X820240Y587519D01*
X820216Y587520D01*
X820194Y587527D01*
X820105Y587525D01*
X820016Y587529D01*
X819993Y587521D01*
X819969Y587521D01*
X819887Y587487D01*
X819802Y587460D01*
X819781Y587444D01*
X819762Y587436D01*
X819724Y587402D01*
X819652Y587348D01*
X809652Y577348D01*
X809601Y577275D01*
X809545Y577206D01*
X809537Y577184D01*
X809523Y577164D01*
X809501Y577078D01*
X809473Y576994D01*
X809473Y576970D01*
X809468Y576947D01*
X809477Y576858D01*
X809479Y576769D01*
X809488Y576747D01*
X809491Y576724D01*
X809530Y576644D01*
X809564Y576562D01*
X809580Y576544D01*
X809590Y576523D01*
X809655Y576462D01*
X809715Y576396D01*
X809736Y576385D01*
X809753Y576369D01*
X809835Y576334D01*
X809915Y576293D01*
X809941Y576290D01*
X809960Y576281D01*
X810010Y576279D01*
X810100Y576266D01*
X820100Y576266D01*
X820165Y576277D01*
G37*
G36*
X655065Y563577D02*
X655065Y563577D01*
X655131Y563579D01*
X655174Y563597D01*
X655221Y563605D01*
X655278Y563639D01*
X655338Y563664D01*
X655373Y563695D01*
X655414Y563720D01*
X655456Y563771D01*
X655504Y563815D01*
X655526Y563857D01*
X655555Y563894D01*
X655576Y563956D01*
X655607Y564015D01*
X655615Y564069D01*
X655627Y564106D01*
X655626Y564146D01*
X655634Y564200D01*
X655634Y574200D01*
X655618Y574288D01*
X655609Y574376D01*
X655599Y574397D01*
X655595Y574421D01*
X655549Y574498D01*
X655510Y574577D01*
X655493Y574594D01*
X655480Y574614D01*
X655411Y574670D01*
X655347Y574731D01*
X655325Y574740D01*
X655306Y574755D01*
X655222Y574784D01*
X655140Y574819D01*
X655116Y574820D01*
X655094Y574827D01*
X655005Y574825D01*
X654916Y574829D01*
X654893Y574821D01*
X654869Y574821D01*
X654787Y574787D01*
X654702Y574760D01*
X654681Y574744D01*
X654662Y574736D01*
X654624Y574702D01*
X654552Y574648D01*
X644552Y564648D01*
X644501Y564575D01*
X644445Y564506D01*
X644437Y564484D01*
X644423Y564464D01*
X644401Y564378D01*
X644373Y564294D01*
X644373Y564270D01*
X644368Y564247D01*
X644377Y564158D01*
X644379Y564069D01*
X644388Y564047D01*
X644391Y564024D01*
X644430Y563944D01*
X644464Y563862D01*
X644480Y563844D01*
X644490Y563823D01*
X644555Y563762D01*
X644615Y563696D01*
X644636Y563685D01*
X644653Y563669D01*
X644735Y563634D01*
X644815Y563593D01*
X644841Y563590D01*
X644860Y563581D01*
X644910Y563579D01*
X645000Y563566D01*
X655000Y563566D01*
X655065Y563577D01*
G37*
G36*
X248642Y491977D02*
X248642Y491977D01*
X248731Y491979D01*
X248753Y491988D01*
X248776Y491991D01*
X248856Y492030D01*
X248938Y492064D01*
X248956Y492080D01*
X248977Y492090D01*
X249038Y492155D01*
X249104Y492215D01*
X249115Y492236D01*
X249131Y492253D01*
X249166Y492335D01*
X249207Y492415D01*
X249210Y492441D01*
X249219Y492460D01*
X249221Y492510D01*
X249234Y492600D01*
X249234Y502600D01*
X249223Y502665D01*
X249221Y502731D01*
X249203Y502774D01*
X249195Y502821D01*
X249161Y502878D01*
X249136Y502938D01*
X249105Y502973D01*
X249080Y503014D01*
X249029Y503056D01*
X248985Y503104D01*
X248943Y503126D01*
X248906Y503155D01*
X248844Y503176D01*
X248785Y503207D01*
X248731Y503215D01*
X248694Y503227D01*
X248654Y503226D01*
X248600Y503234D01*
X238600Y503234D01*
X238512Y503218D01*
X238424Y503209D01*
X238403Y503199D01*
X238379Y503195D01*
X238302Y503149D01*
X238223Y503110D01*
X238206Y503093D01*
X238186Y503080D01*
X238130Y503011D01*
X238069Y502947D01*
X238060Y502925D01*
X238045Y502906D01*
X238016Y502822D01*
X237981Y502740D01*
X237980Y502716D01*
X237973Y502694D01*
X237975Y502605D01*
X237971Y502516D01*
X237979Y502493D01*
X237979Y502469D01*
X238013Y502387D01*
X238040Y502302D01*
X238056Y502281D01*
X238064Y502262D01*
X238098Y502224D01*
X238152Y502152D01*
X248152Y492152D01*
X248225Y492101D01*
X248294Y492045D01*
X248316Y492037D01*
X248336Y492023D01*
X248422Y492001D01*
X248506Y491973D01*
X248530Y491973D01*
X248553Y491968D01*
X248642Y491977D01*
G37*
G36*
X1110407Y491979D02*
X1110407Y491979D01*
X1110431Y491979D01*
X1110513Y492013D01*
X1110598Y492040D01*
X1110619Y492056D01*
X1110638Y492064D01*
X1110676Y492098D01*
X1110748Y492152D01*
X1120748Y502152D01*
X1120799Y502225D01*
X1120855Y502294D01*
X1120863Y502316D01*
X1120877Y502336D01*
X1120899Y502422D01*
X1120927Y502506D01*
X1120927Y502530D01*
X1120933Y502553D01*
X1120923Y502642D01*
X1120921Y502731D01*
X1120912Y502753D01*
X1120909Y502776D01*
X1120870Y502856D01*
X1120836Y502938D01*
X1120820Y502956D01*
X1120810Y502977D01*
X1120745Y503038D01*
X1120685Y503104D01*
X1120664Y503115D01*
X1120647Y503131D01*
X1120565Y503166D01*
X1120485Y503207D01*
X1120459Y503210D01*
X1120440Y503219D01*
X1120390Y503221D01*
X1120300Y503234D01*
X1110300Y503234D01*
X1110235Y503223D01*
X1110169Y503221D01*
X1110126Y503203D01*
X1110079Y503195D01*
X1110022Y503161D01*
X1109962Y503136D01*
X1109927Y503105D01*
X1109886Y503080D01*
X1109845Y503029D01*
X1109796Y502985D01*
X1109774Y502943D01*
X1109745Y502906D01*
X1109724Y502844D01*
X1109693Y502785D01*
X1109685Y502731D01*
X1109673Y502694D01*
X1109674Y502654D01*
X1109666Y502600D01*
X1109666Y492600D01*
X1109682Y492512D01*
X1109691Y492424D01*
X1109701Y492403D01*
X1109705Y492379D01*
X1109751Y492302D01*
X1109790Y492223D01*
X1109807Y492206D01*
X1109820Y492186D01*
X1109889Y492130D01*
X1109953Y492069D01*
X1109975Y492060D01*
X1109994Y492045D01*
X1110078Y492016D01*
X1110160Y491981D01*
X1110184Y491980D01*
X1110206Y491973D01*
X1110295Y491975D01*
X1110384Y491971D01*
X1110407Y491979D01*
G37*
G36*
X1018788Y436582D02*
X1018788Y436582D01*
X1018876Y436591D01*
X1018897Y436601D01*
X1018921Y436605D01*
X1018998Y436651D01*
X1019077Y436690D01*
X1019094Y436707D01*
X1019114Y436720D01*
X1019170Y436789D01*
X1019231Y436853D01*
X1019240Y436875D01*
X1019255Y436894D01*
X1019284Y436978D01*
X1019319Y437060D01*
X1019320Y437084D01*
X1019327Y437106D01*
X1019325Y437195D01*
X1019329Y437284D01*
X1019321Y437307D01*
X1019321Y437331D01*
X1019287Y437413D01*
X1019260Y437498D01*
X1019244Y437519D01*
X1019236Y437538D01*
X1019202Y437576D01*
X1019148Y437648D01*
X1009148Y447648D01*
X1009075Y447699D01*
X1009006Y447755D01*
X1008984Y447763D01*
X1008964Y447777D01*
X1008878Y447799D01*
X1008794Y447827D01*
X1008770Y447827D01*
X1008747Y447833D01*
X1008658Y447823D01*
X1008569Y447821D01*
X1008547Y447812D01*
X1008524Y447809D01*
X1008444Y447770D01*
X1008362Y447736D01*
X1008344Y447720D01*
X1008323Y447710D01*
X1008262Y447645D01*
X1008196Y447585D01*
X1008185Y447564D01*
X1008169Y447547D01*
X1008134Y447465D01*
X1008093Y447385D01*
X1008090Y447359D01*
X1008081Y447340D01*
X1008079Y447290D01*
X1008066Y447200D01*
X1008066Y437200D01*
X1008077Y437135D01*
X1008079Y437069D01*
X1008097Y437026D01*
X1008105Y436979D01*
X1008139Y436922D01*
X1008164Y436862D01*
X1008195Y436827D01*
X1008220Y436786D01*
X1008271Y436745D01*
X1008315Y436696D01*
X1008357Y436674D01*
X1008394Y436645D01*
X1008456Y436624D01*
X1008515Y436593D01*
X1008569Y436585D01*
X1008606Y436573D01*
X1008646Y436574D01*
X1008700Y436566D01*
X1018700Y436566D01*
X1018788Y436582D01*
G37*
G36*
X528065Y436577D02*
X528065Y436577D01*
X528131Y436579D01*
X528174Y436597D01*
X528221Y436605D01*
X528278Y436639D01*
X528338Y436664D01*
X528373Y436695D01*
X528414Y436720D01*
X528456Y436771D01*
X528504Y436815D01*
X528526Y436857D01*
X528555Y436894D01*
X528576Y436956D01*
X528607Y437015D01*
X528615Y437069D01*
X528627Y437106D01*
X528626Y437146D01*
X528634Y437200D01*
X528634Y447200D01*
X528618Y447288D01*
X528609Y447376D01*
X528599Y447397D01*
X528595Y447421D01*
X528549Y447498D01*
X528510Y447577D01*
X528493Y447594D01*
X528480Y447614D01*
X528411Y447670D01*
X528347Y447731D01*
X528325Y447740D01*
X528306Y447755D01*
X528222Y447784D01*
X528140Y447819D01*
X528116Y447820D01*
X528094Y447827D01*
X528005Y447825D01*
X527916Y447829D01*
X527893Y447821D01*
X527869Y447821D01*
X527787Y447787D01*
X527702Y447760D01*
X527681Y447744D01*
X527662Y447736D01*
X527624Y447702D01*
X527552Y447648D01*
X517552Y437648D01*
X517501Y437575D01*
X517445Y437506D01*
X517437Y437484D01*
X517423Y437464D01*
X517401Y437378D01*
X517373Y437294D01*
X517373Y437270D01*
X517368Y437247D01*
X517377Y437158D01*
X517379Y437069D01*
X517388Y437047D01*
X517391Y437024D01*
X517430Y436944D01*
X517464Y436862D01*
X517480Y436844D01*
X517490Y436823D01*
X517555Y436762D01*
X517615Y436696D01*
X517636Y436685D01*
X517653Y436669D01*
X517735Y436634D01*
X517815Y436593D01*
X517841Y436590D01*
X517860Y436581D01*
X517910Y436579D01*
X518000Y436566D01*
X528000Y436566D01*
X528065Y436577D01*
G37*
G36*
X1262807Y403079D02*
X1262807Y403079D01*
X1262831Y403079D01*
X1262913Y403113D01*
X1262998Y403140D01*
X1263019Y403156D01*
X1263038Y403164D01*
X1263076Y403198D01*
X1263148Y403252D01*
X1273148Y413252D01*
X1273199Y413325D01*
X1273255Y413394D01*
X1273263Y413416D01*
X1273277Y413436D01*
X1273299Y413522D01*
X1273327Y413606D01*
X1273327Y413630D01*
X1273333Y413653D01*
X1273323Y413742D01*
X1273321Y413831D01*
X1273312Y413853D01*
X1273309Y413876D01*
X1273270Y413956D01*
X1273236Y414038D01*
X1273220Y414056D01*
X1273210Y414077D01*
X1273145Y414138D01*
X1273085Y414204D01*
X1273064Y414215D01*
X1273047Y414231D01*
X1272965Y414266D01*
X1272885Y414307D01*
X1272859Y414310D01*
X1272840Y414319D01*
X1272790Y414321D01*
X1272700Y414334D01*
X1262700Y414334D01*
X1262635Y414323D01*
X1262569Y414321D01*
X1262526Y414303D01*
X1262479Y414295D01*
X1262422Y414261D01*
X1262362Y414236D01*
X1262327Y414205D01*
X1262286Y414180D01*
X1262245Y414129D01*
X1262196Y414085D01*
X1262174Y414043D01*
X1262145Y414006D01*
X1262124Y413944D01*
X1262093Y413885D01*
X1262085Y413831D01*
X1262073Y413794D01*
X1262074Y413754D01*
X1262066Y413700D01*
X1262066Y403700D01*
X1262082Y403612D01*
X1262091Y403524D01*
X1262101Y403503D01*
X1262105Y403479D01*
X1262151Y403402D01*
X1262190Y403323D01*
X1262207Y403306D01*
X1262220Y403286D01*
X1262289Y403230D01*
X1262353Y403169D01*
X1262375Y403160D01*
X1262394Y403145D01*
X1262478Y403116D01*
X1262560Y403081D01*
X1262584Y403080D01*
X1262606Y403073D01*
X1262695Y403075D01*
X1262784Y403071D01*
X1262807Y403079D01*
G37*
G36*
X752088Y398482D02*
X752088Y398482D01*
X752176Y398491D01*
X752197Y398501D01*
X752221Y398505D01*
X752298Y398551D01*
X752377Y398590D01*
X752394Y398607D01*
X752414Y398620D01*
X752470Y398689D01*
X752531Y398753D01*
X752540Y398775D01*
X752555Y398794D01*
X752584Y398878D01*
X752619Y398960D01*
X752620Y398984D01*
X752627Y399006D01*
X752625Y399095D01*
X752629Y399184D01*
X752621Y399207D01*
X752621Y399231D01*
X752587Y399313D01*
X752560Y399398D01*
X752544Y399419D01*
X752536Y399438D01*
X752502Y399476D01*
X752448Y399548D01*
X742448Y409548D01*
X742375Y409599D01*
X742306Y409655D01*
X742284Y409663D01*
X742264Y409677D01*
X742178Y409699D01*
X742094Y409727D01*
X742070Y409727D01*
X742047Y409733D01*
X741958Y409723D01*
X741869Y409721D01*
X741847Y409712D01*
X741824Y409709D01*
X741744Y409670D01*
X741662Y409636D01*
X741644Y409620D01*
X741623Y409610D01*
X741562Y409545D01*
X741496Y409485D01*
X741485Y409464D01*
X741469Y409447D01*
X741434Y409365D01*
X741393Y409285D01*
X741390Y409259D01*
X741381Y409240D01*
X741379Y409190D01*
X741366Y409100D01*
X741366Y399100D01*
X741377Y399035D01*
X741379Y398969D01*
X741397Y398926D01*
X741405Y398879D01*
X741439Y398822D01*
X741464Y398762D01*
X741495Y398727D01*
X741520Y398686D01*
X741571Y398645D01*
X741615Y398596D01*
X741657Y398574D01*
X741694Y398545D01*
X741756Y398524D01*
X741815Y398493D01*
X741869Y398485D01*
X741906Y398473D01*
X741946Y398474D01*
X742000Y398466D01*
X752000Y398466D01*
X752088Y398482D01*
G37*
G36*
X81707Y390379D02*
X81707Y390379D01*
X81731Y390379D01*
X81813Y390413D01*
X81898Y390440D01*
X81919Y390456D01*
X81938Y390464D01*
X81976Y390498D01*
X82048Y390552D01*
X92048Y400552D01*
X92099Y400625D01*
X92155Y400694D01*
X92163Y400716D01*
X92177Y400736D01*
X92199Y400822D01*
X92227Y400906D01*
X92227Y400930D01*
X92233Y400953D01*
X92223Y401042D01*
X92221Y401131D01*
X92212Y401153D01*
X92209Y401176D01*
X92170Y401256D01*
X92136Y401338D01*
X92120Y401356D01*
X92110Y401377D01*
X92045Y401438D01*
X91985Y401504D01*
X91964Y401515D01*
X91947Y401531D01*
X91865Y401566D01*
X91785Y401607D01*
X91759Y401610D01*
X91740Y401619D01*
X91690Y401621D01*
X91600Y401634D01*
X81600Y401634D01*
X81535Y401623D01*
X81469Y401621D01*
X81426Y401603D01*
X81379Y401595D01*
X81322Y401561D01*
X81262Y401536D01*
X81227Y401505D01*
X81186Y401480D01*
X81145Y401429D01*
X81096Y401385D01*
X81074Y401343D01*
X81045Y401306D01*
X81024Y401244D01*
X80993Y401185D01*
X80985Y401131D01*
X80973Y401094D01*
X80974Y401054D01*
X80966Y401000D01*
X80966Y391000D01*
X80982Y390912D01*
X80991Y390824D01*
X81001Y390803D01*
X81005Y390779D01*
X81051Y390702D01*
X81090Y390623D01*
X81107Y390606D01*
X81120Y390586D01*
X81189Y390530D01*
X81253Y390469D01*
X81275Y390460D01*
X81294Y390445D01*
X81378Y390416D01*
X81460Y390381D01*
X81484Y390380D01*
X81506Y390373D01*
X81595Y390375D01*
X81684Y390371D01*
X81707Y390379D01*
G37*
G36*
X234107Y364979D02*
X234107Y364979D01*
X234131Y364979D01*
X234213Y365013D01*
X234298Y365040D01*
X234319Y365056D01*
X234338Y365064D01*
X234376Y365098D01*
X234448Y365152D01*
X244448Y375152D01*
X244499Y375225D01*
X244555Y375294D01*
X244563Y375316D01*
X244577Y375336D01*
X244599Y375422D01*
X244627Y375506D01*
X244627Y375530D01*
X244633Y375553D01*
X244623Y375642D01*
X244621Y375731D01*
X244612Y375753D01*
X244609Y375776D01*
X244570Y375856D01*
X244536Y375938D01*
X244520Y375956D01*
X244510Y375977D01*
X244445Y376038D01*
X244385Y376104D01*
X244364Y376115D01*
X244347Y376131D01*
X244265Y376166D01*
X244185Y376207D01*
X244159Y376210D01*
X244140Y376219D01*
X244090Y376221D01*
X244000Y376234D01*
X234000Y376234D01*
X233935Y376223D01*
X233869Y376221D01*
X233826Y376203D01*
X233779Y376195D01*
X233722Y376161D01*
X233662Y376136D01*
X233627Y376105D01*
X233586Y376080D01*
X233545Y376029D01*
X233496Y375985D01*
X233474Y375943D01*
X233445Y375906D01*
X233424Y375844D01*
X233393Y375785D01*
X233385Y375731D01*
X233373Y375694D01*
X233374Y375654D01*
X233366Y375600D01*
X233366Y365600D01*
X233382Y365512D01*
X233391Y365424D01*
X233401Y365403D01*
X233405Y365379D01*
X233451Y365302D01*
X233490Y365223D01*
X233507Y365206D01*
X233520Y365186D01*
X233589Y365130D01*
X233653Y365069D01*
X233675Y365060D01*
X233694Y365045D01*
X233778Y365016D01*
X233860Y364981D01*
X233884Y364980D01*
X233906Y364973D01*
X233995Y364975D01*
X234084Y364971D01*
X234107Y364979D01*
G37*
G36*
X1148507Y301479D02*
X1148507Y301479D01*
X1148531Y301479D01*
X1148613Y301513D01*
X1148698Y301540D01*
X1148719Y301556D01*
X1148738Y301564D01*
X1148776Y301598D01*
X1148848Y301652D01*
X1158848Y311652D01*
X1158899Y311725D01*
X1158955Y311794D01*
X1158963Y311816D01*
X1158977Y311836D01*
X1158999Y311922D01*
X1159027Y312006D01*
X1159027Y312030D01*
X1159033Y312053D01*
X1159023Y312142D01*
X1159021Y312231D01*
X1159012Y312253D01*
X1159009Y312276D01*
X1158970Y312356D01*
X1158936Y312438D01*
X1158920Y312456D01*
X1158910Y312477D01*
X1158845Y312538D01*
X1158785Y312604D01*
X1158764Y312615D01*
X1158747Y312631D01*
X1158665Y312666D01*
X1158585Y312707D01*
X1158559Y312710D01*
X1158540Y312719D01*
X1158490Y312721D01*
X1158400Y312734D01*
X1148400Y312734D01*
X1148335Y312723D01*
X1148269Y312721D01*
X1148226Y312703D01*
X1148179Y312695D01*
X1148122Y312661D01*
X1148062Y312636D01*
X1148027Y312605D01*
X1147986Y312580D01*
X1147945Y312529D01*
X1147896Y312485D01*
X1147874Y312443D01*
X1147845Y312406D01*
X1147824Y312344D01*
X1147793Y312285D01*
X1147785Y312231D01*
X1147773Y312194D01*
X1147774Y312154D01*
X1147766Y312100D01*
X1147766Y302100D01*
X1147782Y302012D01*
X1147791Y301924D01*
X1147801Y301903D01*
X1147805Y301879D01*
X1147851Y301802D01*
X1147890Y301723D01*
X1147907Y301706D01*
X1147920Y301686D01*
X1147989Y301630D01*
X1148053Y301569D01*
X1148075Y301560D01*
X1148094Y301545D01*
X1148178Y301516D01*
X1148260Y301481D01*
X1148284Y301480D01*
X1148306Y301473D01*
X1148395Y301475D01*
X1148484Y301471D01*
X1148507Y301479D01*
G37*
G36*
X383788Y284182D02*
X383788Y284182D01*
X383876Y284191D01*
X383897Y284201D01*
X383921Y284205D01*
X383998Y284251D01*
X384077Y284290D01*
X384094Y284307D01*
X384114Y284320D01*
X384170Y284389D01*
X384231Y284453D01*
X384240Y284475D01*
X384255Y284494D01*
X384284Y284578D01*
X384319Y284660D01*
X384320Y284684D01*
X384327Y284706D01*
X384325Y284795D01*
X384329Y284884D01*
X384321Y284907D01*
X384321Y284931D01*
X384287Y285013D01*
X384260Y285098D01*
X384244Y285119D01*
X384236Y285138D01*
X384202Y285176D01*
X384148Y285248D01*
X374148Y295248D01*
X374075Y295299D01*
X374006Y295355D01*
X373984Y295363D01*
X373964Y295377D01*
X373878Y295399D01*
X373794Y295427D01*
X373770Y295427D01*
X373747Y295433D01*
X373658Y295423D01*
X373569Y295421D01*
X373547Y295412D01*
X373524Y295409D01*
X373444Y295370D01*
X373362Y295336D01*
X373344Y295320D01*
X373323Y295310D01*
X373262Y295245D01*
X373196Y295185D01*
X373185Y295164D01*
X373169Y295147D01*
X373134Y295065D01*
X373093Y294985D01*
X373090Y294959D01*
X373081Y294940D01*
X373079Y294890D01*
X373066Y294800D01*
X373066Y284800D01*
X373077Y284735D01*
X373079Y284669D01*
X373097Y284626D01*
X373105Y284579D01*
X373139Y284522D01*
X373164Y284462D01*
X373195Y284427D01*
X373220Y284386D01*
X373271Y284345D01*
X373315Y284296D01*
X373357Y284274D01*
X373394Y284245D01*
X373456Y284224D01*
X373515Y284193D01*
X373569Y284185D01*
X373606Y284173D01*
X373646Y284174D01*
X373700Y284166D01*
X383700Y284166D01*
X383788Y284182D01*
G37*
G36*
X828288Y284182D02*
X828288Y284182D01*
X828376Y284191D01*
X828397Y284201D01*
X828421Y284205D01*
X828498Y284251D01*
X828577Y284290D01*
X828594Y284307D01*
X828614Y284320D01*
X828670Y284389D01*
X828731Y284453D01*
X828740Y284475D01*
X828755Y284494D01*
X828784Y284578D01*
X828819Y284660D01*
X828820Y284684D01*
X828827Y284706D01*
X828825Y284795D01*
X828829Y284884D01*
X828821Y284907D01*
X828821Y284931D01*
X828787Y285013D01*
X828760Y285098D01*
X828744Y285119D01*
X828736Y285138D01*
X828702Y285176D01*
X828648Y285248D01*
X818648Y295248D01*
X818575Y295299D01*
X818506Y295355D01*
X818484Y295363D01*
X818464Y295377D01*
X818378Y295399D01*
X818294Y295427D01*
X818270Y295427D01*
X818247Y295433D01*
X818158Y295423D01*
X818069Y295421D01*
X818047Y295412D01*
X818024Y295409D01*
X817944Y295370D01*
X817862Y295336D01*
X817844Y295320D01*
X817823Y295310D01*
X817762Y295245D01*
X817696Y295185D01*
X817685Y295164D01*
X817669Y295147D01*
X817634Y295065D01*
X817593Y294985D01*
X817590Y294959D01*
X817581Y294940D01*
X817579Y294890D01*
X817566Y294800D01*
X817566Y284800D01*
X817577Y284735D01*
X817579Y284669D01*
X817597Y284626D01*
X817605Y284579D01*
X817639Y284522D01*
X817664Y284462D01*
X817695Y284427D01*
X817720Y284386D01*
X817771Y284345D01*
X817815Y284296D01*
X817857Y284274D01*
X817894Y284245D01*
X817956Y284224D01*
X818015Y284193D01*
X818069Y284185D01*
X818106Y284173D01*
X818146Y284174D01*
X818200Y284166D01*
X828200Y284166D01*
X828288Y284182D01*
G37*
G36*
X604265Y284177D02*
X604265Y284177D01*
X604331Y284179D01*
X604374Y284197D01*
X604421Y284205D01*
X604478Y284239D01*
X604538Y284264D01*
X604573Y284295D01*
X604614Y284320D01*
X604656Y284371D01*
X604704Y284415D01*
X604726Y284457D01*
X604755Y284494D01*
X604776Y284556D01*
X604807Y284615D01*
X604815Y284669D01*
X604827Y284706D01*
X604826Y284746D01*
X604834Y284800D01*
X604834Y294800D01*
X604818Y294888D01*
X604809Y294976D01*
X604799Y294997D01*
X604795Y295021D01*
X604749Y295098D01*
X604710Y295177D01*
X604693Y295194D01*
X604680Y295214D01*
X604611Y295270D01*
X604547Y295331D01*
X604525Y295340D01*
X604506Y295355D01*
X604422Y295384D01*
X604340Y295419D01*
X604316Y295420D01*
X604294Y295427D01*
X604205Y295425D01*
X604116Y295429D01*
X604093Y295421D01*
X604069Y295421D01*
X603987Y295387D01*
X603902Y295360D01*
X603881Y295344D01*
X603862Y295336D01*
X603824Y295302D01*
X603752Y295248D01*
X593752Y285248D01*
X593701Y285175D01*
X593645Y285106D01*
X593637Y285084D01*
X593623Y285064D01*
X593601Y284978D01*
X593573Y284894D01*
X593573Y284870D01*
X593568Y284847D01*
X593577Y284758D01*
X593579Y284669D01*
X593588Y284647D01*
X593591Y284624D01*
X593630Y284544D01*
X593664Y284462D01*
X593680Y284444D01*
X593690Y284423D01*
X593755Y284362D01*
X593815Y284296D01*
X593836Y284285D01*
X593853Y284269D01*
X593935Y284234D01*
X594015Y284193D01*
X594041Y284190D01*
X594060Y284181D01*
X594110Y284179D01*
X594200Y284166D01*
X604200Y284166D01*
X604265Y284177D01*
G37*
G36*
X145207Y276079D02*
X145207Y276079D01*
X145231Y276079D01*
X145313Y276113D01*
X145398Y276140D01*
X145419Y276156D01*
X145438Y276164D01*
X145476Y276198D01*
X145548Y276252D01*
X155548Y286252D01*
X155599Y286325D01*
X155655Y286394D01*
X155663Y286416D01*
X155677Y286436D01*
X155699Y286522D01*
X155727Y286606D01*
X155727Y286630D01*
X155733Y286653D01*
X155723Y286742D01*
X155721Y286831D01*
X155712Y286853D01*
X155709Y286876D01*
X155670Y286956D01*
X155636Y287038D01*
X155620Y287056D01*
X155610Y287077D01*
X155545Y287138D01*
X155485Y287204D01*
X155464Y287215D01*
X155447Y287231D01*
X155365Y287266D01*
X155285Y287307D01*
X155259Y287310D01*
X155240Y287319D01*
X155190Y287321D01*
X155100Y287334D01*
X145100Y287334D01*
X145035Y287323D01*
X144969Y287321D01*
X144926Y287303D01*
X144879Y287295D01*
X144822Y287261D01*
X144762Y287236D01*
X144727Y287205D01*
X144686Y287180D01*
X144645Y287129D01*
X144596Y287085D01*
X144574Y287043D01*
X144545Y287006D01*
X144524Y286944D01*
X144493Y286885D01*
X144485Y286831D01*
X144473Y286794D01*
X144474Y286754D01*
X144466Y286700D01*
X144466Y276700D01*
X144482Y276612D01*
X144491Y276524D01*
X144501Y276503D01*
X144505Y276479D01*
X144551Y276402D01*
X144590Y276323D01*
X144607Y276306D01*
X144620Y276286D01*
X144689Y276230D01*
X144753Y276169D01*
X144775Y276160D01*
X144794Y276145D01*
X144878Y276116D01*
X144960Y276081D01*
X144984Y276080D01*
X145006Y276073D01*
X145095Y276075D01*
X145184Y276071D01*
X145207Y276079D01*
G37*
G36*
X1048742Y250677D02*
X1048742Y250677D01*
X1048831Y250679D01*
X1048853Y250688D01*
X1048876Y250691D01*
X1048956Y250730D01*
X1049038Y250764D01*
X1049056Y250780D01*
X1049077Y250790D01*
X1049138Y250855D01*
X1049204Y250915D01*
X1049215Y250936D01*
X1049231Y250953D01*
X1049266Y251035D01*
X1049307Y251115D01*
X1049310Y251141D01*
X1049319Y251160D01*
X1049321Y251210D01*
X1049334Y251300D01*
X1049334Y261300D01*
X1049323Y261365D01*
X1049321Y261431D01*
X1049303Y261474D01*
X1049295Y261521D01*
X1049261Y261578D01*
X1049236Y261638D01*
X1049205Y261673D01*
X1049180Y261714D01*
X1049129Y261756D01*
X1049085Y261804D01*
X1049043Y261826D01*
X1049006Y261855D01*
X1048944Y261876D01*
X1048885Y261907D01*
X1048831Y261915D01*
X1048794Y261927D01*
X1048754Y261926D01*
X1048700Y261934D01*
X1038700Y261934D01*
X1038612Y261918D01*
X1038524Y261909D01*
X1038503Y261899D01*
X1038479Y261895D01*
X1038402Y261849D01*
X1038323Y261810D01*
X1038306Y261793D01*
X1038286Y261780D01*
X1038230Y261711D01*
X1038169Y261647D01*
X1038160Y261625D01*
X1038145Y261606D01*
X1038116Y261522D01*
X1038081Y261440D01*
X1038080Y261416D01*
X1038073Y261394D01*
X1038075Y261305D01*
X1038071Y261216D01*
X1038079Y261193D01*
X1038079Y261169D01*
X1038113Y261087D01*
X1038140Y261002D01*
X1038156Y260981D01*
X1038164Y260962D01*
X1038198Y260924D01*
X1038252Y260852D01*
X1048252Y250852D01*
X1048325Y250801D01*
X1048394Y250745D01*
X1048416Y250737D01*
X1048436Y250723D01*
X1048522Y250701D01*
X1048606Y250673D01*
X1048630Y250673D01*
X1048653Y250668D01*
X1048742Y250677D01*
G37*
G36*
X820142Y187177D02*
X820142Y187177D01*
X820231Y187179D01*
X820253Y187188D01*
X820276Y187191D01*
X820356Y187230D01*
X820438Y187264D01*
X820456Y187280D01*
X820477Y187290D01*
X820538Y187355D01*
X820604Y187415D01*
X820615Y187436D01*
X820631Y187453D01*
X820666Y187535D01*
X820707Y187615D01*
X820710Y187641D01*
X820719Y187660D01*
X820721Y187710D01*
X820734Y187800D01*
X820734Y197800D01*
X820723Y197865D01*
X820721Y197931D01*
X820703Y197974D01*
X820695Y198021D01*
X820661Y198078D01*
X820636Y198138D01*
X820605Y198173D01*
X820580Y198214D01*
X820529Y198256D01*
X820485Y198304D01*
X820443Y198326D01*
X820406Y198355D01*
X820344Y198376D01*
X820285Y198407D01*
X820231Y198415D01*
X820194Y198427D01*
X820154Y198426D01*
X820100Y198434D01*
X810100Y198434D01*
X810012Y198418D01*
X809924Y198409D01*
X809903Y198399D01*
X809879Y198395D01*
X809802Y198349D01*
X809723Y198310D01*
X809706Y198293D01*
X809686Y198280D01*
X809630Y198211D01*
X809569Y198147D01*
X809560Y198125D01*
X809545Y198106D01*
X809516Y198022D01*
X809481Y197940D01*
X809480Y197916D01*
X809473Y197894D01*
X809475Y197805D01*
X809471Y197716D01*
X809479Y197693D01*
X809479Y197669D01*
X809513Y197587D01*
X809540Y197502D01*
X809556Y197481D01*
X809564Y197462D01*
X809598Y197424D01*
X809652Y197352D01*
X819652Y187352D01*
X819725Y187301D01*
X819794Y187245D01*
X819816Y187237D01*
X819836Y187223D01*
X819922Y187201D01*
X820006Y187173D01*
X820030Y187173D01*
X820053Y187168D01*
X820142Y187177D01*
G37*
G36*
X498088Y169882D02*
X498088Y169882D01*
X498176Y169891D01*
X498197Y169901D01*
X498221Y169905D01*
X498298Y169951D01*
X498377Y169990D01*
X498394Y170007D01*
X498414Y170020D01*
X498470Y170089D01*
X498531Y170153D01*
X498540Y170175D01*
X498555Y170194D01*
X498584Y170278D01*
X498619Y170360D01*
X498620Y170384D01*
X498627Y170406D01*
X498625Y170495D01*
X498629Y170584D01*
X498621Y170607D01*
X498621Y170631D01*
X498587Y170713D01*
X498560Y170798D01*
X498544Y170819D01*
X498536Y170838D01*
X498502Y170876D01*
X498448Y170948D01*
X488448Y180948D01*
X488375Y180999D01*
X488306Y181055D01*
X488284Y181063D01*
X488264Y181077D01*
X488178Y181099D01*
X488094Y181127D01*
X488070Y181127D01*
X488047Y181133D01*
X487958Y181123D01*
X487869Y181121D01*
X487847Y181112D01*
X487824Y181109D01*
X487744Y181070D01*
X487662Y181036D01*
X487644Y181020D01*
X487623Y181010D01*
X487562Y180945D01*
X487496Y180885D01*
X487485Y180864D01*
X487469Y180847D01*
X487434Y180765D01*
X487393Y180685D01*
X487390Y180659D01*
X487381Y180640D01*
X487379Y180590D01*
X487366Y180500D01*
X487366Y170500D01*
X487377Y170435D01*
X487379Y170369D01*
X487397Y170326D01*
X487405Y170279D01*
X487439Y170222D01*
X487464Y170162D01*
X487495Y170127D01*
X487520Y170086D01*
X487571Y170045D01*
X487615Y169996D01*
X487657Y169974D01*
X487694Y169945D01*
X487756Y169924D01*
X487815Y169893D01*
X487869Y169885D01*
X487906Y169873D01*
X487946Y169874D01*
X488000Y169866D01*
X498000Y169866D01*
X498088Y169882D01*
G37*
G36*
X231388Y131782D02*
X231388Y131782D01*
X231476Y131791D01*
X231497Y131801D01*
X231521Y131805D01*
X231598Y131851D01*
X231677Y131890D01*
X231694Y131907D01*
X231714Y131920D01*
X231770Y131989D01*
X231831Y132053D01*
X231840Y132075D01*
X231855Y132094D01*
X231884Y132178D01*
X231919Y132260D01*
X231920Y132284D01*
X231927Y132306D01*
X231925Y132395D01*
X231929Y132484D01*
X231921Y132507D01*
X231921Y132531D01*
X231887Y132613D01*
X231860Y132698D01*
X231844Y132719D01*
X231836Y132738D01*
X231802Y132776D01*
X231748Y132848D01*
X221748Y142848D01*
X221675Y142899D01*
X221606Y142955D01*
X221584Y142963D01*
X221564Y142977D01*
X221478Y142999D01*
X221394Y143027D01*
X221370Y143027D01*
X221347Y143033D01*
X221258Y143023D01*
X221169Y143021D01*
X221147Y143012D01*
X221124Y143009D01*
X221044Y142970D01*
X220962Y142936D01*
X220944Y142920D01*
X220923Y142910D01*
X220862Y142845D01*
X220796Y142785D01*
X220785Y142764D01*
X220769Y142747D01*
X220734Y142665D01*
X220693Y142585D01*
X220690Y142559D01*
X220681Y142540D01*
X220679Y142490D01*
X220666Y142400D01*
X220666Y132400D01*
X220677Y132335D01*
X220679Y132269D01*
X220697Y132226D01*
X220705Y132179D01*
X220739Y132122D01*
X220764Y132062D01*
X220795Y132027D01*
X220820Y131986D01*
X220871Y131945D01*
X220915Y131896D01*
X220957Y131874D01*
X220994Y131845D01*
X221056Y131824D01*
X221115Y131793D01*
X221169Y131785D01*
X221206Y131773D01*
X221246Y131774D01*
X221300Y131766D01*
X231300Y131766D01*
X231388Y131782D01*
G37*
G36*
X637788Y119082D02*
X637788Y119082D01*
X637876Y119091D01*
X637897Y119101D01*
X637921Y119105D01*
X637998Y119151D01*
X638077Y119190D01*
X638094Y119207D01*
X638114Y119220D01*
X638170Y119289D01*
X638231Y119353D01*
X638240Y119375D01*
X638255Y119394D01*
X638284Y119478D01*
X638319Y119560D01*
X638320Y119584D01*
X638327Y119606D01*
X638325Y119695D01*
X638329Y119784D01*
X638321Y119807D01*
X638321Y119831D01*
X638287Y119913D01*
X638260Y119998D01*
X638244Y120019D01*
X638236Y120038D01*
X638202Y120076D01*
X638148Y120148D01*
X628148Y130148D01*
X628075Y130199D01*
X628006Y130255D01*
X627984Y130263D01*
X627964Y130277D01*
X627878Y130299D01*
X627794Y130327D01*
X627770Y130327D01*
X627747Y130333D01*
X627658Y130323D01*
X627569Y130321D01*
X627547Y130312D01*
X627524Y130309D01*
X627444Y130270D01*
X627362Y130236D01*
X627344Y130220D01*
X627323Y130210D01*
X627262Y130145D01*
X627196Y130085D01*
X627185Y130064D01*
X627169Y130047D01*
X627134Y129965D01*
X627093Y129885D01*
X627090Y129859D01*
X627081Y129840D01*
X627079Y129790D01*
X627066Y129700D01*
X627066Y119700D01*
X627077Y119635D01*
X627079Y119569D01*
X627097Y119526D01*
X627105Y119479D01*
X627139Y119422D01*
X627164Y119362D01*
X627195Y119327D01*
X627220Y119286D01*
X627271Y119245D01*
X627315Y119196D01*
X627357Y119174D01*
X627394Y119145D01*
X627456Y119124D01*
X627515Y119093D01*
X627569Y119085D01*
X627606Y119073D01*
X627646Y119074D01*
X627700Y119066D01*
X637700Y119066D01*
X637788Y119082D01*
G37*
G36*
X1150342Y85577D02*
X1150342Y85577D01*
X1150431Y85579D01*
X1150453Y85588D01*
X1150476Y85591D01*
X1150556Y85630D01*
X1150638Y85664D01*
X1150656Y85680D01*
X1150677Y85690D01*
X1150738Y85755D01*
X1150804Y85815D01*
X1150815Y85836D01*
X1150831Y85853D01*
X1150866Y85935D01*
X1150907Y86015D01*
X1150910Y86041D01*
X1150919Y86060D01*
X1150921Y86110D01*
X1150934Y86200D01*
X1150934Y96200D01*
X1150923Y96265D01*
X1150921Y96331D01*
X1150903Y96374D01*
X1150895Y96421D01*
X1150861Y96478D01*
X1150836Y96538D01*
X1150805Y96573D01*
X1150780Y96614D01*
X1150729Y96656D01*
X1150685Y96704D01*
X1150643Y96726D01*
X1150606Y96755D01*
X1150544Y96776D01*
X1150485Y96807D01*
X1150431Y96815D01*
X1150394Y96827D01*
X1150354Y96826D01*
X1150300Y96834D01*
X1140300Y96834D01*
X1140212Y96818D01*
X1140124Y96809D01*
X1140103Y96799D01*
X1140079Y96795D01*
X1140002Y96749D01*
X1139923Y96710D01*
X1139906Y96693D01*
X1139886Y96680D01*
X1139830Y96611D01*
X1139769Y96547D01*
X1139760Y96525D01*
X1139745Y96506D01*
X1139716Y96422D01*
X1139681Y96340D01*
X1139680Y96316D01*
X1139673Y96294D01*
X1139675Y96205D01*
X1139671Y96116D01*
X1139679Y96093D01*
X1139679Y96069D01*
X1139713Y95987D01*
X1139740Y95902D01*
X1139756Y95881D01*
X1139764Y95862D01*
X1139798Y95824D01*
X1139852Y95752D01*
X1149852Y85752D01*
X1149925Y85701D01*
X1149994Y85645D01*
X1150016Y85637D01*
X1150036Y85623D01*
X1150122Y85601D01*
X1150206Y85573D01*
X1150230Y85573D01*
X1150253Y85568D01*
X1150342Y85577D01*
G37*
G36*
X371088Y55582D02*
X371088Y55582D01*
X371176Y55591D01*
X371197Y55601D01*
X371221Y55605D01*
X371298Y55651D01*
X371377Y55690D01*
X371394Y55707D01*
X371414Y55720D01*
X371470Y55789D01*
X371531Y55853D01*
X371540Y55875D01*
X371555Y55894D01*
X371584Y55978D01*
X371619Y56060D01*
X371620Y56084D01*
X371627Y56106D01*
X371625Y56195D01*
X371629Y56284D01*
X371621Y56307D01*
X371621Y56331D01*
X371587Y56413D01*
X371560Y56498D01*
X371544Y56519D01*
X371536Y56538D01*
X371502Y56576D01*
X371448Y56648D01*
X361448Y66648D01*
X361375Y66699D01*
X361306Y66755D01*
X361284Y66763D01*
X361264Y66777D01*
X361178Y66799D01*
X361094Y66827D01*
X361070Y66827D01*
X361047Y66833D01*
X360958Y66823D01*
X360869Y66821D01*
X360847Y66812D01*
X360824Y66809D01*
X360744Y66770D01*
X360662Y66736D01*
X360644Y66720D01*
X360623Y66710D01*
X360562Y66645D01*
X360496Y66585D01*
X360485Y66564D01*
X360469Y66547D01*
X360434Y66465D01*
X360393Y66385D01*
X360390Y66359D01*
X360381Y66340D01*
X360379Y66290D01*
X360366Y66200D01*
X360366Y56200D01*
X360377Y56135D01*
X360379Y56069D01*
X360397Y56026D01*
X360405Y55979D01*
X360439Y55922D01*
X360464Y55862D01*
X360495Y55827D01*
X360520Y55786D01*
X360571Y55745D01*
X360615Y55696D01*
X360657Y55674D01*
X360694Y55645D01*
X360756Y55624D01*
X360815Y55593D01*
X360869Y55585D01*
X360906Y55573D01*
X360946Y55574D01*
X361000Y55566D01*
X371000Y55566D01*
X371088Y55582D01*
G37*
D10*
X119700Y731200D02*
X159700Y731200D01*
X159700Y691200D01*
X119700Y691200D01*
X119700Y731200D01*
X221300Y820100D02*
X261300Y820100D01*
X261300Y780100D01*
X221300Y780100D01*
X221300Y820100D01*
X375600Y907100D02*
X375600Y947100D01*
X375600Y907100D02*
X335600Y907100D01*
X335600Y947100D01*
X375600Y947100D01*
X362900Y716600D02*
X322900Y716600D01*
X322900Y756600D01*
X362900Y756600D01*
X362900Y716600D01*
X361000Y576900D02*
X401000Y576900D01*
X361000Y576900D02*
X361000Y616900D01*
X401000Y616900D01*
X401000Y576900D01*
X208600Y502600D02*
X208600Y462600D01*
X208600Y502600D02*
X248600Y502600D01*
X248600Y462600D01*
X208600Y462600D01*
X121600Y361000D02*
X81600Y361000D01*
X81600Y401000D01*
X121600Y401000D01*
X121600Y361000D01*
X234000Y335600D02*
X274000Y335600D01*
X234000Y335600D02*
X234000Y375600D01*
X274000Y375600D01*
X274000Y335600D01*
X185100Y246700D02*
X145100Y246700D01*
X145100Y286700D01*
X185100Y286700D01*
X185100Y246700D01*
X261300Y172400D02*
X261300Y132400D01*
X221300Y132400D01*
X221300Y172400D01*
X261300Y172400D01*
X401000Y96200D02*
X401000Y56200D01*
X361000Y56200D01*
X361000Y96200D01*
X401000Y96200D01*
X413700Y284800D02*
X413700Y324800D01*
X413700Y284800D02*
X373700Y284800D01*
X373700Y324800D01*
X413700Y324800D01*
X528000Y210500D02*
X528000Y170500D01*
X488000Y170500D01*
X488000Y210500D01*
X528000Y210500D01*
X667700Y159700D02*
X667700Y119700D01*
X627700Y119700D01*
X627700Y159700D01*
X667700Y159700D01*
X604200Y324800D02*
X564200Y324800D01*
X604200Y324800D02*
X604200Y284800D01*
X564200Y284800D01*
X564200Y324800D01*
X528000Y477200D02*
X488000Y477200D01*
X528000Y477200D02*
X528000Y437200D01*
X488000Y437200D01*
X488000Y477200D01*
X615000Y604200D02*
X655000Y604200D01*
X655000Y564200D01*
X615000Y564200D01*
X615000Y604200D01*
X540700Y756600D02*
X500700Y756600D01*
X540700Y756600D02*
X540700Y716600D01*
X500700Y716600D01*
X500700Y756600D01*
X576900Y883600D02*
X616900Y883600D01*
X616900Y843600D01*
X576900Y843600D01*
X576900Y883600D01*
X604200Y983300D02*
X604200Y1023300D01*
X604200Y983300D02*
X564200Y983300D01*
X564200Y1023300D01*
X604200Y1023300D01*
X782000Y439100D02*
X782000Y399100D01*
X742000Y399100D01*
X742000Y439100D01*
X782000Y439100D01*
X780100Y616900D02*
X820100Y616900D01*
X820100Y576900D01*
X780100Y576900D01*
X780100Y616900D01*
X769300Y731200D02*
X729300Y731200D01*
X769300Y731200D02*
X769300Y691200D01*
X729300Y691200D01*
X729300Y731200D01*
X883600Y945200D02*
X883600Y985200D01*
X883600Y945200D02*
X843600Y945200D01*
X843600Y985200D01*
X883600Y985200D01*
X881700Y754700D02*
X921700Y754700D01*
X881700Y754700D02*
X881700Y794700D01*
X921700Y794700D01*
X921700Y754700D01*
X896300Y551500D02*
X856300Y551500D01*
X856300Y591500D01*
X896300Y591500D01*
X896300Y551500D01*
X858200Y324800D02*
X858200Y284800D01*
X818200Y284800D01*
X818200Y324800D01*
X858200Y324800D01*
X1048700Y437200D02*
X1048700Y477200D01*
X1048700Y437200D02*
X1008700Y437200D01*
X1008700Y477200D01*
X1048700Y477200D01*
X1046800Y629600D02*
X1086800Y629600D01*
X1086800Y589600D01*
X1046800Y589600D01*
X1046800Y629600D01*
X1097600Y743900D02*
X1137600Y743900D01*
X1137600Y703900D01*
X1097600Y703900D01*
X1097600Y743900D01*
X1086800Y932500D02*
X1086800Y972500D01*
X1086800Y932500D02*
X1046800Y932500D01*
X1046800Y972500D01*
X1086800Y972500D01*
X1226500Y870900D02*
X1226500Y830900D01*
X1186500Y830900D01*
X1186500Y870900D01*
X1226500Y870900D01*
X1224600Y703900D02*
X1264600Y703900D01*
X1224600Y703900D02*
X1224600Y743900D01*
X1264600Y743900D01*
X1264600Y703900D01*
X1275400Y615000D02*
X1315400Y615000D01*
X1275400Y615000D02*
X1275400Y655000D01*
X1315400Y655000D01*
X1315400Y615000D01*
X1150300Y462600D02*
X1110300Y462600D01*
X1110300Y502600D01*
X1150300Y502600D01*
X1150300Y462600D01*
X1262700Y373700D02*
X1302700Y373700D01*
X1262700Y373700D02*
X1262700Y413700D01*
X1302700Y413700D01*
X1302700Y373700D01*
X1188400Y272100D02*
X1148400Y272100D01*
X1148400Y312100D01*
X1188400Y312100D01*
X1188400Y272100D01*
X1110300Y96200D02*
X1110300Y56200D01*
X1110300Y96200D02*
X1150300Y96200D01*
X1150300Y56200D01*
X1110300Y56200D01*
X1008700Y221300D02*
X1008700Y261300D01*
X1048700Y261300D01*
X1048700Y221300D01*
X1008700Y221300D01*
X780100Y197800D02*
X780100Y157800D01*
X780100Y197800D02*
X820100Y197800D01*
X820100Y157800D01*
X780100Y157800D01*
M02*
