G04 EAGLE Gerber RS-274X export*
G75*
%MOMM*%
%FSLAX34Y34*%
%LPD*%
%IN*%
%IPPOS*%
%AMOC8*
5,1,8,0,0,1.08239X$1,22.5*%
G01*
%ADD10C,0.025000*%
%ADD11C,0.254000*%


D10*
X1659098Y557614D02*
X1665914Y588358D01*
X1669756Y615988D01*
X1670974Y640662D01*
X1669918Y662535D01*
X1666936Y681763D01*
X1662379Y698502D01*
X1656596Y712907D01*
X1649938Y725134D01*
X1635391Y743678D01*
X1621538Y755381D01*
X1611174Y761489D01*
X1607098Y763248D01*
X1610170Y792114D01*
X1610736Y817688D01*
X1609114Y840167D01*
X1605621Y859748D01*
X1600578Y876628D01*
X1594302Y891005D01*
X1587112Y903076D01*
X1579326Y913039D01*
X1563242Y927428D01*
X1548599Y935752D01*
X1533826Y940516D01*
X1530551Y963390D01*
X1525355Y982581D01*
X1518531Y998392D01*
X1510375Y1011129D01*
X1501180Y1021095D01*
X1491240Y1028597D01*
X1480850Y1033938D01*
X1470305Y1037424D01*
X1449924Y1040046D01*
X1432451Y1038901D01*
X1415647Y1035060D01*
X1407583Y1062652D01*
X1397782Y1087059D01*
X1386554Y1108474D01*
X1374211Y1127092D01*
X1361065Y1143106D01*
X1347427Y1156710D01*
X1333609Y1168099D01*
X1319923Y1177465D01*
X1294192Y1190908D01*
X1272726Y1198589D01*
X1252562Y1202873D01*
X1242081Y1217063D01*
X1230320Y1228757D01*
X1217547Y1238172D01*
X1204034Y1245528D01*
X1190050Y1251041D01*
X1175865Y1254931D01*
X1147972Y1258712D01*
X1122518Y1258615D01*
X1101661Y1256385D01*
X1082383Y1252508D01*
X1062723Y1267964D01*
X1042876Y1279990D01*
X1023042Y1288920D01*
X1003423Y1295090D01*
X984220Y1298837D01*
X965633Y1300497D01*
X947863Y1300404D01*
X931111Y1298895D01*
X901465Y1292972D01*
X878299Y1285415D01*
X857839Y1276145D01*
X847217Y1286272D01*
X836679Y1293789D01*
X826306Y1298965D01*
X816182Y1302070D01*
X806391Y1303375D01*
X797015Y1303150D01*
X779842Y1299190D01*
X765328Y1292348D01*
X754138Y1284787D01*
X744388Y1276145D01*
X704014Y1294311D01*
X664589Y1306687D01*
X626341Y1313912D01*
X589499Y1316621D01*
X554291Y1315453D01*
X520946Y1311045D01*
X489692Y1304032D01*
X460757Y1295053D01*
X434371Y1284745D01*
X410762Y1273744D01*
X372787Y1252214D01*
X348662Y1235558D01*
X340214Y1228873D01*
X310356Y1227519D01*
X283604Y1223694D01*
X259795Y1217749D01*
X238765Y1210038D01*
X220353Y1200915D01*
X204396Y1190732D01*
X190731Y1179843D01*
X179195Y1168601D01*
X161860Y1146470D01*
X151090Y1127164D01*
X144036Y1108329D01*
X111052Y1092582D01*
X83584Y1074865D01*
X61165Y1055591D01*
X43325Y1035170D01*
X29599Y1014015D01*
X19519Y992538D01*
X12617Y971151D01*
X8427Y950266D01*
X6479Y930294D01*
X6308Y911649D01*
X9425Y879986D01*
X14037Y858570D01*
X16406Y850699D01*
X9040Y831021D01*
X4458Y811935D01*
X2341Y793535D01*
X2371Y775914D01*
X4229Y759165D01*
X7596Y743382D01*
X17585Y715088D01*
X29790Y691780D01*
X41663Y674205D01*
X54219Y659248D01*
X52900Y643271D01*
X54853Y628148D01*
X59637Y613905D01*
X66814Y600566D01*
X75944Y588154D01*
X86587Y576694D01*
X110652Y556729D01*
X135493Y540862D01*
X157591Y529289D01*
X179491Y519797D01*
X190157Y506846D01*
X202444Y495409D01*
X216032Y485390D01*
X230604Y476698D01*
X261423Y462918D01*
X292352Y453320D01*
X320845Y447157D01*
X344351Y443681D01*
X366214Y441798D01*
X363169Y418808D01*
X362639Y398309D01*
X364383Y380159D01*
X368158Y364219D01*
X373722Y350348D01*
X380831Y338406D01*
X389243Y328252D01*
X398716Y319746D01*
X409007Y312748D01*
X419874Y307117D01*
X442363Y299394D01*
X464244Y295456D01*
X483576Y294178D01*
X483576Y702237D01*
X515834Y702237D01*
X515834Y281168D01*
X524645Y268415D01*
X534241Y257267D01*
X544552Y247645D01*
X555509Y239470D01*
X579078Y227148D01*
X604391Y219670D01*
X630888Y216407D01*
X658012Y216730D01*
X685203Y220010D01*
X711904Y225616D01*
X737555Y232920D01*
X761598Y241293D01*
X802626Y258725D01*
X830520Y272876D01*
X840811Y278712D01*
X858678Y265078D01*
X858678Y768388D01*
X874936Y768388D01*
X874936Y257214D01*
X886142Y254259D01*
X896258Y253333D01*
X912721Y255552D01*
X923329Y259839D01*
X927086Y262164D01*
X927354Y241746D01*
X932036Y224679D01*
X939760Y210770D01*
X949156Y199825D01*
X958851Y191649D01*
X967474Y186049D01*
X976018Y181802D01*
X971264Y162399D01*
X970004Y144900D01*
X971797Y129214D01*
X976204Y115254D01*
X982786Y102927D01*
X991102Y92145D01*
X1000713Y82816D01*
X1011179Y74852D01*
X1032918Y62656D01*
X1052800Y54836D01*
X1072928Y49444D01*
X1112632Y33899D01*
X1149992Y22039D01*
X1185065Y13576D01*
X1217906Y8222D01*
X1217906Y702237D01*
X1250164Y702237D01*
X1250164Y5631D01*
X1281411Y5941D01*
X1310135Y8967D01*
X1336407Y14330D01*
X1360295Y21655D01*
X1381871Y30562D01*
X1401205Y40675D01*
X1418365Y51616D01*
X1433422Y63008D01*
X1457506Y85635D01*
X1474016Y105535D01*
X1486553Y125079D01*
X1499859Y131806D01*
X1510675Y139454D01*
X1519226Y147836D01*
X1525738Y156765D01*
X1530436Y166054D01*
X1533545Y175516D01*
X1535895Y194213D01*
X1534588Y211358D01*
X1531426Y225456D01*
X1526736Y238530D01*
X1556444Y248771D01*
X1581149Y259858D01*
X1601277Y271581D01*
X1617254Y283734D01*
X1629505Y296108D01*
X1638457Y308496D01*
X1644536Y320690D01*
X1648166Y332483D01*
X1649775Y343666D01*
X1649787Y354032D01*
X1646727Y371482D01*
X1642393Y383170D01*
X1640191Y387436D01*
X1652867Y406096D01*
X1662717Y423928D01*
X1670020Y440881D01*
X1675052Y456903D01*
X1678089Y471942D01*
X1679409Y485945D01*
X1678006Y510638D01*
X1673057Y530567D01*
X1666779Y545316D01*
X1659098Y557614D01*
D11*
X2341Y793535D02*
X2371Y775914D01*
X4229Y759165D01*
X7596Y743382D01*
X17585Y715088D01*
X29790Y691780D01*
X41663Y674205D01*
X54219Y659248D01*
X52900Y643271D01*
X54853Y628148D01*
X59637Y613905D01*
X66814Y600566D01*
X75944Y588154D01*
X86587Y576694D01*
X110652Y556729D01*
X135493Y540862D01*
X157591Y529289D01*
X179491Y519797D01*
X190157Y506846D01*
X202444Y495409D01*
X216032Y485390D01*
X230604Y476698D01*
X261423Y462918D01*
X292352Y453320D01*
X320845Y447157D01*
X344351Y443681D01*
X366214Y441798D01*
X363169Y418808D01*
X362639Y398309D01*
X364383Y380159D01*
X368158Y364219D01*
X373722Y350348D01*
X380831Y338406D01*
X389243Y328252D01*
X398716Y319746D01*
X409007Y312748D01*
X419874Y307117D01*
X442363Y299394D01*
X464244Y295456D01*
X483576Y294178D01*
X483576Y702237D01*
X515834Y702237D01*
X515834Y281168D01*
X524645Y268415D01*
X534241Y257267D01*
X544552Y247645D01*
X555509Y239470D01*
X579078Y227148D01*
X604391Y219670D01*
X630888Y216407D01*
X658012Y216730D01*
X685203Y220010D01*
X711904Y225616D01*
X737555Y232920D01*
X761598Y241293D01*
X802626Y258725D01*
X830520Y272876D01*
X840811Y278712D01*
X858678Y265078D01*
X858678Y768388D01*
X874936Y768388D01*
X874936Y257214D01*
X886142Y254259D01*
X896258Y253333D01*
X912721Y255552D01*
X923329Y259839D01*
X927086Y262164D01*
X927354Y241746D01*
X932036Y224679D01*
X939760Y210770D01*
X949156Y199825D01*
X958851Y191649D01*
X967474Y186049D01*
X976018Y181802D01*
X971264Y162399D01*
X970004Y144900D01*
X971797Y129214D01*
X976204Y115254D01*
X982786Y102927D01*
X991102Y92145D01*
X1000713Y82816D01*
X1011179Y74852D01*
X1032918Y62656D01*
X1052800Y54836D01*
X1072928Y49444D01*
X1112632Y33899D01*
X1149992Y22039D01*
X1185065Y13576D01*
X1217906Y8222D01*
X1217906Y702237D01*
X1250164Y702237D01*
X1250164Y5631D01*
X1281411Y5941D01*
X1310135Y8967D01*
X1336407Y14330D01*
X1360295Y21655D01*
X1381871Y30562D01*
X1401205Y40675D01*
X1418365Y51616D01*
X1433422Y63008D01*
X1457506Y85635D01*
X1474016Y105535D01*
X1486553Y125079D01*
X1499859Y131806D01*
X1510675Y139454D01*
X1519226Y147836D01*
X1525738Y156765D01*
X1530436Y166054D01*
X1533545Y175516D01*
X1535895Y194213D01*
X1534588Y211358D01*
X1531426Y225456D01*
X1526736Y238530D01*
X1556444Y248771D01*
X1581149Y259858D01*
X1601277Y271581D01*
X1617254Y283734D01*
X1629505Y296108D01*
X1638457Y308496D01*
X1644536Y320690D01*
X1648166Y332483D01*
X1649775Y343666D01*
X1649787Y354032D01*
X1646727Y371482D01*
X1642393Y383170D01*
X1640191Y387436D01*
X1652867Y406096D01*
X1662717Y423928D01*
X1670020Y440881D01*
X1675052Y456903D01*
X1678089Y471942D01*
X1679409Y485945D01*
X1678006Y510638D01*
X1673057Y530567D01*
X1666779Y545316D01*
X1659098Y557614D01*
X1665914Y588358D01*
X1669756Y615988D01*
X1670974Y640662D01*
X1669918Y662535D01*
X1666936Y681763D01*
X1662379Y698502D01*
X1656596Y712907D01*
X1649938Y725134D01*
X1635391Y743678D01*
X1621538Y755381D01*
X1611174Y761489D01*
X1607098Y763248D01*
X1610170Y792114D01*
X1610736Y817688D01*
X1609114Y840167D01*
X1605621Y859748D01*
X1600578Y876628D01*
X1594302Y891005D01*
X1587112Y903076D01*
X1579326Y913039D01*
X1563242Y927428D01*
X1548599Y935752D01*
X1533826Y940516D01*
X1530551Y963390D01*
X1525355Y982581D01*
X1518531Y998392D01*
X1510375Y1011129D01*
X1501180Y1021095D01*
X1491240Y1028597D01*
X1480850Y1033938D01*
X1470305Y1037424D01*
X1449924Y1040046D01*
X1432451Y1038901D01*
X1415647Y1035060D01*
X1407583Y1062652D01*
X1397782Y1087059D01*
X1386554Y1108474D01*
X1374211Y1127092D01*
X1361065Y1143106D01*
X1347427Y1156710D01*
X1333609Y1168099D01*
X1319923Y1177465D01*
X1294192Y1190908D01*
X1272726Y1198589D01*
X1252562Y1202873D01*
X1242081Y1217063D01*
X1230320Y1228757D01*
X1217547Y1238172D01*
X1204034Y1245528D01*
X1190050Y1251041D01*
X1175865Y1254931D01*
X1147972Y1258712D01*
X1122518Y1258615D01*
X1101661Y1256385D01*
X1082383Y1252508D01*
X1062723Y1267964D01*
X1042876Y1279990D01*
X1023042Y1288920D01*
X1003423Y1295090D01*
X984220Y1298837D01*
X965633Y1300497D01*
X947863Y1300404D01*
X931111Y1298895D01*
X901465Y1292972D01*
X878299Y1285415D01*
X857839Y1276145D01*
X847217Y1286272D01*
X836679Y1293789D01*
X826306Y1298965D01*
X816182Y1302070D01*
X806391Y1303375D01*
X797015Y1303150D01*
X779842Y1299190D01*
X765328Y1292348D01*
X754138Y1284787D01*
X744388Y1276145D01*
X704014Y1294311D01*
X664589Y1306687D01*
X626341Y1313912D01*
X589499Y1316621D01*
X554291Y1315453D01*
X520946Y1311045D01*
X489692Y1304032D01*
X460757Y1295053D01*
X434371Y1284745D01*
X410762Y1273744D01*
X372787Y1252214D01*
X348662Y1235558D01*
X340214Y1228873D01*
X310356Y1227519D01*
X283604Y1223694D01*
X259795Y1217749D01*
X238765Y1210038D01*
X220353Y1200915D01*
X204396Y1190732D01*
X190731Y1179843D01*
X179195Y1168601D01*
X161860Y1146470D01*
X151090Y1127164D01*
X144036Y1108329D01*
X111052Y1092582D01*
X83584Y1074865D01*
X61165Y1055591D01*
X43325Y1035170D01*
X29599Y1014015D01*
X19519Y992538D01*
X12617Y971151D01*
X8427Y950266D01*
X6479Y930294D01*
X6308Y911649D01*
X9425Y879986D01*
X14037Y858570D01*
X16406Y850699D01*
X9040Y831021D01*
X4458Y811935D01*
X2341Y793535D01*
M02*
