G04 EAGLE Gerber RS-274X export*
G75*
%MOMM*%
%FSLAX34Y34*%
%LPD*%
%INSolderpaste Bottom*%
%IPPOS*%
%AMOC8*
5,1,8,0,0,1.08239X$1,22.5*%
G01*
%ADD10R,0.850000X1.900000*%
%ADD11R,0.850000X1.000000*%
%ADD12R,0.850000X1.150000*%
%ADD13R,0.850000X2.000000*%
%ADD14R,1.900000X0.850000*%
%ADD15R,1.000000X0.850000*%
%ADD16R,1.150000X0.850000*%
%ADD17R,2.000000X0.850000*%


D10*
X823608Y850028D03*
D11*
X841108Y845528D03*
D12*
X823608Y871778D03*
D13*
X841108Y867528D03*
D10*
X601332Y853550D03*
D11*
X583832Y858050D03*
D12*
X601332Y831800D03*
D13*
X583832Y836050D03*
D14*
X724806Y781164D03*
D15*
X720306Y763664D03*
D16*
X746556Y781164D03*
D17*
X742306Y763664D03*
D14*
X1079390Y792340D03*
D15*
X1074890Y774840D03*
D16*
X1101140Y792340D03*
D17*
X1096890Y774840D03*
D14*
X999600Y905650D03*
D15*
X1004100Y923150D03*
D16*
X977850Y905650D03*
D17*
X982100Y923150D03*
D14*
X809100Y956450D03*
D15*
X813600Y973950D03*
D16*
X787350Y956450D03*
D17*
X791600Y973950D03*
D14*
X580500Y957720D03*
D15*
X585000Y975220D03*
D16*
X558750Y957720D03*
D17*
X563000Y975220D03*
D10*
X402450Y923400D03*
D11*
X384950Y927900D03*
D12*
X402450Y901650D03*
D13*
X384950Y905900D03*
D10*
X554850Y783700D03*
D11*
X537350Y788200D03*
D12*
X554850Y761950D03*
D13*
X537350Y766200D03*
D14*
X761636Y683882D03*
D15*
X757136Y666382D03*
D16*
X783386Y683882D03*
D17*
X779136Y666382D03*
D14*
X1067960Y617588D03*
D15*
X1063460Y600088D03*
D16*
X1089710Y617588D03*
D17*
X1085460Y600088D03*
D14*
X1324754Y638162D03*
D15*
X1320254Y620662D03*
D16*
X1346504Y638162D03*
D17*
X1342254Y620662D03*
D10*
X1407046Y740554D03*
D11*
X1424546Y736054D03*
D12*
X1407046Y762304D03*
D13*
X1424546Y758054D03*
D10*
X1273950Y880000D03*
D11*
X1291450Y875500D03*
D12*
X1273950Y901750D03*
D13*
X1291450Y897500D03*
D10*
X1096150Y1007000D03*
D11*
X1113650Y1002500D03*
D12*
X1096150Y1028750D03*
D13*
X1113650Y1024500D03*
D14*
X910700Y1058050D03*
D15*
X915200Y1075550D03*
D16*
X888950Y1058050D03*
D17*
X893200Y1075550D03*
D14*
X631300Y1083450D03*
D15*
X635800Y1100950D03*
D16*
X609550Y1083450D03*
D17*
X613800Y1100950D03*
D14*
X377300Y1032650D03*
D15*
X381800Y1050150D03*
D16*
X355550Y1032650D03*
D17*
X359800Y1050150D03*
D10*
X288150Y834500D03*
D11*
X270650Y839000D03*
D12*
X288150Y812750D03*
D13*
X270650Y817000D03*
D14*
X397400Y656450D03*
D15*
X392900Y638950D03*
D16*
X419150Y656450D03*
D17*
X414900Y638950D03*
D14*
X689500Y542150D03*
D15*
X685000Y524650D03*
D16*
X711250Y542150D03*
D17*
X707000Y524650D03*
D14*
X943500Y516750D03*
D15*
X939000Y499250D03*
D16*
X965250Y516750D03*
D17*
X961000Y499250D03*
D14*
X1108600Y465950D03*
D15*
X1104100Y448450D03*
D16*
X1130350Y465950D03*
D17*
X1126100Y448450D03*
D14*
X1347360Y454774D03*
D15*
X1342860Y437274D03*
D16*
X1369110Y454774D03*
D17*
X1364860Y437274D03*
D14*
X1512460Y543928D03*
D15*
X1507960Y526428D03*
D16*
X1534210Y543928D03*
D17*
X1529960Y526428D03*
D10*
X1553350Y714900D03*
D11*
X1570850Y710400D03*
D12*
X1553350Y736650D03*
D13*
X1570850Y732400D03*
D10*
X1437272Y914036D03*
D11*
X1454772Y909536D03*
D12*
X1437272Y935786D03*
D13*
X1454772Y931536D03*
D14*
X1298558Y1065162D03*
D15*
X1303058Y1082662D03*
D16*
X1276808Y1065162D03*
D17*
X1281058Y1082662D03*
D14*
X1075800Y1172350D03*
D15*
X1080300Y1189850D03*
D16*
X1054050Y1172350D03*
D17*
X1058300Y1189850D03*
D14*
X803258Y1211974D03*
D15*
X807758Y1229474D03*
D16*
X781508Y1211974D03*
D17*
X785758Y1229474D03*
D14*
X546718Y1221626D03*
D15*
X551218Y1239126D03*
D16*
X524968Y1221626D03*
D17*
X529218Y1239126D03*
D14*
X264524Y1115454D03*
D15*
X269024Y1132954D03*
D16*
X242774Y1115454D03*
D17*
X247024Y1132954D03*
D10*
X104000Y959976D03*
D11*
X86500Y964476D03*
D12*
X104000Y938226D03*
D13*
X86500Y942476D03*
D10*
X135750Y809100D03*
D11*
X118250Y813600D03*
D12*
X135750Y787350D03*
D13*
X118250Y791600D03*
D10*
X237350Y644000D03*
D11*
X219850Y648500D03*
D12*
X237350Y622250D03*
D13*
X219850Y626500D03*
D14*
X397400Y516750D03*
D15*
X392900Y499250D03*
D16*
X419150Y516750D03*
D17*
X414900Y499250D03*
D14*
X613300Y389750D03*
D15*
X608800Y372250D03*
D16*
X635050Y389750D03*
D17*
X630800Y372250D03*
D14*
X930800Y338950D03*
D15*
X926300Y321450D03*
D16*
X952550Y338950D03*
D17*
X948300Y321450D03*
D14*
X1146700Y313550D03*
D15*
X1142200Y296050D03*
D16*
X1168450Y313550D03*
D17*
X1164200Y296050D03*
D10*
X1418450Y301100D03*
D11*
X1400950Y305600D03*
D12*
X1418450Y279350D03*
D13*
X1400950Y283600D03*
M02*
