G04 EAGLE Gerber RS-274X export*
G75*
%MOMM*%
%FSLAX34Y34*%
%LPD*%
%INSilkscreen Top*%
%IPPOS*%
%AMOC8*
5,1,8,0,0,1.08239X$1,22.5*%
G01*
%ADD10C,0.203200*%

G36*
X1004165Y1196877D02*
X1004165Y1196877D01*
X1004231Y1196879D01*
X1004274Y1196897D01*
X1004321Y1196905D01*
X1004378Y1196939D01*
X1004438Y1196964D01*
X1004473Y1196995D01*
X1004514Y1197020D01*
X1004556Y1197071D01*
X1004604Y1197115D01*
X1004626Y1197157D01*
X1004655Y1197194D01*
X1004676Y1197256D01*
X1004707Y1197315D01*
X1004715Y1197369D01*
X1004727Y1197406D01*
X1004726Y1197446D01*
X1004734Y1197500D01*
X1004734Y1207500D01*
X1004718Y1207588D01*
X1004709Y1207676D01*
X1004699Y1207697D01*
X1004695Y1207721D01*
X1004649Y1207798D01*
X1004610Y1207877D01*
X1004593Y1207894D01*
X1004580Y1207914D01*
X1004511Y1207970D01*
X1004447Y1208031D01*
X1004425Y1208040D01*
X1004406Y1208055D01*
X1004322Y1208084D01*
X1004240Y1208119D01*
X1004216Y1208120D01*
X1004194Y1208127D01*
X1004105Y1208125D01*
X1004016Y1208129D01*
X1003993Y1208121D01*
X1003969Y1208121D01*
X1003887Y1208087D01*
X1003802Y1208060D01*
X1003781Y1208044D01*
X1003762Y1208036D01*
X1003724Y1208002D01*
X1003652Y1207948D01*
X993652Y1197948D01*
X993601Y1197875D01*
X993545Y1197806D01*
X993537Y1197784D01*
X993523Y1197764D01*
X993501Y1197678D01*
X993473Y1197594D01*
X993473Y1197570D01*
X993468Y1197547D01*
X993477Y1197458D01*
X993479Y1197369D01*
X993488Y1197347D01*
X993491Y1197324D01*
X993530Y1197244D01*
X993564Y1197162D01*
X993580Y1197144D01*
X993590Y1197123D01*
X993655Y1197062D01*
X993715Y1196996D01*
X993736Y1196985D01*
X993753Y1196969D01*
X993835Y1196934D01*
X993915Y1196893D01*
X993941Y1196890D01*
X993960Y1196881D01*
X994010Y1196879D01*
X994100Y1196866D01*
X1004100Y1196866D01*
X1004165Y1196877D01*
G37*
G36*
X707165Y1196877D02*
X707165Y1196877D01*
X707231Y1196879D01*
X707274Y1196897D01*
X707321Y1196905D01*
X707378Y1196939D01*
X707438Y1196964D01*
X707473Y1196995D01*
X707514Y1197020D01*
X707556Y1197071D01*
X707604Y1197115D01*
X707626Y1197157D01*
X707655Y1197194D01*
X707676Y1197256D01*
X707707Y1197315D01*
X707715Y1197369D01*
X707727Y1197406D01*
X707726Y1197446D01*
X707734Y1197500D01*
X707734Y1207500D01*
X707718Y1207588D01*
X707709Y1207676D01*
X707699Y1207697D01*
X707695Y1207721D01*
X707649Y1207798D01*
X707610Y1207877D01*
X707593Y1207894D01*
X707580Y1207914D01*
X707511Y1207970D01*
X707447Y1208031D01*
X707425Y1208040D01*
X707406Y1208055D01*
X707322Y1208084D01*
X707240Y1208119D01*
X707216Y1208120D01*
X707194Y1208127D01*
X707105Y1208125D01*
X707016Y1208129D01*
X706993Y1208121D01*
X706969Y1208121D01*
X706887Y1208087D01*
X706802Y1208060D01*
X706781Y1208044D01*
X706762Y1208036D01*
X706724Y1208002D01*
X706652Y1207948D01*
X696652Y1197948D01*
X696601Y1197875D01*
X696545Y1197806D01*
X696537Y1197784D01*
X696523Y1197764D01*
X696501Y1197678D01*
X696473Y1197594D01*
X696473Y1197570D01*
X696468Y1197547D01*
X696477Y1197458D01*
X696479Y1197369D01*
X696488Y1197347D01*
X696491Y1197324D01*
X696530Y1197244D01*
X696564Y1197162D01*
X696580Y1197144D01*
X696590Y1197123D01*
X696655Y1197062D01*
X696715Y1196996D01*
X696736Y1196985D01*
X696753Y1196969D01*
X696835Y1196934D01*
X696915Y1196893D01*
X696941Y1196890D01*
X696960Y1196881D01*
X697010Y1196879D01*
X697100Y1196866D01*
X707100Y1196866D01*
X707165Y1196877D01*
G37*
G36*
X474765Y1176877D02*
X474765Y1176877D01*
X474831Y1176879D01*
X474874Y1176897D01*
X474921Y1176905D01*
X474978Y1176939D01*
X475038Y1176964D01*
X475073Y1176995D01*
X475114Y1177020D01*
X475156Y1177071D01*
X475204Y1177115D01*
X475226Y1177157D01*
X475255Y1177194D01*
X475276Y1177256D01*
X475307Y1177315D01*
X475315Y1177369D01*
X475327Y1177406D01*
X475326Y1177446D01*
X475334Y1177500D01*
X475334Y1187500D01*
X475318Y1187588D01*
X475309Y1187676D01*
X475299Y1187697D01*
X475295Y1187721D01*
X475249Y1187798D01*
X475210Y1187877D01*
X475193Y1187894D01*
X475180Y1187914D01*
X475111Y1187970D01*
X475047Y1188031D01*
X475025Y1188040D01*
X475006Y1188055D01*
X474922Y1188084D01*
X474840Y1188119D01*
X474816Y1188120D01*
X474794Y1188127D01*
X474705Y1188125D01*
X474616Y1188129D01*
X474593Y1188121D01*
X474569Y1188121D01*
X474487Y1188087D01*
X474402Y1188060D01*
X474381Y1188044D01*
X474362Y1188036D01*
X474324Y1188002D01*
X474252Y1187948D01*
X464252Y1177948D01*
X464201Y1177875D01*
X464145Y1177806D01*
X464137Y1177784D01*
X464123Y1177764D01*
X464101Y1177678D01*
X464073Y1177594D01*
X464073Y1177570D01*
X464068Y1177547D01*
X464077Y1177458D01*
X464079Y1177369D01*
X464088Y1177347D01*
X464091Y1177324D01*
X464130Y1177244D01*
X464164Y1177162D01*
X464180Y1177144D01*
X464190Y1177123D01*
X464255Y1177062D01*
X464315Y1176996D01*
X464336Y1176985D01*
X464353Y1176969D01*
X464435Y1176934D01*
X464515Y1176893D01*
X464541Y1176890D01*
X464560Y1176881D01*
X464610Y1176879D01*
X464700Y1176866D01*
X474700Y1176866D01*
X474765Y1176877D01*
G37*
G36*
X1204765Y1107977D02*
X1204765Y1107977D01*
X1204831Y1107979D01*
X1204874Y1107997D01*
X1204921Y1108005D01*
X1204978Y1108039D01*
X1205038Y1108064D01*
X1205073Y1108095D01*
X1205114Y1108120D01*
X1205156Y1108171D01*
X1205204Y1108215D01*
X1205226Y1108257D01*
X1205255Y1108294D01*
X1205276Y1108356D01*
X1205307Y1108415D01*
X1205315Y1108469D01*
X1205327Y1108506D01*
X1205326Y1108546D01*
X1205334Y1108600D01*
X1205334Y1118600D01*
X1205318Y1118688D01*
X1205309Y1118776D01*
X1205299Y1118797D01*
X1205295Y1118821D01*
X1205249Y1118898D01*
X1205210Y1118977D01*
X1205193Y1118994D01*
X1205180Y1119014D01*
X1205111Y1119070D01*
X1205047Y1119131D01*
X1205025Y1119140D01*
X1205006Y1119155D01*
X1204922Y1119184D01*
X1204840Y1119219D01*
X1204816Y1119220D01*
X1204794Y1119227D01*
X1204705Y1119225D01*
X1204616Y1119229D01*
X1204593Y1119221D01*
X1204569Y1119221D01*
X1204487Y1119187D01*
X1204402Y1119160D01*
X1204381Y1119144D01*
X1204362Y1119136D01*
X1204324Y1119102D01*
X1204252Y1119048D01*
X1194252Y1109048D01*
X1194201Y1108975D01*
X1194145Y1108906D01*
X1194137Y1108884D01*
X1194123Y1108864D01*
X1194101Y1108778D01*
X1194073Y1108694D01*
X1194073Y1108670D01*
X1194068Y1108647D01*
X1194077Y1108558D01*
X1194079Y1108469D01*
X1194088Y1108447D01*
X1194091Y1108424D01*
X1194130Y1108344D01*
X1194164Y1108262D01*
X1194180Y1108244D01*
X1194190Y1108223D01*
X1194255Y1108162D01*
X1194315Y1108096D01*
X1194336Y1108085D01*
X1194353Y1108069D01*
X1194435Y1108034D01*
X1194515Y1107993D01*
X1194541Y1107990D01*
X1194560Y1107981D01*
X1194610Y1107979D01*
X1194700Y1107966D01*
X1204700Y1107966D01*
X1204765Y1107977D01*
G37*
G36*
X851965Y1089377D02*
X851965Y1089377D01*
X852031Y1089379D01*
X852074Y1089397D01*
X852121Y1089405D01*
X852178Y1089439D01*
X852238Y1089464D01*
X852273Y1089495D01*
X852314Y1089520D01*
X852356Y1089571D01*
X852404Y1089615D01*
X852426Y1089657D01*
X852455Y1089694D01*
X852476Y1089756D01*
X852507Y1089815D01*
X852515Y1089869D01*
X852527Y1089906D01*
X852526Y1089946D01*
X852534Y1090000D01*
X852534Y1100000D01*
X852518Y1100088D01*
X852509Y1100176D01*
X852499Y1100197D01*
X852495Y1100221D01*
X852449Y1100298D01*
X852410Y1100377D01*
X852393Y1100394D01*
X852380Y1100414D01*
X852311Y1100470D01*
X852247Y1100531D01*
X852225Y1100540D01*
X852206Y1100555D01*
X852122Y1100584D01*
X852040Y1100619D01*
X852016Y1100620D01*
X851994Y1100627D01*
X851905Y1100625D01*
X851816Y1100629D01*
X851793Y1100621D01*
X851769Y1100621D01*
X851687Y1100587D01*
X851602Y1100560D01*
X851581Y1100544D01*
X851562Y1100536D01*
X851524Y1100502D01*
X851452Y1100448D01*
X841452Y1090448D01*
X841401Y1090375D01*
X841345Y1090306D01*
X841337Y1090284D01*
X841323Y1090264D01*
X841301Y1090178D01*
X841273Y1090094D01*
X841273Y1090070D01*
X841268Y1090047D01*
X841277Y1089958D01*
X841279Y1089869D01*
X841288Y1089847D01*
X841291Y1089824D01*
X841330Y1089744D01*
X841364Y1089662D01*
X841380Y1089644D01*
X841390Y1089623D01*
X841455Y1089562D01*
X841515Y1089496D01*
X841536Y1089485D01*
X841553Y1089469D01*
X841635Y1089434D01*
X841715Y1089393D01*
X841741Y1089390D01*
X841760Y1089381D01*
X841810Y1089379D01*
X841900Y1089366D01*
X851900Y1089366D01*
X851965Y1089377D01*
G37*
G36*
X640065Y1079377D02*
X640065Y1079377D01*
X640131Y1079379D01*
X640174Y1079397D01*
X640221Y1079405D01*
X640278Y1079439D01*
X640338Y1079464D01*
X640373Y1079495D01*
X640414Y1079520D01*
X640456Y1079571D01*
X640504Y1079615D01*
X640526Y1079657D01*
X640555Y1079694D01*
X640576Y1079756D01*
X640607Y1079815D01*
X640615Y1079869D01*
X640627Y1079906D01*
X640626Y1079946D01*
X640634Y1080000D01*
X640634Y1090000D01*
X640618Y1090088D01*
X640609Y1090176D01*
X640599Y1090197D01*
X640595Y1090221D01*
X640549Y1090298D01*
X640510Y1090377D01*
X640493Y1090394D01*
X640480Y1090414D01*
X640411Y1090470D01*
X640347Y1090531D01*
X640325Y1090540D01*
X640306Y1090555D01*
X640222Y1090584D01*
X640140Y1090619D01*
X640116Y1090620D01*
X640094Y1090627D01*
X640005Y1090625D01*
X639916Y1090629D01*
X639893Y1090621D01*
X639869Y1090621D01*
X639787Y1090587D01*
X639702Y1090560D01*
X639681Y1090544D01*
X639662Y1090536D01*
X639624Y1090502D01*
X639552Y1090448D01*
X629552Y1080448D01*
X629501Y1080375D01*
X629445Y1080306D01*
X629437Y1080284D01*
X629423Y1080264D01*
X629401Y1080178D01*
X629373Y1080094D01*
X629373Y1080070D01*
X629368Y1080047D01*
X629377Y1079958D01*
X629379Y1079869D01*
X629388Y1079847D01*
X629391Y1079824D01*
X629430Y1079744D01*
X629464Y1079662D01*
X629480Y1079644D01*
X629490Y1079623D01*
X629555Y1079562D01*
X629615Y1079496D01*
X629636Y1079485D01*
X629653Y1079469D01*
X629735Y1079434D01*
X629815Y1079393D01*
X629841Y1079390D01*
X629860Y1079381D01*
X629910Y1079379D01*
X630000Y1079366D01*
X640000Y1079366D01*
X640065Y1079377D01*
G37*
G36*
X294165Y1065777D02*
X294165Y1065777D01*
X294231Y1065779D01*
X294274Y1065797D01*
X294321Y1065805D01*
X294378Y1065839D01*
X294438Y1065864D01*
X294473Y1065895D01*
X294514Y1065920D01*
X294556Y1065971D01*
X294604Y1066015D01*
X294626Y1066057D01*
X294655Y1066094D01*
X294676Y1066156D01*
X294707Y1066215D01*
X294715Y1066269D01*
X294727Y1066306D01*
X294726Y1066346D01*
X294734Y1066400D01*
X294734Y1076400D01*
X294718Y1076488D01*
X294709Y1076576D01*
X294699Y1076597D01*
X294695Y1076621D01*
X294649Y1076698D01*
X294610Y1076777D01*
X294593Y1076794D01*
X294580Y1076814D01*
X294511Y1076870D01*
X294447Y1076931D01*
X294425Y1076940D01*
X294406Y1076955D01*
X294322Y1076984D01*
X294240Y1077019D01*
X294216Y1077020D01*
X294194Y1077027D01*
X294105Y1077025D01*
X294016Y1077029D01*
X293993Y1077021D01*
X293969Y1077021D01*
X293887Y1076987D01*
X293802Y1076960D01*
X293781Y1076944D01*
X293762Y1076936D01*
X293724Y1076902D01*
X293652Y1076848D01*
X283652Y1066848D01*
X283601Y1066775D01*
X283545Y1066706D01*
X283537Y1066684D01*
X283523Y1066664D01*
X283501Y1066578D01*
X283473Y1066494D01*
X283473Y1066470D01*
X283468Y1066447D01*
X283477Y1066358D01*
X283479Y1066269D01*
X283488Y1066247D01*
X283491Y1066224D01*
X283530Y1066144D01*
X283564Y1066062D01*
X283580Y1066044D01*
X283590Y1066023D01*
X283655Y1065962D01*
X283715Y1065896D01*
X283736Y1065885D01*
X283753Y1065869D01*
X283835Y1065834D01*
X283915Y1065793D01*
X283941Y1065790D01*
X283960Y1065781D01*
X284010Y1065779D01*
X284100Y1065766D01*
X294100Y1065766D01*
X294165Y1065777D01*
G37*
G36*
X470065Y1029377D02*
X470065Y1029377D01*
X470131Y1029379D01*
X470174Y1029397D01*
X470221Y1029405D01*
X470278Y1029439D01*
X470338Y1029464D01*
X470373Y1029495D01*
X470414Y1029520D01*
X470456Y1029571D01*
X470504Y1029615D01*
X470526Y1029657D01*
X470555Y1029694D01*
X470576Y1029756D01*
X470607Y1029815D01*
X470615Y1029869D01*
X470627Y1029906D01*
X470626Y1029946D01*
X470634Y1030000D01*
X470634Y1040000D01*
X470618Y1040088D01*
X470609Y1040176D01*
X470599Y1040197D01*
X470595Y1040221D01*
X470549Y1040298D01*
X470510Y1040377D01*
X470493Y1040394D01*
X470480Y1040414D01*
X470411Y1040470D01*
X470347Y1040531D01*
X470325Y1040540D01*
X470306Y1040555D01*
X470222Y1040584D01*
X470140Y1040619D01*
X470116Y1040620D01*
X470094Y1040627D01*
X470005Y1040625D01*
X469916Y1040629D01*
X469893Y1040621D01*
X469869Y1040621D01*
X469787Y1040587D01*
X469702Y1040560D01*
X469681Y1040544D01*
X469662Y1040536D01*
X469624Y1040502D01*
X469552Y1040448D01*
X459552Y1030448D01*
X459501Y1030375D01*
X459445Y1030306D01*
X459437Y1030284D01*
X459423Y1030264D01*
X459401Y1030178D01*
X459373Y1030094D01*
X459373Y1030070D01*
X459368Y1030047D01*
X459377Y1029958D01*
X459379Y1029869D01*
X459388Y1029847D01*
X459391Y1029824D01*
X459430Y1029744D01*
X459464Y1029662D01*
X459480Y1029644D01*
X459490Y1029623D01*
X459555Y1029562D01*
X459615Y1029496D01*
X459636Y1029485D01*
X459653Y1029469D01*
X459735Y1029434D01*
X459815Y1029393D01*
X459841Y1029390D01*
X459860Y1029381D01*
X459910Y1029379D01*
X460000Y1029366D01*
X470000Y1029366D01*
X470065Y1029377D01*
G37*
G36*
X150042Y979377D02*
X150042Y979377D01*
X150131Y979379D01*
X150153Y979388D01*
X150176Y979391D01*
X150256Y979430D01*
X150338Y979464D01*
X150356Y979480D01*
X150377Y979490D01*
X150438Y979555D01*
X150504Y979615D01*
X150515Y979636D01*
X150531Y979653D01*
X150566Y979735D01*
X150607Y979815D01*
X150610Y979841D01*
X150619Y979860D01*
X150621Y979910D01*
X150634Y980000D01*
X150634Y990000D01*
X150623Y990065D01*
X150621Y990131D01*
X150603Y990174D01*
X150595Y990221D01*
X150561Y990278D01*
X150536Y990338D01*
X150505Y990373D01*
X150480Y990414D01*
X150429Y990456D01*
X150385Y990504D01*
X150343Y990526D01*
X150306Y990555D01*
X150244Y990576D01*
X150185Y990607D01*
X150131Y990615D01*
X150094Y990627D01*
X150054Y990626D01*
X150000Y990634D01*
X140000Y990634D01*
X139912Y990618D01*
X139824Y990609D01*
X139803Y990599D01*
X139779Y990595D01*
X139702Y990549D01*
X139623Y990510D01*
X139606Y990493D01*
X139586Y990480D01*
X139530Y990411D01*
X139469Y990347D01*
X139460Y990325D01*
X139445Y990306D01*
X139416Y990222D01*
X139381Y990140D01*
X139380Y990116D01*
X139373Y990094D01*
X139375Y990005D01*
X139371Y989916D01*
X139379Y989893D01*
X139379Y989869D01*
X139413Y989787D01*
X139440Y989702D01*
X139456Y989681D01*
X139464Y989662D01*
X139498Y989624D01*
X139552Y989552D01*
X149552Y979552D01*
X149625Y979501D01*
X149694Y979445D01*
X149716Y979437D01*
X149736Y979423D01*
X149822Y979401D01*
X149906Y979373D01*
X149930Y979373D01*
X149953Y979368D01*
X150042Y979377D01*
G37*
G36*
X1140965Y975077D02*
X1140965Y975077D01*
X1141031Y975079D01*
X1141074Y975097D01*
X1141121Y975105D01*
X1141178Y975139D01*
X1141238Y975164D01*
X1141273Y975195D01*
X1141314Y975220D01*
X1141356Y975271D01*
X1141404Y975315D01*
X1141426Y975357D01*
X1141455Y975394D01*
X1141476Y975456D01*
X1141507Y975515D01*
X1141515Y975569D01*
X1141527Y975606D01*
X1141526Y975646D01*
X1141534Y975700D01*
X1141534Y985700D01*
X1141518Y985788D01*
X1141509Y985876D01*
X1141499Y985897D01*
X1141495Y985921D01*
X1141449Y985998D01*
X1141410Y986077D01*
X1141393Y986094D01*
X1141380Y986114D01*
X1141311Y986170D01*
X1141247Y986231D01*
X1141225Y986240D01*
X1141206Y986255D01*
X1141122Y986284D01*
X1141040Y986319D01*
X1141016Y986320D01*
X1140994Y986327D01*
X1140905Y986325D01*
X1140816Y986329D01*
X1140793Y986321D01*
X1140769Y986321D01*
X1140687Y986287D01*
X1140602Y986260D01*
X1140581Y986244D01*
X1140562Y986236D01*
X1140524Y986202D01*
X1140452Y986148D01*
X1130452Y976148D01*
X1130401Y976075D01*
X1130345Y976006D01*
X1130337Y975984D01*
X1130323Y975964D01*
X1130301Y975878D01*
X1130273Y975794D01*
X1130273Y975770D01*
X1130268Y975747D01*
X1130277Y975658D01*
X1130279Y975569D01*
X1130288Y975547D01*
X1130291Y975524D01*
X1130330Y975444D01*
X1130364Y975362D01*
X1130380Y975344D01*
X1130390Y975323D01*
X1130455Y975262D01*
X1130515Y975196D01*
X1130536Y975185D01*
X1130553Y975169D01*
X1130635Y975134D01*
X1130715Y975093D01*
X1130741Y975090D01*
X1130760Y975081D01*
X1130810Y975079D01*
X1130900Y975066D01*
X1140900Y975066D01*
X1140965Y975077D01*
G37*
G36*
X1373965Y969677D02*
X1373965Y969677D01*
X1374031Y969679D01*
X1374074Y969697D01*
X1374121Y969705D01*
X1374178Y969739D01*
X1374238Y969764D01*
X1374273Y969795D01*
X1374314Y969820D01*
X1374356Y969871D01*
X1374404Y969915D01*
X1374426Y969957D01*
X1374455Y969994D01*
X1374476Y970056D01*
X1374507Y970115D01*
X1374515Y970169D01*
X1374527Y970206D01*
X1374526Y970246D01*
X1374534Y970300D01*
X1374534Y980300D01*
X1374518Y980388D01*
X1374509Y980476D01*
X1374499Y980497D01*
X1374495Y980521D01*
X1374449Y980598D01*
X1374410Y980677D01*
X1374393Y980694D01*
X1374380Y980714D01*
X1374311Y980770D01*
X1374247Y980831D01*
X1374225Y980840D01*
X1374206Y980855D01*
X1374122Y980884D01*
X1374040Y980919D01*
X1374016Y980920D01*
X1373994Y980927D01*
X1373905Y980925D01*
X1373816Y980929D01*
X1373793Y980921D01*
X1373769Y980921D01*
X1373687Y980887D01*
X1373602Y980860D01*
X1373581Y980844D01*
X1373562Y980836D01*
X1373524Y980802D01*
X1373452Y980748D01*
X1363452Y970748D01*
X1363401Y970675D01*
X1363345Y970606D01*
X1363337Y970584D01*
X1363323Y970564D01*
X1363301Y970478D01*
X1363273Y970394D01*
X1363273Y970370D01*
X1363268Y970347D01*
X1363277Y970258D01*
X1363279Y970169D01*
X1363288Y970147D01*
X1363291Y970124D01*
X1363330Y970044D01*
X1363364Y969962D01*
X1363380Y969944D01*
X1363390Y969923D01*
X1363455Y969862D01*
X1363515Y969796D01*
X1363536Y969785D01*
X1363553Y969769D01*
X1363635Y969734D01*
X1363715Y969693D01*
X1363741Y969690D01*
X1363760Y969681D01*
X1363810Y969679D01*
X1363900Y969666D01*
X1373900Y969666D01*
X1373965Y969677D01*
G37*
G36*
X940065Y949377D02*
X940065Y949377D01*
X940131Y949379D01*
X940174Y949397D01*
X940221Y949405D01*
X940278Y949439D01*
X940338Y949464D01*
X940373Y949495D01*
X940414Y949520D01*
X940456Y949571D01*
X940504Y949615D01*
X940526Y949657D01*
X940555Y949694D01*
X940576Y949756D01*
X940607Y949815D01*
X940615Y949869D01*
X940627Y949906D01*
X940626Y949946D01*
X940634Y950000D01*
X940634Y960000D01*
X940618Y960088D01*
X940609Y960176D01*
X940599Y960197D01*
X940595Y960221D01*
X940549Y960298D01*
X940510Y960377D01*
X940493Y960394D01*
X940480Y960414D01*
X940411Y960470D01*
X940347Y960531D01*
X940325Y960540D01*
X940306Y960555D01*
X940222Y960584D01*
X940140Y960619D01*
X940116Y960620D01*
X940094Y960627D01*
X940005Y960625D01*
X939916Y960629D01*
X939893Y960621D01*
X939869Y960621D01*
X939787Y960587D01*
X939702Y960560D01*
X939681Y960544D01*
X939662Y960536D01*
X939624Y960502D01*
X939552Y960448D01*
X929552Y950448D01*
X929501Y950375D01*
X929445Y950306D01*
X929437Y950284D01*
X929423Y950264D01*
X929401Y950178D01*
X929373Y950094D01*
X929373Y950070D01*
X929368Y950047D01*
X929377Y949958D01*
X929379Y949869D01*
X929388Y949847D01*
X929391Y949824D01*
X929430Y949744D01*
X929464Y949662D01*
X929480Y949644D01*
X929490Y949623D01*
X929555Y949562D01*
X929615Y949496D01*
X929636Y949485D01*
X929653Y949469D01*
X929735Y949434D01*
X929815Y949393D01*
X929841Y949390D01*
X929860Y949381D01*
X929910Y949379D01*
X930000Y949366D01*
X940000Y949366D01*
X940065Y949377D01*
G37*
G36*
X660065Y949377D02*
X660065Y949377D01*
X660131Y949379D01*
X660174Y949397D01*
X660221Y949405D01*
X660278Y949439D01*
X660338Y949464D01*
X660373Y949495D01*
X660414Y949520D01*
X660456Y949571D01*
X660504Y949615D01*
X660526Y949657D01*
X660555Y949694D01*
X660576Y949756D01*
X660607Y949815D01*
X660615Y949869D01*
X660627Y949906D01*
X660626Y949946D01*
X660634Y950000D01*
X660634Y960000D01*
X660618Y960088D01*
X660609Y960176D01*
X660599Y960197D01*
X660595Y960221D01*
X660549Y960298D01*
X660510Y960377D01*
X660493Y960394D01*
X660480Y960414D01*
X660411Y960470D01*
X660347Y960531D01*
X660325Y960540D01*
X660306Y960555D01*
X660222Y960584D01*
X660140Y960619D01*
X660116Y960620D01*
X660094Y960627D01*
X660005Y960625D01*
X659916Y960629D01*
X659893Y960621D01*
X659869Y960621D01*
X659787Y960587D01*
X659702Y960560D01*
X659681Y960544D01*
X659662Y960536D01*
X659624Y960502D01*
X659552Y960448D01*
X649552Y950448D01*
X649501Y950375D01*
X649445Y950306D01*
X649437Y950284D01*
X649423Y950264D01*
X649401Y950178D01*
X649373Y950094D01*
X649373Y950070D01*
X649368Y950047D01*
X649377Y949958D01*
X649379Y949869D01*
X649388Y949847D01*
X649391Y949824D01*
X649430Y949744D01*
X649464Y949662D01*
X649480Y949644D01*
X649490Y949623D01*
X649555Y949562D01*
X649615Y949496D01*
X649636Y949485D01*
X649653Y949469D01*
X649735Y949434D01*
X649815Y949393D01*
X649841Y949390D01*
X649860Y949381D01*
X649910Y949379D01*
X650000Y949366D01*
X660000Y949366D01*
X660065Y949377D01*
G37*
G36*
X280042Y929377D02*
X280042Y929377D01*
X280131Y929379D01*
X280153Y929388D01*
X280176Y929391D01*
X280256Y929430D01*
X280338Y929464D01*
X280356Y929480D01*
X280377Y929490D01*
X280438Y929555D01*
X280504Y929615D01*
X280515Y929636D01*
X280531Y929653D01*
X280566Y929735D01*
X280607Y929815D01*
X280610Y929841D01*
X280619Y929860D01*
X280621Y929910D01*
X280634Y930000D01*
X280634Y940000D01*
X280623Y940065D01*
X280621Y940131D01*
X280603Y940174D01*
X280595Y940221D01*
X280561Y940278D01*
X280536Y940338D01*
X280505Y940373D01*
X280480Y940414D01*
X280429Y940456D01*
X280385Y940504D01*
X280343Y940526D01*
X280306Y940555D01*
X280244Y940576D01*
X280185Y940607D01*
X280131Y940615D01*
X280094Y940627D01*
X280054Y940626D01*
X280000Y940634D01*
X270000Y940634D01*
X269912Y940618D01*
X269824Y940609D01*
X269803Y940599D01*
X269779Y940595D01*
X269702Y940549D01*
X269623Y940510D01*
X269606Y940493D01*
X269586Y940480D01*
X269530Y940411D01*
X269469Y940347D01*
X269460Y940325D01*
X269445Y940306D01*
X269416Y940222D01*
X269381Y940140D01*
X269380Y940116D01*
X269373Y940094D01*
X269375Y940005D01*
X269371Y939916D01*
X269379Y939893D01*
X269379Y939869D01*
X269413Y939787D01*
X269440Y939702D01*
X269456Y939681D01*
X269464Y939662D01*
X269498Y939624D01*
X269552Y939552D01*
X279552Y929552D01*
X279625Y929501D01*
X279694Y929445D01*
X279716Y929437D01*
X279736Y929423D01*
X279822Y929401D01*
X279906Y929373D01*
X279930Y929373D01*
X279953Y929368D01*
X280042Y929377D01*
G37*
G36*
X450042Y899377D02*
X450042Y899377D01*
X450131Y899379D01*
X450153Y899388D01*
X450176Y899391D01*
X450256Y899430D01*
X450338Y899464D01*
X450356Y899480D01*
X450377Y899490D01*
X450438Y899555D01*
X450504Y899615D01*
X450515Y899636D01*
X450531Y899653D01*
X450566Y899735D01*
X450607Y899815D01*
X450610Y899841D01*
X450619Y899860D01*
X450621Y899910D01*
X450634Y900000D01*
X450634Y910000D01*
X450623Y910065D01*
X450621Y910131D01*
X450603Y910174D01*
X450595Y910221D01*
X450561Y910278D01*
X450536Y910338D01*
X450505Y910373D01*
X450480Y910414D01*
X450429Y910456D01*
X450385Y910504D01*
X450343Y910526D01*
X450306Y910555D01*
X450244Y910576D01*
X450185Y910607D01*
X450131Y910615D01*
X450094Y910627D01*
X450054Y910626D01*
X450000Y910634D01*
X440000Y910634D01*
X439912Y910618D01*
X439824Y910609D01*
X439803Y910599D01*
X439779Y910595D01*
X439702Y910549D01*
X439623Y910510D01*
X439606Y910493D01*
X439586Y910480D01*
X439530Y910411D01*
X439469Y910347D01*
X439460Y910325D01*
X439445Y910306D01*
X439416Y910222D01*
X439381Y910140D01*
X439380Y910116D01*
X439373Y910094D01*
X439375Y910005D01*
X439371Y909916D01*
X439379Y909893D01*
X439379Y909869D01*
X439413Y909787D01*
X439440Y909702D01*
X439456Y909681D01*
X439464Y909662D01*
X439498Y909624D01*
X439552Y909552D01*
X449552Y899552D01*
X449625Y899501D01*
X449694Y899445D01*
X449716Y899437D01*
X449736Y899423D01*
X449822Y899401D01*
X449906Y899373D01*
X449930Y899373D01*
X449953Y899368D01*
X450042Y899377D01*
G37*
G36*
X810065Y869377D02*
X810065Y869377D01*
X810131Y869379D01*
X810174Y869397D01*
X810221Y869405D01*
X810278Y869439D01*
X810338Y869464D01*
X810373Y869495D01*
X810414Y869520D01*
X810456Y869571D01*
X810504Y869615D01*
X810526Y869657D01*
X810555Y869694D01*
X810576Y869756D01*
X810607Y869815D01*
X810615Y869869D01*
X810627Y869906D01*
X810626Y869946D01*
X810634Y870000D01*
X810634Y880000D01*
X810618Y880088D01*
X810609Y880176D01*
X810599Y880197D01*
X810595Y880221D01*
X810549Y880298D01*
X810510Y880377D01*
X810493Y880394D01*
X810480Y880414D01*
X810411Y880470D01*
X810347Y880531D01*
X810325Y880540D01*
X810306Y880555D01*
X810222Y880584D01*
X810140Y880619D01*
X810116Y880620D01*
X810094Y880627D01*
X810005Y880625D01*
X809916Y880629D01*
X809893Y880621D01*
X809869Y880621D01*
X809787Y880587D01*
X809702Y880560D01*
X809681Y880544D01*
X809662Y880536D01*
X809624Y880502D01*
X809552Y880448D01*
X799552Y870448D01*
X799501Y870375D01*
X799445Y870306D01*
X799437Y870284D01*
X799423Y870264D01*
X799401Y870178D01*
X799373Y870094D01*
X799373Y870070D01*
X799368Y870047D01*
X799377Y869958D01*
X799379Y869869D01*
X799388Y869847D01*
X799391Y869824D01*
X799430Y869744D01*
X799464Y869662D01*
X799480Y869644D01*
X799490Y869623D01*
X799555Y869562D01*
X799615Y869496D01*
X799636Y869485D01*
X799653Y869469D01*
X799735Y869434D01*
X799815Y869393D01*
X799841Y869390D01*
X799860Y869381D01*
X799910Y869379D01*
X800000Y869366D01*
X810000Y869366D01*
X810065Y869377D01*
G37*
G36*
X1051565Y829677D02*
X1051565Y829677D01*
X1051631Y829679D01*
X1051674Y829697D01*
X1051721Y829705D01*
X1051778Y829739D01*
X1051838Y829764D01*
X1051873Y829795D01*
X1051914Y829820D01*
X1051956Y829871D01*
X1052004Y829915D01*
X1052026Y829957D01*
X1052055Y829994D01*
X1052076Y830056D01*
X1052107Y830115D01*
X1052115Y830169D01*
X1052127Y830206D01*
X1052126Y830246D01*
X1052134Y830300D01*
X1052134Y840300D01*
X1052118Y840388D01*
X1052109Y840476D01*
X1052099Y840497D01*
X1052095Y840521D01*
X1052049Y840598D01*
X1052010Y840677D01*
X1051993Y840694D01*
X1051980Y840714D01*
X1051911Y840770D01*
X1051847Y840831D01*
X1051825Y840840D01*
X1051806Y840855D01*
X1051722Y840884D01*
X1051640Y840919D01*
X1051616Y840920D01*
X1051594Y840927D01*
X1051505Y840925D01*
X1051416Y840929D01*
X1051393Y840921D01*
X1051369Y840921D01*
X1051287Y840887D01*
X1051202Y840860D01*
X1051181Y840844D01*
X1051162Y840836D01*
X1051124Y840802D01*
X1051052Y840748D01*
X1041052Y830748D01*
X1041001Y830675D01*
X1040945Y830606D01*
X1040937Y830584D01*
X1040923Y830564D01*
X1040901Y830478D01*
X1040873Y830394D01*
X1040873Y830370D01*
X1040868Y830347D01*
X1040877Y830258D01*
X1040879Y830169D01*
X1040888Y830147D01*
X1040891Y830124D01*
X1040930Y830044D01*
X1040964Y829962D01*
X1040980Y829944D01*
X1040990Y829923D01*
X1041055Y829862D01*
X1041115Y829796D01*
X1041136Y829785D01*
X1041153Y829769D01*
X1041235Y829734D01*
X1041315Y829693D01*
X1041341Y829690D01*
X1041360Y829681D01*
X1041410Y829679D01*
X1041500Y829666D01*
X1051500Y829666D01*
X1051565Y829677D01*
G37*
G36*
X130042Y809377D02*
X130042Y809377D01*
X130131Y809379D01*
X130153Y809388D01*
X130176Y809391D01*
X130256Y809430D01*
X130338Y809464D01*
X130356Y809480D01*
X130377Y809490D01*
X130438Y809555D01*
X130504Y809615D01*
X130515Y809636D01*
X130531Y809653D01*
X130566Y809735D01*
X130607Y809815D01*
X130610Y809841D01*
X130619Y809860D01*
X130621Y809910D01*
X130634Y810000D01*
X130634Y820000D01*
X130623Y820065D01*
X130621Y820131D01*
X130603Y820174D01*
X130595Y820221D01*
X130561Y820278D01*
X130536Y820338D01*
X130505Y820373D01*
X130480Y820414D01*
X130429Y820456D01*
X130385Y820504D01*
X130343Y820526D01*
X130306Y820555D01*
X130244Y820576D01*
X130185Y820607D01*
X130131Y820615D01*
X130094Y820627D01*
X130054Y820626D01*
X130000Y820634D01*
X120000Y820634D01*
X119912Y820618D01*
X119824Y820609D01*
X119803Y820599D01*
X119779Y820595D01*
X119702Y820549D01*
X119623Y820510D01*
X119606Y820493D01*
X119586Y820480D01*
X119530Y820411D01*
X119469Y820347D01*
X119460Y820325D01*
X119445Y820306D01*
X119416Y820222D01*
X119381Y820140D01*
X119380Y820116D01*
X119373Y820094D01*
X119375Y820005D01*
X119371Y819916D01*
X119379Y819893D01*
X119379Y819869D01*
X119413Y819787D01*
X119440Y819702D01*
X119456Y819681D01*
X119464Y819662D01*
X119498Y819624D01*
X119552Y819552D01*
X129552Y809552D01*
X129625Y809501D01*
X129694Y809445D01*
X129716Y809437D01*
X129736Y809423D01*
X129822Y809401D01*
X129906Y809373D01*
X129930Y809373D01*
X129953Y809368D01*
X130042Y809377D01*
G37*
G36*
X640607Y809079D02*
X640607Y809079D01*
X640631Y809079D01*
X640713Y809113D01*
X640798Y809140D01*
X640819Y809156D01*
X640838Y809164D01*
X640876Y809198D01*
X640948Y809252D01*
X650948Y819252D01*
X650999Y819325D01*
X651055Y819394D01*
X651063Y819416D01*
X651077Y819436D01*
X651099Y819522D01*
X651127Y819606D01*
X651127Y819630D01*
X651133Y819653D01*
X651123Y819742D01*
X651121Y819831D01*
X651112Y819853D01*
X651109Y819876D01*
X651070Y819956D01*
X651036Y820038D01*
X651020Y820056D01*
X651010Y820077D01*
X650945Y820138D01*
X650885Y820204D01*
X650864Y820215D01*
X650847Y820231D01*
X650765Y820266D01*
X650685Y820307D01*
X650659Y820310D01*
X650640Y820319D01*
X650590Y820321D01*
X650500Y820334D01*
X640500Y820334D01*
X640435Y820323D01*
X640369Y820321D01*
X640326Y820303D01*
X640279Y820295D01*
X640222Y820261D01*
X640162Y820236D01*
X640127Y820205D01*
X640086Y820180D01*
X640045Y820129D01*
X639996Y820085D01*
X639974Y820043D01*
X639945Y820006D01*
X639924Y819944D01*
X639893Y819885D01*
X639885Y819831D01*
X639873Y819794D01*
X639874Y819754D01*
X639866Y819700D01*
X639866Y809700D01*
X639882Y809612D01*
X639891Y809524D01*
X639901Y809503D01*
X639905Y809479D01*
X639951Y809402D01*
X639990Y809323D01*
X640007Y809306D01*
X640020Y809286D01*
X640089Y809230D01*
X640153Y809169D01*
X640175Y809160D01*
X640194Y809145D01*
X640278Y809116D01*
X640360Y809081D01*
X640384Y809080D01*
X640406Y809073D01*
X640495Y809075D01*
X640584Y809071D01*
X640607Y809079D01*
G37*
G36*
X1515565Y792177D02*
X1515565Y792177D01*
X1515631Y792179D01*
X1515674Y792197D01*
X1515721Y792205D01*
X1515778Y792239D01*
X1515838Y792264D01*
X1515873Y792295D01*
X1515914Y792320D01*
X1515956Y792371D01*
X1516004Y792415D01*
X1516026Y792457D01*
X1516055Y792494D01*
X1516076Y792556D01*
X1516107Y792615D01*
X1516115Y792669D01*
X1516127Y792706D01*
X1516126Y792746D01*
X1516134Y792800D01*
X1516134Y802800D01*
X1516118Y802888D01*
X1516109Y802976D01*
X1516099Y802997D01*
X1516095Y803021D01*
X1516049Y803098D01*
X1516010Y803177D01*
X1515993Y803194D01*
X1515980Y803214D01*
X1515911Y803270D01*
X1515847Y803331D01*
X1515825Y803340D01*
X1515806Y803355D01*
X1515722Y803384D01*
X1515640Y803419D01*
X1515616Y803420D01*
X1515594Y803427D01*
X1515505Y803425D01*
X1515416Y803429D01*
X1515393Y803421D01*
X1515369Y803421D01*
X1515287Y803387D01*
X1515202Y803360D01*
X1515181Y803344D01*
X1515162Y803336D01*
X1515124Y803302D01*
X1515052Y803248D01*
X1505052Y793248D01*
X1505001Y793175D01*
X1504945Y793106D01*
X1504937Y793084D01*
X1504923Y793064D01*
X1504901Y792978D01*
X1504873Y792894D01*
X1504873Y792870D01*
X1504868Y792847D01*
X1504877Y792758D01*
X1504879Y792669D01*
X1504888Y792647D01*
X1504891Y792624D01*
X1504930Y792544D01*
X1504964Y792462D01*
X1504980Y792444D01*
X1504990Y792423D01*
X1505055Y792362D01*
X1505115Y792296D01*
X1505136Y792285D01*
X1505153Y792269D01*
X1505235Y792234D01*
X1505315Y792193D01*
X1505341Y792190D01*
X1505360Y792181D01*
X1505410Y792179D01*
X1505500Y792166D01*
X1515500Y792166D01*
X1515565Y792177D01*
G37*
G36*
X1160088Y779382D02*
X1160088Y779382D01*
X1160176Y779391D01*
X1160197Y779401D01*
X1160221Y779405D01*
X1160298Y779451D01*
X1160377Y779490D01*
X1160394Y779507D01*
X1160414Y779520D01*
X1160470Y779589D01*
X1160531Y779653D01*
X1160540Y779675D01*
X1160555Y779694D01*
X1160584Y779778D01*
X1160619Y779860D01*
X1160620Y779884D01*
X1160627Y779906D01*
X1160625Y779995D01*
X1160629Y780084D01*
X1160621Y780107D01*
X1160621Y780131D01*
X1160587Y780213D01*
X1160560Y780298D01*
X1160544Y780319D01*
X1160536Y780338D01*
X1160502Y780376D01*
X1160448Y780448D01*
X1150448Y790448D01*
X1150375Y790499D01*
X1150306Y790555D01*
X1150284Y790563D01*
X1150264Y790577D01*
X1150178Y790599D01*
X1150094Y790627D01*
X1150070Y790627D01*
X1150047Y790633D01*
X1149958Y790623D01*
X1149869Y790621D01*
X1149847Y790612D01*
X1149824Y790609D01*
X1149744Y790570D01*
X1149662Y790536D01*
X1149644Y790520D01*
X1149623Y790510D01*
X1149562Y790445D01*
X1149496Y790385D01*
X1149485Y790364D01*
X1149469Y790347D01*
X1149434Y790265D01*
X1149393Y790185D01*
X1149390Y790159D01*
X1149381Y790140D01*
X1149379Y790090D01*
X1149366Y790000D01*
X1149366Y780000D01*
X1149377Y779935D01*
X1149379Y779869D01*
X1149397Y779826D01*
X1149405Y779779D01*
X1149439Y779722D01*
X1149464Y779662D01*
X1149495Y779627D01*
X1149520Y779586D01*
X1149571Y779545D01*
X1149615Y779496D01*
X1149657Y779474D01*
X1149694Y779445D01*
X1149756Y779424D01*
X1149815Y779393D01*
X1149869Y779385D01*
X1149906Y779373D01*
X1149946Y779374D01*
X1150000Y779366D01*
X1160000Y779366D01*
X1160088Y779382D01*
G37*
G36*
X532807Y759379D02*
X532807Y759379D01*
X532831Y759379D01*
X532913Y759413D01*
X532998Y759440D01*
X533019Y759456D01*
X533038Y759464D01*
X533076Y759498D01*
X533148Y759552D01*
X543148Y769552D01*
X543199Y769625D01*
X543255Y769694D01*
X543263Y769716D01*
X543277Y769736D01*
X543299Y769822D01*
X543327Y769906D01*
X543327Y769930D01*
X543333Y769953D01*
X543323Y770042D01*
X543321Y770131D01*
X543312Y770153D01*
X543309Y770176D01*
X543270Y770256D01*
X543236Y770338D01*
X543220Y770356D01*
X543210Y770377D01*
X543145Y770438D01*
X543085Y770504D01*
X543064Y770515D01*
X543047Y770531D01*
X542965Y770566D01*
X542885Y770607D01*
X542859Y770610D01*
X542840Y770619D01*
X542790Y770621D01*
X542700Y770634D01*
X532700Y770634D01*
X532635Y770623D01*
X532569Y770621D01*
X532526Y770603D01*
X532479Y770595D01*
X532422Y770561D01*
X532362Y770536D01*
X532327Y770505D01*
X532286Y770480D01*
X532245Y770429D01*
X532196Y770385D01*
X532174Y770343D01*
X532145Y770306D01*
X532124Y770244D01*
X532093Y770185D01*
X532085Y770131D01*
X532073Y770094D01*
X532074Y770054D01*
X532066Y770000D01*
X532066Y760000D01*
X532082Y759912D01*
X532091Y759824D01*
X532101Y759803D01*
X532105Y759779D01*
X532151Y759702D01*
X532190Y759623D01*
X532207Y759606D01*
X532220Y759586D01*
X532289Y759530D01*
X532353Y759469D01*
X532375Y759460D01*
X532394Y759445D01*
X532478Y759416D01*
X532560Y759381D01*
X532584Y759380D01*
X532606Y759373D01*
X532695Y759375D01*
X532784Y759371D01*
X532807Y759379D01*
G37*
G36*
X281507Y751179D02*
X281507Y751179D01*
X281531Y751179D01*
X281613Y751213D01*
X281698Y751240D01*
X281719Y751256D01*
X281738Y751264D01*
X281776Y751298D01*
X281848Y751352D01*
X291848Y761352D01*
X291899Y761425D01*
X291955Y761494D01*
X291963Y761516D01*
X291977Y761536D01*
X291999Y761622D01*
X292027Y761706D01*
X292027Y761730D01*
X292033Y761753D01*
X292023Y761842D01*
X292021Y761931D01*
X292012Y761953D01*
X292009Y761976D01*
X291970Y762056D01*
X291936Y762138D01*
X291920Y762156D01*
X291910Y762177D01*
X291845Y762238D01*
X291785Y762304D01*
X291764Y762315D01*
X291747Y762331D01*
X291665Y762366D01*
X291585Y762407D01*
X291559Y762410D01*
X291540Y762419D01*
X291490Y762421D01*
X291400Y762434D01*
X281400Y762434D01*
X281335Y762423D01*
X281269Y762421D01*
X281226Y762403D01*
X281179Y762395D01*
X281122Y762361D01*
X281062Y762336D01*
X281027Y762305D01*
X280986Y762280D01*
X280945Y762229D01*
X280896Y762185D01*
X280874Y762143D01*
X280845Y762106D01*
X280824Y762044D01*
X280793Y761985D01*
X280785Y761931D01*
X280773Y761894D01*
X280774Y761854D01*
X280766Y761800D01*
X280766Y751800D01*
X280782Y751712D01*
X280791Y751624D01*
X280801Y751603D01*
X280805Y751579D01*
X280851Y751502D01*
X280890Y751423D01*
X280907Y751406D01*
X280920Y751386D01*
X280989Y751330D01*
X281053Y751269D01*
X281075Y751260D01*
X281094Y751245D01*
X281178Y751216D01*
X281260Y751181D01*
X281284Y751180D01*
X281306Y751173D01*
X281395Y751175D01*
X281484Y751171D01*
X281507Y751179D01*
G37*
G36*
X1356365Y720577D02*
X1356365Y720577D01*
X1356431Y720579D01*
X1356474Y720597D01*
X1356521Y720605D01*
X1356578Y720639D01*
X1356638Y720664D01*
X1356673Y720695D01*
X1356714Y720720D01*
X1356756Y720771D01*
X1356804Y720815D01*
X1356826Y720857D01*
X1356855Y720894D01*
X1356876Y720956D01*
X1356907Y721015D01*
X1356915Y721069D01*
X1356927Y721106D01*
X1356926Y721146D01*
X1356934Y721200D01*
X1356934Y731200D01*
X1356918Y731288D01*
X1356909Y731376D01*
X1356899Y731397D01*
X1356895Y731421D01*
X1356849Y731498D01*
X1356810Y731577D01*
X1356793Y731594D01*
X1356780Y731614D01*
X1356711Y731670D01*
X1356647Y731731D01*
X1356625Y731740D01*
X1356606Y731755D01*
X1356522Y731784D01*
X1356440Y731819D01*
X1356416Y731820D01*
X1356394Y731827D01*
X1356305Y731825D01*
X1356216Y731829D01*
X1356193Y731821D01*
X1356169Y731821D01*
X1356087Y731787D01*
X1356002Y731760D01*
X1355981Y731744D01*
X1355962Y731736D01*
X1355924Y731702D01*
X1355852Y731648D01*
X1345852Y721648D01*
X1345801Y721575D01*
X1345745Y721506D01*
X1345737Y721484D01*
X1345723Y721464D01*
X1345701Y721378D01*
X1345673Y721294D01*
X1345673Y721270D01*
X1345668Y721247D01*
X1345677Y721158D01*
X1345679Y721069D01*
X1345688Y721047D01*
X1345691Y721024D01*
X1345730Y720944D01*
X1345764Y720862D01*
X1345780Y720844D01*
X1345790Y720823D01*
X1345855Y720762D01*
X1345915Y720696D01*
X1345936Y720685D01*
X1345953Y720669D01*
X1346035Y720634D01*
X1346115Y720593D01*
X1346141Y720590D01*
X1346160Y720581D01*
X1346210Y720579D01*
X1346300Y720566D01*
X1356300Y720566D01*
X1356365Y720577D01*
G37*
G36*
X940107Y669379D02*
X940107Y669379D01*
X940131Y669379D01*
X940213Y669413D01*
X940298Y669440D01*
X940319Y669456D01*
X940338Y669464D01*
X940376Y669498D01*
X940448Y669552D01*
X950448Y679552D01*
X950499Y679625D01*
X950555Y679694D01*
X950563Y679716D01*
X950577Y679736D01*
X950599Y679822D01*
X950627Y679906D01*
X950627Y679930D01*
X950633Y679953D01*
X950623Y680042D01*
X950621Y680131D01*
X950612Y680153D01*
X950609Y680176D01*
X950570Y680256D01*
X950536Y680338D01*
X950520Y680356D01*
X950510Y680377D01*
X950445Y680438D01*
X950385Y680504D01*
X950364Y680515D01*
X950347Y680531D01*
X950265Y680566D01*
X950185Y680607D01*
X950159Y680610D01*
X950140Y680619D01*
X950090Y680621D01*
X950000Y680634D01*
X940000Y680634D01*
X939935Y680623D01*
X939869Y680621D01*
X939826Y680603D01*
X939779Y680595D01*
X939722Y680561D01*
X939662Y680536D01*
X939627Y680505D01*
X939586Y680480D01*
X939545Y680429D01*
X939496Y680385D01*
X939474Y680343D01*
X939445Y680306D01*
X939424Y680244D01*
X939393Y680185D01*
X939385Y680131D01*
X939373Y680094D01*
X939374Y680054D01*
X939366Y680000D01*
X939366Y670000D01*
X939382Y669912D01*
X939391Y669824D01*
X939401Y669803D01*
X939405Y669779D01*
X939451Y669702D01*
X939490Y669623D01*
X939507Y669606D01*
X939520Y669586D01*
X939589Y669530D01*
X939653Y669469D01*
X939675Y669460D01*
X939694Y669445D01*
X939778Y669416D01*
X939860Y669381D01*
X939884Y669380D01*
X939906Y669373D01*
X939995Y669375D01*
X940084Y669371D01*
X940107Y669379D01*
G37*
G36*
X210042Y659377D02*
X210042Y659377D01*
X210131Y659379D01*
X210153Y659388D01*
X210176Y659391D01*
X210256Y659430D01*
X210338Y659464D01*
X210356Y659480D01*
X210377Y659490D01*
X210438Y659555D01*
X210504Y659615D01*
X210515Y659636D01*
X210531Y659653D01*
X210566Y659735D01*
X210607Y659815D01*
X210610Y659841D01*
X210619Y659860D01*
X210621Y659910D01*
X210634Y660000D01*
X210634Y670000D01*
X210623Y670065D01*
X210621Y670131D01*
X210603Y670174D01*
X210595Y670221D01*
X210561Y670278D01*
X210536Y670338D01*
X210505Y670373D01*
X210480Y670414D01*
X210429Y670456D01*
X210385Y670504D01*
X210343Y670526D01*
X210306Y670555D01*
X210244Y670576D01*
X210185Y670607D01*
X210131Y670615D01*
X210094Y670627D01*
X210054Y670626D01*
X210000Y670634D01*
X200000Y670634D01*
X199912Y670618D01*
X199824Y670609D01*
X199803Y670599D01*
X199779Y670595D01*
X199702Y670549D01*
X199623Y670510D01*
X199606Y670493D01*
X199586Y670480D01*
X199530Y670411D01*
X199469Y670347D01*
X199460Y670325D01*
X199445Y670306D01*
X199416Y670222D01*
X199381Y670140D01*
X199380Y670116D01*
X199373Y670094D01*
X199375Y670005D01*
X199371Y669916D01*
X199379Y669893D01*
X199379Y669869D01*
X199413Y669787D01*
X199440Y669702D01*
X199456Y669681D01*
X199464Y669662D01*
X199498Y669624D01*
X199552Y669552D01*
X209552Y659552D01*
X209625Y659501D01*
X209694Y659445D01*
X209716Y659437D01*
X209736Y659423D01*
X209822Y659401D01*
X209906Y659373D01*
X209930Y659373D01*
X209953Y659368D01*
X210042Y659377D01*
G37*
G36*
X690107Y639379D02*
X690107Y639379D01*
X690131Y639379D01*
X690213Y639413D01*
X690298Y639440D01*
X690319Y639456D01*
X690338Y639464D01*
X690376Y639498D01*
X690448Y639552D01*
X700448Y649552D01*
X700499Y649625D01*
X700555Y649694D01*
X700563Y649716D01*
X700577Y649736D01*
X700599Y649822D01*
X700627Y649906D01*
X700627Y649930D01*
X700633Y649953D01*
X700623Y650042D01*
X700621Y650131D01*
X700612Y650153D01*
X700609Y650176D01*
X700570Y650256D01*
X700536Y650338D01*
X700520Y650356D01*
X700510Y650377D01*
X700445Y650438D01*
X700385Y650504D01*
X700364Y650515D01*
X700347Y650531D01*
X700265Y650566D01*
X700185Y650607D01*
X700159Y650610D01*
X700140Y650619D01*
X700090Y650621D01*
X700000Y650634D01*
X690000Y650634D01*
X689935Y650623D01*
X689869Y650621D01*
X689826Y650603D01*
X689779Y650595D01*
X689722Y650561D01*
X689662Y650536D01*
X689627Y650505D01*
X689586Y650480D01*
X689545Y650429D01*
X689496Y650385D01*
X689474Y650343D01*
X689445Y650306D01*
X689424Y650244D01*
X689393Y650185D01*
X689385Y650131D01*
X689373Y650094D01*
X689374Y650054D01*
X689366Y650000D01*
X689366Y640000D01*
X689382Y639912D01*
X689391Y639824D01*
X689401Y639803D01*
X689405Y639779D01*
X689451Y639702D01*
X689490Y639623D01*
X689507Y639606D01*
X689520Y639586D01*
X689589Y639530D01*
X689653Y639469D01*
X689675Y639460D01*
X689694Y639445D01*
X689778Y639416D01*
X689860Y639381D01*
X689884Y639380D01*
X689906Y639373D01*
X689995Y639375D01*
X690084Y639371D01*
X690107Y639379D01*
G37*
G36*
X575507Y596679D02*
X575507Y596679D01*
X575531Y596679D01*
X575613Y596713D01*
X575698Y596740D01*
X575719Y596756D01*
X575738Y596764D01*
X575776Y596798D01*
X575848Y596852D01*
X585848Y606852D01*
X585899Y606925D01*
X585955Y606994D01*
X585963Y607016D01*
X585977Y607036D01*
X585999Y607122D01*
X586027Y607206D01*
X586027Y607230D01*
X586033Y607253D01*
X586023Y607342D01*
X586021Y607431D01*
X586012Y607453D01*
X586009Y607476D01*
X585970Y607556D01*
X585936Y607638D01*
X585920Y607656D01*
X585910Y607677D01*
X585845Y607738D01*
X585785Y607804D01*
X585764Y607815D01*
X585747Y607831D01*
X585665Y607866D01*
X585585Y607907D01*
X585559Y607910D01*
X585540Y607919D01*
X585490Y607921D01*
X585400Y607934D01*
X575400Y607934D01*
X575335Y607923D01*
X575269Y607921D01*
X575226Y607903D01*
X575179Y607895D01*
X575122Y607861D01*
X575062Y607836D01*
X575027Y607805D01*
X574986Y607780D01*
X574945Y607729D01*
X574896Y607685D01*
X574874Y607643D01*
X574845Y607606D01*
X574824Y607544D01*
X574793Y607485D01*
X574785Y607431D01*
X574773Y607394D01*
X574774Y607354D01*
X574766Y607300D01*
X574766Y597300D01*
X574782Y597212D01*
X574791Y597124D01*
X574801Y597103D01*
X574805Y597079D01*
X574851Y597002D01*
X574890Y596923D01*
X574907Y596906D01*
X574920Y596886D01*
X574989Y596830D01*
X575053Y596769D01*
X575075Y596760D01*
X575094Y596745D01*
X575178Y596716D01*
X575260Y596681D01*
X575284Y596680D01*
X575306Y596673D01*
X575395Y596675D01*
X575484Y596671D01*
X575507Y596679D01*
G37*
G36*
X1549788Y589282D02*
X1549788Y589282D01*
X1549876Y589291D01*
X1549897Y589301D01*
X1549921Y589305D01*
X1549998Y589351D01*
X1550077Y589390D01*
X1550094Y589407D01*
X1550114Y589420D01*
X1550170Y589489D01*
X1550231Y589553D01*
X1550240Y589575D01*
X1550255Y589594D01*
X1550284Y589678D01*
X1550319Y589760D01*
X1550320Y589784D01*
X1550327Y589806D01*
X1550325Y589895D01*
X1550329Y589984D01*
X1550321Y590007D01*
X1550321Y590031D01*
X1550287Y590113D01*
X1550260Y590198D01*
X1550244Y590219D01*
X1550236Y590238D01*
X1550202Y590276D01*
X1550148Y590348D01*
X1540148Y600348D01*
X1540075Y600399D01*
X1540006Y600455D01*
X1539984Y600463D01*
X1539964Y600477D01*
X1539878Y600499D01*
X1539794Y600527D01*
X1539770Y600527D01*
X1539747Y600533D01*
X1539658Y600523D01*
X1539569Y600521D01*
X1539547Y600512D01*
X1539524Y600509D01*
X1539444Y600470D01*
X1539362Y600436D01*
X1539344Y600420D01*
X1539323Y600410D01*
X1539262Y600345D01*
X1539196Y600285D01*
X1539185Y600264D01*
X1539169Y600247D01*
X1539134Y600165D01*
X1539093Y600085D01*
X1539090Y600059D01*
X1539081Y600040D01*
X1539079Y599990D01*
X1539066Y599900D01*
X1539066Y589900D01*
X1539077Y589835D01*
X1539079Y589769D01*
X1539097Y589726D01*
X1539105Y589679D01*
X1539139Y589622D01*
X1539164Y589562D01*
X1539195Y589527D01*
X1539220Y589486D01*
X1539271Y589445D01*
X1539315Y589396D01*
X1539357Y589374D01*
X1539394Y589345D01*
X1539456Y589324D01*
X1539515Y589293D01*
X1539569Y589285D01*
X1539606Y589273D01*
X1539646Y589274D01*
X1539700Y589266D01*
X1549700Y589266D01*
X1549788Y589282D01*
G37*
G36*
X310107Y559379D02*
X310107Y559379D01*
X310131Y559379D01*
X310213Y559413D01*
X310298Y559440D01*
X310319Y559456D01*
X310338Y559464D01*
X310376Y559498D01*
X310448Y559552D01*
X320448Y569552D01*
X320499Y569625D01*
X320555Y569694D01*
X320563Y569716D01*
X320577Y569736D01*
X320599Y569822D01*
X320627Y569906D01*
X320627Y569930D01*
X320633Y569953D01*
X320623Y570042D01*
X320621Y570131D01*
X320612Y570153D01*
X320609Y570176D01*
X320570Y570256D01*
X320536Y570338D01*
X320520Y570356D01*
X320510Y570377D01*
X320445Y570438D01*
X320385Y570504D01*
X320364Y570515D01*
X320347Y570531D01*
X320265Y570566D01*
X320185Y570607D01*
X320159Y570610D01*
X320140Y570619D01*
X320090Y570621D01*
X320000Y570634D01*
X310000Y570634D01*
X309935Y570623D01*
X309869Y570621D01*
X309826Y570603D01*
X309779Y570595D01*
X309722Y570561D01*
X309662Y570536D01*
X309627Y570505D01*
X309586Y570480D01*
X309545Y570429D01*
X309496Y570385D01*
X309474Y570343D01*
X309445Y570306D01*
X309424Y570244D01*
X309393Y570185D01*
X309385Y570131D01*
X309373Y570094D01*
X309374Y570054D01*
X309366Y570000D01*
X309366Y560000D01*
X309382Y559912D01*
X309391Y559824D01*
X309401Y559803D01*
X309405Y559779D01*
X309451Y559702D01*
X309490Y559623D01*
X309507Y559606D01*
X309520Y559586D01*
X309589Y559530D01*
X309653Y559469D01*
X309675Y559460D01*
X309694Y559445D01*
X309778Y559416D01*
X309860Y559381D01*
X309884Y559380D01*
X309906Y559373D01*
X309995Y559375D01*
X310084Y559371D01*
X310107Y559379D01*
G37*
G36*
X1370088Y539382D02*
X1370088Y539382D01*
X1370176Y539391D01*
X1370197Y539401D01*
X1370221Y539405D01*
X1370298Y539451D01*
X1370377Y539490D01*
X1370394Y539507D01*
X1370414Y539520D01*
X1370470Y539589D01*
X1370531Y539653D01*
X1370540Y539675D01*
X1370555Y539694D01*
X1370584Y539778D01*
X1370619Y539860D01*
X1370620Y539884D01*
X1370627Y539906D01*
X1370625Y539995D01*
X1370629Y540084D01*
X1370621Y540107D01*
X1370621Y540131D01*
X1370587Y540213D01*
X1370560Y540298D01*
X1370544Y540319D01*
X1370536Y540338D01*
X1370502Y540376D01*
X1370448Y540448D01*
X1360448Y550448D01*
X1360375Y550499D01*
X1360306Y550555D01*
X1360284Y550563D01*
X1360264Y550577D01*
X1360178Y550599D01*
X1360094Y550627D01*
X1360070Y550627D01*
X1360047Y550633D01*
X1359958Y550623D01*
X1359869Y550621D01*
X1359847Y550612D01*
X1359824Y550609D01*
X1359744Y550570D01*
X1359662Y550536D01*
X1359644Y550520D01*
X1359623Y550510D01*
X1359562Y550445D01*
X1359496Y550385D01*
X1359485Y550364D01*
X1359469Y550347D01*
X1359434Y550265D01*
X1359393Y550185D01*
X1359390Y550159D01*
X1359381Y550140D01*
X1359379Y550090D01*
X1359366Y550000D01*
X1359366Y540000D01*
X1359377Y539935D01*
X1359379Y539869D01*
X1359397Y539826D01*
X1359405Y539779D01*
X1359439Y539722D01*
X1359464Y539662D01*
X1359495Y539627D01*
X1359520Y539586D01*
X1359571Y539545D01*
X1359615Y539496D01*
X1359657Y539474D01*
X1359694Y539445D01*
X1359756Y539424D01*
X1359815Y539393D01*
X1359869Y539385D01*
X1359906Y539373D01*
X1359946Y539374D01*
X1360000Y539366D01*
X1370000Y539366D01*
X1370088Y539382D01*
G37*
G36*
X1150088Y539382D02*
X1150088Y539382D01*
X1150176Y539391D01*
X1150197Y539401D01*
X1150221Y539405D01*
X1150298Y539451D01*
X1150377Y539490D01*
X1150394Y539507D01*
X1150414Y539520D01*
X1150470Y539589D01*
X1150531Y539653D01*
X1150540Y539675D01*
X1150555Y539694D01*
X1150584Y539778D01*
X1150619Y539860D01*
X1150620Y539884D01*
X1150627Y539906D01*
X1150625Y539995D01*
X1150629Y540084D01*
X1150621Y540107D01*
X1150621Y540131D01*
X1150587Y540213D01*
X1150560Y540298D01*
X1150544Y540319D01*
X1150536Y540338D01*
X1150502Y540376D01*
X1150448Y540448D01*
X1140448Y550448D01*
X1140375Y550499D01*
X1140306Y550555D01*
X1140284Y550563D01*
X1140264Y550577D01*
X1140178Y550599D01*
X1140094Y550627D01*
X1140070Y550627D01*
X1140047Y550633D01*
X1139958Y550623D01*
X1139869Y550621D01*
X1139847Y550612D01*
X1139824Y550609D01*
X1139744Y550570D01*
X1139662Y550536D01*
X1139644Y550520D01*
X1139623Y550510D01*
X1139562Y550445D01*
X1139496Y550385D01*
X1139485Y550364D01*
X1139469Y550347D01*
X1139434Y550265D01*
X1139393Y550185D01*
X1139390Y550159D01*
X1139381Y550140D01*
X1139379Y550090D01*
X1139366Y550000D01*
X1139366Y540000D01*
X1139377Y539935D01*
X1139379Y539869D01*
X1139397Y539826D01*
X1139405Y539779D01*
X1139439Y539722D01*
X1139464Y539662D01*
X1139495Y539627D01*
X1139520Y539586D01*
X1139571Y539545D01*
X1139615Y539496D01*
X1139657Y539474D01*
X1139694Y539445D01*
X1139756Y539424D01*
X1139815Y539393D01*
X1139869Y539385D01*
X1139906Y539373D01*
X1139946Y539374D01*
X1140000Y539366D01*
X1150000Y539366D01*
X1150088Y539382D01*
G37*
G36*
X720107Y509379D02*
X720107Y509379D01*
X720131Y509379D01*
X720213Y509413D01*
X720298Y509440D01*
X720319Y509456D01*
X720338Y509464D01*
X720376Y509498D01*
X720448Y509552D01*
X730448Y519552D01*
X730499Y519625D01*
X730555Y519694D01*
X730563Y519716D01*
X730577Y519736D01*
X730599Y519822D01*
X730627Y519906D01*
X730627Y519930D01*
X730633Y519953D01*
X730623Y520042D01*
X730621Y520131D01*
X730612Y520153D01*
X730609Y520176D01*
X730570Y520256D01*
X730536Y520338D01*
X730520Y520356D01*
X730510Y520377D01*
X730445Y520438D01*
X730385Y520504D01*
X730364Y520515D01*
X730347Y520531D01*
X730265Y520566D01*
X730185Y520607D01*
X730159Y520610D01*
X730140Y520619D01*
X730090Y520621D01*
X730000Y520634D01*
X720000Y520634D01*
X719935Y520623D01*
X719869Y520621D01*
X719826Y520603D01*
X719779Y520595D01*
X719722Y520561D01*
X719662Y520536D01*
X719627Y520505D01*
X719586Y520480D01*
X719545Y520429D01*
X719496Y520385D01*
X719474Y520343D01*
X719445Y520306D01*
X719424Y520244D01*
X719393Y520185D01*
X719385Y520131D01*
X719373Y520094D01*
X719374Y520054D01*
X719366Y520000D01*
X719366Y510000D01*
X719382Y509912D01*
X719391Y509824D01*
X719401Y509803D01*
X719405Y509779D01*
X719451Y509702D01*
X719490Y509623D01*
X719507Y509606D01*
X719520Y509586D01*
X719589Y509530D01*
X719653Y509469D01*
X719675Y509460D01*
X719694Y509445D01*
X719778Y509416D01*
X719860Y509381D01*
X719884Y509380D01*
X719906Y509373D01*
X719995Y509375D01*
X720084Y509371D01*
X720107Y509379D01*
G37*
G36*
X960107Y459379D02*
X960107Y459379D01*
X960131Y459379D01*
X960213Y459413D01*
X960298Y459440D01*
X960319Y459456D01*
X960338Y459464D01*
X960376Y459498D01*
X960448Y459552D01*
X970448Y469552D01*
X970499Y469625D01*
X970555Y469694D01*
X970563Y469716D01*
X970577Y469736D01*
X970599Y469822D01*
X970627Y469906D01*
X970627Y469930D01*
X970633Y469953D01*
X970623Y470042D01*
X970621Y470131D01*
X970612Y470153D01*
X970609Y470176D01*
X970570Y470256D01*
X970536Y470338D01*
X970520Y470356D01*
X970510Y470377D01*
X970445Y470438D01*
X970385Y470504D01*
X970364Y470515D01*
X970347Y470531D01*
X970265Y470566D01*
X970185Y470607D01*
X970159Y470610D01*
X970140Y470619D01*
X970090Y470621D01*
X970000Y470634D01*
X960000Y470634D01*
X959935Y470623D01*
X959869Y470621D01*
X959826Y470603D01*
X959779Y470595D01*
X959722Y470561D01*
X959662Y470536D01*
X959627Y470505D01*
X959586Y470480D01*
X959545Y470429D01*
X959496Y470385D01*
X959474Y470343D01*
X959445Y470306D01*
X959424Y470244D01*
X959393Y470185D01*
X959385Y470131D01*
X959373Y470094D01*
X959374Y470054D01*
X959366Y470000D01*
X959366Y460000D01*
X959382Y459912D01*
X959391Y459824D01*
X959401Y459803D01*
X959405Y459779D01*
X959451Y459702D01*
X959490Y459623D01*
X959507Y459606D01*
X959520Y459586D01*
X959589Y459530D01*
X959653Y459469D01*
X959675Y459460D01*
X959694Y459445D01*
X959778Y459416D01*
X959860Y459381D01*
X959884Y459380D01*
X959906Y459373D01*
X959995Y459375D01*
X960084Y459371D01*
X960107Y459379D01*
G37*
G36*
X560107Y409379D02*
X560107Y409379D01*
X560131Y409379D01*
X560213Y409413D01*
X560298Y409440D01*
X560319Y409456D01*
X560338Y409464D01*
X560376Y409498D01*
X560448Y409552D01*
X570448Y419552D01*
X570499Y419625D01*
X570555Y419694D01*
X570563Y419716D01*
X570577Y419736D01*
X570599Y419822D01*
X570627Y419906D01*
X570627Y419930D01*
X570633Y419953D01*
X570623Y420042D01*
X570621Y420131D01*
X570612Y420153D01*
X570609Y420176D01*
X570570Y420256D01*
X570536Y420338D01*
X570520Y420356D01*
X570510Y420377D01*
X570445Y420438D01*
X570385Y420504D01*
X570364Y420515D01*
X570347Y420531D01*
X570265Y420566D01*
X570185Y420607D01*
X570159Y420610D01*
X570140Y420619D01*
X570090Y420621D01*
X570000Y420634D01*
X560000Y420634D01*
X559935Y420623D01*
X559869Y420621D01*
X559826Y420603D01*
X559779Y420595D01*
X559722Y420561D01*
X559662Y420536D01*
X559627Y420505D01*
X559586Y420480D01*
X559545Y420429D01*
X559496Y420385D01*
X559474Y420343D01*
X559445Y420306D01*
X559424Y420244D01*
X559393Y420185D01*
X559385Y420131D01*
X559373Y420094D01*
X559374Y420054D01*
X559366Y420000D01*
X559366Y410000D01*
X559382Y409912D01*
X559391Y409824D01*
X559401Y409803D01*
X559405Y409779D01*
X559451Y409702D01*
X559490Y409623D01*
X559507Y409606D01*
X559520Y409586D01*
X559589Y409530D01*
X559653Y409469D01*
X559675Y409460D01*
X559694Y409445D01*
X559778Y409416D01*
X559860Y409381D01*
X559884Y409380D01*
X559906Y409373D01*
X559995Y409375D01*
X560084Y409371D01*
X560107Y409379D01*
G37*
G36*
X1509788Y402282D02*
X1509788Y402282D01*
X1509876Y402291D01*
X1509897Y402301D01*
X1509921Y402305D01*
X1509998Y402351D01*
X1510077Y402390D01*
X1510094Y402407D01*
X1510114Y402420D01*
X1510170Y402489D01*
X1510231Y402553D01*
X1510240Y402575D01*
X1510255Y402594D01*
X1510284Y402678D01*
X1510319Y402760D01*
X1510320Y402784D01*
X1510327Y402806D01*
X1510325Y402895D01*
X1510329Y402984D01*
X1510321Y403007D01*
X1510321Y403031D01*
X1510287Y403113D01*
X1510260Y403198D01*
X1510244Y403219D01*
X1510236Y403238D01*
X1510202Y403276D01*
X1510148Y403348D01*
X1500148Y413348D01*
X1500075Y413399D01*
X1500006Y413455D01*
X1499984Y413463D01*
X1499964Y413477D01*
X1499878Y413499D01*
X1499794Y413527D01*
X1499770Y413527D01*
X1499747Y413533D01*
X1499658Y413523D01*
X1499569Y413521D01*
X1499547Y413512D01*
X1499524Y413509D01*
X1499444Y413470D01*
X1499362Y413436D01*
X1499344Y413420D01*
X1499323Y413410D01*
X1499262Y413345D01*
X1499196Y413285D01*
X1499185Y413264D01*
X1499169Y413247D01*
X1499134Y413165D01*
X1499093Y413085D01*
X1499090Y413059D01*
X1499081Y413040D01*
X1499079Y412990D01*
X1499066Y412900D01*
X1499066Y402900D01*
X1499077Y402835D01*
X1499079Y402769D01*
X1499097Y402726D01*
X1499105Y402679D01*
X1499139Y402622D01*
X1499164Y402562D01*
X1499195Y402527D01*
X1499220Y402486D01*
X1499271Y402445D01*
X1499315Y402396D01*
X1499357Y402374D01*
X1499394Y402345D01*
X1499456Y402324D01*
X1499515Y402293D01*
X1499569Y402285D01*
X1499606Y402273D01*
X1499646Y402274D01*
X1499700Y402266D01*
X1509700Y402266D01*
X1509788Y402282D01*
G37*
G36*
X1290107Y379379D02*
X1290107Y379379D01*
X1290131Y379379D01*
X1290213Y379413D01*
X1290298Y379440D01*
X1290319Y379456D01*
X1290338Y379464D01*
X1290376Y379498D01*
X1290448Y379552D01*
X1300448Y389552D01*
X1300499Y389625D01*
X1300555Y389694D01*
X1300563Y389716D01*
X1300577Y389736D01*
X1300599Y389822D01*
X1300627Y389906D01*
X1300627Y389930D01*
X1300633Y389953D01*
X1300623Y390042D01*
X1300621Y390131D01*
X1300612Y390153D01*
X1300609Y390176D01*
X1300570Y390256D01*
X1300536Y390338D01*
X1300520Y390356D01*
X1300510Y390377D01*
X1300445Y390438D01*
X1300385Y390504D01*
X1300364Y390515D01*
X1300347Y390531D01*
X1300265Y390566D01*
X1300185Y390607D01*
X1300159Y390610D01*
X1300140Y390619D01*
X1300090Y390621D01*
X1300000Y390634D01*
X1290000Y390634D01*
X1289935Y390623D01*
X1289869Y390621D01*
X1289826Y390603D01*
X1289779Y390595D01*
X1289722Y390561D01*
X1289662Y390536D01*
X1289627Y390505D01*
X1289586Y390480D01*
X1289545Y390429D01*
X1289496Y390385D01*
X1289474Y390343D01*
X1289445Y390306D01*
X1289424Y390244D01*
X1289393Y390185D01*
X1289385Y390131D01*
X1289373Y390094D01*
X1289374Y390054D01*
X1289366Y390000D01*
X1289366Y380000D01*
X1289382Y379912D01*
X1289391Y379824D01*
X1289401Y379803D01*
X1289405Y379779D01*
X1289451Y379702D01*
X1289490Y379623D01*
X1289507Y379606D01*
X1289520Y379586D01*
X1289589Y379530D01*
X1289653Y379469D01*
X1289675Y379460D01*
X1289694Y379445D01*
X1289778Y379416D01*
X1289860Y379381D01*
X1289884Y379380D01*
X1289906Y379373D01*
X1289995Y379375D01*
X1290084Y379371D01*
X1290107Y379379D01*
G37*
G36*
X780107Y359379D02*
X780107Y359379D01*
X780131Y359379D01*
X780213Y359413D01*
X780298Y359440D01*
X780319Y359456D01*
X780338Y359464D01*
X780376Y359498D01*
X780448Y359552D01*
X790448Y369552D01*
X790499Y369625D01*
X790555Y369694D01*
X790563Y369716D01*
X790577Y369736D01*
X790599Y369822D01*
X790627Y369906D01*
X790627Y369930D01*
X790633Y369953D01*
X790623Y370042D01*
X790621Y370131D01*
X790612Y370153D01*
X790609Y370176D01*
X790570Y370256D01*
X790536Y370338D01*
X790520Y370356D01*
X790510Y370377D01*
X790445Y370438D01*
X790385Y370504D01*
X790364Y370515D01*
X790347Y370531D01*
X790265Y370566D01*
X790185Y370607D01*
X790159Y370610D01*
X790140Y370619D01*
X790090Y370621D01*
X790000Y370634D01*
X780000Y370634D01*
X779935Y370623D01*
X779869Y370621D01*
X779826Y370603D01*
X779779Y370595D01*
X779722Y370561D01*
X779662Y370536D01*
X779627Y370505D01*
X779586Y370480D01*
X779545Y370429D01*
X779496Y370385D01*
X779474Y370343D01*
X779445Y370306D01*
X779424Y370244D01*
X779393Y370185D01*
X779385Y370131D01*
X779373Y370094D01*
X779374Y370054D01*
X779366Y370000D01*
X779366Y360000D01*
X779382Y359912D01*
X779391Y359824D01*
X779401Y359803D01*
X779405Y359779D01*
X779451Y359702D01*
X779490Y359623D01*
X779507Y359606D01*
X779520Y359586D01*
X779589Y359530D01*
X779653Y359469D01*
X779675Y359460D01*
X779694Y359445D01*
X779778Y359416D01*
X779860Y359381D01*
X779884Y359380D01*
X779906Y359373D01*
X779995Y359375D01*
X780084Y359371D01*
X780107Y359379D01*
G37*
G36*
X1050107Y279379D02*
X1050107Y279379D01*
X1050131Y279379D01*
X1050213Y279413D01*
X1050298Y279440D01*
X1050319Y279456D01*
X1050338Y279464D01*
X1050376Y279498D01*
X1050448Y279552D01*
X1060448Y289552D01*
X1060499Y289625D01*
X1060555Y289694D01*
X1060563Y289716D01*
X1060577Y289736D01*
X1060599Y289822D01*
X1060627Y289906D01*
X1060627Y289930D01*
X1060633Y289953D01*
X1060623Y290042D01*
X1060621Y290131D01*
X1060612Y290153D01*
X1060609Y290176D01*
X1060570Y290256D01*
X1060536Y290338D01*
X1060520Y290356D01*
X1060510Y290377D01*
X1060445Y290438D01*
X1060385Y290504D01*
X1060364Y290515D01*
X1060347Y290531D01*
X1060265Y290566D01*
X1060185Y290607D01*
X1060159Y290610D01*
X1060140Y290619D01*
X1060090Y290621D01*
X1060000Y290634D01*
X1050000Y290634D01*
X1049935Y290623D01*
X1049869Y290621D01*
X1049826Y290603D01*
X1049779Y290595D01*
X1049722Y290561D01*
X1049662Y290536D01*
X1049627Y290505D01*
X1049586Y290480D01*
X1049545Y290429D01*
X1049496Y290385D01*
X1049474Y290343D01*
X1049445Y290306D01*
X1049424Y290244D01*
X1049393Y290185D01*
X1049385Y290131D01*
X1049373Y290094D01*
X1049374Y290054D01*
X1049366Y290000D01*
X1049366Y280000D01*
X1049382Y279912D01*
X1049391Y279824D01*
X1049401Y279803D01*
X1049405Y279779D01*
X1049451Y279702D01*
X1049490Y279623D01*
X1049507Y279606D01*
X1049520Y279586D01*
X1049589Y279530D01*
X1049653Y279469D01*
X1049675Y279460D01*
X1049694Y279445D01*
X1049778Y279416D01*
X1049860Y279381D01*
X1049884Y279380D01*
X1049906Y279373D01*
X1049995Y279375D01*
X1050084Y279371D01*
X1050107Y279379D01*
G37*
G36*
X1369788Y215282D02*
X1369788Y215282D01*
X1369876Y215291D01*
X1369897Y215301D01*
X1369921Y215305D01*
X1369998Y215351D01*
X1370077Y215390D01*
X1370094Y215407D01*
X1370114Y215420D01*
X1370170Y215489D01*
X1370231Y215553D01*
X1370240Y215575D01*
X1370255Y215594D01*
X1370284Y215678D01*
X1370319Y215760D01*
X1370320Y215784D01*
X1370327Y215806D01*
X1370325Y215895D01*
X1370329Y215984D01*
X1370321Y216007D01*
X1370321Y216031D01*
X1370287Y216113D01*
X1370260Y216198D01*
X1370244Y216219D01*
X1370236Y216238D01*
X1370202Y216276D01*
X1370148Y216348D01*
X1360148Y226348D01*
X1360075Y226399D01*
X1360006Y226455D01*
X1359984Y226463D01*
X1359964Y226477D01*
X1359878Y226499D01*
X1359794Y226527D01*
X1359770Y226527D01*
X1359747Y226533D01*
X1359658Y226523D01*
X1359569Y226521D01*
X1359547Y226512D01*
X1359524Y226509D01*
X1359444Y226470D01*
X1359362Y226436D01*
X1359344Y226420D01*
X1359323Y226410D01*
X1359262Y226345D01*
X1359196Y226285D01*
X1359185Y226264D01*
X1359169Y226247D01*
X1359134Y226165D01*
X1359093Y226085D01*
X1359090Y226059D01*
X1359081Y226040D01*
X1359079Y225990D01*
X1359066Y225900D01*
X1359066Y215900D01*
X1359077Y215835D01*
X1359079Y215769D01*
X1359097Y215726D01*
X1359105Y215679D01*
X1359139Y215622D01*
X1359164Y215562D01*
X1359195Y215527D01*
X1359220Y215486D01*
X1359271Y215445D01*
X1359315Y215396D01*
X1359357Y215374D01*
X1359394Y215345D01*
X1359456Y215324D01*
X1359515Y215293D01*
X1359569Y215285D01*
X1359606Y215273D01*
X1359646Y215274D01*
X1359700Y215266D01*
X1369700Y215266D01*
X1369788Y215282D01*
G37*
D10*
X1366950Y109100D02*
X1379650Y109100D01*
X1386000Y102750D01*
X1386000Y90050D02*
X1379650Y83700D01*
X1341550Y109100D02*
X1335200Y102750D01*
X1341550Y109100D02*
X1354250Y109100D01*
X1360600Y102750D01*
X1360600Y90050D02*
X1354250Y83700D01*
X1341550Y83700D01*
X1335200Y90050D01*
X1360600Y102750D02*
X1366950Y109100D01*
X1360600Y90050D02*
X1366950Y83700D01*
X1379650Y83700D01*
X1303450Y109100D02*
X1290750Y109100D01*
X1303450Y109100D02*
X1309800Y102750D01*
X1309800Y90050D02*
X1303450Y83700D01*
X1309800Y102750D02*
X1316150Y109100D01*
X1328850Y109100D01*
X1335200Y102750D01*
X1335200Y90050D02*
X1328850Y83700D01*
X1316150Y83700D01*
X1309800Y90050D01*
X1284400Y90050D02*
X1284400Y102750D01*
X1290750Y109100D01*
X1284400Y90050D02*
X1290750Y83700D01*
X1303450Y83700D01*
X1386000Y90050D02*
X1386000Y102750D01*
X1399700Y255900D02*
X1359700Y255900D01*
X1359700Y215900D01*
X1399700Y215900D01*
X1399700Y255900D01*
X254100Y1066400D02*
X254100Y1106400D01*
X254100Y1066400D02*
X294100Y1066400D01*
X294100Y1106400D01*
X254100Y1106400D01*
X1499700Y442900D02*
X1539700Y442900D01*
X1499700Y442900D02*
X1499700Y402900D01*
X1539700Y402900D01*
X1539700Y442900D01*
X1539700Y629900D02*
X1579700Y629900D01*
X1539700Y629900D02*
X1539700Y589900D01*
X1579700Y589900D01*
X1579700Y629900D01*
X1475500Y792800D02*
X1475500Y832800D01*
X1475500Y792800D02*
X1515500Y792800D01*
X1515500Y832800D01*
X1475500Y832800D01*
X1333900Y970300D02*
X1333900Y1010300D01*
X1333900Y970300D02*
X1373900Y970300D01*
X1373900Y1010300D01*
X1333900Y1010300D01*
X1164700Y1108600D02*
X1164700Y1148600D01*
X1164700Y1108600D02*
X1204700Y1108600D01*
X1204700Y1148600D01*
X1164700Y1148600D01*
X964100Y1197500D02*
X964100Y1237500D01*
X964100Y1197500D02*
X1004100Y1197500D01*
X1004100Y1237500D01*
X964100Y1237500D01*
X667100Y1237500D02*
X667100Y1197500D01*
X707100Y1197500D01*
X707100Y1237500D01*
X667100Y1237500D01*
X434700Y1217500D02*
X434700Y1177500D01*
X474700Y1177500D01*
X474700Y1217500D01*
X434700Y1217500D01*
X150000Y950000D02*
X110000Y950000D01*
X150000Y950000D02*
X150000Y990000D01*
X110000Y990000D01*
X110000Y950000D01*
X90000Y780000D02*
X130000Y780000D01*
X130000Y820000D01*
X90000Y820000D01*
X90000Y780000D01*
X170000Y630000D02*
X210000Y630000D01*
X210000Y670000D01*
X170000Y670000D01*
X170000Y630000D01*
X350000Y570000D02*
X350000Y530000D01*
X350000Y570000D02*
X310000Y570000D01*
X310000Y530000D01*
X350000Y530000D01*
X600000Y420000D02*
X600000Y380000D01*
X600000Y420000D02*
X560000Y420000D01*
X560000Y380000D01*
X600000Y380000D01*
X820000Y370000D02*
X820000Y330000D01*
X820000Y370000D02*
X780000Y370000D01*
X780000Y330000D01*
X820000Y330000D01*
X1090000Y290000D02*
X1090000Y250000D01*
X1090000Y290000D02*
X1050000Y290000D01*
X1050000Y250000D01*
X1090000Y250000D01*
X1330000Y350000D02*
X1330000Y390000D01*
X1290000Y390000D01*
X1290000Y350000D01*
X1330000Y350000D01*
X1360000Y580000D02*
X1400000Y580000D01*
X1360000Y580000D02*
X1360000Y540000D01*
X1400000Y540000D01*
X1400000Y580000D01*
X1316300Y721200D02*
X1316300Y761200D01*
X1316300Y721200D02*
X1356300Y721200D01*
X1356300Y761200D01*
X1316300Y761200D01*
X1100900Y975700D02*
X1100900Y1015700D01*
X1100900Y975700D02*
X1140900Y975700D01*
X1140900Y1015700D01*
X1100900Y1015700D01*
X811900Y1090000D02*
X811900Y1130000D01*
X811900Y1090000D02*
X851900Y1090000D01*
X851900Y1130000D01*
X811900Y1130000D01*
X600000Y1120000D02*
X600000Y1080000D01*
X640000Y1080000D01*
X640000Y1120000D01*
X600000Y1120000D01*
X430000Y1070000D02*
X430000Y1030000D01*
X470000Y1030000D01*
X470000Y1070000D01*
X430000Y1070000D01*
X280000Y900000D02*
X240000Y900000D01*
X280000Y900000D02*
X280000Y940000D01*
X240000Y940000D01*
X240000Y900000D01*
X321400Y761800D02*
X321400Y721800D01*
X321400Y761800D02*
X281400Y761800D01*
X281400Y721800D01*
X321400Y721800D01*
X615400Y607300D02*
X615400Y567300D01*
X615400Y607300D02*
X575400Y607300D01*
X575400Y567300D01*
X615400Y567300D01*
X760000Y520000D02*
X760000Y480000D01*
X760000Y520000D02*
X720000Y520000D01*
X720000Y480000D01*
X760000Y480000D01*
X1000000Y470000D02*
X1000000Y430000D01*
X1000000Y470000D02*
X960000Y470000D01*
X960000Y430000D01*
X1000000Y430000D01*
X1140000Y580000D02*
X1180000Y580000D01*
X1140000Y580000D02*
X1140000Y540000D01*
X1180000Y540000D01*
X1180000Y580000D01*
X1190000Y820000D02*
X1150000Y820000D01*
X1150000Y780000D01*
X1190000Y780000D01*
X1190000Y820000D01*
X900000Y950000D02*
X900000Y990000D01*
X900000Y950000D02*
X940000Y950000D01*
X940000Y990000D01*
X900000Y990000D01*
X620000Y990000D02*
X620000Y950000D01*
X660000Y950000D01*
X660000Y990000D01*
X620000Y990000D01*
X450000Y870000D02*
X410000Y870000D01*
X450000Y870000D02*
X450000Y910000D01*
X410000Y910000D01*
X410000Y870000D01*
X572700Y770000D02*
X572700Y730000D01*
X572700Y770000D02*
X532700Y770000D01*
X532700Y730000D01*
X572700Y730000D01*
X730000Y650000D02*
X730000Y610000D01*
X730000Y650000D02*
X690000Y650000D01*
X690000Y610000D01*
X730000Y610000D01*
X980000Y640000D02*
X980000Y680000D01*
X940000Y680000D01*
X940000Y640000D01*
X980000Y640000D01*
X1011500Y830300D02*
X1011500Y870300D01*
X1011500Y830300D02*
X1051500Y830300D01*
X1051500Y870300D01*
X1011500Y870300D01*
X770000Y870000D02*
X770000Y910000D01*
X770000Y870000D02*
X810000Y870000D01*
X810000Y910000D01*
X770000Y910000D01*
X680500Y819700D02*
X680500Y779700D01*
X680500Y819700D02*
X640500Y819700D01*
X640500Y779700D01*
X680500Y779700D01*
M02*
