G04 EAGLE Gerber RS-274X export*
G75*
%MOMM*%
%FSLAX34Y34*%
%LPD*%
%INBottom Copper*%
%IPPOS*%
%AMOC8*
5,1,8,0,0,1.08239X$1,22.5*%
G01*
%ADD10C,1.879600*%
%ADD11R,0.850000X1.900000*%
%ADD12R,0.850000X1.000000*%
%ADD13R,0.850000X1.150000*%
%ADD14R,0.850000X2.000000*%
%ADD15R,1.900000X0.850000*%
%ADD16R,1.000000X0.850000*%
%ADD17R,1.150000X0.850000*%
%ADD18R,2.000000X0.850000*%
%ADD19R,1.200000X2.000000*%
%ADD20R,0.600000X1.350000*%
%ADD21R,3.000000X5.000000*%
%ADD22C,1.006400*%
%ADD23C,0.254000*%

G36*
X253569Y10475D02*
X253569Y10475D01*
X253578Y10473D01*
X265822Y11969D01*
X265830Y11974D01*
X265841Y11973D01*
X287958Y18273D01*
X287965Y18279D01*
X287975Y18280D01*
X303018Y25155D01*
X303022Y25160D01*
X303029Y25161D01*
X308594Y28390D01*
X308595Y28390D01*
X310334Y29410D01*
X310335Y29410D01*
X310354Y29422D01*
X310381Y29426D01*
X310382Y29427D01*
X312386Y29695D01*
X314388Y29972D01*
X314389Y29972D01*
X314410Y29975D01*
X314437Y29969D01*
X314438Y29969D01*
X316392Y29450D01*
X344732Y22064D01*
X344738Y22065D01*
X344744Y22062D01*
X369881Y17962D01*
X369888Y17964D01*
X369894Y17961D01*
X392354Y16632D01*
X392360Y16635D01*
X392367Y16632D01*
X412289Y17665D01*
X412295Y17668D01*
X412303Y17666D01*
X429843Y20657D01*
X429849Y20661D01*
X429858Y20661D01*
X445182Y25226D01*
X445188Y25230D01*
X445196Y25231D01*
X458471Y31003D01*
X458476Y31008D01*
X458484Y31010D01*
X469644Y37510D01*
X469650Y37518D01*
X469660Y37521D01*
X487530Y52186D01*
X487535Y52196D01*
X487546Y52202D01*
X499052Y65939D01*
X499055Y65947D01*
X499063Y65954D01*
X505271Y76100D01*
X505272Y76106D01*
X505278Y76112D01*
X506445Y78581D01*
X506445Y78599D01*
X506456Y78618D01*
X506512Y79042D01*
X507319Y80432D01*
X507319Y80437D01*
X507324Y80441D01*
X508010Y81894D01*
X508327Y82181D01*
X508334Y82197D01*
X508339Y82201D01*
X508342Y82203D01*
X508343Y82204D01*
X508351Y82211D01*
X508566Y82581D01*
X509843Y83557D01*
X509846Y83561D01*
X509851Y83564D01*
X511041Y84643D01*
X511444Y84787D01*
X511457Y84799D01*
X511477Y84805D01*
X511817Y85065D01*
X513371Y85478D01*
X513375Y85481D01*
X513381Y85481D01*
X514893Y86023D01*
X515321Y86002D01*
X515337Y86008D01*
X515359Y86006D01*
X515772Y86116D01*
X517365Y85903D01*
X517370Y85904D01*
X517375Y85902D01*
X518980Y85824D01*
X519367Y85641D01*
X519385Y85640D01*
X519404Y85630D01*
X519828Y85573D01*
X521218Y84767D01*
X521223Y84766D01*
X521227Y84762D01*
X522680Y84075D01*
X522967Y83758D01*
X522984Y83751D01*
X522997Y83734D01*
X545212Y70845D01*
X545219Y70845D01*
X545225Y70839D01*
X566587Y61415D01*
X566595Y61415D01*
X566602Y61410D01*
X586170Y55519D01*
X586178Y55520D01*
X586187Y55515D01*
X604010Y52663D01*
X604018Y52665D01*
X604027Y52662D01*
X620185Y52372D01*
X620193Y52375D01*
X620202Y52373D01*
X634790Y54199D01*
X634798Y54203D01*
X634807Y54202D01*
X647918Y57732D01*
X647924Y57737D01*
X647933Y57737D01*
X659387Y62484D01*
X659395Y62492D01*
X659406Y62494D01*
X678968Y74794D01*
X678975Y74804D01*
X678987Y74808D01*
X692626Y87397D01*
X692630Y87406D01*
X692640Y87412D01*
X702854Y100538D01*
X702859Y100557D01*
X702874Y100576D01*
X702935Y100767D01*
X704117Y102162D01*
X704118Y102165D01*
X704121Y102166D01*
X705244Y103610D01*
X705418Y103708D01*
X705430Y103724D01*
X705451Y103736D01*
X705580Y103889D01*
X707207Y104725D01*
X707208Y104727D01*
X707211Y104728D01*
X708801Y105632D01*
X709000Y105656D01*
X709017Y105666D01*
X709041Y105669D01*
X709219Y105761D01*
X711042Y105911D01*
X711044Y105912D01*
X711047Y105912D01*
X712862Y106138D01*
X713055Y106085D01*
X713074Y106088D01*
X713098Y106081D01*
X713297Y106098D01*
X715039Y105539D01*
X715041Y105540D01*
X715044Y105538D01*
X716807Y105053D01*
X716965Y104930D01*
X716984Y104925D01*
X717003Y104909D01*
X717194Y104848D01*
X718589Y103666D01*
X718591Y103665D01*
X718593Y103663D01*
X720036Y102540D01*
X720135Y102366D01*
X720151Y102354D01*
X720163Y102332D01*
X720315Y102203D01*
X721152Y100577D01*
X721154Y100575D01*
X721155Y100572D01*
X722058Y98982D01*
X722083Y98784D01*
X722093Y98767D01*
X722096Y98742D01*
X730445Y82514D01*
X730455Y82506D01*
X730459Y82492D01*
X740648Y69928D01*
X740660Y69922D01*
X740669Y69908D01*
X751986Y61095D01*
X751999Y61091D01*
X752010Y61080D01*
X764373Y55352D01*
X764385Y55352D01*
X764397Y55344D01*
X777759Y52251D01*
X777769Y52253D01*
X777780Y52248D01*
X791961Y51484D01*
X791969Y51486D01*
X791979Y51484D01*
X806656Y52753D01*
X806662Y52756D01*
X806669Y52755D01*
X821268Y55677D01*
X821274Y55681D01*
X821283Y55681D01*
X849726Y65138D01*
X849731Y65143D01*
X849739Y65143D01*
X873405Y76210D01*
X873409Y76214D01*
X873415Y76215D01*
X895777Y89354D01*
X895780Y89357D01*
X895785Y89359D01*
X897155Y90305D01*
X897515Y90382D01*
X897530Y90393D01*
X897552Y90397D01*
X897869Y90583D01*
X899519Y90813D01*
X899523Y90815D01*
X899528Y90815D01*
X901156Y91164D01*
X901518Y91098D01*
X901536Y91102D01*
X901558Y91097D01*
X901922Y91148D01*
X903534Y90729D01*
X903538Y90730D01*
X903543Y90727D01*
X905181Y90427D01*
X905490Y90228D01*
X905508Y90224D01*
X905526Y90212D01*
X905883Y90119D01*
X907211Y89116D01*
X907216Y89114D01*
X907219Y89110D01*
X935778Y70652D01*
X935781Y70651D01*
X935783Y70648D01*
X962197Y55407D01*
X962200Y55407D01*
X962203Y55404D01*
X986396Y43162D01*
X986400Y43162D01*
X986403Y43159D01*
X1008261Y33691D01*
X1008267Y33691D01*
X1008272Y33686D01*
X1046101Y21499D01*
X1046110Y21500D01*
X1046119Y21495D01*
X1075640Y16613D01*
X1075650Y16615D01*
X1075660Y16611D01*
X1097480Y16602D01*
X1097489Y16607D01*
X1097501Y16604D01*
X1111938Y19102D01*
X1111948Y19108D01*
X1111962Y19109D01*
X1123313Y23608D01*
X1123316Y23611D01*
X1123321Y23611D01*
X1124867Y24343D01*
X1125188Y24358D01*
X1125205Y24367D01*
X1125228Y24367D01*
X1125527Y24486D01*
X1127237Y24459D01*
X1127241Y24461D01*
X1127245Y24459D01*
X1154911Y25819D01*
X1154917Y25822D01*
X1154924Y25820D01*
X1178867Y29602D01*
X1178873Y29606D01*
X1178881Y29605D01*
X1199527Y35422D01*
X1199533Y35426D01*
X1199542Y35427D01*
X1217167Y42895D01*
X1217172Y42901D01*
X1217181Y42903D01*
X1232073Y51665D01*
X1232078Y51671D01*
X1232087Y51674D01*
X1244528Y61396D01*
X1244532Y61403D01*
X1244540Y61407D01*
X1247658Y64559D01*
X1251222Y68162D01*
X1254786Y71766D01*
X1254796Y71776D01*
X1254798Y71782D01*
X1254805Y71787D01*
X1262962Y82297D01*
X1262965Y82307D01*
X1262973Y82314D01*
X1274753Y103733D01*
X1274754Y103744D01*
X1274761Y103753D01*
X1281004Y122108D01*
X1281003Y122118D01*
X1281009Y122127D01*
X1283869Y139012D01*
X1283865Y139032D01*
X1283869Y139056D01*
X1283832Y139259D01*
X1284213Y141041D01*
X1284212Y141043D01*
X1284214Y141046D01*
X1284518Y142843D01*
X1284628Y143018D01*
X1284631Y143038D01*
X1284644Y143058D01*
X1284687Y143260D01*
X1285722Y144761D01*
X1285722Y144763D01*
X1285725Y144765D01*
X1286694Y146309D01*
X1286862Y146429D01*
X1286867Y146437D01*
X1286874Y146440D01*
X1286877Y146449D01*
X1286892Y146459D01*
X1287009Y146629D01*
X1288539Y147620D01*
X1288541Y147622D01*
X1288544Y147623D01*
X1290030Y148679D01*
X1290231Y148725D01*
X1290247Y148736D01*
X1290271Y148742D01*
X1312687Y163259D01*
X1312691Y163266D01*
X1312700Y163269D01*
X1331383Y179168D01*
X1331387Y179176D01*
X1331396Y179180D01*
X1345829Y195524D01*
X1345832Y195532D01*
X1345840Y195539D01*
X1356545Y212101D01*
X1356546Y212110D01*
X1356553Y212117D01*
X1364028Y228712D01*
X1364028Y228721D01*
X1364034Y228729D01*
X1368733Y245183D01*
X1368732Y245191D01*
X1368736Y245199D01*
X1371076Y261323D01*
X1371074Y261330D01*
X1371077Y261338D01*
X1371448Y276909D01*
X1371446Y276915D01*
X1371448Y276923D01*
X1370239Y291691D01*
X1370237Y291696D01*
X1370238Y291702D01*
X1367875Y305228D01*
X1367871Y305234D01*
X1367872Y305242D01*
X1361112Y328467D01*
X1361108Y328473D01*
X1361107Y328481D01*
X1354675Y343738D01*
X1354672Y343741D01*
X1354671Y343747D01*
X1352044Y348800D01*
X1352040Y348804D01*
X1352038Y348811D01*
X1351201Y350094D01*
X1351108Y350590D01*
X1351099Y350604D01*
X1351096Y350624D01*
X1350864Y351071D01*
X1350731Y352598D01*
X1350728Y352603D01*
X1350730Y352610D01*
X1350447Y354116D01*
X1350551Y354609D01*
X1350548Y354626D01*
X1350553Y354646D01*
X1350510Y355148D01*
X1350971Y356609D01*
X1350971Y356615D01*
X1350975Y356621D01*
X1351290Y358120D01*
X1351575Y358536D01*
X1351578Y358553D01*
X1351591Y358569D01*
X1351742Y359049D01*
X1352728Y360223D01*
X1352730Y360229D01*
X1352736Y360233D01*
X1369511Y384745D01*
X1369513Y384752D01*
X1369519Y384758D01*
X1381803Y408422D01*
X1381804Y408429D01*
X1381810Y408436D01*
X1390161Y431212D01*
X1390160Y431219D01*
X1390165Y431227D01*
X1395085Y453034D01*
X1395083Y453041D01*
X1395087Y453049D01*
X1397053Y473813D01*
X1397050Y473820D01*
X1397053Y473829D01*
X1396519Y493470D01*
X1396516Y493476D01*
X1396518Y493484D01*
X1393923Y511903D01*
X1393920Y511908D01*
X1393921Y511915D01*
X1389749Y528797D01*
X1389744Y528803D01*
X1389744Y528812D01*
X1378086Y558642D01*
X1378079Y558648D01*
X1378078Y558658D01*
X1365357Y581135D01*
X1365351Y581139D01*
X1365349Y581146D01*
X1355134Y595333D01*
X1355129Y595336D01*
X1355128Y595341D01*
X1351344Y599811D01*
X1351338Y599814D01*
X1351334Y599821D01*
X1350278Y600812D01*
X1350035Y601350D01*
X1350024Y601361D01*
X1350017Y601379D01*
X1349636Y601829D01*
X1349195Y603208D01*
X1349190Y603213D01*
X1349189Y603221D01*
X1348593Y604541D01*
X1348574Y605131D01*
X1348572Y605136D01*
X1348572Y605138D01*
X1348568Y605148D01*
X1348569Y605164D01*
X1348389Y605727D01*
X1348509Y607169D01*
X1348506Y607176D01*
X1348509Y607184D01*
X1346749Y662520D01*
X1346746Y662524D01*
X1346748Y662530D01*
X1341051Y711041D01*
X1341048Y711046D01*
X1341049Y711052D01*
X1332018Y752997D01*
X1332014Y753002D01*
X1332014Y753009D01*
X1320245Y788865D01*
X1320241Y788870D01*
X1320240Y788878D01*
X1306322Y819137D01*
X1306317Y819142D01*
X1306315Y819151D01*
X1290822Y844319D01*
X1290815Y844323D01*
X1290813Y844331D01*
X1274296Y864917D01*
X1274289Y864921D01*
X1274285Y864929D01*
X1257278Y881432D01*
X1257276Y881433D01*
X1257276Y881434D01*
X1257270Y881436D01*
X1257266Y881442D01*
X1240289Y894346D01*
X1240282Y894348D01*
X1240277Y894354D01*
X1223850Y904121D01*
X1223843Y904122D01*
X1223838Y904127D01*
X1208491Y911200D01*
X1208485Y911200D01*
X1208480Y911205D01*
X1194913Y915963D01*
X1194906Y915962D01*
X1194899Y915967D01*
X1174230Y920604D01*
X1174223Y920603D01*
X1174215Y920607D01*
X1167509Y921275D01*
X1167499Y921272D01*
X1167486Y921275D01*
X1166420Y921181D01*
X1165494Y921473D01*
X1165482Y921472D01*
X1165469Y921478D01*
X1164503Y921575D01*
X1163559Y922080D01*
X1163548Y922081D01*
X1163538Y922089D01*
X1162517Y922411D01*
X1161773Y923035D01*
X1161761Y923038D01*
X1161752Y923049D01*
X1160896Y923508D01*
X1160218Y924336D01*
X1160208Y924341D01*
X1160202Y924352D01*
X1159382Y925040D01*
X1158933Y925901D01*
X1158924Y925909D01*
X1158919Y925922D01*
X1158304Y926674D01*
X1157994Y927698D01*
X1157987Y927707D01*
X1157986Y927720D01*
X1148024Y946842D01*
X1148018Y946846D01*
X1148016Y946854D01*
X1136944Y963233D01*
X1136938Y963237D01*
X1136935Y963245D01*
X1125182Y976804D01*
X1125175Y976807D01*
X1125171Y976815D01*
X1112951Y987849D01*
X1112944Y987851D01*
X1112939Y987858D01*
X1100450Y996649D01*
X1100443Y996651D01*
X1100437Y996657D01*
X1088096Y1003348D01*
X1088087Y1003349D01*
X1088078Y1003356D01*
X1063228Y1012114D01*
X1063217Y1012113D01*
X1063206Y1012120D01*
X1040881Y1015661D01*
X1040872Y1015658D01*
X1040863Y1015662D01*
X1022767Y1015900D01*
X1022760Y1015896D01*
X1022751Y1015899D01*
X1007479Y1014043D01*
X1007460Y1014033D01*
X1007434Y1014029D01*
X1007405Y1014013D01*
X1005427Y1013794D01*
X1005426Y1013794D01*
X1003450Y1013554D01*
X1003418Y1013563D01*
X1003397Y1013560D01*
X1003371Y1013567D01*
X1003338Y1013563D01*
X1001427Y1014118D01*
X1001426Y1014118D01*
X999508Y1014652D01*
X999482Y1014673D01*
X999461Y1014678D01*
X999440Y1014694D01*
X999408Y1014704D01*
X997856Y1015947D01*
X997855Y1015947D01*
X997855Y1015948D01*
X996287Y1017176D01*
X996270Y1017205D01*
X996254Y1017218D01*
X996246Y1017231D01*
X996242Y1017239D01*
X996241Y1017239D01*
X996240Y1017241D01*
X994671Y1018497D01*
X994628Y1018509D01*
X994587Y1018524D01*
X994582Y1018522D01*
X994576Y1018523D01*
X994539Y1018501D01*
X994499Y1018482D01*
X994497Y1018476D01*
X994493Y1018473D01*
X994487Y1018449D01*
X994469Y1018400D01*
X994469Y570197D01*
X992903Y566416D01*
X990009Y563523D01*
X986229Y561957D01*
X949879Y561957D01*
X946099Y563523D01*
X943205Y566416D01*
X941639Y570197D01*
X941639Y1053146D01*
X941628Y1053171D01*
X941627Y1053199D01*
X941609Y1053217D01*
X941601Y1053235D01*
X941582Y1053242D01*
X941565Y1053260D01*
X927072Y1059575D01*
X927065Y1059576D01*
X927058Y1059581D01*
X907488Y1065457D01*
X907481Y1065456D01*
X907474Y1065460D01*
X888555Y1068729D01*
X888548Y1068728D01*
X888540Y1068731D01*
X870294Y1069691D01*
X870288Y1069688D01*
X870280Y1069691D01*
X852736Y1068623D01*
X852730Y1068620D01*
X852723Y1068622D01*
X835923Y1065797D01*
X835918Y1065794D01*
X835912Y1065795D01*
X819916Y1061480D01*
X819911Y1061477D01*
X819905Y1061477D01*
X804950Y1056003D01*
X804945Y1055998D01*
X804938Y1055997D01*
X777445Y1042269D01*
X777440Y1042263D01*
X777431Y1042261D01*
X754654Y1027120D01*
X754651Y1027115D01*
X754644Y1027113D01*
X737061Y1012785D01*
X737059Y1012781D01*
X737054Y1012779D01*
X728340Y1004492D01*
X728338Y1004486D01*
X728332Y1004484D01*
X728302Y1004405D01*
X728301Y1004402D01*
X728301Y804125D01*
X728303Y804123D01*
X728301Y804120D01*
X728321Y804078D01*
X728340Y804036D01*
X728343Y804035D01*
X728344Y804032D01*
X728426Y804001D01*
X749053Y804001D01*
X750839Y802215D01*
X750839Y752076D01*
X750839Y752075D01*
X750839Y752074D01*
X750858Y752031D01*
X750877Y751986D01*
X750879Y751986D01*
X750879Y751985D01*
X750924Y751969D01*
X750969Y751952D01*
X750970Y751953D01*
X750971Y751952D01*
X751051Y751988D01*
X752588Y753525D01*
X752712Y753650D01*
X752836Y753774D01*
X752960Y753898D01*
X753085Y754022D01*
X753209Y754146D01*
X753209Y754147D01*
X753333Y754271D01*
X753457Y754395D01*
X753582Y754519D01*
X753706Y754643D01*
X753706Y754644D01*
X753830Y754768D01*
X753954Y754892D01*
X753975Y754913D01*
X753977Y754917D01*
X753981Y754919D01*
X754011Y755000D01*
X754011Y924457D01*
X790323Y960769D01*
X841927Y960769D01*
X841930Y960770D01*
X841933Y960769D01*
X841974Y960789D01*
X842017Y960807D01*
X842018Y960810D01*
X842021Y960811D01*
X842051Y960893D01*
X842051Y961963D01*
X843837Y963749D01*
X856363Y963749D01*
X858149Y961963D01*
X858149Y950937D01*
X856363Y949151D01*
X843837Y949151D01*
X842051Y950937D01*
X842051Y952007D01*
X842050Y952010D01*
X842051Y952013D01*
X842031Y952054D01*
X842013Y952097D01*
X842010Y952098D01*
X842009Y952101D01*
X841927Y952131D01*
X793952Y952131D01*
X793948Y952130D01*
X793944Y952131D01*
X793865Y952095D01*
X762685Y920915D01*
X762683Y920911D01*
X762679Y920909D01*
X762649Y920828D01*
X762649Y751371D01*
X744905Y733627D01*
X744903Y733623D01*
X744899Y733621D01*
X744869Y733540D01*
X744869Y732873D01*
X744870Y732870D01*
X744869Y732867D01*
X744889Y732826D01*
X744907Y732783D01*
X744910Y732782D01*
X744911Y732779D01*
X744993Y732749D01*
X746063Y732749D01*
X747849Y730963D01*
X747849Y716937D01*
X746063Y715151D01*
X735037Y715151D01*
X733251Y716937D01*
X733251Y730963D01*
X735037Y732749D01*
X736107Y732749D01*
X736110Y732750D01*
X736113Y732749D01*
X736154Y732769D01*
X736197Y732787D01*
X736198Y732790D01*
X736201Y732791D01*
X736231Y732873D01*
X736231Y737169D01*
X736311Y737248D01*
X736311Y737249D01*
X736435Y737373D01*
X736559Y737497D01*
X736684Y737621D01*
X736808Y737745D01*
X736808Y737746D01*
X736932Y737870D01*
X737056Y737994D01*
X737181Y738118D01*
X737305Y738242D01*
X737305Y738243D01*
X737429Y738367D01*
X737553Y738491D01*
X737678Y738615D01*
X738050Y738988D01*
X738175Y739112D01*
X738299Y739236D01*
X738299Y739237D01*
X738423Y739361D01*
X738547Y739485D01*
X738672Y739609D01*
X738796Y739733D01*
X738796Y739734D01*
X738920Y739858D01*
X739044Y739982D01*
X739169Y740106D01*
X739293Y740230D01*
X739293Y740231D01*
X739417Y740355D01*
X739541Y740479D01*
X739666Y740603D01*
X739790Y740728D01*
X739914Y740852D01*
X740038Y740976D01*
X740163Y741100D01*
X740287Y741225D01*
X740411Y741349D01*
X740535Y741473D01*
X740660Y741597D01*
X740784Y741722D01*
X740908Y741846D01*
X741032Y741970D01*
X741157Y742094D01*
X741281Y742219D01*
X741405Y742343D01*
X746754Y747692D01*
X746755Y747693D01*
X746756Y747694D01*
X746773Y747739D01*
X746790Y747782D01*
X746790Y747784D01*
X746790Y747785D01*
X746770Y747828D01*
X746750Y747871D01*
X746749Y747872D01*
X746748Y747873D01*
X746666Y747904D01*
X728426Y747904D01*
X728423Y747903D01*
X728420Y747904D01*
X728379Y747884D01*
X728336Y747865D01*
X728335Y747863D01*
X728332Y747861D01*
X728301Y747780D01*
X728301Y519907D01*
X726735Y516126D01*
X723842Y513233D01*
X720062Y511667D01*
X699712Y511667D01*
X695931Y513233D01*
X693038Y516126D01*
X691472Y519907D01*
X691472Y1008850D01*
X691469Y1008857D01*
X691471Y1008863D01*
X691438Y1008931D01*
X691433Y1008940D01*
X691432Y1008941D01*
X678597Y1020881D01*
X678592Y1020883D01*
X678589Y1020888D01*
X662803Y1033331D01*
X662798Y1033333D01*
X662795Y1033337D01*
X647134Y1043628D01*
X647129Y1043629D01*
X647125Y1043634D01*
X631634Y1051933D01*
X631628Y1051933D01*
X631624Y1051938D01*
X616340Y1058403D01*
X616334Y1058403D01*
X616329Y1058407D01*
X601503Y1063123D01*
X601495Y1063123D01*
X601487Y1063127D01*
X571999Y1068284D01*
X571989Y1068282D01*
X571978Y1068286D01*
X544098Y1068370D01*
X544090Y1068366D01*
X544080Y1068368D01*
X517907Y1064471D01*
X517900Y1064467D01*
X517891Y1064468D01*
X493840Y1057634D01*
X493834Y1057630D01*
X493827Y1057630D01*
X478419Y1051385D01*
X478399Y1051364D01*
X478372Y1051352D01*
X478364Y1051330D01*
X478350Y1051316D01*
X478351Y1051295D01*
X478342Y1051270D01*
X478342Y570197D01*
X476776Y566416D01*
X473882Y563523D01*
X470102Y561957D01*
X433752Y561957D01*
X429972Y563523D01*
X427078Y566416D01*
X425512Y570197D01*
X425512Y1019973D01*
X425496Y1020011D01*
X425485Y1020050D01*
X425477Y1020054D01*
X425474Y1020062D01*
X425435Y1020077D01*
X425399Y1020096D01*
X425390Y1020094D01*
X425383Y1020097D01*
X425358Y1020085D01*
X425315Y1020073D01*
X419495Y1015807D01*
X419494Y1015805D01*
X419492Y1015805D01*
X418000Y1014642D01*
X417869Y1014606D01*
X417854Y1014593D01*
X417829Y1014586D01*
X417720Y1014506D01*
X415883Y1014057D01*
X415881Y1014056D01*
X415879Y1014056D01*
X414056Y1013552D01*
X413922Y1013569D01*
X413902Y1013563D01*
X413877Y1013566D01*
X413745Y1013534D01*
X411875Y1013822D01*
X411873Y1013822D01*
X411871Y1013823D01*
X391666Y1016323D01*
X391658Y1016321D01*
X391650Y1016324D01*
X373446Y1016295D01*
X373439Y1016292D01*
X373430Y1016294D01*
X356686Y1014137D01*
X356679Y1014133D01*
X356670Y1014134D01*
X341308Y1010175D01*
X341302Y1010170D01*
X341294Y1010170D01*
X327252Y1004714D01*
X327247Y1004710D01*
X327240Y1004709D01*
X314677Y998161D01*
X314672Y998154D01*
X314662Y998152D01*
X292650Y982302D01*
X292645Y982294D01*
X292634Y982290D01*
X275826Y965552D01*
X275823Y965545D01*
X275819Y965543D01*
X275818Y965542D01*
X275816Y965540D01*
X264013Y950450D01*
X264012Y950444D01*
X264005Y950439D01*
X255517Y936579D01*
X255514Y936561D01*
X254438Y934818D01*
X253367Y933069D01*
X251711Y931875D01*
X251711Y931874D01*
X250051Y930668D01*
X248062Y930197D01*
X246066Y929717D01*
X246046Y929720D01*
X226576Y925111D01*
X226572Y925108D01*
X226566Y925108D01*
X207189Y918838D01*
X207185Y918835D01*
X207179Y918834D01*
X189424Y911388D01*
X189420Y911384D01*
X189414Y911383D01*
X173198Y902859D01*
X173195Y902855D01*
X173189Y902853D01*
X158426Y893345D01*
X158423Y893341D01*
X158417Y893339D01*
X145197Y883070D01*
X145193Y883063D01*
X145185Y883059D01*
X122036Y859733D01*
X122032Y859724D01*
X122023Y859718D01*
X103646Y833979D01*
X103644Y833970D01*
X103637Y833964D01*
X89370Y806331D01*
X89370Y806323D01*
X89364Y806317D01*
X78748Y777522D01*
X78749Y777516D01*
X78744Y777510D01*
X71325Y748331D01*
X71326Y748326D01*
X71323Y748320D01*
X66634Y719558D01*
X66635Y719554D01*
X66633Y719549D01*
X64207Y692146D01*
X64208Y692140D01*
X64206Y692135D01*
X64109Y643844D01*
X64111Y643839D01*
X64110Y643833D01*
X67022Y610410D01*
X67024Y610406D01*
X67023Y610402D01*
X68720Y599041D01*
X68726Y599030D01*
X68727Y599014D01*
X69048Y598184D01*
X69021Y597034D01*
X69025Y597024D01*
X69022Y597012D01*
X69192Y595875D01*
X68977Y595011D01*
X68979Y594998D01*
X68973Y594983D01*
X68952Y594093D01*
X68487Y593041D01*
X68487Y593030D01*
X68481Y593021D01*
X68202Y591904D01*
X67672Y591188D01*
X67669Y591176D01*
X67659Y591165D01*
X67299Y590350D01*
X66466Y589556D01*
X66462Y589547D01*
X66452Y589540D01*
X65768Y588615D01*
X65004Y588157D01*
X64997Y588146D01*
X64983Y588140D01*
X44208Y568314D01*
X44204Y568305D01*
X44195Y568299D01*
X28876Y548401D01*
X28873Y548391D01*
X28865Y548383D01*
X18603Y528909D01*
X18602Y528898D01*
X18594Y528888D01*
X12660Y509923D01*
X12661Y509912D01*
X12656Y509901D01*
X10393Y491472D01*
X10396Y491462D01*
X10392Y491451D01*
X11233Y473597D01*
X11237Y473589D01*
X11235Y473579D01*
X14668Y456409D01*
X14672Y456403D01*
X14672Y456394D01*
X20184Y440087D01*
X20188Y440082D01*
X20189Y440075D01*
X27243Y424853D01*
X27248Y424849D01*
X27249Y424843D01*
X35204Y411077D01*
X35209Y411073D01*
X35211Y411066D01*
X51981Y387998D01*
X51987Y387995D01*
X51990Y387988D01*
X65388Y373141D01*
X65392Y373139D01*
X65394Y373135D01*
X69760Y368940D01*
X69776Y368934D01*
X69790Y368919D01*
X70231Y368695D01*
X71235Y367524D01*
X71240Y367522D01*
X71243Y367516D01*
X72355Y366447D01*
X72553Y365995D01*
X72565Y365983D01*
X72572Y365964D01*
X72894Y365589D01*
X73373Y364123D01*
X73377Y364118D01*
X73377Y364112D01*
X73996Y362699D01*
X74006Y362205D01*
X74013Y362189D01*
X74012Y362169D01*
X74165Y361699D01*
X74047Y360162D01*
X74049Y360156D01*
X74047Y360150D01*
X74078Y358608D01*
X73898Y358148D01*
X73898Y358131D01*
X73890Y358112D01*
X73852Y357619D01*
X73154Y356244D01*
X73154Y356238D01*
X73149Y356233D01*
X72588Y354797D01*
X72524Y354730D01*
X72404Y354606D01*
X72245Y354441D01*
X72239Y354425D01*
X72224Y354411D01*
X57810Y325995D01*
X57810Y325987D01*
X57804Y325980D01*
X48504Y299616D01*
X48505Y299607D01*
X48499Y299598D01*
X44018Y276051D01*
X44021Y276041D01*
X44016Y276030D01*
X43613Y255124D01*
X43615Y255119D01*
X43613Y255115D01*
X43616Y255109D01*
X43615Y255102D01*
X46595Y236591D01*
X46601Y236582D01*
X46600Y236570D01*
X52354Y220192D01*
X52361Y220185D01*
X52363Y220173D01*
X60351Y205715D01*
X60358Y205709D01*
X60361Y205700D01*
X70064Y193026D01*
X70071Y193022D01*
X70074Y193014D01*
X80942Y182053D01*
X80949Y182050D01*
X80952Y182044D01*
X92254Y172866D01*
X92262Y172864D01*
X92267Y172857D01*
X114623Y158947D01*
X114631Y158946D01*
X114637Y158940D01*
X131482Y151198D01*
X131487Y151198D01*
X131491Y151194D01*
X137220Y149123D01*
X137231Y149123D01*
X137243Y149117D01*
X138272Y148956D01*
X139126Y148436D01*
X139137Y148434D01*
X139148Y148425D01*
X140089Y148085D01*
X140858Y147383D01*
X140869Y147379D01*
X140877Y147369D01*
X141766Y146827D01*
X142356Y146020D01*
X142366Y146013D01*
X142373Y146001D01*
X143111Y145327D01*
X143553Y144384D01*
X143562Y144377D01*
X143565Y144364D01*
X144180Y143523D01*
X144416Y142551D01*
X144423Y142541D01*
X144424Y142527D01*
X144848Y141622D01*
X144896Y140582D01*
X144901Y140572D01*
X144899Y140558D01*
X153273Y106062D01*
X153277Y106057D01*
X153277Y106049D01*
X163532Y77694D01*
X163538Y77688D01*
X163539Y77679D01*
X175117Y55395D01*
X175124Y55389D01*
X175127Y55378D01*
X187599Y38512D01*
X187608Y38507D01*
X187614Y38495D01*
X200602Y26319D01*
X200613Y26315D01*
X200621Y26304D01*
X213858Y18057D01*
X213870Y18055D01*
X213880Y18046D01*
X227209Y13030D01*
X227220Y13030D01*
X227231Y13024D01*
X240514Y10662D01*
X240523Y10664D01*
X240534Y10660D01*
X253561Y10472D01*
X253569Y10475D01*
G37*
%LPC*%
G36*
X742237Y403051D02*
X742237Y403051D01*
X740451Y404837D01*
X740451Y405907D01*
X740450Y405910D01*
X740451Y405913D01*
X740431Y405954D01*
X740413Y405997D01*
X740410Y405998D01*
X740409Y406001D01*
X740327Y406031D01*
X701905Y406031D01*
X670559Y437377D01*
X670559Y981394D01*
X670558Y981398D01*
X670559Y981402D01*
X670523Y981481D01*
X644309Y1007695D01*
X644305Y1007697D01*
X644303Y1007701D01*
X644222Y1007731D01*
X605873Y1007731D01*
X605870Y1007730D01*
X605867Y1007731D01*
X605826Y1007711D01*
X605783Y1007693D01*
X605782Y1007690D01*
X605779Y1007689D01*
X605749Y1007607D01*
X605749Y1006537D01*
X603963Y1004751D01*
X589937Y1004751D01*
X588151Y1006537D01*
X588151Y1017563D01*
X589937Y1019349D01*
X603963Y1019349D01*
X605749Y1017563D01*
X605749Y1016493D01*
X605750Y1016490D01*
X605749Y1016487D01*
X605769Y1016446D01*
X605787Y1016403D01*
X605790Y1016402D01*
X605791Y1016399D01*
X605873Y1016369D01*
X647851Y1016369D01*
X679197Y985023D01*
X679197Y441006D01*
X679198Y441002D01*
X679197Y440998D01*
X679233Y440919D01*
X705447Y414705D01*
X705451Y414703D01*
X705453Y414699D01*
X705534Y414669D01*
X740327Y414669D01*
X740330Y414670D01*
X740333Y414669D01*
X740374Y414689D01*
X740417Y414707D01*
X740418Y414710D01*
X740421Y414711D01*
X740451Y414793D01*
X740451Y415863D01*
X742237Y417649D01*
X754763Y417649D01*
X756549Y415863D01*
X756549Y404837D01*
X754763Y403051D01*
X742237Y403051D01*
G37*
%LPD*%
%LPC*%
G36*
X756984Y62483D02*
X756984Y62483D01*
X752409Y64378D01*
X748908Y67879D01*
X747013Y72454D01*
X747013Y77406D01*
X748908Y81981D01*
X752409Y85482D01*
X755065Y86582D01*
X755085Y86602D01*
X755111Y86615D01*
X755119Y86637D01*
X755133Y86651D01*
X755132Y86672D01*
X755141Y86696D01*
X755141Y161999D01*
X766511Y173369D01*
X778427Y173369D01*
X778430Y173370D01*
X778433Y173369D01*
X778474Y173389D01*
X778517Y173407D01*
X778518Y173410D01*
X778521Y173411D01*
X778551Y173493D01*
X778551Y174563D01*
X780337Y176349D01*
X794363Y176349D01*
X796149Y174563D01*
X796149Y163537D01*
X794363Y161751D01*
X780337Y161751D01*
X778551Y163537D01*
X778551Y164607D01*
X778550Y164610D01*
X778551Y164613D01*
X778531Y164654D01*
X778513Y164697D01*
X778510Y164698D01*
X778509Y164701D01*
X778427Y164731D01*
X770140Y164731D01*
X770136Y164730D01*
X770132Y164731D01*
X770053Y164695D01*
X763815Y158457D01*
X763813Y158453D01*
X763809Y158451D01*
X763779Y158370D01*
X763779Y122553D01*
X763780Y122550D01*
X763779Y122547D01*
X763799Y122506D01*
X763817Y122463D01*
X763820Y122462D01*
X763821Y122459D01*
X763903Y122429D01*
X885890Y122429D01*
X885894Y122430D01*
X885898Y122429D01*
X885977Y122465D01*
X892345Y128833D01*
X892347Y128837D01*
X892351Y128839D01*
X892381Y128920D01*
X892381Y129906D01*
X892380Y129910D01*
X892381Y129914D01*
X892345Y129994D01*
X891788Y130551D01*
X891785Y130552D01*
X891784Y130554D01*
X891740Y130570D01*
X891697Y130587D01*
X891694Y130586D01*
X891692Y130587D01*
X891612Y130551D01*
X890963Y129901D01*
X882437Y129901D01*
X880651Y131687D01*
X880651Y147713D01*
X882437Y149499D01*
X890963Y149499D01*
X891612Y148849D01*
X891615Y148848D01*
X891616Y148846D01*
X891660Y148830D01*
X891703Y148813D01*
X891706Y148814D01*
X891708Y148813D01*
X891788Y148849D01*
X892437Y149499D01*
X900493Y149499D01*
X900495Y149499D01*
X900496Y149499D01*
X900539Y149518D01*
X900583Y149537D01*
X900584Y149539D01*
X900585Y149539D01*
X900601Y149584D01*
X900618Y149629D01*
X900617Y149630D01*
X900617Y149631D01*
X900581Y149711D01*
X899929Y150363D01*
X898699Y153333D01*
X898699Y156547D01*
X899929Y159517D01*
X902203Y161791D01*
X905173Y163021D01*
X908387Y163021D01*
X911357Y161791D01*
X913631Y159517D01*
X914861Y156547D01*
X914861Y153333D01*
X913631Y150363D01*
X913607Y150339D01*
X913483Y150215D01*
X913358Y150091D01*
X913358Y150090D01*
X913234Y149966D01*
X913110Y149842D01*
X912986Y149718D01*
X912861Y149594D01*
X912861Y149593D01*
X911953Y148685D01*
X911951Y148682D01*
X911949Y148681D01*
X911933Y148637D01*
X911916Y148594D01*
X911917Y148591D01*
X911916Y148588D01*
X911953Y148509D01*
X911971Y148490D01*
X911974Y148489D01*
X911976Y148486D01*
X912019Y148471D01*
X912032Y148466D01*
X912040Y148461D01*
X912043Y148461D01*
X912062Y148454D01*
X912065Y148455D01*
X912068Y148454D01*
X912106Y148472D01*
X912126Y148475D01*
X912719Y148818D01*
X913366Y148991D01*
X916451Y148991D01*
X916451Y139825D01*
X916452Y139822D01*
X916451Y139820D01*
X916471Y139778D01*
X916489Y139735D01*
X916492Y139734D01*
X916493Y139732D01*
X916575Y139701D01*
X916701Y139701D01*
X916701Y139699D01*
X916575Y139699D01*
X916572Y139698D01*
X916569Y139699D01*
X916528Y139679D01*
X916485Y139661D01*
X916484Y139658D01*
X916481Y139657D01*
X916451Y139575D01*
X916451Y130409D01*
X913366Y130409D01*
X912719Y130582D01*
X912126Y130925D01*
X912102Y130928D01*
X912100Y130929D01*
X912057Y130946D01*
X912054Y130945D01*
X912051Y130946D01*
X912030Y130937D01*
X912029Y130937D01*
X912027Y130935D01*
X911971Y130910D01*
X911396Y130335D01*
X911272Y130211D01*
X911272Y130210D01*
X911148Y130086D01*
X911024Y129962D01*
X910963Y129901D01*
X902437Y129901D01*
X901788Y130551D01*
X901785Y130552D01*
X901784Y130554D01*
X901740Y130570D01*
X901697Y130587D01*
X901694Y130586D01*
X901692Y130587D01*
X901612Y130551D01*
X901055Y129994D01*
X901053Y129989D01*
X901049Y129987D01*
X901019Y129906D01*
X901019Y125291D01*
X889519Y113791D01*
X882873Y113791D01*
X882870Y113790D01*
X882867Y113791D01*
X882826Y113771D01*
X882783Y113753D01*
X882782Y113750D01*
X882779Y113749D01*
X882749Y113667D01*
X882749Y91687D01*
X880963Y89901D01*
X866437Y89901D01*
X864651Y91687D01*
X864651Y113667D01*
X864650Y113670D01*
X864651Y113673D01*
X864631Y113714D01*
X864613Y113757D01*
X864610Y113758D01*
X864609Y113761D01*
X864527Y113791D01*
X763903Y113791D01*
X763900Y113790D01*
X763897Y113791D01*
X763856Y113771D01*
X763813Y113753D01*
X763812Y113750D01*
X763809Y113749D01*
X763779Y113667D01*
X763779Y86696D01*
X763790Y86670D01*
X763792Y86641D01*
X763809Y86625D01*
X763817Y86607D01*
X763836Y86599D01*
X763855Y86582D01*
X766511Y85482D01*
X770012Y81981D01*
X771907Y77406D01*
X771907Y72454D01*
X770012Y67879D01*
X766511Y64378D01*
X761936Y62483D01*
X756984Y62483D01*
G37*
%LPD*%
%LPC*%
G36*
X818437Y288751D02*
X818437Y288751D01*
X816651Y290537D01*
X816651Y291467D01*
X816650Y291470D01*
X816651Y291473D01*
X816631Y291514D01*
X816613Y291557D01*
X816610Y291558D01*
X816609Y291561D01*
X816527Y291591D01*
X802629Y291591D01*
X800063Y294157D01*
X790982Y303239D01*
X790981Y303239D01*
X788415Y305805D01*
X788415Y345197D01*
X790981Y347763D01*
X790982Y347763D01*
X798895Y355677D01*
X799019Y355801D01*
X799144Y355925D01*
X799268Y356050D01*
X799392Y356174D01*
X799516Y356298D01*
X799641Y356422D01*
X799765Y356547D01*
X799889Y356671D01*
X800013Y356795D01*
X800138Y356919D01*
X800262Y357044D01*
X800386Y357168D01*
X800510Y357292D01*
X800635Y357416D01*
X800759Y357541D01*
X800883Y357665D01*
X801007Y357789D01*
X801132Y357913D01*
X801256Y358038D01*
X801380Y358162D01*
X801504Y358286D01*
X801629Y358410D01*
X801753Y358534D01*
X801753Y358535D01*
X801877Y358659D01*
X802001Y358783D01*
X802126Y358907D01*
X802250Y359031D01*
X802250Y359032D01*
X802374Y359156D01*
X802498Y359280D01*
X802623Y359404D01*
X802747Y359528D01*
X802747Y359529D01*
X802871Y359653D01*
X802995Y359777D01*
X803120Y359901D01*
X803244Y360025D01*
X803244Y360026D01*
X803368Y360150D01*
X803492Y360274D01*
X803617Y360398D01*
X803741Y360522D01*
X803741Y360523D01*
X803865Y360647D01*
X803989Y360771D01*
X804114Y360895D01*
X804486Y361268D01*
X804611Y361392D01*
X804735Y361516D01*
X804735Y361517D01*
X804859Y361641D01*
X804983Y361765D01*
X805108Y361889D01*
X805232Y362013D01*
X805232Y362014D01*
X805356Y362138D01*
X805480Y362262D01*
X805605Y362386D01*
X805729Y362510D01*
X805729Y362511D01*
X805853Y362635D01*
X805977Y362759D01*
X806102Y362883D01*
X806226Y363007D01*
X806226Y363008D01*
X806350Y363132D01*
X806474Y363256D01*
X806599Y363380D01*
X806693Y363475D01*
X871412Y363475D01*
X871416Y363476D01*
X871420Y363475D01*
X871499Y363511D01*
X871617Y363629D01*
X871741Y363753D01*
X871866Y363877D01*
X871990Y364001D01*
X871990Y364002D01*
X872114Y364126D01*
X872238Y364250D01*
X872363Y364374D01*
X872487Y364498D01*
X872487Y364499D01*
X872611Y364623D01*
X872735Y364747D01*
X873108Y365120D01*
X873232Y365244D01*
X873357Y365368D01*
X873481Y365492D01*
X873481Y365493D01*
X873605Y365617D01*
X873729Y365741D01*
X873854Y365865D01*
X873978Y365989D01*
X873978Y365990D01*
X874102Y366114D01*
X874226Y366238D01*
X874351Y366362D01*
X874475Y366486D01*
X874475Y366487D01*
X874599Y366611D01*
X874723Y366735D01*
X874848Y366859D01*
X874972Y366984D01*
X875096Y367108D01*
X875220Y367232D01*
X875345Y367356D01*
X875469Y367481D01*
X875593Y367605D01*
X875717Y367729D01*
X875842Y367853D01*
X875966Y367978D01*
X876090Y368102D01*
X880695Y372706D01*
X880697Y372711D01*
X880701Y372713D01*
X880731Y372794D01*
X880731Y549827D01*
X880730Y549830D01*
X880731Y549833D01*
X880711Y549874D01*
X880693Y549917D01*
X880690Y549918D01*
X880689Y549921D01*
X880607Y549951D01*
X879537Y549951D01*
X877751Y551737D01*
X877751Y565763D01*
X879537Y567549D01*
X890563Y567549D01*
X892349Y565763D01*
X892349Y551737D01*
X890563Y549951D01*
X889493Y549951D01*
X889490Y549950D01*
X889487Y549951D01*
X889446Y549931D01*
X889403Y549913D01*
X889402Y549910D01*
X889399Y549909D01*
X889369Y549827D01*
X889369Y369165D01*
X886803Y366599D01*
X886802Y366599D01*
X880898Y360694D01*
X880774Y360570D01*
X880649Y360446D01*
X880525Y360322D01*
X880525Y360321D01*
X880401Y360197D01*
X880277Y360073D01*
X880152Y359949D01*
X880028Y359825D01*
X880028Y359824D01*
X879904Y359700D01*
X879780Y359576D01*
X879655Y359452D01*
X879531Y359328D01*
X879531Y359327D01*
X879407Y359203D01*
X879283Y359079D01*
X879158Y358955D01*
X879034Y358831D01*
X879034Y358830D01*
X878910Y358706D01*
X878786Y358582D01*
X878661Y358458D01*
X878537Y358334D01*
X878537Y358333D01*
X878413Y358209D01*
X878289Y358085D01*
X878164Y357961D01*
X878040Y357837D01*
X878040Y357836D01*
X877916Y357712D01*
X877792Y357588D01*
X877667Y357464D01*
X877543Y357340D01*
X877543Y357339D01*
X877419Y357215D01*
X877295Y357091D01*
X877170Y356967D01*
X877046Y356843D01*
X877046Y356842D01*
X876922Y356718D01*
X876673Y356470D01*
X876549Y356346D01*
X876549Y356345D01*
X876425Y356221D01*
X876301Y356097D01*
X876176Y355973D01*
X876052Y355849D01*
X876052Y355848D01*
X875928Y355724D01*
X875804Y355600D01*
X875679Y355476D01*
X875555Y355352D01*
X875555Y355351D01*
X875431Y355227D01*
X875307Y355103D01*
X875182Y354979D01*
X875058Y354855D01*
X875058Y354854D01*
X875041Y354837D01*
X810322Y354837D01*
X810318Y354836D01*
X810314Y354837D01*
X810235Y354801D01*
X810164Y354730D01*
X810040Y354606D01*
X809915Y354482D01*
X809791Y354358D01*
X809791Y354357D01*
X809667Y354233D01*
X809543Y354109D01*
X809418Y353985D01*
X809294Y353861D01*
X809294Y353860D01*
X809170Y353736D01*
X809046Y353612D01*
X808921Y353488D01*
X808797Y353364D01*
X808797Y353363D01*
X808673Y353239D01*
X808549Y353115D01*
X808424Y352991D01*
X807927Y352494D01*
X807803Y352370D01*
X807803Y352369D01*
X807679Y352245D01*
X807555Y352121D01*
X807430Y351997D01*
X807306Y351873D01*
X807306Y351872D01*
X807182Y351748D01*
X807058Y351624D01*
X806933Y351500D01*
X806809Y351376D01*
X806809Y351375D01*
X806685Y351251D01*
X806561Y351127D01*
X806436Y351003D01*
X806312Y350879D01*
X806312Y350878D01*
X806188Y350754D01*
X806064Y350630D01*
X805939Y350506D01*
X805815Y350382D01*
X805815Y350381D01*
X805691Y350257D01*
X805567Y350133D01*
X805442Y350009D01*
X805318Y349885D01*
X805318Y349884D01*
X805194Y349760D01*
X805070Y349636D01*
X804945Y349512D01*
X804821Y349388D01*
X804821Y349387D01*
X804697Y349263D01*
X804573Y349139D01*
X804448Y349015D01*
X804324Y348891D01*
X804324Y348890D01*
X804200Y348766D01*
X804076Y348642D01*
X803951Y348518D01*
X803827Y348394D01*
X803827Y348393D01*
X803703Y348269D01*
X797089Y341656D01*
X797087Y341651D01*
X797083Y341649D01*
X797053Y341568D01*
X797053Y309434D01*
X797054Y309430D01*
X797053Y309426D01*
X797089Y309346D01*
X806171Y300265D01*
X806175Y300263D01*
X806177Y300259D01*
X806258Y300229D01*
X816527Y300229D01*
X816530Y300230D01*
X816533Y300229D01*
X816574Y300249D01*
X816617Y300267D01*
X816618Y300270D01*
X816621Y300271D01*
X816651Y300353D01*
X816651Y301563D01*
X818437Y303349D01*
X830963Y303349D01*
X832749Y301563D01*
X832749Y290537D01*
X830963Y288751D01*
X818437Y288751D01*
G37*
%LPD*%
%LPC*%
G36*
X1103337Y727851D02*
X1103337Y727851D01*
X1101551Y729637D01*
X1101551Y743663D01*
X1103337Y745449D01*
X1104407Y745449D01*
X1104410Y745450D01*
X1104413Y745449D01*
X1104454Y745469D01*
X1104497Y745487D01*
X1104498Y745490D01*
X1104501Y745491D01*
X1104531Y745573D01*
X1104531Y750876D01*
X1104530Y750880D01*
X1104531Y750884D01*
X1104495Y750963D01*
X1087907Y767551D01*
X1087903Y767553D01*
X1087901Y767557D01*
X1087820Y767587D01*
X1027673Y767587D01*
X1003299Y791961D01*
X1003299Y920507D01*
X1030861Y948069D01*
X1045127Y948069D01*
X1045130Y948070D01*
X1045133Y948069D01*
X1045174Y948089D01*
X1045217Y948107D01*
X1045218Y948110D01*
X1045221Y948111D01*
X1045251Y948193D01*
X1045251Y949263D01*
X1047037Y951049D01*
X1059563Y951049D01*
X1061349Y949263D01*
X1061349Y938237D01*
X1059563Y936451D01*
X1047037Y936451D01*
X1045251Y938237D01*
X1045251Y939307D01*
X1045250Y939310D01*
X1045251Y939313D01*
X1045231Y939354D01*
X1045213Y939397D01*
X1045210Y939398D01*
X1045209Y939401D01*
X1045127Y939431D01*
X1034490Y939431D01*
X1034486Y939430D01*
X1034482Y939431D01*
X1034403Y939395D01*
X1011973Y916965D01*
X1011972Y916962D01*
X1011971Y916962D01*
X1011971Y916961D01*
X1011967Y916959D01*
X1011937Y916878D01*
X1011937Y795590D01*
X1011938Y795586D01*
X1011937Y795582D01*
X1011973Y795503D01*
X1031215Y776261D01*
X1031219Y776259D01*
X1031221Y776255D01*
X1031302Y776225D01*
X1091449Y776225D01*
X1113169Y754505D01*
X1113169Y745573D01*
X1113170Y745570D01*
X1113169Y745567D01*
X1113189Y745526D01*
X1113207Y745483D01*
X1113210Y745482D01*
X1113211Y745479D01*
X1113293Y745449D01*
X1114363Y745449D01*
X1116149Y743663D01*
X1116149Y729637D01*
X1114363Y727851D01*
X1103337Y727851D01*
G37*
%LPD*%
%LPC*%
G36*
X1110537Y60151D02*
X1110537Y60151D01*
X1108751Y61937D01*
X1108751Y63007D01*
X1108750Y63010D01*
X1108751Y63013D01*
X1108731Y63054D01*
X1108713Y63097D01*
X1108710Y63098D01*
X1108709Y63101D01*
X1108627Y63131D01*
X1091033Y63131D01*
X1077975Y76189D01*
X1077975Y236412D01*
X1077974Y236416D01*
X1077975Y236420D01*
X1077939Y236499D01*
X1068743Y245695D01*
X1068739Y245697D01*
X1068737Y245701D01*
X1068656Y245731D01*
X1059606Y245731D01*
X1059582Y245721D01*
X1059555Y245721D01*
X1059539Y245703D01*
X1059516Y245693D01*
X1059507Y245668D01*
X1059489Y245649D01*
X1059490Y245625D01*
X1059481Y245601D01*
X1059493Y245578D01*
X1059494Y245552D01*
X1059514Y245533D01*
X1059524Y245513D01*
X1059543Y245506D01*
X1059558Y245492D01*
X1061725Y244595D01*
X1063999Y242321D01*
X1065229Y239351D01*
X1065229Y236137D01*
X1063999Y233167D01*
X1061725Y230893D01*
X1058755Y229663D01*
X1055541Y229663D01*
X1055359Y229739D01*
X1055330Y229738D01*
X1055303Y229748D01*
X1055281Y229738D01*
X1055261Y229738D01*
X1055247Y229722D01*
X1055223Y229712D01*
X1054377Y228865D01*
X1054252Y228741D01*
X1054128Y228617D01*
X1054128Y228616D01*
X1054004Y228492D01*
X1053880Y228368D01*
X1053755Y228244D01*
X1053743Y228231D01*
X1050373Y228231D01*
X1050370Y228230D01*
X1050367Y228231D01*
X1050326Y228211D01*
X1050283Y228193D01*
X1050282Y228190D01*
X1050279Y228189D01*
X1050249Y228107D01*
X1050249Y227037D01*
X1048463Y225251D01*
X1026937Y225251D01*
X1025151Y227037D01*
X1025151Y238063D01*
X1026937Y239849D01*
X1048463Y239849D01*
X1048904Y239407D01*
X1048930Y239397D01*
X1048950Y239378D01*
X1048973Y239379D01*
X1048995Y239371D01*
X1049020Y239382D01*
X1049047Y239384D01*
X1049065Y239403D01*
X1049084Y239411D01*
X1049090Y239430D01*
X1049107Y239447D01*
X1050297Y242321D01*
X1052571Y244595D01*
X1054738Y245492D01*
X1054756Y245511D01*
X1054780Y245521D01*
X1054789Y245544D01*
X1054806Y245562D01*
X1054805Y245588D01*
X1054815Y245613D01*
X1054804Y245635D01*
X1054803Y245660D01*
X1054783Y245677D01*
X1054772Y245701D01*
X1054746Y245710D01*
X1054730Y245725D01*
X1054710Y245724D01*
X1054690Y245731D01*
X1050373Y245731D01*
X1050370Y245730D01*
X1050367Y245731D01*
X1050326Y245711D01*
X1050283Y245693D01*
X1050282Y245690D01*
X1050279Y245689D01*
X1050249Y245607D01*
X1050249Y244537D01*
X1048463Y242751D01*
X1035937Y242751D01*
X1034151Y244537D01*
X1034151Y255563D01*
X1035937Y257349D01*
X1048463Y257349D01*
X1050249Y255563D01*
X1050249Y254493D01*
X1050250Y254490D01*
X1050249Y254487D01*
X1050269Y254446D01*
X1050287Y254403D01*
X1050290Y254402D01*
X1050291Y254399D01*
X1050373Y254369D01*
X1072285Y254369D01*
X1086613Y240041D01*
X1086613Y79818D01*
X1086614Y79814D01*
X1086613Y79810D01*
X1086649Y79731D01*
X1094575Y71805D01*
X1094579Y71803D01*
X1094581Y71799D01*
X1094662Y71769D01*
X1108627Y71769D01*
X1108630Y71770D01*
X1108633Y71769D01*
X1108674Y71789D01*
X1108717Y71807D01*
X1108718Y71810D01*
X1108721Y71811D01*
X1108751Y71893D01*
X1108751Y72963D01*
X1110537Y74749D01*
X1124563Y74749D01*
X1126349Y72963D01*
X1126349Y61937D01*
X1124563Y60151D01*
X1110537Y60151D01*
G37*
%LPD*%
%LPC*%
G36*
X386737Y77651D02*
X386737Y77651D01*
X384951Y79437D01*
X384951Y90463D01*
X386737Y92249D01*
X400763Y92249D01*
X402549Y90463D01*
X402549Y89393D01*
X402550Y89390D01*
X402549Y89387D01*
X402569Y89346D01*
X402587Y89303D01*
X402590Y89302D01*
X402591Y89299D01*
X402673Y89269D01*
X406706Y89269D01*
X406710Y89270D01*
X406714Y89269D01*
X406794Y89305D01*
X410173Y92684D01*
X410175Y92689D01*
X410179Y92691D01*
X410209Y92772D01*
X410209Y205424D01*
X410209Y205425D01*
X410209Y205426D01*
X410208Y205429D01*
X410209Y205432D01*
X410173Y205511D01*
X392963Y222721D01*
X392959Y222723D01*
X392957Y222727D01*
X392876Y222757D01*
X366257Y222757D01*
X346736Y242279D01*
X346735Y242279D01*
X344169Y244845D01*
X344169Y282205D01*
X362333Y300369D01*
X372027Y300369D01*
X372030Y300370D01*
X372033Y300369D01*
X372074Y300389D01*
X372117Y300407D01*
X372118Y300410D01*
X372121Y300411D01*
X372151Y300493D01*
X372151Y301563D01*
X373937Y303349D01*
X386463Y303349D01*
X388249Y301563D01*
X388249Y290537D01*
X386463Y288751D01*
X373937Y288751D01*
X372151Y290537D01*
X372151Y291607D01*
X372150Y291610D01*
X372151Y291613D01*
X372131Y291654D01*
X372113Y291697D01*
X372110Y291698D01*
X372109Y291701D01*
X372027Y291731D01*
X365962Y291731D01*
X365958Y291730D01*
X365954Y291731D01*
X365875Y291695D01*
X352843Y278663D01*
X352841Y278659D01*
X352837Y278657D01*
X352807Y278576D01*
X352807Y248474D01*
X352808Y248470D01*
X352807Y248466D01*
X352843Y248386D01*
X369799Y231431D01*
X369803Y231429D01*
X369805Y231425D01*
X369886Y231395D01*
X396505Y231395D01*
X418847Y209053D01*
X418847Y89143D01*
X416281Y86577D01*
X416280Y86577D01*
X412901Y83198D01*
X412901Y83197D01*
X410335Y80631D01*
X402673Y80631D01*
X402670Y80630D01*
X402667Y80631D01*
X402626Y80611D01*
X402583Y80593D01*
X402582Y80590D01*
X402579Y80589D01*
X402549Y80507D01*
X402549Y79437D01*
X400763Y77651D01*
X386737Y77651D01*
G37*
%LPD*%
%LPC*%
G36*
X1116037Y488051D02*
X1116037Y488051D01*
X1114251Y489837D01*
X1114251Y502363D01*
X1116037Y504149D01*
X1117107Y504149D01*
X1117110Y504150D01*
X1117113Y504149D01*
X1117154Y504169D01*
X1117197Y504187D01*
X1117198Y504190D01*
X1117201Y504191D01*
X1117231Y504273D01*
X1117231Y532535D01*
X1133337Y548641D01*
X1288734Y548641D01*
X1288738Y548642D01*
X1288742Y548641D01*
X1288821Y548677D01*
X1299795Y559651D01*
X1299797Y559655D01*
X1299801Y559657D01*
X1299831Y559738D01*
X1299831Y613327D01*
X1299830Y613330D01*
X1299831Y613333D01*
X1299811Y613374D01*
X1299793Y613417D01*
X1299790Y613418D01*
X1299789Y613421D01*
X1299707Y613451D01*
X1298637Y613451D01*
X1296851Y615237D01*
X1296851Y629263D01*
X1298637Y631049D01*
X1309663Y631049D01*
X1311449Y629263D01*
X1311449Y615237D01*
X1309663Y613451D01*
X1308593Y613451D01*
X1308590Y613450D01*
X1308587Y613451D01*
X1308546Y613431D01*
X1308503Y613413D01*
X1308502Y613410D01*
X1308499Y613409D01*
X1308469Y613327D01*
X1308469Y556109D01*
X1292363Y540003D01*
X1136966Y540003D01*
X1136962Y540002D01*
X1136958Y540003D01*
X1136879Y539967D01*
X1125905Y528993D01*
X1125903Y528989D01*
X1125899Y528987D01*
X1125869Y528906D01*
X1125869Y504273D01*
X1125870Y504270D01*
X1125869Y504267D01*
X1125889Y504226D01*
X1125907Y504183D01*
X1125910Y504182D01*
X1125911Y504179D01*
X1125993Y504149D01*
X1127063Y504149D01*
X1128849Y502363D01*
X1128849Y489837D01*
X1127063Y488051D01*
X1116037Y488051D01*
G37*
%LPD*%
%LPC*%
G36*
X843937Y306251D02*
X843937Y306251D01*
X842151Y308037D01*
X842151Y319063D01*
X843937Y320849D01*
X857963Y320849D01*
X859749Y319063D01*
X859749Y317993D01*
X859750Y317990D01*
X859749Y317987D01*
X859769Y317946D01*
X859787Y317903D01*
X859790Y317902D01*
X859791Y317899D01*
X859873Y317869D01*
X874320Y317869D01*
X874324Y317870D01*
X874328Y317869D01*
X874407Y317905D01*
X899123Y342621D01*
X899125Y342625D01*
X899129Y342627D01*
X899159Y342708D01*
X899159Y422159D01*
X929769Y452769D01*
X1007027Y452769D01*
X1007030Y452770D01*
X1007033Y452769D01*
X1007074Y452789D01*
X1007117Y452807D01*
X1007118Y452810D01*
X1007121Y452811D01*
X1007151Y452893D01*
X1007151Y453963D01*
X1008937Y455749D01*
X1021463Y455749D01*
X1023249Y453963D01*
X1023249Y442937D01*
X1021463Y441151D01*
X1008937Y441151D01*
X1007151Y442937D01*
X1007151Y444007D01*
X1007150Y444010D01*
X1007151Y444013D01*
X1007131Y444054D01*
X1007113Y444097D01*
X1007110Y444098D01*
X1007109Y444101D01*
X1007027Y444131D01*
X933398Y444131D01*
X933394Y444130D01*
X933390Y444131D01*
X933311Y444095D01*
X907833Y418617D01*
X907831Y418613D01*
X907827Y418611D01*
X907797Y418530D01*
X907797Y339079D01*
X877949Y309231D01*
X859873Y309231D01*
X859870Y309230D01*
X859867Y309231D01*
X859826Y309211D01*
X859783Y309193D01*
X859782Y309190D01*
X859779Y309189D01*
X859749Y309107D01*
X859749Y308037D01*
X857963Y306251D01*
X843937Y306251D01*
G37*
%LPD*%
%LPC*%
G36*
X328637Y742051D02*
X328637Y742051D01*
X326851Y743837D01*
X326851Y756363D01*
X328637Y758149D01*
X329707Y758149D01*
X329710Y758150D01*
X329713Y758149D01*
X329754Y758169D01*
X329797Y758187D01*
X329798Y758190D01*
X329801Y758191D01*
X329831Y758273D01*
X329831Y831747D01*
X345937Y847853D01*
X368238Y847853D01*
X368242Y847854D01*
X368246Y847853D01*
X368325Y847889D01*
X387821Y867385D01*
X387823Y867389D01*
X387827Y867391D01*
X387857Y867472D01*
X387857Y927292D01*
X387856Y927296D01*
X387857Y927300D01*
X387821Y927379D01*
X383705Y931495D01*
X383701Y931497D01*
X383699Y931501D01*
X383618Y931531D01*
X377273Y931531D01*
X377270Y931530D01*
X377267Y931531D01*
X377226Y931511D01*
X377183Y931493D01*
X377182Y931490D01*
X377179Y931489D01*
X377149Y931407D01*
X377149Y930337D01*
X375363Y928551D01*
X361337Y928551D01*
X359551Y930337D01*
X359551Y941363D01*
X361337Y943149D01*
X375363Y943149D01*
X377149Y941363D01*
X377149Y940293D01*
X377150Y940290D01*
X377149Y940287D01*
X377169Y940246D01*
X377187Y940203D01*
X377190Y940202D01*
X377191Y940199D01*
X377273Y940169D01*
X387247Y940169D01*
X396495Y930921D01*
X396495Y863843D01*
X371867Y839215D01*
X349566Y839215D01*
X349562Y839214D01*
X349558Y839215D01*
X349479Y839179D01*
X338505Y828205D01*
X338503Y828201D01*
X338499Y828199D01*
X338469Y828118D01*
X338469Y758273D01*
X338470Y758270D01*
X338469Y758267D01*
X338489Y758226D01*
X338507Y758183D01*
X338510Y758182D01*
X338511Y758179D01*
X338593Y758149D01*
X339663Y758149D01*
X341449Y756363D01*
X341449Y743837D01*
X339663Y742051D01*
X328637Y742051D01*
G37*
%LPD*%
%LPC*%
G36*
X653437Y141151D02*
X653437Y141151D01*
X651651Y142937D01*
X651651Y153963D01*
X653437Y155749D01*
X667463Y155749D01*
X669249Y153963D01*
X669249Y152893D01*
X669250Y152890D01*
X669249Y152887D01*
X669269Y152846D01*
X669287Y152803D01*
X669290Y152802D01*
X669291Y152799D01*
X669373Y152769D01*
X673914Y152769D01*
X673918Y152770D01*
X673922Y152769D01*
X674001Y152805D01*
X680937Y159741D01*
X680939Y159745D01*
X680943Y159747D01*
X680973Y159828D01*
X680973Y191708D01*
X680972Y191712D01*
X680973Y191716D01*
X680937Y191795D01*
X664489Y208243D01*
X664486Y208244D01*
X664485Y208247D01*
X664484Y208248D01*
X664483Y208249D01*
X664402Y208279D01*
X605017Y208279D01*
X588631Y224665D01*
X588631Y283127D01*
X588630Y283130D01*
X588631Y283133D01*
X588611Y283174D01*
X588593Y283217D01*
X588590Y283218D01*
X588589Y283221D01*
X588507Y283251D01*
X587437Y283251D01*
X585651Y285037D01*
X585651Y297563D01*
X587437Y299349D01*
X598463Y299349D01*
X600249Y297563D01*
X600249Y285037D01*
X598463Y283251D01*
X597393Y283251D01*
X597390Y283250D01*
X597387Y283251D01*
X597346Y283231D01*
X597303Y283213D01*
X597302Y283210D01*
X597299Y283209D01*
X597269Y283127D01*
X597269Y228294D01*
X597270Y228290D01*
X597269Y228286D01*
X597305Y228207D01*
X608559Y216953D01*
X608563Y216951D01*
X608565Y216947D01*
X608646Y216917D01*
X668031Y216917D01*
X689611Y195337D01*
X689611Y156199D01*
X677543Y144131D01*
X669373Y144131D01*
X669370Y144130D01*
X669367Y144131D01*
X669326Y144111D01*
X669283Y144093D01*
X669282Y144090D01*
X669279Y144089D01*
X669249Y144007D01*
X669249Y142937D01*
X667463Y141151D01*
X653437Y141151D01*
G37*
%LPD*%
%LPC*%
G36*
X493737Y461151D02*
X493737Y461151D01*
X491951Y462937D01*
X491951Y476963D01*
X493737Y478749D01*
X494807Y478749D01*
X494810Y478750D01*
X494813Y478749D01*
X494854Y478769D01*
X494897Y478787D01*
X494898Y478790D01*
X494901Y478791D01*
X494931Y478873D01*
X494931Y485545D01*
X507735Y498349D01*
X627064Y498349D01*
X627068Y498350D01*
X627072Y498349D01*
X627151Y498385D01*
X639395Y510629D01*
X639397Y510633D01*
X639401Y510635D01*
X639431Y510716D01*
X639431Y562527D01*
X639430Y562530D01*
X639431Y562533D01*
X639411Y562574D01*
X639393Y562617D01*
X639390Y562618D01*
X639389Y562621D01*
X639307Y562651D01*
X638237Y562651D01*
X636451Y564437D01*
X636451Y576963D01*
X638237Y578749D01*
X649263Y578749D01*
X651049Y576963D01*
X651049Y564437D01*
X649263Y562651D01*
X648193Y562651D01*
X648190Y562650D01*
X648187Y562651D01*
X648146Y562631D01*
X648103Y562613D01*
X648102Y562610D01*
X648099Y562609D01*
X648069Y562527D01*
X648069Y507087D01*
X630693Y489711D01*
X511364Y489711D01*
X511360Y489710D01*
X511356Y489711D01*
X511277Y489675D01*
X503605Y482003D01*
X503603Y481999D01*
X503599Y481997D01*
X503569Y481916D01*
X503569Y478873D01*
X503570Y478870D01*
X503569Y478867D01*
X503589Y478826D01*
X503607Y478783D01*
X503610Y478782D01*
X503611Y478779D01*
X503693Y478749D01*
X504763Y478749D01*
X506549Y476963D01*
X506549Y462937D01*
X504763Y461151D01*
X493737Y461151D01*
G37*
%LPD*%
%LPC*%
G36*
X235837Y484051D02*
X235837Y484051D01*
X234051Y485837D01*
X234051Y496863D01*
X235837Y498649D01*
X248363Y498649D01*
X250149Y496863D01*
X250149Y495793D01*
X250150Y495790D01*
X250149Y495787D01*
X250169Y495746D01*
X250187Y495703D01*
X250190Y495702D01*
X250191Y495699D01*
X250273Y495669D01*
X356160Y495669D01*
X356164Y495670D01*
X356168Y495669D01*
X356247Y495705D01*
X385395Y524853D01*
X385397Y524857D01*
X385401Y524859D01*
X385431Y524940D01*
X385431Y575227D01*
X385430Y575230D01*
X385431Y575233D01*
X385411Y575274D01*
X385393Y575317D01*
X385390Y575318D01*
X385389Y575321D01*
X385307Y575351D01*
X384237Y575351D01*
X382451Y577137D01*
X382451Y591163D01*
X384237Y592949D01*
X395263Y592949D01*
X397049Y591163D01*
X397049Y577137D01*
X395263Y575351D01*
X394193Y575351D01*
X394190Y575350D01*
X394187Y575351D01*
X394146Y575331D01*
X394103Y575313D01*
X394102Y575310D01*
X394099Y575309D01*
X394069Y575227D01*
X394069Y521311D01*
X359789Y487031D01*
X250273Y487031D01*
X250270Y487030D01*
X250267Y487031D01*
X250226Y487011D01*
X250183Y486993D01*
X250182Y486990D01*
X250179Y486989D01*
X250149Y486907D01*
X250149Y485837D01*
X248363Y484051D01*
X235837Y484051D01*
G37*
%LPD*%
%LPC*%
G36*
X807337Y179251D02*
X807337Y179251D01*
X805551Y181037D01*
X805551Y192063D01*
X807337Y193849D01*
X819863Y193849D01*
X821649Y192063D01*
X821649Y190993D01*
X821650Y190990D01*
X821649Y190987D01*
X821669Y190946D01*
X821687Y190903D01*
X821690Y190902D01*
X821691Y190899D01*
X821773Y190869D01*
X840792Y190869D01*
X840796Y190870D01*
X840800Y190869D01*
X840879Y190905D01*
X886843Y236869D01*
X1007027Y236869D01*
X1007030Y236870D01*
X1007033Y236869D01*
X1007074Y236889D01*
X1007117Y236907D01*
X1007118Y236910D01*
X1007121Y236911D01*
X1007151Y236993D01*
X1007151Y238063D01*
X1008937Y239849D01*
X1022963Y239849D01*
X1024749Y238063D01*
X1024749Y227037D01*
X1022963Y225251D01*
X1008937Y225251D01*
X1007151Y227037D01*
X1007151Y228107D01*
X1007150Y228110D01*
X1007151Y228113D01*
X1007131Y228154D01*
X1007113Y228197D01*
X1007110Y228198D01*
X1007109Y228201D01*
X1007027Y228231D01*
X890472Y228231D01*
X890468Y228230D01*
X890464Y228231D01*
X890385Y228195D01*
X844421Y182231D01*
X821773Y182231D01*
X821770Y182230D01*
X821767Y182231D01*
X821726Y182211D01*
X821683Y182193D01*
X821682Y182190D01*
X821679Y182189D01*
X821649Y182107D01*
X821649Y181037D01*
X819863Y179251D01*
X807337Y179251D01*
G37*
%LPD*%
%LPC*%
G36*
X1137537Y77651D02*
X1137537Y77651D01*
X1135751Y79437D01*
X1135751Y90463D01*
X1137537Y92249D01*
X1150063Y92249D01*
X1151849Y90463D01*
X1151849Y89279D01*
X1151850Y89276D01*
X1151849Y89273D01*
X1151869Y89232D01*
X1151887Y89189D01*
X1151890Y89188D01*
X1151891Y89185D01*
X1151973Y89155D01*
X1161480Y89155D01*
X1161484Y89156D01*
X1161488Y89155D01*
X1161567Y89191D01*
X1174157Y101781D01*
X1174159Y101785D01*
X1174163Y101787D01*
X1174193Y101868D01*
X1174193Y150245D01*
X1174192Y150249D01*
X1174193Y150254D01*
X1174157Y150333D01*
X1172831Y151659D01*
X1172831Y270427D01*
X1172830Y270430D01*
X1172831Y270433D01*
X1172811Y270474D01*
X1172793Y270517D01*
X1172790Y270518D01*
X1172789Y270521D01*
X1172707Y270551D01*
X1171637Y270551D01*
X1169851Y272337D01*
X1169851Y286363D01*
X1171637Y288149D01*
X1182663Y288149D01*
X1184449Y286363D01*
X1184449Y272337D01*
X1182663Y270551D01*
X1181593Y270551D01*
X1181590Y270550D01*
X1181587Y270551D01*
X1181546Y270531D01*
X1181503Y270513D01*
X1181502Y270510D01*
X1181499Y270509D01*
X1181469Y270427D01*
X1181469Y155288D01*
X1181470Y155284D01*
X1181469Y155280D01*
X1181505Y155200D01*
X1182831Y153875D01*
X1182831Y98239D01*
X1165109Y80517D01*
X1151973Y80517D01*
X1151970Y80516D01*
X1151967Y80517D01*
X1151926Y80497D01*
X1151883Y80479D01*
X1151882Y80476D01*
X1151879Y80475D01*
X1151849Y80393D01*
X1151849Y79437D01*
X1150063Y77651D01*
X1137537Y77651D01*
G37*
%LPD*%
%LPC*%
G36*
X1186737Y834851D02*
X1186737Y834851D01*
X1184951Y836637D01*
X1184951Y837567D01*
X1184950Y837570D01*
X1184951Y837573D01*
X1184931Y837614D01*
X1184913Y837657D01*
X1184910Y837658D01*
X1184909Y837661D01*
X1184827Y837691D01*
X1143243Y837691D01*
X1124203Y856731D01*
X1124203Y941770D01*
X1124202Y941774D01*
X1124203Y941778D01*
X1124167Y941857D01*
X1109129Y956895D01*
X1109125Y956897D01*
X1109123Y956901D01*
X1109042Y956931D01*
X1088473Y956931D01*
X1088470Y956930D01*
X1088467Y956931D01*
X1088426Y956911D01*
X1088383Y956893D01*
X1088382Y956890D01*
X1088379Y956889D01*
X1088349Y956807D01*
X1088349Y955737D01*
X1086563Y953951D01*
X1072537Y953951D01*
X1070751Y955737D01*
X1070751Y966763D01*
X1072537Y968549D01*
X1086563Y968549D01*
X1088349Y966763D01*
X1088349Y965693D01*
X1088350Y965690D01*
X1088349Y965687D01*
X1088369Y965646D01*
X1088387Y965603D01*
X1088390Y965602D01*
X1088391Y965599D01*
X1088473Y965569D01*
X1112671Y965569D01*
X1132841Y945399D01*
X1132841Y860360D01*
X1132842Y860356D01*
X1132841Y860352D01*
X1132877Y860273D01*
X1146785Y846365D01*
X1146789Y846363D01*
X1146791Y846359D01*
X1146872Y846329D01*
X1184827Y846329D01*
X1184830Y846330D01*
X1184833Y846329D01*
X1184874Y846349D01*
X1184917Y846367D01*
X1184918Y846370D01*
X1184921Y846371D01*
X1184951Y846453D01*
X1184951Y847663D01*
X1186737Y849449D01*
X1199263Y849449D01*
X1201049Y847663D01*
X1201049Y836637D01*
X1199263Y834851D01*
X1186737Y834851D01*
G37*
%LPD*%
%LPC*%
G36*
X168337Y263151D02*
X168337Y263151D01*
X166551Y264937D01*
X166551Y286463D01*
X168337Y288249D01*
X169407Y288249D01*
X169410Y288250D01*
X169413Y288249D01*
X169454Y288269D01*
X169497Y288287D01*
X169498Y288290D01*
X169501Y288291D01*
X169531Y288373D01*
X169531Y291511D01*
X170784Y292763D01*
X170794Y292790D01*
X170814Y292811D01*
X170813Y292836D01*
X170820Y292854D01*
X170811Y292873D01*
X170811Y292899D01*
X170735Y293081D01*
X170735Y296295D01*
X171451Y298023D01*
X171451Y298051D01*
X171460Y298077D01*
X171450Y298098D01*
X171450Y298121D01*
X171430Y298140D01*
X171418Y298165D01*
X171394Y298174D01*
X171379Y298188D01*
X171359Y298187D01*
X171336Y298195D01*
X168464Y298195D01*
X168460Y298194D01*
X168456Y298195D01*
X168377Y298159D01*
X160705Y290487D01*
X160703Y290483D01*
X160699Y290481D01*
X160669Y290400D01*
X160669Y288373D01*
X160670Y288370D01*
X160669Y288367D01*
X160689Y288326D01*
X160707Y288283D01*
X160710Y288282D01*
X160711Y288279D01*
X160793Y288249D01*
X161863Y288249D01*
X163649Y286463D01*
X163649Y273937D01*
X161863Y272151D01*
X150837Y272151D01*
X149051Y273937D01*
X149051Y286463D01*
X150837Y288249D01*
X151907Y288249D01*
X151910Y288250D01*
X151913Y288249D01*
X151954Y288269D01*
X151997Y288287D01*
X151998Y288290D01*
X152001Y288291D01*
X152031Y288373D01*
X152031Y294029D01*
X164835Y306833D01*
X241492Y306833D01*
X241496Y306834D01*
X241500Y306833D01*
X241579Y306869D01*
X258395Y323685D01*
X258397Y323689D01*
X258401Y323691D01*
X258431Y323772D01*
X258431Y333927D01*
X258430Y333930D01*
X258431Y333933D01*
X258411Y333974D01*
X258393Y334017D01*
X258390Y334018D01*
X258389Y334021D01*
X258307Y334051D01*
X257237Y334051D01*
X255451Y335837D01*
X255451Y349863D01*
X257237Y351649D01*
X268263Y351649D01*
X270049Y349863D01*
X270049Y335837D01*
X268263Y334051D01*
X267193Y334051D01*
X267190Y334050D01*
X267187Y334051D01*
X267146Y334031D01*
X267103Y334013D01*
X267102Y334010D01*
X267099Y334009D01*
X267069Y333927D01*
X267069Y320143D01*
X245121Y298195D01*
X186296Y298195D01*
X186270Y298184D01*
X186243Y298184D01*
X186227Y298166D01*
X186206Y298157D01*
X186196Y298131D01*
X186178Y298111D01*
X186179Y298085D01*
X186172Y298065D01*
X186180Y298048D01*
X186181Y298023D01*
X186897Y296295D01*
X186897Y293081D01*
X185667Y290111D01*
X183393Y287837D01*
X181006Y286849D01*
X180987Y286829D01*
X180962Y286818D01*
X180954Y286796D01*
X180938Y286779D01*
X180939Y286751D01*
X180930Y286725D01*
X180940Y286702D01*
X180941Y286681D01*
X180956Y286668D01*
X180966Y286646D01*
X181149Y286463D01*
X181149Y264937D01*
X179363Y263151D01*
X168337Y263151D01*
G37*
%LPD*%
%LPC*%
G36*
X862037Y576951D02*
X862037Y576951D01*
X860251Y578737D01*
X860251Y591263D01*
X862037Y593049D01*
X863107Y593049D01*
X863110Y593050D01*
X863113Y593049D01*
X863154Y593069D01*
X863197Y593087D01*
X863198Y593090D01*
X863201Y593091D01*
X863231Y593173D01*
X863231Y637437D01*
X872225Y646431D01*
X899860Y646431D01*
X899864Y646432D01*
X899868Y646431D01*
X899947Y646467D01*
X906095Y652615D01*
X906097Y652619D01*
X906101Y652621D01*
X906131Y652702D01*
X906131Y753027D01*
X906130Y753030D01*
X906131Y753033D01*
X906111Y753074D01*
X906093Y753117D01*
X906090Y753118D01*
X906089Y753121D01*
X906007Y753151D01*
X904937Y753151D01*
X903151Y754937D01*
X903151Y768963D01*
X904937Y770749D01*
X915963Y770749D01*
X917749Y768963D01*
X917749Y754937D01*
X915963Y753151D01*
X914893Y753151D01*
X914890Y753150D01*
X914887Y753151D01*
X914846Y753131D01*
X914803Y753113D01*
X914802Y753110D01*
X914799Y753109D01*
X914769Y753027D01*
X914769Y649073D01*
X903489Y637793D01*
X875854Y637793D01*
X875850Y637792D01*
X875846Y637793D01*
X875767Y637757D01*
X871905Y633895D01*
X871903Y633891D01*
X871899Y633889D01*
X871869Y633808D01*
X871869Y593173D01*
X871870Y593170D01*
X871869Y593167D01*
X871889Y593126D01*
X871907Y593083D01*
X871910Y593082D01*
X871911Y593079D01*
X871993Y593049D01*
X873063Y593049D01*
X874849Y591263D01*
X874849Y578737D01*
X873063Y576951D01*
X862037Y576951D01*
G37*
%LPD*%
%LPC*%
G36*
X887437Y780151D02*
X887437Y780151D01*
X885651Y781937D01*
X885651Y794463D01*
X887437Y796249D01*
X888507Y796249D01*
X888510Y796250D01*
X888513Y796249D01*
X888554Y796269D01*
X888597Y796287D01*
X888598Y796290D01*
X888601Y796291D01*
X888631Y796373D01*
X888631Y856639D01*
X896583Y864591D01*
X896585Y864595D01*
X896589Y864597D01*
X896619Y864678D01*
X896619Y964376D01*
X896618Y964380D01*
X896619Y964384D01*
X896583Y964463D01*
X891451Y969595D01*
X891447Y969597D01*
X891445Y969601D01*
X891364Y969631D01*
X885273Y969631D01*
X885270Y969630D01*
X885267Y969631D01*
X885226Y969611D01*
X885183Y969593D01*
X885182Y969590D01*
X885179Y969589D01*
X885149Y969507D01*
X885149Y968437D01*
X883363Y966651D01*
X869337Y966651D01*
X867551Y968437D01*
X867551Y979463D01*
X869337Y981249D01*
X883363Y981249D01*
X885149Y979463D01*
X885149Y978393D01*
X885150Y978390D01*
X885149Y978387D01*
X885169Y978346D01*
X885187Y978303D01*
X885190Y978302D01*
X885191Y978299D01*
X885273Y978269D01*
X894993Y978269D01*
X905257Y968005D01*
X905257Y861049D01*
X897305Y853097D01*
X897303Y853093D01*
X897299Y853091D01*
X897269Y853010D01*
X897269Y796373D01*
X897270Y796370D01*
X897269Y796367D01*
X897289Y796326D01*
X897307Y796283D01*
X897310Y796282D01*
X897311Y796279D01*
X897393Y796249D01*
X898463Y796249D01*
X900249Y794463D01*
X900249Y781937D01*
X898463Y780151D01*
X887437Y780151D01*
G37*
%LPD*%
%LPC*%
G36*
X118099Y341375D02*
X118099Y341375D01*
X106031Y353443D01*
X106031Y359327D01*
X106030Y359330D01*
X106031Y359333D01*
X106011Y359374D01*
X105993Y359417D01*
X105990Y359418D01*
X105989Y359421D01*
X105907Y359451D01*
X104837Y359451D01*
X103051Y361237D01*
X103051Y375263D01*
X104837Y377049D01*
X115863Y377049D01*
X117649Y375263D01*
X117649Y361237D01*
X115863Y359451D01*
X114793Y359451D01*
X114790Y359450D01*
X114787Y359451D01*
X114746Y359431D01*
X114703Y359413D01*
X114702Y359410D01*
X114699Y359409D01*
X114669Y359327D01*
X114669Y357072D01*
X114670Y357068D01*
X114669Y357064D01*
X114705Y356985D01*
X121641Y350049D01*
X121645Y350047D01*
X121647Y350043D01*
X121728Y350013D01*
X172150Y350013D01*
X172154Y350014D01*
X172158Y350013D01*
X172237Y350049D01*
X184113Y361925D01*
X184115Y361929D01*
X184119Y361931D01*
X184149Y362012D01*
X184149Y380503D01*
X202681Y399035D01*
X237755Y399035D01*
X249569Y387221D01*
X249569Y377273D01*
X249570Y377270D01*
X249569Y377267D01*
X249589Y377226D01*
X249607Y377183D01*
X249610Y377182D01*
X249611Y377179D01*
X249693Y377149D01*
X250763Y377149D01*
X252549Y375363D01*
X252549Y362837D01*
X250763Y361051D01*
X239737Y361051D01*
X237951Y362837D01*
X237951Y375363D01*
X239737Y377149D01*
X240807Y377149D01*
X240810Y377150D01*
X240813Y377149D01*
X240854Y377169D01*
X240897Y377187D01*
X240898Y377190D01*
X240901Y377191D01*
X240931Y377273D01*
X240931Y383592D01*
X240930Y383596D01*
X240931Y383600D01*
X240895Y383679D01*
X234213Y390361D01*
X234209Y390363D01*
X234207Y390367D01*
X234126Y390397D01*
X206310Y390397D01*
X206306Y390396D01*
X206302Y390397D01*
X206223Y390361D01*
X192823Y376961D01*
X192821Y376957D01*
X192817Y376955D01*
X192787Y376874D01*
X192787Y358383D01*
X175779Y341375D01*
X118099Y341375D01*
G37*
%LPD*%
%LPC*%
G36*
X620737Y588151D02*
X620737Y588151D01*
X618951Y589937D01*
X618951Y603963D01*
X620737Y605749D01*
X621807Y605749D01*
X621810Y605750D01*
X621813Y605749D01*
X621854Y605769D01*
X621897Y605787D01*
X621898Y605790D01*
X621901Y605791D01*
X621931Y605873D01*
X621931Y629718D01*
X621930Y629722D01*
X621931Y629726D01*
X621895Y629805D01*
X609879Y641821D01*
X609875Y641823D01*
X609873Y641827D01*
X609792Y641857D01*
X550915Y641857D01*
X525131Y667641D01*
X525131Y714927D01*
X525130Y714930D01*
X525131Y714933D01*
X525111Y714974D01*
X525093Y715017D01*
X525090Y715018D01*
X525089Y715021D01*
X525007Y715051D01*
X523937Y715051D01*
X522151Y716837D01*
X522151Y729363D01*
X523937Y731149D01*
X534963Y731149D01*
X536749Y729363D01*
X536749Y716837D01*
X534963Y715051D01*
X533893Y715051D01*
X533890Y715050D01*
X533887Y715051D01*
X533846Y715031D01*
X533803Y715013D01*
X533802Y715010D01*
X533799Y715009D01*
X533769Y714927D01*
X533769Y671270D01*
X533770Y671266D01*
X533769Y671262D01*
X533805Y671183D01*
X554457Y650531D01*
X554461Y650529D01*
X554463Y650525D01*
X554544Y650495D01*
X613421Y650495D01*
X630569Y633347D01*
X630569Y605873D01*
X630569Y605872D01*
X630570Y605870D01*
X630569Y605867D01*
X630589Y605826D01*
X630607Y605783D01*
X630610Y605782D01*
X630611Y605779D01*
X630693Y605749D01*
X631763Y605749D01*
X633549Y603963D01*
X633549Y589937D01*
X631763Y588151D01*
X620737Y588151D01*
G37*
%LPD*%
%LPC*%
G36*
X488237Y174451D02*
X488237Y174451D01*
X486451Y176237D01*
X486451Y177307D01*
X486450Y177310D01*
X486451Y177313D01*
X486431Y177354D01*
X486413Y177397D01*
X486410Y177398D01*
X486409Y177401D01*
X486327Y177431D01*
X461367Y177431D01*
X442213Y196585D01*
X442213Y289244D01*
X442212Y289248D01*
X442213Y289252D01*
X442177Y289331D01*
X422313Y309195D01*
X422309Y309197D01*
X422307Y309201D01*
X422226Y309231D01*
X415373Y309231D01*
X415370Y309230D01*
X415367Y309231D01*
X415326Y309211D01*
X415283Y309193D01*
X415282Y309190D01*
X415279Y309189D01*
X415249Y309107D01*
X415249Y308037D01*
X413463Y306251D01*
X399437Y306251D01*
X397651Y308037D01*
X397651Y319063D01*
X399437Y320849D01*
X413463Y320849D01*
X415249Y319063D01*
X415249Y317993D01*
X415250Y317990D01*
X415249Y317987D01*
X415269Y317946D01*
X415287Y317903D01*
X415290Y317902D01*
X415291Y317899D01*
X415373Y317869D01*
X425855Y317869D01*
X450851Y292873D01*
X450851Y200214D01*
X450852Y200210D01*
X450851Y200206D01*
X450887Y200127D01*
X464909Y186105D01*
X464913Y186103D01*
X464915Y186099D01*
X464996Y186069D01*
X486327Y186069D01*
X486330Y186070D01*
X486333Y186069D01*
X486374Y186089D01*
X486417Y186107D01*
X486418Y186110D01*
X486421Y186111D01*
X486451Y186193D01*
X486451Y187263D01*
X488237Y189049D01*
X500763Y189049D01*
X502549Y187263D01*
X502549Y176237D01*
X500763Y174451D01*
X488237Y174451D01*
G37*
%LPD*%
%LPC*%
G36*
X716527Y239904D02*
X716527Y239904D01*
X714741Y241690D01*
X714741Y294215D01*
X716527Y296001D01*
X749053Y296001D01*
X750839Y294215D01*
X750839Y241690D01*
X749053Y239904D01*
X716527Y239904D01*
G37*
%LPD*%
%LPC*%
G36*
X227037Y804051D02*
X227037Y804051D01*
X225251Y805837D01*
X225251Y819863D01*
X227037Y821649D01*
X228107Y821649D01*
X228110Y821650D01*
X228113Y821649D01*
X228154Y821669D01*
X228197Y821687D01*
X228198Y821690D01*
X228201Y821691D01*
X228231Y821773D01*
X228231Y876705D01*
X230797Y879271D01*
X230798Y879271D01*
X271629Y920102D01*
X271629Y920103D01*
X274195Y922669D01*
X333927Y922669D01*
X333930Y922670D01*
X333933Y922669D01*
X333974Y922689D01*
X334017Y922707D01*
X334018Y922710D01*
X334021Y922711D01*
X334051Y922793D01*
X334051Y923863D01*
X335837Y925649D01*
X348363Y925649D01*
X350149Y923863D01*
X350149Y912837D01*
X348363Y911051D01*
X335837Y911051D01*
X334051Y912837D01*
X334051Y913907D01*
X334050Y913910D01*
X334051Y913913D01*
X334031Y913954D01*
X334013Y913997D01*
X334010Y913998D01*
X334009Y914001D01*
X333927Y914031D01*
X277824Y914031D01*
X277820Y914030D01*
X277816Y914031D01*
X277736Y913995D01*
X236905Y873164D01*
X236903Y873159D01*
X236899Y873157D01*
X236869Y873076D01*
X236869Y821773D01*
X236870Y821770D01*
X236869Y821767D01*
X236889Y821726D01*
X236907Y821683D01*
X236910Y821682D01*
X236911Y821679D01*
X236993Y821649D01*
X238063Y821649D01*
X239849Y819863D01*
X239849Y805837D01*
X238063Y804051D01*
X227037Y804051D01*
G37*
%LPD*%
%LPC*%
G36*
X1268437Y399151D02*
X1268437Y399151D01*
X1266651Y400937D01*
X1266651Y413463D01*
X1268437Y415249D01*
X1269507Y415249D01*
X1269510Y415250D01*
X1269513Y415249D01*
X1269554Y415269D01*
X1269597Y415287D01*
X1269598Y415290D01*
X1269601Y415291D01*
X1269631Y415373D01*
X1269631Y427788D01*
X1269630Y427792D01*
X1269631Y427796D01*
X1269595Y427875D01*
X1262913Y434557D01*
X1262909Y434559D01*
X1262907Y434563D01*
X1262826Y434593D01*
X1142989Y434593D01*
X1134731Y442851D01*
X1134731Y460927D01*
X1134730Y460930D01*
X1134731Y460933D01*
X1134711Y460974D01*
X1134693Y461017D01*
X1134690Y461018D01*
X1134689Y461021D01*
X1134607Y461051D01*
X1133537Y461051D01*
X1131751Y462837D01*
X1131751Y476863D01*
X1133537Y478649D01*
X1144563Y478649D01*
X1146349Y476863D01*
X1146349Y462837D01*
X1144563Y461051D01*
X1143493Y461051D01*
X1143490Y461050D01*
X1143487Y461051D01*
X1143446Y461031D01*
X1143403Y461013D01*
X1143402Y461010D01*
X1143399Y461009D01*
X1143369Y460927D01*
X1143369Y446480D01*
X1143370Y446476D01*
X1143369Y446472D01*
X1143405Y446393D01*
X1146531Y443267D01*
X1146532Y443266D01*
X1146533Y443265D01*
X1146535Y443264D01*
X1146537Y443261D01*
X1146618Y443231D01*
X1266455Y443231D01*
X1278269Y431417D01*
X1278269Y415373D01*
X1278270Y415370D01*
X1278269Y415367D01*
X1278289Y415326D01*
X1278307Y415283D01*
X1278310Y415282D01*
X1278311Y415279D01*
X1278393Y415249D01*
X1279463Y415249D01*
X1281249Y413463D01*
X1281249Y400937D01*
X1279463Y399151D01*
X1268437Y399151D01*
G37*
%LPD*%
%LPC*%
G36*
X87337Y386451D02*
X87337Y386451D01*
X85551Y388237D01*
X85551Y400763D01*
X87337Y402549D01*
X88407Y402549D01*
X88410Y402550D01*
X88413Y402549D01*
X88454Y402569D01*
X88497Y402587D01*
X88498Y402590D01*
X88501Y402591D01*
X88531Y402673D01*
X88531Y452271D01*
X114429Y478169D01*
X206927Y478169D01*
X206930Y478170D01*
X206933Y478169D01*
X206974Y478189D01*
X207017Y478207D01*
X207018Y478210D01*
X207021Y478211D01*
X207051Y478293D01*
X207051Y479363D01*
X208837Y481149D01*
X222863Y481149D01*
X224649Y479363D01*
X224649Y468337D01*
X222863Y466551D01*
X208837Y466551D01*
X207051Y468337D01*
X207051Y469407D01*
X207050Y469410D01*
X207051Y469413D01*
X207031Y469454D01*
X207013Y469497D01*
X207010Y469498D01*
X207009Y469501D01*
X206927Y469531D01*
X118058Y469531D01*
X118054Y469530D01*
X118050Y469531D01*
X117971Y469495D01*
X97205Y448729D01*
X97203Y448725D01*
X97199Y448723D01*
X97169Y448642D01*
X97169Y402673D01*
X97170Y402670D01*
X97169Y402667D01*
X97189Y402626D01*
X97207Y402583D01*
X97210Y402582D01*
X97211Y402579D01*
X97293Y402549D01*
X98363Y402549D01*
X100149Y400763D01*
X100149Y388237D01*
X98363Y386451D01*
X87337Y386451D01*
G37*
%LPD*%
%LPC*%
G36*
X361237Y60151D02*
X361237Y60151D01*
X359451Y61937D01*
X359451Y62613D01*
X359450Y62616D01*
X359451Y62619D01*
X359431Y62660D01*
X359413Y62703D01*
X359410Y62704D01*
X359409Y62707D01*
X359327Y62737D01*
X315965Y62737D01*
X313399Y65303D01*
X313399Y65304D01*
X297433Y81269D01*
X297433Y139130D01*
X297432Y139134D01*
X297433Y139138D01*
X297397Y139217D01*
X279820Y156795D01*
X279815Y156797D01*
X279813Y156801D01*
X279732Y156831D01*
X262973Y156831D01*
X262970Y156830D01*
X262967Y156831D01*
X262926Y156811D01*
X262883Y156793D01*
X262882Y156790D01*
X262879Y156789D01*
X262849Y156707D01*
X262849Y155637D01*
X261063Y153851D01*
X247037Y153851D01*
X245251Y155637D01*
X245251Y166663D01*
X247037Y168449D01*
X261063Y168449D01*
X262849Y166663D01*
X262849Y165593D01*
X262850Y165590D01*
X262849Y165587D01*
X262869Y165546D01*
X262887Y165503D01*
X262890Y165502D01*
X262891Y165499D01*
X262973Y165469D01*
X283361Y165469D01*
X285927Y162903D01*
X285927Y162902D01*
X306071Y142759D01*
X306071Y84898D01*
X306072Y84894D01*
X306072Y84892D01*
X306071Y84890D01*
X306107Y84811D01*
X319506Y71411D01*
X319511Y71409D01*
X319513Y71405D01*
X319594Y71375D01*
X359327Y71375D01*
X359330Y71376D01*
X359333Y71375D01*
X359374Y71395D01*
X359417Y71413D01*
X359418Y71416D01*
X359421Y71417D01*
X359451Y71499D01*
X359451Y72963D01*
X361237Y74749D01*
X373763Y74749D01*
X375549Y72963D01*
X375549Y61937D01*
X373763Y60151D01*
X361237Y60151D01*
G37*
%LPD*%
%LPC*%
G36*
X1154137Y297551D02*
X1154137Y297551D01*
X1152351Y299337D01*
X1152351Y311863D01*
X1154137Y313649D01*
X1155207Y313649D01*
X1155210Y313650D01*
X1155213Y313649D01*
X1155254Y313669D01*
X1155297Y313687D01*
X1155298Y313690D01*
X1155301Y313691D01*
X1155331Y313773D01*
X1155331Y324255D01*
X1173723Y342647D01*
X1268668Y342647D01*
X1268672Y342648D01*
X1268676Y342647D01*
X1268755Y342683D01*
X1287095Y361023D01*
X1287097Y361027D01*
X1287101Y361029D01*
X1287131Y361110D01*
X1287131Y372027D01*
X1287130Y372030D01*
X1287131Y372033D01*
X1287111Y372074D01*
X1287093Y372117D01*
X1287090Y372118D01*
X1287089Y372121D01*
X1287007Y372151D01*
X1285937Y372151D01*
X1284151Y373937D01*
X1284151Y387963D01*
X1285937Y389749D01*
X1296963Y389749D01*
X1298749Y387963D01*
X1298749Y373937D01*
X1296963Y372151D01*
X1295893Y372151D01*
X1295890Y372150D01*
X1295887Y372151D01*
X1295846Y372131D01*
X1295803Y372113D01*
X1295802Y372110D01*
X1295799Y372109D01*
X1295769Y372027D01*
X1295769Y357481D01*
X1272297Y334009D01*
X1177352Y334009D01*
X1177348Y334008D01*
X1177344Y334009D01*
X1177265Y333973D01*
X1164005Y320713D01*
X1164003Y320709D01*
X1163999Y320707D01*
X1163969Y320626D01*
X1163969Y313773D01*
X1163970Y313770D01*
X1163969Y313767D01*
X1163989Y313726D01*
X1164007Y313683D01*
X1164010Y313682D01*
X1164011Y313679D01*
X1164093Y313649D01*
X1165163Y313649D01*
X1166949Y311863D01*
X1166949Y299337D01*
X1165163Y297551D01*
X1154137Y297551D01*
G37*
%LPD*%
%LPC*%
G36*
X767737Y420551D02*
X767737Y420551D01*
X765951Y422337D01*
X765951Y433363D01*
X767737Y435149D01*
X781763Y435149D01*
X783549Y433363D01*
X783549Y432293D01*
X783550Y432290D01*
X783549Y432287D01*
X783569Y432246D01*
X783587Y432203D01*
X783590Y432202D01*
X783591Y432199D01*
X783673Y432169D01*
X794310Y432169D01*
X794314Y432170D01*
X794318Y432169D01*
X794397Y432205D01*
X804495Y442303D01*
X804497Y442307D01*
X804501Y442309D01*
X804531Y442390D01*
X804531Y575227D01*
X804530Y575230D01*
X804531Y575233D01*
X804511Y575274D01*
X804493Y575317D01*
X804490Y575318D01*
X804489Y575321D01*
X804407Y575351D01*
X803337Y575351D01*
X801551Y577137D01*
X801551Y589663D01*
X803337Y591449D01*
X814363Y591449D01*
X816149Y589663D01*
X816149Y577137D01*
X814363Y575351D01*
X813293Y575351D01*
X813290Y575350D01*
X813287Y575351D01*
X813246Y575331D01*
X813203Y575313D01*
X813202Y575310D01*
X813199Y575309D01*
X813169Y575227D01*
X813169Y438761D01*
X797939Y423531D01*
X783673Y423531D01*
X783670Y423530D01*
X783667Y423531D01*
X783626Y423511D01*
X783583Y423493D01*
X783582Y423490D01*
X783579Y423489D01*
X783549Y423407D01*
X783549Y422337D01*
X781763Y420551D01*
X767737Y420551D01*
G37*
%LPD*%
%LPC*%
G36*
X582637Y867551D02*
X582637Y867551D01*
X580851Y869337D01*
X580851Y883363D01*
X582637Y885149D01*
X583707Y885149D01*
X583710Y885150D01*
X583713Y885149D01*
X583754Y885169D01*
X583797Y885187D01*
X583798Y885190D01*
X583801Y885191D01*
X583831Y885273D01*
X583831Y900228D01*
X583830Y900230D01*
X583831Y900232D01*
X583830Y900234D01*
X583831Y900236D01*
X583795Y900315D01*
X579907Y904203D01*
X579903Y904205D01*
X579901Y904209D01*
X579820Y904239D01*
X547359Y904239D01*
X541300Y910299D01*
X541299Y910299D01*
X538733Y912865D01*
X538733Y990357D01*
X541299Y992923D01*
X541300Y992923D01*
X543319Y994943D01*
X543444Y995067D01*
X543568Y995192D01*
X543692Y995316D01*
X543816Y995440D01*
X543941Y995564D01*
X544065Y995688D01*
X544065Y995689D01*
X544189Y995813D01*
X544313Y995937D01*
X544438Y996061D01*
X544562Y996185D01*
X544562Y996186D01*
X544686Y996310D01*
X544810Y996434D01*
X544935Y996558D01*
X545059Y996682D01*
X545059Y996683D01*
X545183Y996807D01*
X547867Y999491D01*
X562527Y999491D01*
X562530Y999492D01*
X562533Y999491D01*
X562574Y999511D01*
X562617Y999529D01*
X562618Y999532D01*
X562621Y999533D01*
X562651Y999615D01*
X562651Y1000063D01*
X564437Y1001849D01*
X576963Y1001849D01*
X578749Y1000063D01*
X578749Y989037D01*
X576963Y987251D01*
X564437Y987251D01*
X562651Y989037D01*
X562651Y990729D01*
X562650Y990732D01*
X562651Y990735D01*
X562631Y990776D01*
X562613Y990819D01*
X562610Y990820D01*
X562609Y990823D01*
X562527Y990853D01*
X551496Y990853D01*
X551492Y990852D01*
X551488Y990853D01*
X551409Y990817D01*
X551358Y990766D01*
X551233Y990642D01*
X551109Y990518D01*
X551109Y990517D01*
X550985Y990393D01*
X550861Y990269D01*
X550736Y990145D01*
X550612Y990021D01*
X550612Y990020D01*
X550488Y989896D01*
X550364Y989772D01*
X550239Y989648D01*
X550115Y989524D01*
X550115Y989523D01*
X549991Y989399D01*
X549867Y989275D01*
X549742Y989151D01*
X549618Y989027D01*
X549618Y989026D01*
X549494Y988902D01*
X547407Y986816D01*
X547405Y986811D01*
X547401Y986809D01*
X547371Y986728D01*
X547371Y916494D01*
X547372Y916490D01*
X547371Y916486D01*
X547407Y916406D01*
X550901Y912913D01*
X550905Y912911D01*
X550907Y912907D01*
X550988Y912877D01*
X583449Y912877D01*
X592469Y903857D01*
X592469Y885273D01*
X592470Y885270D01*
X592469Y885267D01*
X592489Y885226D01*
X592507Y885183D01*
X592510Y885182D01*
X592511Y885179D01*
X592593Y885149D01*
X593663Y885149D01*
X595449Y883363D01*
X595449Y869337D01*
X593663Y867551D01*
X582637Y867551D01*
G37*
%LPD*%
%LPC*%
G36*
X569937Y308751D02*
X569937Y308751D01*
X568151Y310537D01*
X568151Y324563D01*
X569937Y326349D01*
X571007Y326349D01*
X571010Y326350D01*
X571013Y326349D01*
X571054Y326369D01*
X571097Y326387D01*
X571098Y326390D01*
X571101Y326391D01*
X571131Y326473D01*
X571131Y386640D01*
X571130Y386644D01*
X571131Y386648D01*
X571095Y386727D01*
X565937Y391885D01*
X565935Y391886D01*
X565933Y391889D01*
X565932Y391889D01*
X565931Y391891D01*
X565850Y391921D01*
X522467Y391921D01*
X512431Y401957D01*
X512431Y435527D01*
X512430Y435530D01*
X512431Y435533D01*
X512411Y435574D01*
X512393Y435617D01*
X512390Y435618D01*
X512389Y435621D01*
X512307Y435651D01*
X511237Y435651D01*
X509451Y437437D01*
X509451Y449963D01*
X511237Y451749D01*
X522263Y451749D01*
X524049Y449963D01*
X524049Y437437D01*
X522263Y435651D01*
X521193Y435651D01*
X521190Y435650D01*
X521187Y435651D01*
X521146Y435631D01*
X521103Y435613D01*
X521102Y435610D01*
X521099Y435609D01*
X521069Y435527D01*
X521069Y405586D01*
X521070Y405584D01*
X521069Y405581D01*
X521070Y405580D01*
X521069Y405578D01*
X521105Y405499D01*
X526009Y400595D01*
X526013Y400593D01*
X526015Y400589D01*
X526096Y400559D01*
X569479Y400559D01*
X579769Y390269D01*
X579769Y326473D01*
X579770Y326470D01*
X579769Y326467D01*
X579789Y326426D01*
X579807Y326383D01*
X579810Y326382D01*
X579811Y326379D01*
X579893Y326349D01*
X580963Y326349D01*
X582749Y324563D01*
X582749Y310537D01*
X580963Y308751D01*
X569937Y308751D01*
G37*
%LPD*%
%LPC*%
G36*
X506437Y740551D02*
X506437Y740551D01*
X504651Y742337D01*
X504651Y756363D01*
X506437Y758149D01*
X507507Y758149D01*
X507510Y758150D01*
X507513Y758149D01*
X507554Y758169D01*
X507597Y758187D01*
X507598Y758190D01*
X507601Y758191D01*
X507631Y758273D01*
X507631Y779169D01*
X510197Y781735D01*
X510198Y781735D01*
X530823Y802360D01*
X530823Y802361D01*
X533389Y804927D01*
X590996Y804927D01*
X591000Y804928D01*
X591004Y804927D01*
X591083Y804963D01*
X601295Y815175D01*
X601297Y815179D01*
X601301Y815181D01*
X601331Y815262D01*
X601331Y841927D01*
X601330Y841930D01*
X601331Y841933D01*
X601311Y841974D01*
X601293Y842017D01*
X601290Y842018D01*
X601289Y842021D01*
X601207Y842051D01*
X600137Y842051D01*
X598351Y843837D01*
X598351Y856363D01*
X600137Y858149D01*
X611163Y858149D01*
X612949Y856363D01*
X612949Y843837D01*
X611163Y842051D01*
X610093Y842051D01*
X610090Y842050D01*
X610087Y842051D01*
X610046Y842031D01*
X610003Y842013D01*
X610002Y842010D01*
X609999Y842009D01*
X609969Y841927D01*
X609969Y811633D01*
X594625Y796289D01*
X537018Y796289D01*
X537014Y796288D01*
X537010Y796289D01*
X536930Y796253D01*
X516305Y775628D01*
X516303Y775623D01*
X516299Y775621D01*
X516269Y775540D01*
X516269Y758273D01*
X516270Y758270D01*
X516269Y758267D01*
X516289Y758226D01*
X516307Y758183D01*
X516310Y758182D01*
X516311Y758179D01*
X516393Y758149D01*
X517463Y758149D01*
X519249Y756363D01*
X519249Y742337D01*
X517463Y740551D01*
X506437Y740551D01*
G37*
%LPD*%
%LPC*%
G36*
X125437Y715151D02*
X125437Y715151D01*
X123651Y716937D01*
X123651Y730963D01*
X125437Y732749D01*
X126507Y732749D01*
X126510Y732750D01*
X126513Y732749D01*
X126554Y732769D01*
X126597Y732787D01*
X126598Y732790D01*
X126601Y732791D01*
X126631Y732873D01*
X126631Y742847D01*
X142229Y758445D01*
X232348Y758445D01*
X232352Y758446D01*
X232356Y758445D01*
X232435Y758481D01*
X245695Y771741D01*
X245697Y771745D01*
X245701Y771747D01*
X245731Y771828D01*
X245731Y778427D01*
X245730Y778430D01*
X245731Y778433D01*
X245711Y778474D01*
X245693Y778517D01*
X245690Y778518D01*
X245689Y778521D01*
X245607Y778551D01*
X244537Y778551D01*
X242751Y780337D01*
X242751Y792863D01*
X244537Y794649D01*
X255563Y794649D01*
X257349Y792863D01*
X257349Y780337D01*
X255563Y778551D01*
X254493Y778551D01*
X254490Y778550D01*
X254487Y778551D01*
X254446Y778531D01*
X254403Y778513D01*
X254402Y778510D01*
X254399Y778509D01*
X254369Y778427D01*
X254369Y768199D01*
X235977Y749807D01*
X145858Y749807D01*
X145854Y749806D01*
X145850Y749807D01*
X145771Y749771D01*
X135305Y739305D01*
X135303Y739301D01*
X135299Y739299D01*
X135269Y739218D01*
X135269Y732873D01*
X135270Y732870D01*
X135269Y732867D01*
X135289Y732826D01*
X135307Y732783D01*
X135310Y732782D01*
X135311Y732779D01*
X135393Y732749D01*
X136463Y732749D01*
X138249Y730963D01*
X138249Y716937D01*
X136463Y715151D01*
X125437Y715151D01*
G37*
%LPD*%
%LPC*%
G36*
X627937Y123651D02*
X627937Y123651D01*
X626151Y125437D01*
X626151Y126507D01*
X626150Y126510D01*
X626151Y126513D01*
X626131Y126554D01*
X626113Y126597D01*
X626110Y126598D01*
X626109Y126601D01*
X626027Y126631D01*
X580239Y126631D01*
X552195Y154675D01*
X552195Y181802D01*
X552194Y181806D01*
X552195Y181810D01*
X552159Y181889D01*
X539153Y194895D01*
X539149Y194897D01*
X539147Y194901D01*
X539066Y194931D01*
X529673Y194931D01*
X529670Y194930D01*
X529667Y194931D01*
X529626Y194911D01*
X529583Y194893D01*
X529582Y194890D01*
X529579Y194889D01*
X529549Y194807D01*
X529549Y193737D01*
X527763Y191951D01*
X513737Y191951D01*
X511951Y193737D01*
X511951Y204763D01*
X513737Y206549D01*
X527763Y206549D01*
X529549Y204763D01*
X529549Y203693D01*
X529550Y203690D01*
X529549Y203687D01*
X529569Y203646D01*
X529587Y203603D01*
X529590Y203602D01*
X529591Y203599D01*
X529673Y203569D01*
X542695Y203569D01*
X560833Y185431D01*
X560833Y158304D01*
X560834Y158300D01*
X560833Y158296D01*
X560869Y158217D01*
X583781Y135305D01*
X583785Y135303D01*
X583787Y135299D01*
X583868Y135269D01*
X626027Y135269D01*
X626030Y135270D01*
X626033Y135269D01*
X626074Y135289D01*
X626117Y135307D01*
X626118Y135310D01*
X626121Y135311D01*
X626151Y135393D01*
X626151Y136463D01*
X627937Y138249D01*
X640463Y138249D01*
X642249Y136463D01*
X642249Y125437D01*
X640463Y123651D01*
X627937Y123651D01*
G37*
%LPD*%
%LPC*%
G36*
X1034437Y458651D02*
X1034437Y458651D01*
X1032651Y460437D01*
X1032651Y471463D01*
X1034437Y473249D01*
X1048463Y473249D01*
X1050249Y471463D01*
X1050249Y470393D01*
X1050250Y470390D01*
X1050249Y470387D01*
X1050269Y470346D01*
X1050287Y470303D01*
X1050290Y470302D01*
X1050291Y470299D01*
X1050373Y470269D01*
X1061772Y470269D01*
X1061776Y470270D01*
X1061780Y470269D01*
X1061859Y470305D01*
X1071195Y479641D01*
X1071197Y479645D01*
X1071201Y479647D01*
X1071231Y479728D01*
X1071231Y587927D01*
X1071230Y587930D01*
X1071231Y587933D01*
X1071211Y587974D01*
X1071193Y588017D01*
X1071190Y588018D01*
X1071189Y588021D01*
X1071107Y588051D01*
X1070037Y588051D01*
X1068251Y589837D01*
X1068251Y602363D01*
X1070037Y604149D01*
X1081063Y604149D01*
X1082849Y602363D01*
X1082849Y589837D01*
X1081063Y588051D01*
X1079993Y588051D01*
X1079990Y588050D01*
X1079987Y588051D01*
X1079946Y588031D01*
X1079903Y588013D01*
X1079902Y588010D01*
X1079899Y588009D01*
X1079869Y587927D01*
X1079869Y476099D01*
X1065401Y461631D01*
X1050373Y461631D01*
X1050370Y461630D01*
X1050367Y461631D01*
X1050326Y461611D01*
X1050283Y461593D01*
X1050282Y461590D01*
X1050279Y461589D01*
X1050249Y461507D01*
X1050249Y460437D01*
X1048463Y458651D01*
X1034437Y458651D01*
G37*
%LPD*%
%LPC*%
G36*
X221537Y136351D02*
X221537Y136351D01*
X219751Y138137D01*
X219751Y139207D01*
X219750Y139210D01*
X219751Y139213D01*
X219731Y139254D01*
X219713Y139297D01*
X219710Y139298D01*
X219709Y139301D01*
X219627Y139331D01*
X192635Y139331D01*
X169531Y162435D01*
X169531Y245027D01*
X169530Y245030D01*
X169531Y245033D01*
X169511Y245074D01*
X169493Y245117D01*
X169490Y245118D01*
X169489Y245121D01*
X169407Y245151D01*
X168337Y245151D01*
X166551Y246937D01*
X166551Y260963D01*
X168337Y262749D01*
X179363Y262749D01*
X181149Y260963D01*
X181149Y246937D01*
X179363Y245151D01*
X178293Y245151D01*
X178290Y245150D01*
X178287Y245151D01*
X178246Y245131D01*
X178203Y245113D01*
X178202Y245110D01*
X178199Y245109D01*
X178169Y245027D01*
X178169Y166064D01*
X178170Y166060D01*
X178169Y166056D01*
X178205Y165977D01*
X196177Y148005D01*
X196181Y148003D01*
X196183Y147999D01*
X196264Y147969D01*
X219627Y147969D01*
X219630Y147970D01*
X219633Y147969D01*
X219674Y147989D01*
X219717Y148007D01*
X219718Y148010D01*
X219721Y148011D01*
X219751Y148093D01*
X219751Y149163D01*
X221537Y150949D01*
X234063Y150949D01*
X235849Y149163D01*
X235849Y138137D01*
X234063Y136351D01*
X221537Y136351D01*
G37*
%LPD*%
%LPC*%
G36*
X1230337Y729351D02*
X1230337Y729351D01*
X1228551Y731137D01*
X1228551Y743663D01*
X1230337Y745449D01*
X1231013Y745449D01*
X1231016Y745450D01*
X1231019Y745449D01*
X1231060Y745469D01*
X1231103Y745487D01*
X1231104Y745490D01*
X1231107Y745491D01*
X1231137Y745573D01*
X1231137Y779029D01*
X1240499Y788391D01*
X1240501Y788395D01*
X1240505Y788397D01*
X1240535Y788478D01*
X1240535Y846520D01*
X1240534Y846524D01*
X1240535Y846528D01*
X1240499Y846607D01*
X1231811Y855295D01*
X1231807Y855297D01*
X1231805Y855301D01*
X1231724Y855331D01*
X1228173Y855331D01*
X1228170Y855330D01*
X1228167Y855331D01*
X1228126Y855311D01*
X1228083Y855293D01*
X1228082Y855290D01*
X1228079Y855289D01*
X1228049Y855207D01*
X1228049Y854137D01*
X1226263Y852351D01*
X1212237Y852351D01*
X1210451Y854137D01*
X1210451Y865163D01*
X1212237Y866949D01*
X1226263Y866949D01*
X1228049Y865163D01*
X1228049Y864093D01*
X1228050Y864090D01*
X1228049Y864087D01*
X1228069Y864046D01*
X1228087Y864003D01*
X1228090Y864002D01*
X1228091Y863999D01*
X1228173Y863969D01*
X1235353Y863969D01*
X1249173Y850149D01*
X1249173Y784849D01*
X1239811Y775487D01*
X1239809Y775483D01*
X1239805Y775481D01*
X1239775Y775400D01*
X1239775Y745573D01*
X1239776Y745570D01*
X1239775Y745567D01*
X1239795Y745526D01*
X1239813Y745483D01*
X1239816Y745482D01*
X1239817Y745479D01*
X1239899Y745449D01*
X1241363Y745449D01*
X1243149Y743663D01*
X1243149Y731137D01*
X1241363Y729351D01*
X1230337Y729351D01*
G37*
%LPD*%
%LPC*%
G36*
X1052537Y613551D02*
X1052537Y613551D01*
X1050751Y615337D01*
X1050751Y629363D01*
X1052537Y631149D01*
X1053607Y631149D01*
X1053610Y631150D01*
X1053613Y631149D01*
X1053654Y631169D01*
X1053697Y631187D01*
X1053698Y631190D01*
X1053701Y631191D01*
X1053731Y631273D01*
X1053731Y640739D01*
X1072123Y659131D01*
X1113474Y659131D01*
X1113478Y659132D01*
X1113482Y659131D01*
X1113561Y659167D01*
X1121995Y667601D01*
X1121997Y667605D01*
X1122001Y667607D01*
X1122031Y667688D01*
X1122031Y702227D01*
X1122030Y702230D01*
X1122031Y702233D01*
X1122011Y702274D01*
X1121993Y702317D01*
X1121990Y702318D01*
X1121989Y702321D01*
X1121907Y702351D01*
X1120837Y702351D01*
X1119051Y704137D01*
X1119051Y716663D01*
X1120837Y718449D01*
X1131863Y718449D01*
X1133649Y716663D01*
X1133649Y704137D01*
X1131863Y702351D01*
X1130793Y702351D01*
X1130790Y702350D01*
X1130787Y702351D01*
X1130746Y702331D01*
X1130703Y702313D01*
X1130702Y702310D01*
X1130699Y702309D01*
X1130669Y702227D01*
X1130669Y664059D01*
X1117103Y650493D01*
X1075752Y650493D01*
X1075748Y650492D01*
X1075744Y650493D01*
X1075665Y650457D01*
X1062405Y637197D01*
X1062403Y637193D01*
X1062399Y637191D01*
X1062369Y637110D01*
X1062369Y631273D01*
X1062370Y631270D01*
X1062369Y631267D01*
X1062389Y631226D01*
X1062407Y631183D01*
X1062410Y631182D01*
X1062411Y631179D01*
X1062493Y631149D01*
X1063563Y631149D01*
X1065349Y629363D01*
X1065349Y615337D01*
X1063563Y613551D01*
X1052537Y613551D01*
G37*
%LPD*%
%LPC*%
G36*
X366737Y602351D02*
X366737Y602351D01*
X364951Y604137D01*
X364951Y616663D01*
X366737Y618449D01*
X368175Y618449D01*
X368178Y618450D01*
X368181Y618449D01*
X368222Y618469D01*
X368265Y618487D01*
X368266Y618490D01*
X368269Y618491D01*
X368299Y618573D01*
X368299Y653734D01*
X368298Y653738D01*
X368299Y653742D01*
X368263Y653821D01*
X347331Y674753D01*
X347331Y714927D01*
X347330Y714930D01*
X347331Y714933D01*
X347311Y714974D01*
X347293Y715017D01*
X347290Y715018D01*
X347289Y715021D01*
X347207Y715051D01*
X346137Y715051D01*
X344351Y716837D01*
X344351Y730863D01*
X346137Y732649D01*
X357163Y732649D01*
X358949Y730863D01*
X358949Y716837D01*
X357163Y715051D01*
X356093Y715051D01*
X356090Y715050D01*
X356087Y715051D01*
X356046Y715031D01*
X356003Y715013D01*
X356002Y715010D01*
X355999Y715009D01*
X355969Y714927D01*
X355969Y678382D01*
X355970Y678378D01*
X355969Y678374D01*
X356005Y678295D01*
X376937Y657363D01*
X376937Y618573D01*
X376938Y618570D01*
X376937Y618567D01*
X376957Y618526D01*
X376975Y618483D01*
X376978Y618482D01*
X376979Y618479D01*
X377061Y618449D01*
X377763Y618449D01*
X379549Y616663D01*
X379549Y604137D01*
X377763Y602351D01*
X366737Y602351D01*
G37*
%LPD*%
%LPC*%
G36*
X785837Y600851D02*
X785837Y600851D01*
X784051Y602637D01*
X784051Y616663D01*
X785837Y618449D01*
X786907Y618449D01*
X786910Y618450D01*
X786913Y618449D01*
X786954Y618469D01*
X786997Y618487D01*
X786998Y618490D01*
X787001Y618491D01*
X787031Y618573D01*
X787031Y645974D01*
X787030Y645978D01*
X787031Y645982D01*
X786995Y646061D01*
X780821Y652235D01*
X780817Y652237D01*
X780815Y652241D01*
X780734Y652271D01*
X762497Y652271D01*
X753731Y661037D01*
X753731Y689527D01*
X753730Y689530D01*
X753731Y689533D01*
X753711Y689574D01*
X753693Y689617D01*
X753690Y689618D01*
X753689Y689621D01*
X753607Y689651D01*
X752537Y689651D01*
X750751Y691437D01*
X750751Y703963D01*
X752537Y705749D01*
X763563Y705749D01*
X765349Y703963D01*
X765349Y691437D01*
X763563Y689651D01*
X762493Y689651D01*
X762490Y689650D01*
X762487Y689651D01*
X762446Y689631D01*
X762403Y689613D01*
X762402Y689610D01*
X762399Y689609D01*
X762369Y689527D01*
X762369Y664666D01*
X762370Y664662D01*
X762369Y664658D01*
X762405Y664579D01*
X766039Y660945D01*
X766043Y660943D01*
X766045Y660939D01*
X766126Y660909D01*
X784363Y660909D01*
X795669Y649603D01*
X795669Y618573D01*
X795670Y618570D01*
X795669Y618567D01*
X795689Y618526D01*
X795707Y618483D01*
X795710Y618482D01*
X795711Y618479D01*
X795793Y618449D01*
X796863Y618449D01*
X798649Y616663D01*
X798649Y602637D01*
X796863Y600851D01*
X785837Y600851D01*
G37*
%LPD*%
%LPC*%
G36*
X1281137Y640451D02*
X1281137Y640451D01*
X1279351Y642237D01*
X1279351Y654763D01*
X1281137Y656549D01*
X1282207Y656549D01*
X1282210Y656550D01*
X1282213Y656549D01*
X1282254Y656569D01*
X1282297Y656587D01*
X1282298Y656590D01*
X1282301Y656591D01*
X1282331Y656673D01*
X1282331Y659944D01*
X1282330Y659948D01*
X1282331Y659952D01*
X1282295Y660031D01*
X1280185Y662141D01*
X1280181Y662143D01*
X1280179Y662147D01*
X1280098Y662177D01*
X1259575Y662177D01*
X1249031Y672721D01*
X1249031Y702227D01*
X1249030Y702230D01*
X1249031Y702233D01*
X1249011Y702274D01*
X1248993Y702317D01*
X1248990Y702318D01*
X1248989Y702321D01*
X1248907Y702351D01*
X1247837Y702351D01*
X1246051Y704137D01*
X1246051Y718163D01*
X1247837Y719949D01*
X1258863Y719949D01*
X1260649Y718163D01*
X1260649Y704137D01*
X1258863Y702351D01*
X1257793Y702351D01*
X1257790Y702350D01*
X1257787Y702351D01*
X1257746Y702331D01*
X1257703Y702313D01*
X1257702Y702310D01*
X1257699Y702309D01*
X1257669Y702227D01*
X1257669Y676350D01*
X1257670Y676346D01*
X1257669Y676342D01*
X1257705Y676263D01*
X1263117Y670851D01*
X1263121Y670849D01*
X1263123Y670845D01*
X1263204Y670815D01*
X1283727Y670815D01*
X1290969Y663573D01*
X1290969Y656673D01*
X1290970Y656670D01*
X1290969Y656667D01*
X1290989Y656626D01*
X1291007Y656583D01*
X1291010Y656582D01*
X1291011Y656579D01*
X1291093Y656549D01*
X1292163Y656549D01*
X1293949Y654763D01*
X1293949Y642237D01*
X1292163Y640451D01*
X1281137Y640451D01*
G37*
%LPD*%
%LPC*%
G36*
X150793Y639619D02*
X150793Y639619D01*
X147823Y640849D01*
X145549Y643123D01*
X144319Y646093D01*
X144319Y649307D01*
X144395Y649489D01*
X144394Y649518D01*
X144404Y649545D01*
X144394Y649567D01*
X144394Y649587D01*
X144378Y649601D01*
X144368Y649625D01*
X144131Y649861D01*
X144131Y689527D01*
X144130Y689530D01*
X144131Y689533D01*
X144111Y689574D01*
X144093Y689617D01*
X144090Y689618D01*
X144089Y689621D01*
X144007Y689651D01*
X142937Y689651D01*
X141151Y691437D01*
X141151Y703963D01*
X142937Y705749D01*
X153963Y705749D01*
X155749Y703963D01*
X155749Y691437D01*
X153963Y689651D01*
X152893Y689651D01*
X152890Y689650D01*
X152887Y689651D01*
X152846Y689631D01*
X152803Y689613D01*
X152802Y689610D01*
X152799Y689609D01*
X152769Y689527D01*
X152769Y655905D01*
X152770Y655902D01*
X152769Y655899D01*
X152789Y655858D01*
X152807Y655815D01*
X152810Y655814D01*
X152811Y655811D01*
X152893Y655781D01*
X154007Y655781D01*
X156977Y654551D01*
X159251Y652277D01*
X160481Y649307D01*
X160481Y646093D01*
X159251Y643123D01*
X156977Y640849D01*
X154007Y639619D01*
X150793Y639619D01*
G37*
%LPD*%
%LPC*%
G36*
X335837Y928551D02*
X335837Y928551D01*
X334051Y930337D01*
X334051Y941363D01*
X335837Y943149D01*
X342157Y943149D01*
X342160Y943150D01*
X342163Y943149D01*
X342204Y943169D01*
X342247Y943187D01*
X342248Y943190D01*
X342251Y943191D01*
X342281Y943273D01*
X342281Y952909D01*
X349493Y960121D01*
X352369Y960121D01*
X352396Y960132D01*
X352425Y960134D01*
X352441Y960151D01*
X352459Y960159D01*
X352466Y960179D01*
X352484Y960197D01*
X352559Y960379D01*
X354833Y962653D01*
X357803Y963883D01*
X361017Y963883D01*
X363987Y962653D01*
X366261Y960379D01*
X367491Y957409D01*
X367491Y954195D01*
X366261Y951225D01*
X363987Y948951D01*
X361017Y947721D01*
X357803Y947721D01*
X354833Y948951D01*
X352774Y951010D01*
X352771Y951011D01*
X352770Y951014D01*
X352753Y951020D01*
X352700Y951040D01*
X352683Y951047D01*
X352680Y951046D01*
X352677Y951047D01*
X352598Y951010D01*
X351724Y950136D01*
X351600Y950012D01*
X351475Y949888D01*
X351351Y949764D01*
X351351Y949763D01*
X351227Y949639D01*
X351103Y949515D01*
X350978Y949391D01*
X350955Y949367D01*
X350953Y949363D01*
X350949Y949361D01*
X350919Y949280D01*
X350919Y943273D01*
X350920Y943270D01*
X350919Y943267D01*
X350939Y943226D01*
X350957Y943183D01*
X350960Y943182D01*
X350961Y943179D01*
X351043Y943149D01*
X357363Y943149D01*
X359149Y941363D01*
X359149Y930337D01*
X357363Y928551D01*
X335837Y928551D01*
G37*
%LPD*%
%LPC*%
G36*
X1298637Y631451D02*
X1298637Y631451D01*
X1296851Y633237D01*
X1296851Y654763D01*
X1298637Y656549D01*
X1299707Y656549D01*
X1299710Y656550D01*
X1299713Y656549D01*
X1299754Y656569D01*
X1299797Y656587D01*
X1299798Y656590D01*
X1299801Y656591D01*
X1299831Y656673D01*
X1299831Y663319D01*
X1306164Y669651D01*
X1306174Y669678D01*
X1306194Y669699D01*
X1306193Y669724D01*
X1306200Y669742D01*
X1306198Y669746D01*
X1306199Y669748D01*
X1306191Y669763D01*
X1306191Y669787D01*
X1306115Y669969D01*
X1306115Y673183D01*
X1307345Y676153D01*
X1309619Y678427D01*
X1312589Y679657D01*
X1315803Y679657D01*
X1318773Y678427D01*
X1321047Y676153D01*
X1322277Y673183D01*
X1322277Y669969D01*
X1321047Y666999D01*
X1318773Y664725D01*
X1315803Y663495D01*
X1312589Y663495D01*
X1312407Y663571D01*
X1312378Y663570D01*
X1312351Y663580D01*
X1312329Y663570D01*
X1312309Y663570D01*
X1312295Y663554D01*
X1312271Y663544D01*
X1308505Y659777D01*
X1308503Y659773D01*
X1308499Y659771D01*
X1308469Y659690D01*
X1308469Y656673D01*
X1308470Y656670D01*
X1308469Y656667D01*
X1308489Y656626D01*
X1308507Y656583D01*
X1308510Y656582D01*
X1308511Y656579D01*
X1308593Y656549D01*
X1309663Y656549D01*
X1311449Y654763D01*
X1311449Y633237D01*
X1309663Y631451D01*
X1298637Y631451D01*
G37*
%LPD*%
%LPC*%
G36*
X804589Y143557D02*
X804589Y143557D01*
X801619Y144787D01*
X799345Y147061D01*
X798115Y150031D01*
X798115Y153245D01*
X799345Y156215D01*
X801619Y158489D01*
X801801Y158564D01*
X801821Y158584D01*
X801847Y158597D01*
X801855Y158620D01*
X801869Y158634D01*
X801868Y158654D01*
X801877Y158679D01*
X801877Y161627D01*
X801876Y161630D01*
X801877Y161633D01*
X801857Y161674D01*
X801839Y161717D01*
X801836Y161718D01*
X801835Y161721D01*
X801753Y161751D01*
X798337Y161751D01*
X796551Y163537D01*
X796551Y174563D01*
X798337Y176349D01*
X819863Y176349D01*
X821649Y174563D01*
X821649Y163537D01*
X819863Y161751D01*
X810639Y161751D01*
X810636Y161750D01*
X810633Y161751D01*
X810592Y161731D01*
X810549Y161713D01*
X810548Y161710D01*
X810545Y161709D01*
X810515Y161627D01*
X810515Y158679D01*
X810526Y158652D01*
X810528Y158623D01*
X810545Y158607D01*
X810553Y158589D01*
X810573Y158582D01*
X810591Y158564D01*
X810773Y158489D01*
X813047Y156215D01*
X814277Y153245D01*
X814277Y150031D01*
X813047Y147061D01*
X810773Y144787D01*
X807803Y143557D01*
X804589Y143557D01*
G37*
%LPD*%
%LPC*%
G36*
X475659Y190801D02*
X475659Y190801D01*
X472689Y192031D01*
X470415Y194305D01*
X469185Y197275D01*
X469185Y200489D01*
X470415Y203459D01*
X472689Y205733D01*
X475659Y206963D01*
X478873Y206963D01*
X481843Y205733D01*
X483971Y203605D01*
X483975Y203603D01*
X483977Y203599D01*
X484059Y203569D01*
X486327Y203569D01*
X486330Y203570D01*
X486333Y203569D01*
X486374Y203589D01*
X486417Y203607D01*
X486418Y203610D01*
X486421Y203611D01*
X486451Y203693D01*
X486451Y204763D01*
X488237Y206549D01*
X509763Y206549D01*
X511549Y204763D01*
X511549Y193737D01*
X509763Y191951D01*
X488237Y191951D01*
X486451Y193737D01*
X486451Y194807D01*
X486450Y194810D01*
X486451Y194813D01*
X486431Y194854D01*
X486413Y194897D01*
X486410Y194898D01*
X486409Y194901D01*
X486327Y194931D01*
X484459Y194931D01*
X484433Y194920D01*
X484404Y194918D01*
X484387Y194901D01*
X484369Y194893D01*
X484362Y194874D01*
X484344Y194855D01*
X484117Y194305D01*
X481843Y192031D01*
X478873Y190801D01*
X475659Y190801D01*
G37*
%LPD*%
%LPC*%
G36*
X997629Y456993D02*
X997629Y456993D01*
X994659Y458223D01*
X992385Y460497D01*
X991155Y463467D01*
X991155Y466681D01*
X992385Y469651D01*
X994659Y471925D01*
X997629Y473155D01*
X1000843Y473155D01*
X1003813Y471925D01*
X1005433Y470305D01*
X1005437Y470303D01*
X1005439Y470299D01*
X1005521Y470269D01*
X1007027Y470269D01*
X1007030Y470270D01*
X1007033Y470269D01*
X1007074Y470289D01*
X1007117Y470307D01*
X1007118Y470310D01*
X1007121Y470311D01*
X1007151Y470393D01*
X1007151Y471463D01*
X1008937Y473249D01*
X1030463Y473249D01*
X1032249Y471463D01*
X1032249Y460437D01*
X1030463Y458651D01*
X1008937Y458651D01*
X1007151Y460437D01*
X1007151Y461507D01*
X1007150Y461510D01*
X1007151Y461513D01*
X1007131Y461554D01*
X1007113Y461597D01*
X1007110Y461598D01*
X1007109Y461601D01*
X1007027Y461631D01*
X1006640Y461631D01*
X1006613Y461620D01*
X1006584Y461618D01*
X1006568Y461601D01*
X1006550Y461593D01*
X1006547Y461585D01*
X1006542Y461573D01*
X1006525Y461555D01*
X1006087Y460497D01*
X1003813Y458223D01*
X1000843Y456993D01*
X997629Y456993D01*
G37*
%LPD*%
%LPC*%
G36*
X586403Y826055D02*
X586403Y826055D01*
X583433Y827285D01*
X581159Y829559D01*
X579929Y832529D01*
X579929Y835743D01*
X581159Y838713D01*
X583433Y840987D01*
X583755Y841120D01*
X583775Y841140D01*
X583801Y841153D01*
X583809Y841176D01*
X583823Y841190D01*
X583822Y841210D01*
X583831Y841235D01*
X583831Y841927D01*
X583830Y841930D01*
X583831Y841933D01*
X583811Y841974D01*
X583793Y842017D01*
X583790Y842018D01*
X583789Y842021D01*
X583707Y842051D01*
X582637Y842051D01*
X580851Y843837D01*
X580851Y865363D01*
X582637Y867149D01*
X593663Y867149D01*
X595449Y865363D01*
X595449Y843837D01*
X593663Y842051D01*
X592593Y842051D01*
X592590Y842050D01*
X592587Y842051D01*
X592546Y842031D01*
X592503Y842013D01*
X592502Y842010D01*
X592499Y842009D01*
X592469Y841927D01*
X592469Y841119D01*
X592480Y841092D01*
X592482Y841063D01*
X592499Y841047D01*
X592507Y841029D01*
X592526Y841022D01*
X592545Y841004D01*
X592587Y840986D01*
X594861Y838713D01*
X596091Y835743D01*
X596091Y832529D01*
X594861Y829559D01*
X592587Y827285D01*
X589617Y826055D01*
X586403Y826055D01*
G37*
%LPD*%
%LPC*%
G36*
X1053417Y572817D02*
X1053417Y572817D01*
X1050447Y574047D01*
X1048173Y576321D01*
X1046943Y579291D01*
X1046943Y582505D01*
X1048173Y585475D01*
X1050447Y587749D01*
X1051967Y588378D01*
X1051986Y588398D01*
X1052011Y588409D01*
X1052019Y588431D01*
X1052035Y588448D01*
X1052035Y588476D01*
X1052044Y588502D01*
X1052033Y588525D01*
X1052032Y588546D01*
X1052018Y588559D01*
X1052007Y588581D01*
X1050751Y589837D01*
X1050751Y611363D01*
X1052537Y613149D01*
X1063563Y613149D01*
X1065349Y611363D01*
X1065349Y589837D01*
X1063563Y588051D01*
X1062493Y588051D01*
X1062490Y588050D01*
X1062487Y588051D01*
X1062446Y588031D01*
X1062403Y588013D01*
X1062402Y588010D01*
X1062399Y588009D01*
X1062369Y587927D01*
X1062369Y584307D01*
X1062377Y584287D01*
X1062378Y584259D01*
X1063105Y582505D01*
X1063105Y579291D01*
X1061875Y576321D01*
X1059601Y574047D01*
X1056631Y572817D01*
X1053417Y572817D01*
G37*
%LPD*%
%LPC*%
G36*
X1035983Y952547D02*
X1035983Y952547D01*
X1033013Y953777D01*
X1030739Y956051D01*
X1029509Y959021D01*
X1029509Y962235D01*
X1030739Y965205D01*
X1033013Y967479D01*
X1035983Y968709D01*
X1039197Y968709D01*
X1042167Y967479D01*
X1044041Y965605D01*
X1044045Y965603D01*
X1044047Y965599D01*
X1044129Y965569D01*
X1045127Y965569D01*
X1045130Y965570D01*
X1045133Y965569D01*
X1045174Y965589D01*
X1045217Y965607D01*
X1045218Y965610D01*
X1045221Y965611D01*
X1045251Y965693D01*
X1045251Y966763D01*
X1047037Y968549D01*
X1068563Y968549D01*
X1070349Y966763D01*
X1070349Y955737D01*
X1068563Y953951D01*
X1047037Y953951D01*
X1045251Y955737D01*
X1045251Y956807D01*
X1045250Y956810D01*
X1045251Y956813D01*
X1045231Y956854D01*
X1045213Y956897D01*
X1045210Y956898D01*
X1045209Y956901D01*
X1045127Y956931D01*
X1044888Y956931D01*
X1044862Y956920D01*
X1044833Y956918D01*
X1044817Y956901D01*
X1044798Y956893D01*
X1044791Y956873D01*
X1044774Y956855D01*
X1044441Y956051D01*
X1042167Y953777D01*
X1039197Y952547D01*
X1035983Y952547D01*
G37*
%LPD*%
%LPC*%
G36*
X879537Y567951D02*
X879537Y567951D01*
X877751Y569737D01*
X877751Y591263D01*
X879537Y593049D01*
X880607Y593049D01*
X880610Y593050D01*
X880613Y593049D01*
X880654Y593069D01*
X880697Y593087D01*
X880698Y593090D01*
X880701Y593091D01*
X880731Y593173D01*
X880731Y593943D01*
X880730Y593947D01*
X880731Y593952D01*
X880695Y594031D01*
X878593Y596133D01*
X877363Y599103D01*
X877363Y602317D01*
X878593Y605287D01*
X880867Y607561D01*
X883837Y608791D01*
X887051Y608791D01*
X890021Y607561D01*
X892295Y605287D01*
X893525Y602317D01*
X893525Y599103D01*
X892295Y596133D01*
X890021Y593859D01*
X889445Y593621D01*
X889425Y593600D01*
X889399Y593588D01*
X889391Y593565D01*
X889377Y593551D01*
X889378Y593530D01*
X889369Y593506D01*
X889369Y593173D01*
X889370Y593170D01*
X889369Y593167D01*
X889389Y593126D01*
X889407Y593083D01*
X889410Y593082D01*
X889411Y593079D01*
X889493Y593049D01*
X890563Y593049D01*
X892349Y591263D01*
X892349Y569737D01*
X890563Y567951D01*
X879537Y567951D01*
G37*
%LPD*%
%LPC*%
G36*
X731437Y419147D02*
X731437Y419147D01*
X728467Y420377D01*
X726193Y422651D01*
X724963Y425621D01*
X724963Y428835D01*
X726193Y431805D01*
X728467Y434079D01*
X731437Y435309D01*
X734651Y435309D01*
X737621Y434079D01*
X739495Y432205D01*
X739499Y432203D01*
X739501Y432199D01*
X739583Y432169D01*
X740327Y432169D01*
X740330Y432170D01*
X740333Y432169D01*
X740374Y432189D01*
X740417Y432207D01*
X740418Y432210D01*
X740421Y432211D01*
X740451Y432293D01*
X740451Y433363D01*
X742237Y435149D01*
X763763Y435149D01*
X765549Y433363D01*
X765549Y422337D01*
X763763Y420551D01*
X742237Y420551D01*
X740451Y422337D01*
X740451Y423370D01*
X740441Y423394D01*
X740441Y423420D01*
X740423Y423437D01*
X740413Y423460D01*
X740388Y423469D01*
X740369Y423487D01*
X740345Y423486D01*
X740321Y423494D01*
X740298Y423483D01*
X740272Y423481D01*
X740253Y423461D01*
X740233Y423452D01*
X740226Y423433D01*
X740212Y423418D01*
X739895Y422651D01*
X737621Y420377D01*
X734651Y419147D01*
X731437Y419147D01*
G37*
%LPD*%
%LPC*%
G36*
X833037Y965755D02*
X833037Y965755D01*
X830067Y966985D01*
X827793Y969259D01*
X826563Y972229D01*
X826563Y975443D01*
X827793Y978413D01*
X830067Y980687D01*
X833037Y981917D01*
X836251Y981917D01*
X839221Y980687D01*
X841495Y978413D01*
X841523Y978345D01*
X841543Y978325D01*
X841556Y978299D01*
X841578Y978291D01*
X841592Y978277D01*
X841613Y978278D01*
X841637Y978269D01*
X841927Y978269D01*
X841930Y978270D01*
X841933Y978269D01*
X841974Y978289D01*
X842017Y978307D01*
X842018Y978310D01*
X842021Y978311D01*
X842051Y978393D01*
X842051Y979463D01*
X843837Y981249D01*
X865363Y981249D01*
X867149Y979463D01*
X867149Y968437D01*
X865363Y966651D01*
X843837Y966651D01*
X842051Y968437D01*
X842051Y969507D01*
X842050Y969510D01*
X842051Y969513D01*
X842031Y969554D01*
X842013Y969597D01*
X842010Y969598D01*
X842009Y969601D01*
X841927Y969631D01*
X841732Y969631D01*
X841705Y969620D01*
X841677Y969618D01*
X841660Y969601D01*
X841642Y969593D01*
X841635Y969573D01*
X841617Y969555D01*
X841495Y969259D01*
X839221Y966985D01*
X836251Y965755D01*
X833037Y965755D01*
G37*
%LPD*%
%LPC*%
G36*
X346137Y733051D02*
X346137Y733051D01*
X344351Y734837D01*
X344351Y756363D01*
X346137Y758149D01*
X347207Y758149D01*
X347210Y758150D01*
X347213Y758149D01*
X347254Y758169D01*
X347297Y758187D01*
X347298Y758190D01*
X347301Y758191D01*
X347331Y758273D01*
X347331Y758468D01*
X347320Y758495D01*
X347318Y758523D01*
X347301Y758540D01*
X347293Y758558D01*
X347273Y758565D01*
X347255Y758583D01*
X346959Y758705D01*
X344685Y760979D01*
X343455Y763949D01*
X343455Y767163D01*
X344685Y770133D01*
X346959Y772407D01*
X349929Y773637D01*
X353143Y773637D01*
X356113Y772407D01*
X358387Y770133D01*
X359617Y767163D01*
X359617Y763949D01*
X358387Y760979D01*
X356113Y758705D01*
X356045Y758677D01*
X356025Y758657D01*
X355999Y758644D01*
X355991Y758622D01*
X355977Y758608D01*
X355978Y758587D01*
X355969Y758563D01*
X355969Y758273D01*
X355970Y758270D01*
X355969Y758267D01*
X355989Y758226D01*
X356007Y758183D01*
X356010Y758182D01*
X356011Y758179D01*
X356093Y758149D01*
X357163Y758149D01*
X358949Y756363D01*
X358949Y734837D01*
X357163Y733051D01*
X346137Y733051D01*
G37*
%LPD*%
%LPC*%
G36*
X572941Y268017D02*
X572941Y268017D01*
X569971Y269247D01*
X567697Y271521D01*
X566467Y274491D01*
X566467Y277705D01*
X567697Y280675D01*
X569971Y282949D01*
X570124Y283012D01*
X570143Y283031D01*
X570167Y283041D01*
X570175Y283064D01*
X570193Y283082D01*
X570192Y283108D01*
X570201Y283133D01*
X570190Y283155D01*
X570189Y283180D01*
X570170Y283197D01*
X570159Y283221D01*
X570133Y283230D01*
X570117Y283245D01*
X570096Y283244D01*
X570077Y283251D01*
X569937Y283251D01*
X568151Y285037D01*
X568151Y306563D01*
X569937Y308349D01*
X580963Y308349D01*
X582749Y306563D01*
X582749Y285037D01*
X580963Y283251D01*
X579893Y283251D01*
X579890Y283250D01*
X579887Y283251D01*
X579846Y283231D01*
X579803Y283213D01*
X579802Y283210D01*
X579799Y283209D01*
X579769Y283127D01*
X579769Y282357D01*
X579770Y282353D01*
X579769Y282348D01*
X579805Y282269D01*
X581399Y280675D01*
X582629Y277705D01*
X582629Y274491D01*
X581399Y271521D01*
X579125Y269247D01*
X576155Y268017D01*
X572941Y268017D01*
G37*
%LPD*%
%LPC*%
G36*
X1157395Y58721D02*
X1157395Y58721D01*
X1154425Y59951D01*
X1152152Y62225D01*
X1152088Y62378D01*
X1152069Y62397D01*
X1152059Y62421D01*
X1152036Y62429D01*
X1152018Y62447D01*
X1151992Y62446D01*
X1151967Y62455D01*
X1151945Y62444D01*
X1151920Y62443D01*
X1151903Y62424D01*
X1151879Y62413D01*
X1151870Y62387D01*
X1151855Y62371D01*
X1151856Y62350D01*
X1151849Y62331D01*
X1151849Y61937D01*
X1150063Y60151D01*
X1128537Y60151D01*
X1126751Y61937D01*
X1126751Y72963D01*
X1128537Y74749D01*
X1150063Y74749D01*
X1151849Y72963D01*
X1151849Y71893D01*
X1151850Y71890D01*
X1151849Y71887D01*
X1151869Y71846D01*
X1151887Y71803D01*
X1151890Y71802D01*
X1151891Y71799D01*
X1151973Y71769D01*
X1152489Y71769D01*
X1152493Y71770D01*
X1152498Y71769D01*
X1152577Y71805D01*
X1154425Y73653D01*
X1157395Y74883D01*
X1160609Y74883D01*
X1163579Y73653D01*
X1165853Y71379D01*
X1167083Y68409D01*
X1167083Y65195D01*
X1165853Y62225D01*
X1163579Y59951D01*
X1160609Y58721D01*
X1157395Y58721D01*
G37*
%LPD*%
%LPC*%
G36*
X1285937Y390151D02*
X1285937Y390151D01*
X1284151Y391937D01*
X1284151Y413463D01*
X1285937Y415249D01*
X1287007Y415249D01*
X1287010Y415250D01*
X1287013Y415249D01*
X1287054Y415269D01*
X1287097Y415287D01*
X1287098Y415290D01*
X1287101Y415291D01*
X1287131Y415373D01*
X1287131Y415419D01*
X1287120Y415446D01*
X1287118Y415475D01*
X1287101Y415491D01*
X1287093Y415509D01*
X1287074Y415516D01*
X1287055Y415534D01*
X1287013Y415552D01*
X1284739Y417825D01*
X1283509Y420795D01*
X1283509Y424009D01*
X1284739Y426979D01*
X1287013Y429253D01*
X1289983Y430483D01*
X1293197Y430483D01*
X1296167Y429253D01*
X1298441Y426979D01*
X1299671Y424009D01*
X1299671Y420795D01*
X1298441Y417825D01*
X1296167Y415552D01*
X1296014Y415488D01*
X1295995Y415469D01*
X1295971Y415459D01*
X1295963Y415436D01*
X1295945Y415418D01*
X1295946Y415392D01*
X1295937Y415367D01*
X1295948Y415345D01*
X1295949Y415320D01*
X1295968Y415303D01*
X1295979Y415279D01*
X1296005Y415270D01*
X1296021Y415255D01*
X1296042Y415256D01*
X1296061Y415249D01*
X1296963Y415249D01*
X1298749Y413463D01*
X1298749Y391937D01*
X1296963Y390151D01*
X1285937Y390151D01*
G37*
%LPD*%
%LPC*%
G36*
X350691Y76755D02*
X350691Y76755D01*
X347721Y77985D01*
X345447Y80259D01*
X344217Y83229D01*
X344217Y86443D01*
X345447Y89413D01*
X347721Y91687D01*
X350691Y92917D01*
X353905Y92917D01*
X356875Y91687D01*
X359149Y89413D01*
X359177Y89345D01*
X359197Y89325D01*
X359210Y89299D01*
X359232Y89291D01*
X359246Y89277D01*
X359267Y89278D01*
X359291Y89269D01*
X359327Y89269D01*
X359330Y89270D01*
X359333Y89269D01*
X359374Y89289D01*
X359417Y89307D01*
X359418Y89310D01*
X359421Y89311D01*
X359451Y89393D01*
X359451Y90463D01*
X361237Y92249D01*
X382763Y92249D01*
X384549Y90463D01*
X384549Y79437D01*
X382763Y77651D01*
X361237Y77651D01*
X359451Y79437D01*
X359451Y80365D01*
X359441Y80389D01*
X359441Y80415D01*
X359423Y80432D01*
X359413Y80455D01*
X359388Y80464D01*
X359369Y80482D01*
X359345Y80480D01*
X359321Y80489D01*
X359298Y80478D01*
X359272Y80476D01*
X359253Y80456D01*
X359233Y80447D01*
X359226Y80427D01*
X359212Y80412D01*
X359148Y80259D01*
X356875Y77985D01*
X353905Y76755D01*
X350691Y76755D01*
G37*
%LPD*%
%LPC*%
G36*
X257237Y352051D02*
X257237Y352051D01*
X255451Y353837D01*
X255451Y375363D01*
X257237Y377149D01*
X258307Y377149D01*
X258310Y377150D01*
X258313Y377149D01*
X258354Y377169D01*
X258397Y377187D01*
X258398Y377190D01*
X258401Y377191D01*
X258431Y377273D01*
X258431Y377535D01*
X258430Y377539D01*
X258431Y377544D01*
X258395Y377623D01*
X256547Y379471D01*
X255317Y382441D01*
X255317Y385655D01*
X256547Y388625D01*
X258821Y390899D01*
X261791Y392129D01*
X265005Y392129D01*
X267975Y390899D01*
X270249Y388625D01*
X271479Y385655D01*
X271479Y382441D01*
X270249Y379471D01*
X270234Y379456D01*
X270110Y379332D01*
X269985Y379208D01*
X269861Y379083D01*
X269737Y378959D01*
X269613Y378835D01*
X269488Y378711D01*
X269488Y378710D01*
X269364Y378586D01*
X269240Y378462D01*
X268139Y377361D01*
X268138Y377359D01*
X268137Y377359D01*
X268120Y377314D01*
X268102Y377270D01*
X268103Y377269D01*
X268102Y377267D01*
X268123Y377224D01*
X268143Y377181D01*
X268144Y377181D01*
X268145Y377179D01*
X268227Y377149D01*
X268263Y377149D01*
X270049Y375363D01*
X270049Y353837D01*
X268263Y352051D01*
X257237Y352051D01*
G37*
%LPD*%
%LPC*%
G36*
X211245Y152447D02*
X211245Y152447D01*
X208275Y153677D01*
X206001Y155951D01*
X204771Y158921D01*
X204771Y162135D01*
X206001Y165105D01*
X208275Y167379D01*
X211245Y168609D01*
X214459Y168609D01*
X217429Y167379D01*
X219303Y165505D01*
X219307Y165503D01*
X219309Y165499D01*
X219391Y165469D01*
X219627Y165469D01*
X219630Y165470D01*
X219633Y165469D01*
X219674Y165489D01*
X219717Y165507D01*
X219718Y165510D01*
X219721Y165511D01*
X219751Y165593D01*
X219751Y166663D01*
X221537Y168449D01*
X243063Y168449D01*
X244849Y166663D01*
X244849Y155637D01*
X243063Y153851D01*
X221537Y153851D01*
X219751Y155637D01*
X219751Y155699D01*
X219751Y155701D01*
X219751Y155702D01*
X219732Y155745D01*
X219713Y155789D01*
X219711Y155790D01*
X219711Y155791D01*
X219666Y155807D01*
X219621Y155824D01*
X219620Y155823D01*
X219619Y155823D01*
X219539Y155787D01*
X218440Y154688D01*
X218315Y154564D01*
X218315Y154563D01*
X218191Y154439D01*
X218067Y154315D01*
X217943Y154191D01*
X217818Y154067D01*
X217818Y154066D01*
X217694Y153942D01*
X217570Y153818D01*
X217446Y153694D01*
X217429Y153677D01*
X214459Y152447D01*
X211245Y152447D01*
G37*
%LPD*%
%LPC*%
G36*
X1133537Y479051D02*
X1133537Y479051D01*
X1131751Y480837D01*
X1131751Y502363D01*
X1133537Y504149D01*
X1134107Y504149D01*
X1134109Y504149D01*
X1134110Y504149D01*
X1134153Y504168D01*
X1134197Y504187D01*
X1134198Y504189D01*
X1134199Y504189D01*
X1134215Y504234D01*
X1134232Y504279D01*
X1134231Y504280D01*
X1134231Y504281D01*
X1134195Y504361D01*
X1132085Y506471D01*
X1130855Y509441D01*
X1130855Y512655D01*
X1132085Y515625D01*
X1134359Y517899D01*
X1137329Y519129D01*
X1140543Y519129D01*
X1143513Y517899D01*
X1145787Y515625D01*
X1147017Y512655D01*
X1147017Y509441D01*
X1145787Y506471D01*
X1145755Y506440D01*
X1145755Y506439D01*
X1145631Y506315D01*
X1145507Y506191D01*
X1145383Y506067D01*
X1145258Y505943D01*
X1145258Y505942D01*
X1145134Y505818D01*
X1145010Y505694D01*
X1144886Y505570D01*
X1144761Y505446D01*
X1144761Y505445D01*
X1143677Y504361D01*
X1143676Y504359D01*
X1143675Y504359D01*
X1143658Y504314D01*
X1143640Y504270D01*
X1143641Y504269D01*
X1143640Y504267D01*
X1143661Y504224D01*
X1143681Y504181D01*
X1143682Y504181D01*
X1143683Y504179D01*
X1143765Y504149D01*
X1144563Y504149D01*
X1146349Y502363D01*
X1146349Y480837D01*
X1144563Y479051D01*
X1133537Y479051D01*
G37*
%LPD*%
%LPC*%
G36*
X384237Y593351D02*
X384237Y593351D01*
X382451Y595137D01*
X382451Y616663D01*
X384237Y618449D01*
X384553Y618449D01*
X384555Y618449D01*
X384556Y618449D01*
X384599Y618468D01*
X384643Y618487D01*
X384644Y618489D01*
X384645Y618489D01*
X384661Y618534D01*
X384678Y618579D01*
X384677Y618580D01*
X384677Y618581D01*
X384641Y618661D01*
X382531Y620771D01*
X381301Y623741D01*
X381301Y626955D01*
X382531Y629925D01*
X384805Y632199D01*
X387775Y633429D01*
X390989Y633429D01*
X393959Y632199D01*
X396233Y629925D01*
X397463Y626955D01*
X397463Y623741D01*
X396233Y620771D01*
X396211Y620750D01*
X396211Y620749D01*
X396087Y620625D01*
X395963Y620501D01*
X395839Y620377D01*
X395714Y620253D01*
X395714Y620252D01*
X395590Y620128D01*
X395466Y620004D01*
X395342Y619880D01*
X395217Y619756D01*
X395217Y619755D01*
X394123Y618661D01*
X394122Y618659D01*
X394121Y618659D01*
X394104Y618614D01*
X394086Y618570D01*
X394087Y618569D01*
X394086Y618567D01*
X394107Y618524D01*
X394127Y618481D01*
X394128Y618481D01*
X394129Y618479D01*
X394211Y618449D01*
X395263Y618449D01*
X397049Y616663D01*
X397049Y595137D01*
X395263Y593351D01*
X384237Y593351D01*
G37*
%LPD*%
%LPC*%
G36*
X617645Y140255D02*
X617645Y140255D01*
X614675Y141485D01*
X612401Y143759D01*
X611171Y146729D01*
X611171Y149943D01*
X612401Y152913D01*
X614675Y155187D01*
X617645Y156417D01*
X620859Y156417D01*
X623829Y155187D01*
X625939Y153077D01*
X625941Y153076D01*
X625941Y153075D01*
X625986Y153058D01*
X626030Y153040D01*
X626031Y153041D01*
X626033Y153040D01*
X626076Y153061D01*
X626119Y153081D01*
X626119Y153082D01*
X626121Y153083D01*
X626151Y153165D01*
X626151Y153963D01*
X627937Y155749D01*
X649463Y155749D01*
X651249Y153963D01*
X651249Y142937D01*
X649463Y141151D01*
X627937Y141151D01*
X626151Y142937D01*
X626151Y143507D01*
X626151Y143509D01*
X626151Y143510D01*
X626132Y143553D01*
X626113Y143597D01*
X626111Y143598D01*
X626111Y143599D01*
X626066Y143615D01*
X626021Y143632D01*
X626020Y143631D01*
X626019Y143631D01*
X625939Y143595D01*
X624855Y142511D01*
X624731Y142387D01*
X624607Y142263D01*
X624482Y142139D01*
X624482Y142138D01*
X624358Y142014D01*
X624234Y141890D01*
X624110Y141766D01*
X623985Y141642D01*
X623985Y141641D01*
X623861Y141517D01*
X623829Y141485D01*
X620859Y140255D01*
X617645Y140255D01*
G37*
%LPD*%
%LPC*%
G36*
X497757Y420671D02*
X497757Y420671D01*
X494787Y421901D01*
X492513Y424175D01*
X491283Y427145D01*
X491283Y430359D01*
X492513Y433329D01*
X492517Y433333D01*
X492641Y433457D01*
X492766Y433581D01*
X492766Y433582D01*
X492890Y433706D01*
X493014Y433830D01*
X493138Y433954D01*
X493263Y434079D01*
X493387Y434203D01*
X493511Y434327D01*
X494623Y435439D01*
X494624Y435441D01*
X494625Y435441D01*
X494642Y435486D01*
X494660Y435530D01*
X494659Y435531D01*
X494660Y435533D01*
X494639Y435576D01*
X494619Y435619D01*
X494618Y435619D01*
X494617Y435621D01*
X494535Y435651D01*
X493737Y435651D01*
X491951Y437437D01*
X491951Y458963D01*
X493737Y460749D01*
X504763Y460749D01*
X506549Y458963D01*
X506549Y437437D01*
X504763Y435651D01*
X504193Y435651D01*
X504191Y435651D01*
X504190Y435651D01*
X504147Y435632D01*
X504103Y435613D01*
X504102Y435611D01*
X504101Y435611D01*
X504085Y435566D01*
X504068Y435521D01*
X504069Y435520D01*
X504069Y435519D01*
X504105Y435439D01*
X506215Y433329D01*
X507445Y430359D01*
X507445Y427145D01*
X506215Y424175D01*
X503941Y421901D01*
X500971Y420671D01*
X497757Y420671D01*
G37*
%LPD*%
%LPC*%
G36*
X624249Y547925D02*
X624249Y547925D01*
X621279Y549155D01*
X619005Y551429D01*
X617775Y554399D01*
X617775Y557613D01*
X619005Y560583D01*
X619111Y560689D01*
X619236Y560813D01*
X619236Y560814D01*
X619360Y560938D01*
X619484Y561062D01*
X619608Y561186D01*
X619733Y561311D01*
X619857Y561435D01*
X620861Y562439D01*
X620862Y562441D01*
X620863Y562441D01*
X620880Y562486D01*
X620898Y562530D01*
X620897Y562531D01*
X620898Y562533D01*
X620877Y562576D01*
X620857Y562619D01*
X620856Y562619D01*
X620855Y562621D01*
X620773Y562651D01*
X620737Y562651D01*
X618951Y564437D01*
X618951Y585963D01*
X620737Y587749D01*
X631763Y587749D01*
X633549Y585963D01*
X633549Y564437D01*
X631763Y562651D01*
X630939Y562651D01*
X630937Y562651D01*
X630936Y562651D01*
X630893Y562632D01*
X630849Y562613D01*
X630848Y562611D01*
X630847Y562611D01*
X630831Y562566D01*
X630814Y562521D01*
X630815Y562520D01*
X630815Y562519D01*
X630851Y562439D01*
X632707Y560583D01*
X633937Y557613D01*
X633937Y554399D01*
X632707Y551429D01*
X630433Y549155D01*
X627463Y547925D01*
X624249Y547925D01*
G37*
%LPD*%
%LPC*%
G36*
X104837Y377451D02*
X104837Y377451D01*
X103051Y379237D01*
X103051Y400763D01*
X104837Y402549D01*
X105661Y402549D01*
X105663Y402549D01*
X105664Y402549D01*
X105707Y402568D01*
X105751Y402587D01*
X105752Y402589D01*
X105753Y402589D01*
X105769Y402634D01*
X105786Y402679D01*
X105785Y402680D01*
X105785Y402681D01*
X105749Y402761D01*
X103893Y404617D01*
X102663Y407587D01*
X102663Y410801D01*
X103893Y413771D01*
X106167Y416045D01*
X109137Y417275D01*
X112351Y417275D01*
X115321Y416045D01*
X117595Y413771D01*
X118825Y410801D01*
X118825Y407587D01*
X117595Y404617D01*
X117532Y404555D01*
X117532Y404554D01*
X117408Y404430D01*
X117284Y404306D01*
X117160Y404182D01*
X117035Y404058D01*
X117035Y404057D01*
X116911Y403933D01*
X116787Y403809D01*
X115739Y402761D01*
X115738Y402759D01*
X115737Y402759D01*
X115720Y402714D01*
X115702Y402670D01*
X115703Y402669D01*
X115702Y402667D01*
X115723Y402624D01*
X115743Y402581D01*
X115744Y402581D01*
X115745Y402579D01*
X115827Y402549D01*
X115863Y402549D01*
X117649Y400763D01*
X117649Y379237D01*
X115863Y377451D01*
X104837Y377451D01*
G37*
%LPD*%
%LPC*%
G36*
X230803Y763825D02*
X230803Y763825D01*
X227833Y765055D01*
X225559Y767329D01*
X224329Y770299D01*
X224329Y773513D01*
X225559Y776483D01*
X225588Y776511D01*
X225588Y776512D01*
X225712Y776636D01*
X225960Y776884D01*
X226085Y777008D01*
X226085Y777009D01*
X226209Y777133D01*
X226333Y777257D01*
X226457Y777381D01*
X227415Y778339D01*
X227416Y778341D01*
X227417Y778341D01*
X227434Y778386D01*
X227452Y778430D01*
X227451Y778431D01*
X227452Y778433D01*
X227431Y778476D01*
X227411Y778519D01*
X227410Y778519D01*
X227409Y778521D01*
X227327Y778551D01*
X227037Y778551D01*
X225251Y780337D01*
X225251Y801863D01*
X227037Y803649D01*
X238063Y803649D01*
X239849Y801863D01*
X239849Y780337D01*
X238063Y778551D01*
X237493Y778551D01*
X237491Y778551D01*
X237490Y778551D01*
X237447Y778532D01*
X237403Y778513D01*
X237402Y778511D01*
X237401Y778511D01*
X237385Y778466D01*
X237368Y778421D01*
X237369Y778420D01*
X237369Y778419D01*
X237405Y778339D01*
X239261Y776483D01*
X240491Y773513D01*
X240491Y770299D01*
X239261Y767329D01*
X236987Y765055D01*
X234017Y763825D01*
X230803Y763825D01*
G37*
%LPD*%
%LPC*%
G36*
X373937Y306251D02*
X373937Y306251D01*
X372151Y308037D01*
X372151Y309107D01*
X372150Y309110D01*
X372151Y309113D01*
X372131Y309154D01*
X372113Y309197D01*
X372110Y309198D01*
X372109Y309201D01*
X372027Y309231D01*
X372019Y309231D01*
X372014Y309230D01*
X372010Y309231D01*
X371931Y309195D01*
X371121Y308385D01*
X370997Y308261D01*
X370872Y308137D01*
X370872Y308136D01*
X370748Y308012D01*
X370624Y307888D01*
X370500Y307764D01*
X370375Y307640D01*
X370375Y307639D01*
X370337Y307601D01*
X367367Y306371D01*
X364153Y306371D01*
X361183Y307601D01*
X358909Y309875D01*
X357679Y312845D01*
X357679Y316059D01*
X358909Y319029D01*
X361183Y321303D01*
X364153Y322533D01*
X367367Y322533D01*
X370337Y321303D01*
X372276Y319364D01*
X372279Y319362D01*
X372280Y319360D01*
X372324Y319344D01*
X372367Y319327D01*
X372370Y319328D01*
X372373Y319327D01*
X372452Y319364D01*
X373230Y320141D01*
X373354Y320266D01*
X373478Y320390D01*
X373602Y320514D01*
X373727Y320638D01*
X373851Y320762D01*
X373851Y320763D01*
X373937Y320849D01*
X395463Y320849D01*
X397249Y319063D01*
X397249Y308037D01*
X395463Y306251D01*
X373937Y306251D01*
G37*
%LPD*%
%LPC*%
G36*
X254933Y465883D02*
X254933Y465883D01*
X251963Y467113D01*
X250361Y468715D01*
X250359Y468716D01*
X250359Y468717D01*
X250314Y468734D01*
X250270Y468752D01*
X250269Y468751D01*
X250267Y468752D01*
X250224Y468731D01*
X250181Y468711D01*
X250181Y468710D01*
X250179Y468709D01*
X250149Y468627D01*
X250149Y468337D01*
X248363Y466551D01*
X226837Y466551D01*
X225051Y468337D01*
X225051Y479363D01*
X226837Y481149D01*
X248363Y481149D01*
X250149Y479363D01*
X250149Y479301D01*
X250149Y479299D01*
X250149Y479298D01*
X250168Y479255D01*
X250187Y479211D01*
X250189Y479210D01*
X250189Y479209D01*
X250234Y479193D01*
X250279Y479176D01*
X250280Y479177D01*
X250281Y479177D01*
X250361Y479213D01*
X251199Y480051D01*
X251323Y480175D01*
X251448Y480299D01*
X251448Y480300D01*
X251572Y480424D01*
X251696Y480548D01*
X251820Y480672D01*
X251945Y480796D01*
X251945Y480797D01*
X251963Y480815D01*
X254933Y482045D01*
X258147Y482045D01*
X261117Y480815D01*
X263391Y478541D01*
X264621Y475571D01*
X264621Y472357D01*
X263391Y469387D01*
X261117Y467113D01*
X258147Y465883D01*
X254933Y465883D01*
G37*
%LPD*%
%LPC*%
G36*
X1247837Y720351D02*
X1247837Y720351D01*
X1246051Y722137D01*
X1246051Y743663D01*
X1247837Y745449D01*
X1248661Y745449D01*
X1248663Y745449D01*
X1248664Y745449D01*
X1248707Y745468D01*
X1248751Y745487D01*
X1248752Y745489D01*
X1248753Y745489D01*
X1248769Y745534D01*
X1248786Y745579D01*
X1248785Y745580D01*
X1248785Y745581D01*
X1248749Y745661D01*
X1247147Y747263D01*
X1245917Y750233D01*
X1245917Y753447D01*
X1247147Y756417D01*
X1249421Y758691D01*
X1252391Y759921D01*
X1255605Y759921D01*
X1258575Y758691D01*
X1260849Y756417D01*
X1262079Y753447D01*
X1262079Y750233D01*
X1260849Y747263D01*
X1260822Y747236D01*
X1260698Y747112D01*
X1260449Y746863D01*
X1260325Y746739D01*
X1260201Y746615D01*
X1260076Y746491D01*
X1260076Y746490D01*
X1259952Y746366D01*
X1259037Y745451D01*
X1259035Y745448D01*
X1259033Y745447D01*
X1259017Y745403D01*
X1259000Y745360D01*
X1259001Y745357D01*
X1259000Y745354D01*
X1259037Y745275D01*
X1260649Y743663D01*
X1260649Y722137D01*
X1258863Y720351D01*
X1247837Y720351D01*
G37*
%LPD*%
%LPC*%
G36*
X904937Y771151D02*
X904937Y771151D01*
X903151Y772937D01*
X903151Y794463D01*
X903216Y794528D01*
X903340Y794652D01*
X903465Y794776D01*
X903589Y794900D01*
X903589Y794901D01*
X903713Y795025D01*
X903837Y795149D01*
X904776Y796088D01*
X904778Y796091D01*
X904780Y796092D01*
X904796Y796136D01*
X904813Y796179D01*
X904812Y796181D01*
X904813Y796184D01*
X904776Y796264D01*
X902977Y798063D01*
X901747Y801033D01*
X901747Y804247D01*
X902977Y807217D01*
X905251Y809491D01*
X908221Y810721D01*
X911435Y810721D01*
X914405Y809491D01*
X916679Y807217D01*
X917909Y804247D01*
X917909Y801033D01*
X916679Y798063D01*
X916670Y798054D01*
X916546Y797930D01*
X916422Y797806D01*
X916297Y797682D01*
X916297Y797681D01*
X916173Y797557D01*
X916049Y797433D01*
X915925Y797309D01*
X915077Y796461D01*
X915076Y796459D01*
X915075Y796459D01*
X915058Y796414D01*
X915040Y796370D01*
X915041Y796369D01*
X915040Y796367D01*
X915061Y796324D01*
X915081Y796281D01*
X915082Y796281D01*
X915083Y796279D01*
X915165Y796249D01*
X915963Y796249D01*
X917749Y794463D01*
X917749Y772937D01*
X915963Y771151D01*
X904937Y771151D01*
G37*
%LPD*%
%LPC*%
G36*
X554653Y1003347D02*
X554653Y1003347D01*
X551683Y1004577D01*
X549409Y1006851D01*
X548179Y1009821D01*
X548179Y1013035D01*
X549409Y1016005D01*
X551683Y1018279D01*
X554653Y1019509D01*
X557867Y1019509D01*
X560837Y1018279D01*
X562439Y1016677D01*
X562441Y1016676D01*
X562441Y1016675D01*
X562486Y1016658D01*
X562530Y1016640D01*
X562531Y1016641D01*
X562533Y1016640D01*
X562576Y1016661D01*
X562619Y1016681D01*
X562619Y1016682D01*
X562621Y1016683D01*
X562651Y1016765D01*
X562651Y1017563D01*
X564437Y1019349D01*
X585963Y1019349D01*
X587749Y1017563D01*
X587749Y1006537D01*
X585963Y1004751D01*
X564437Y1004751D01*
X562812Y1006376D01*
X562809Y1006378D01*
X562808Y1006380D01*
X562764Y1006396D01*
X562721Y1006413D01*
X562719Y1006412D01*
X562716Y1006413D01*
X562636Y1006376D01*
X561687Y1005428D01*
X561687Y1005427D01*
X561563Y1005303D01*
X561439Y1005179D01*
X561315Y1005055D01*
X561190Y1004931D01*
X561190Y1004930D01*
X561066Y1004806D01*
X560942Y1004682D01*
X560837Y1004577D01*
X557867Y1003347D01*
X554653Y1003347D01*
G37*
%LPD*%
%LPC*%
G36*
X739311Y675179D02*
X739311Y675179D01*
X736341Y676409D01*
X734067Y678683D01*
X732837Y681653D01*
X732837Y684867D01*
X734067Y687837D01*
X734151Y687921D01*
X734276Y688045D01*
X734276Y688046D01*
X734400Y688170D01*
X734524Y688294D01*
X734648Y688418D01*
X734773Y688543D01*
X735669Y689439D01*
X735670Y689441D01*
X735671Y689441D01*
X735688Y689486D01*
X735706Y689530D01*
X735705Y689531D01*
X735706Y689533D01*
X735685Y689576D01*
X735665Y689619D01*
X735664Y689619D01*
X735663Y689621D01*
X735581Y689651D01*
X735037Y689651D01*
X733251Y691437D01*
X733251Y712963D01*
X735037Y714749D01*
X746063Y714749D01*
X747849Y712963D01*
X747849Y691437D01*
X747735Y691324D01*
X747487Y691075D01*
X747362Y690951D01*
X747238Y690827D01*
X747238Y690826D01*
X747114Y690702D01*
X746097Y689685D01*
X746095Y689682D01*
X746093Y689681D01*
X746077Y689637D01*
X746060Y689594D01*
X746061Y689592D01*
X746060Y689589D01*
X746097Y689509D01*
X747769Y687837D01*
X748999Y684867D01*
X748999Y681653D01*
X747769Y678683D01*
X745495Y676409D01*
X742525Y675179D01*
X739311Y675179D01*
G37*
%LPD*%
%LPC*%
G36*
X808653Y305863D02*
X808653Y305863D01*
X805683Y307093D01*
X803409Y309367D01*
X802179Y312337D01*
X802179Y315551D01*
X803409Y318521D01*
X805683Y320795D01*
X808653Y322025D01*
X811867Y322025D01*
X814837Y320795D01*
X816522Y319110D01*
X816525Y319108D01*
X816526Y319106D01*
X816570Y319090D01*
X816613Y319073D01*
X816616Y319074D01*
X816619Y319073D01*
X816698Y319110D01*
X817605Y320017D01*
X817730Y320141D01*
X817854Y320266D01*
X817978Y320390D01*
X818102Y320514D01*
X818227Y320638D01*
X818351Y320762D01*
X818351Y320763D01*
X818437Y320849D01*
X839963Y320849D01*
X841749Y319063D01*
X841749Y308037D01*
X839963Y306251D01*
X818437Y306251D01*
X816651Y308037D01*
X816651Y308607D01*
X816651Y308609D01*
X816651Y308610D01*
X816632Y308653D01*
X816613Y308697D01*
X816611Y308698D01*
X816611Y308699D01*
X816566Y308715D01*
X816521Y308732D01*
X816520Y308731D01*
X816519Y308731D01*
X816439Y308695D01*
X815508Y307764D01*
X815383Y307640D01*
X815383Y307639D01*
X815259Y307515D01*
X815135Y307391D01*
X815011Y307267D01*
X814886Y307143D01*
X814886Y307142D01*
X814837Y307093D01*
X811867Y305863D01*
X808653Y305863D01*
G37*
%LPD*%
%LPC*%
G36*
X789349Y560879D02*
X789349Y560879D01*
X786379Y562109D01*
X784105Y564383D01*
X782875Y567353D01*
X782875Y570567D01*
X784105Y573537D01*
X784179Y573611D01*
X784304Y573735D01*
X784304Y573736D01*
X784428Y573860D01*
X784552Y573984D01*
X784676Y574108D01*
X784801Y574233D01*
X784925Y574357D01*
X785790Y575222D01*
X785792Y575225D01*
X785794Y575226D01*
X785810Y575270D01*
X785827Y575313D01*
X785826Y575316D01*
X785827Y575319D01*
X785790Y575398D01*
X784051Y577137D01*
X784051Y598663D01*
X785837Y600449D01*
X796863Y600449D01*
X798649Y598663D01*
X798649Y577137D01*
X796863Y575351D01*
X796293Y575351D01*
X796291Y575351D01*
X796290Y575351D01*
X796247Y575332D01*
X796203Y575313D01*
X796202Y575311D01*
X796201Y575311D01*
X796185Y575266D01*
X796168Y575221D01*
X796169Y575220D01*
X796169Y575219D01*
X796205Y575139D01*
X797807Y573537D01*
X799037Y570567D01*
X799037Y567353D01*
X797807Y564383D01*
X795533Y562109D01*
X792563Y560879D01*
X789349Y560879D01*
G37*
%LPD*%
%LPC*%
G36*
X509949Y700833D02*
X509949Y700833D01*
X506979Y702063D01*
X504705Y704337D01*
X503475Y707307D01*
X503475Y710521D01*
X504705Y713491D01*
X504731Y713517D01*
X504855Y713641D01*
X504979Y713765D01*
X505104Y713889D01*
X505104Y713890D01*
X505228Y714014D01*
X505352Y714138D01*
X506263Y715049D01*
X506265Y715052D01*
X506267Y715053D01*
X506283Y715097D01*
X506300Y715140D01*
X506299Y715143D01*
X506300Y715146D01*
X506263Y715225D01*
X504651Y716837D01*
X504651Y738363D01*
X506437Y740149D01*
X517463Y740149D01*
X519249Y738363D01*
X519249Y716837D01*
X517463Y715051D01*
X517147Y715051D01*
X517145Y715051D01*
X517144Y715051D01*
X517101Y715032D01*
X517057Y715013D01*
X517056Y715011D01*
X517055Y715011D01*
X517039Y714966D01*
X517022Y714921D01*
X517023Y714920D01*
X517023Y714919D01*
X517059Y714839D01*
X518407Y713491D01*
X519637Y710521D01*
X519637Y707307D01*
X518407Y704337D01*
X516133Y702063D01*
X513163Y700833D01*
X509949Y700833D01*
G37*
%LPD*%
%LPC*%
G36*
X1177207Y851709D02*
X1177207Y851709D01*
X1174237Y852939D01*
X1171963Y855213D01*
X1170733Y858183D01*
X1170733Y861397D01*
X1171963Y864367D01*
X1174237Y866641D01*
X1177207Y867871D01*
X1180421Y867871D01*
X1183391Y866641D01*
X1184822Y865210D01*
X1184825Y865208D01*
X1184826Y865206D01*
X1184870Y865190D01*
X1184913Y865173D01*
X1184916Y865174D01*
X1184919Y865173D01*
X1184998Y865210D01*
X1186008Y866220D01*
X1186133Y866344D01*
X1186257Y866468D01*
X1186257Y866469D01*
X1186381Y866593D01*
X1186505Y866717D01*
X1186630Y866841D01*
X1186737Y866949D01*
X1208263Y866949D01*
X1210049Y865163D01*
X1210049Y854137D01*
X1208263Y852351D01*
X1186737Y852351D01*
X1184951Y854137D01*
X1184951Y854199D01*
X1184951Y854201D01*
X1184951Y854202D01*
X1184932Y854245D01*
X1184913Y854289D01*
X1184911Y854290D01*
X1184911Y854291D01*
X1184866Y854307D01*
X1184821Y854324D01*
X1184820Y854323D01*
X1184819Y854323D01*
X1184739Y854287D01*
X1184046Y853594D01*
X1183922Y853470D01*
X1183797Y853346D01*
X1183797Y853345D01*
X1183673Y853221D01*
X1183549Y853097D01*
X1183425Y852973D01*
X1183391Y852939D01*
X1180421Y851709D01*
X1177207Y851709D01*
G37*
%LPD*%
%LPC*%
G36*
X128949Y675941D02*
X128949Y675941D01*
X125979Y677171D01*
X123705Y679445D01*
X122475Y682415D01*
X122475Y685629D01*
X123705Y688599D01*
X123773Y688667D01*
X124021Y688915D01*
X124146Y689040D01*
X124270Y689164D01*
X125009Y689903D01*
X125011Y689906D01*
X125013Y689907D01*
X125029Y689951D01*
X125046Y689994D01*
X125045Y689997D01*
X125046Y690000D01*
X125009Y690079D01*
X123651Y691437D01*
X123651Y712963D01*
X125437Y714749D01*
X136463Y714749D01*
X138249Y712963D01*
X138249Y691437D01*
X138135Y691324D01*
X137887Y691075D01*
X137762Y690951D01*
X137638Y690827D01*
X137638Y690826D01*
X137514Y690702D01*
X136497Y689685D01*
X136495Y689682D01*
X136493Y689681D01*
X136477Y689637D01*
X136460Y689594D01*
X136461Y689592D01*
X136460Y689589D01*
X136497Y689509D01*
X137407Y688599D01*
X138637Y685629D01*
X138637Y682415D01*
X137407Y679445D01*
X135133Y677171D01*
X132163Y675941D01*
X128949Y675941D01*
G37*
%LPD*%
%LPC*%
G36*
X1171637Y288551D02*
X1171637Y288551D01*
X1169851Y290337D01*
X1169851Y311863D01*
X1169929Y311941D01*
X1170178Y312189D01*
X1170302Y312313D01*
X1170302Y312314D01*
X1170426Y312438D01*
X1170550Y312562D01*
X1171476Y313488D01*
X1171478Y313491D01*
X1171480Y313492D01*
X1171496Y313536D01*
X1171513Y313579D01*
X1171512Y313581D01*
X1171513Y313584D01*
X1171476Y313664D01*
X1170439Y314701D01*
X1169209Y317671D01*
X1169209Y320885D01*
X1170439Y323855D01*
X1172713Y326129D01*
X1175683Y327359D01*
X1178897Y327359D01*
X1181867Y326129D01*
X1184141Y323855D01*
X1185371Y320885D01*
X1185371Y317671D01*
X1184141Y314701D01*
X1184037Y314598D01*
X1183913Y314473D01*
X1183789Y314349D01*
X1183665Y314225D01*
X1182964Y313524D01*
X1182962Y313521D01*
X1182960Y313520D01*
X1182944Y313476D01*
X1182927Y313433D01*
X1182928Y313430D01*
X1182927Y313427D01*
X1182964Y313348D01*
X1184449Y311863D01*
X1184449Y290337D01*
X1182663Y288551D01*
X1171637Y288551D01*
G37*
%LPD*%
%LPC*%
G36*
X1107103Y689149D02*
X1107103Y689149D01*
X1104133Y690379D01*
X1101859Y692653D01*
X1100629Y695623D01*
X1100629Y698837D01*
X1101859Y701807D01*
X1102782Y702730D01*
X1102784Y702733D01*
X1102786Y702734D01*
X1102802Y702778D01*
X1102819Y702821D01*
X1102818Y702824D01*
X1102819Y702827D01*
X1102782Y702906D01*
X1101551Y704137D01*
X1101551Y725663D01*
X1103337Y727449D01*
X1114363Y727449D01*
X1116149Y725663D01*
X1116149Y704137D01*
X1116133Y704121D01*
X1116009Y703997D01*
X1115884Y703873D01*
X1115760Y703749D01*
X1115760Y703748D01*
X1115636Y703624D01*
X1115512Y703500D01*
X1114778Y702766D01*
X1114776Y702763D01*
X1114774Y702762D01*
X1114758Y702718D01*
X1114741Y702675D01*
X1114742Y702673D01*
X1114741Y702670D01*
X1114778Y702590D01*
X1115561Y701807D01*
X1116791Y698837D01*
X1116791Y695623D01*
X1115561Y692653D01*
X1113287Y690379D01*
X1110317Y689149D01*
X1107103Y689149D01*
G37*
%LPD*%
%LPC*%
G36*
X782384Y62483D02*
X782384Y62483D01*
X777809Y64378D01*
X774308Y67879D01*
X772413Y72454D01*
X772413Y77406D01*
X774308Y81981D01*
X777809Y85482D01*
X782384Y87377D01*
X787336Y87377D01*
X791911Y85482D01*
X795412Y81981D01*
X797307Y77406D01*
X797307Y72454D01*
X795412Y67879D01*
X791911Y64378D01*
X787336Y62483D01*
X782384Y62483D01*
G37*
%LPD*%
%LPC*%
G36*
X807784Y62483D02*
X807784Y62483D01*
X803209Y64378D01*
X799708Y67879D01*
X797813Y72454D01*
X797813Y77406D01*
X799708Y81981D01*
X803209Y85482D01*
X807784Y87377D01*
X812736Y87377D01*
X817311Y85482D01*
X820812Y81981D01*
X822707Y77406D01*
X822707Y72454D01*
X820812Y67879D01*
X817311Y64378D01*
X812736Y62483D01*
X807784Y62483D01*
G37*
%LPD*%
%LPC*%
G36*
X922437Y89901D02*
X922437Y89901D01*
X920651Y91687D01*
X920651Y114213D01*
X922437Y115999D01*
X936963Y115999D01*
X938749Y114213D01*
X938749Y91687D01*
X936963Y89901D01*
X922437Y89901D01*
G37*
%LPD*%
%LPC*%
G36*
X835909Y75179D02*
X835909Y75179D01*
X835909Y86869D01*
X836600Y86869D01*
X838456Y86575D01*
X840243Y85994D01*
X841917Y85141D01*
X843438Y84036D01*
X844766Y82708D01*
X845871Y81187D01*
X846724Y79513D01*
X847305Y77726D01*
X847599Y75870D01*
X847599Y75179D01*
X835909Y75179D01*
G37*
%LPD*%
%LPC*%
G36*
X835909Y62991D02*
X835909Y62991D01*
X835909Y74681D01*
X847599Y74681D01*
X847599Y73990D01*
X847305Y72134D01*
X846724Y70347D01*
X845871Y68673D01*
X844766Y67152D01*
X843438Y65824D01*
X841917Y64719D01*
X840243Y63866D01*
X838456Y63285D01*
X836600Y62991D01*
X835909Y62991D01*
G37*
%LPD*%
%LPC*%
G36*
X823721Y75179D02*
X823721Y75179D01*
X823721Y75870D01*
X824015Y77726D01*
X824596Y79513D01*
X825449Y81187D01*
X826554Y82708D01*
X827882Y84036D01*
X829403Y85141D01*
X831077Y85994D01*
X832864Y86575D01*
X834720Y86869D01*
X835411Y86869D01*
X835411Y75179D01*
X823721Y75179D01*
G37*
%LPD*%
%LPC*%
G36*
X834720Y62991D02*
X834720Y62991D01*
X832864Y63285D01*
X831077Y63866D01*
X829403Y64719D01*
X827882Y65824D01*
X826554Y67152D01*
X825449Y68673D01*
X824596Y70347D01*
X824015Y72134D01*
X823721Y73990D01*
X823721Y74681D01*
X835411Y74681D01*
X835411Y62991D01*
X834720Y62991D01*
G37*
%LPD*%
%LPC*%
G36*
X872349Y956699D02*
X872349Y956699D01*
X872349Y963241D01*
X882434Y963241D01*
X883081Y963068D01*
X883660Y962733D01*
X884133Y962260D01*
X884468Y961681D01*
X884641Y961034D01*
X884641Y956699D01*
X872349Y956699D01*
G37*
%LPD*%
%LPC*%
G36*
X592949Y994799D02*
X592949Y994799D01*
X592949Y1001341D01*
X603034Y1001341D01*
X603681Y1001168D01*
X604260Y1000833D01*
X604733Y1000360D01*
X605068Y999781D01*
X605241Y999134D01*
X605241Y994799D01*
X592949Y994799D01*
G37*
%LPD*%
%LPC*%
G36*
X516749Y181999D02*
X516749Y181999D01*
X516749Y188541D01*
X526834Y188541D01*
X527481Y188368D01*
X528060Y188033D01*
X528533Y187560D01*
X528868Y186981D01*
X529041Y186334D01*
X529041Y181999D01*
X516749Y181999D01*
G37*
%LPD*%
%LPC*%
G36*
X389749Y67699D02*
X389749Y67699D01*
X389749Y74241D01*
X399834Y74241D01*
X400481Y74068D01*
X401060Y73733D01*
X401533Y73260D01*
X401868Y72681D01*
X402041Y72034D01*
X402041Y67699D01*
X389749Y67699D01*
G37*
%LPD*%
%LPC*%
G36*
X220349Y491599D02*
X220349Y491599D01*
X220349Y498141D01*
X230434Y498141D01*
X231081Y497968D01*
X231660Y497633D01*
X232133Y497160D01*
X232468Y496581D01*
X232641Y495934D01*
X232641Y491599D01*
X220349Y491599D01*
G37*
%LPD*%
%LPC*%
G36*
X402449Y296299D02*
X402449Y296299D01*
X402449Y302841D01*
X412534Y302841D01*
X413181Y302668D01*
X413760Y302333D01*
X414233Y301860D01*
X414568Y301281D01*
X414741Y300634D01*
X414741Y296299D01*
X402449Y296299D01*
G37*
%LPD*%
%LPC*%
G36*
X250049Y143899D02*
X250049Y143899D01*
X250049Y150441D01*
X260134Y150441D01*
X260781Y150268D01*
X261360Y149933D01*
X261833Y149460D01*
X262168Y148881D01*
X262341Y148234D01*
X262341Y143899D01*
X250049Y143899D01*
G37*
%LPD*%
%LPC*%
G36*
X372499Y588649D02*
X372499Y588649D01*
X372499Y600941D01*
X376834Y600941D01*
X377481Y600768D01*
X378060Y600433D01*
X378533Y599960D01*
X378868Y599381D01*
X379041Y598734D01*
X379041Y588649D01*
X372499Y588649D01*
G37*
%LPD*%
%LPC*%
G36*
X1075549Y943999D02*
X1075549Y943999D01*
X1075549Y950541D01*
X1085634Y950541D01*
X1086281Y950368D01*
X1086860Y950033D01*
X1087333Y949560D01*
X1087668Y948981D01*
X1087841Y948334D01*
X1087841Y943999D01*
X1075549Y943999D01*
G37*
%LPD*%
%LPC*%
G36*
X656449Y131199D02*
X656449Y131199D01*
X656449Y137741D01*
X666534Y137741D01*
X667181Y137568D01*
X667760Y137233D01*
X668233Y136760D01*
X668568Y136181D01*
X668741Y135534D01*
X668741Y131199D01*
X656449Y131199D01*
G37*
%LPD*%
%LPC*%
G36*
X1122049Y85199D02*
X1122049Y85199D01*
X1122049Y91741D01*
X1132134Y91741D01*
X1132781Y91568D01*
X1133360Y91233D01*
X1133833Y90760D01*
X1134168Y90181D01*
X1134341Y89534D01*
X1134341Y85199D01*
X1122049Y85199D01*
G37*
%LPD*%
%LPC*%
G36*
X364349Y918599D02*
X364349Y918599D01*
X364349Y925141D01*
X374434Y925141D01*
X375081Y924968D01*
X375660Y924633D01*
X376133Y924160D01*
X376468Y923581D01*
X376641Y922934D01*
X376641Y918599D01*
X364349Y918599D01*
G37*
%LPD*%
%LPC*%
G36*
X516999Y465949D02*
X516999Y465949D01*
X516999Y478241D01*
X521334Y478241D01*
X521981Y478068D01*
X522560Y477733D01*
X523033Y477260D01*
X523368Y476681D01*
X523541Y476034D01*
X523541Y465949D01*
X516999Y465949D01*
G37*
%LPD*%
%LPC*%
G36*
X605899Y872349D02*
X605899Y872349D01*
X605899Y884641D01*
X610234Y884641D01*
X610881Y884468D01*
X611460Y884133D01*
X611933Y883660D01*
X612268Y883081D01*
X612441Y882434D01*
X612441Y872349D01*
X605899Y872349D01*
G37*
%LPD*%
%LPC*%
G36*
X593199Y313549D02*
X593199Y313549D01*
X593199Y325841D01*
X597534Y325841D01*
X598181Y325668D01*
X598760Y325333D01*
X599233Y324860D01*
X599568Y324281D01*
X599741Y323634D01*
X599741Y313549D01*
X593199Y313549D01*
G37*
%LPD*%
%LPC*%
G36*
X1215249Y842399D02*
X1215249Y842399D01*
X1215249Y848941D01*
X1225334Y848941D01*
X1225981Y848768D01*
X1226560Y848433D01*
X1227033Y847960D01*
X1227368Y847381D01*
X1227541Y846734D01*
X1227541Y842399D01*
X1215249Y842399D01*
G37*
%LPD*%
%LPC*%
G36*
X770749Y410599D02*
X770749Y410599D01*
X770749Y417141D01*
X780834Y417141D01*
X781481Y416968D01*
X782060Y416633D01*
X782533Y416160D01*
X782868Y415581D01*
X783041Y414934D01*
X783041Y410599D01*
X770749Y410599D01*
G37*
%LPD*%
%LPC*%
G36*
X1236099Y715649D02*
X1236099Y715649D01*
X1236099Y727941D01*
X1240434Y727941D01*
X1241081Y727768D01*
X1241660Y727433D01*
X1242133Y726960D01*
X1242468Y726381D01*
X1242641Y725734D01*
X1242641Y715649D01*
X1236099Y715649D01*
G37*
%LPD*%
%LPC*%
G36*
X148699Y719949D02*
X148699Y719949D01*
X148699Y732241D01*
X153034Y732241D01*
X153681Y732068D01*
X154260Y731733D01*
X154733Y731260D01*
X155068Y730681D01*
X155241Y730034D01*
X155241Y719949D01*
X148699Y719949D01*
G37*
%LPD*%
%LPC*%
G36*
X1037449Y448699D02*
X1037449Y448699D01*
X1037449Y455241D01*
X1047534Y455241D01*
X1048181Y455068D01*
X1048760Y454733D01*
X1049233Y454260D01*
X1049568Y453681D01*
X1049741Y453034D01*
X1049741Y448699D01*
X1037449Y448699D01*
G37*
%LPD*%
%LPC*%
G36*
X758299Y719949D02*
X758299Y719949D01*
X758299Y732241D01*
X762634Y732241D01*
X763281Y732068D01*
X763860Y731733D01*
X764333Y731260D01*
X764668Y730681D01*
X764841Y730034D01*
X764841Y719949D01*
X758299Y719949D01*
G37*
%LPD*%
%LPC*%
G36*
X1274199Y385449D02*
X1274199Y385449D01*
X1274199Y397741D01*
X1278534Y397741D01*
X1279181Y397568D01*
X1279760Y397233D01*
X1280233Y396760D01*
X1280568Y396181D01*
X1280741Y395534D01*
X1280741Y385449D01*
X1274199Y385449D01*
G37*
%LPD*%
%LPC*%
G36*
X867799Y563249D02*
X867799Y563249D01*
X867799Y575541D01*
X872134Y575541D01*
X872781Y575368D01*
X873360Y575033D01*
X873833Y574560D01*
X874168Y573981D01*
X874341Y573334D01*
X874341Y563249D01*
X867799Y563249D01*
G37*
%LPD*%
%LPC*%
G36*
X1286899Y626749D02*
X1286899Y626749D01*
X1286899Y639041D01*
X1291234Y639041D01*
X1291881Y638868D01*
X1292460Y638533D01*
X1292933Y638060D01*
X1293268Y637481D01*
X1293441Y636834D01*
X1293441Y626749D01*
X1286899Y626749D01*
G37*
%LPD*%
%LPC*%
G36*
X1075799Y618349D02*
X1075799Y618349D01*
X1075799Y630641D01*
X1080134Y630641D01*
X1080781Y630468D01*
X1081360Y630133D01*
X1081833Y629660D01*
X1082168Y629081D01*
X1082341Y628434D01*
X1082341Y618349D01*
X1075799Y618349D01*
G37*
%LPD*%
%LPC*%
G36*
X334399Y728349D02*
X334399Y728349D01*
X334399Y740641D01*
X338734Y740641D01*
X339381Y740468D01*
X339960Y740133D01*
X340433Y739660D01*
X340768Y739081D01*
X340941Y738434D01*
X340941Y728349D01*
X334399Y728349D01*
G37*
%LPD*%
%LPC*%
G36*
X809099Y605649D02*
X809099Y605649D01*
X809099Y617941D01*
X813434Y617941D01*
X814081Y617768D01*
X814660Y617433D01*
X815133Y616960D01*
X815468Y616381D01*
X815641Y615734D01*
X815641Y605649D01*
X809099Y605649D01*
G37*
%LPD*%
%LPC*%
G36*
X1121799Y474349D02*
X1121799Y474349D01*
X1121799Y486641D01*
X1126134Y486641D01*
X1126781Y486468D01*
X1127360Y486133D01*
X1127833Y485660D01*
X1128168Y485081D01*
X1128341Y484434D01*
X1128341Y474349D01*
X1121799Y474349D01*
G37*
%LPD*%
%LPC*%
G36*
X1126599Y732649D02*
X1126599Y732649D01*
X1126599Y744941D01*
X1130934Y744941D01*
X1131581Y744768D01*
X1132160Y744433D01*
X1132633Y743960D01*
X1132968Y743381D01*
X1133141Y742734D01*
X1133141Y732649D01*
X1126599Y732649D01*
G37*
%LPD*%
%LPC*%
G36*
X93099Y372749D02*
X93099Y372749D01*
X93099Y385041D01*
X97434Y385041D01*
X98081Y384868D01*
X98660Y384533D01*
X99133Y384060D01*
X99468Y383481D01*
X99641Y382834D01*
X99641Y372749D01*
X93099Y372749D01*
G37*
%LPD*%
%LPC*%
G36*
X643999Y592949D02*
X643999Y592949D01*
X643999Y605241D01*
X648334Y605241D01*
X648981Y605068D01*
X649560Y604733D01*
X650033Y604260D01*
X650368Y603681D01*
X650541Y603034D01*
X650541Y592949D01*
X643999Y592949D01*
G37*
%LPD*%
%LPC*%
G36*
X529699Y745349D02*
X529699Y745349D01*
X529699Y757641D01*
X534034Y757641D01*
X534681Y757468D01*
X535260Y757133D01*
X535733Y756660D01*
X536068Y756081D01*
X536241Y755434D01*
X536241Y745349D01*
X529699Y745349D01*
G37*
%LPD*%
%LPC*%
G36*
X846949Y296299D02*
X846949Y296299D01*
X846949Y302841D01*
X857034Y302841D01*
X857681Y302668D01*
X858260Y302333D01*
X858733Y301860D01*
X859068Y301281D01*
X859241Y300634D01*
X859241Y296299D01*
X846949Y296299D01*
G37*
%LPD*%
%LPC*%
G36*
X1159899Y283849D02*
X1159899Y283849D01*
X1159899Y296141D01*
X1164234Y296141D01*
X1164881Y295968D01*
X1165460Y295633D01*
X1165933Y295160D01*
X1166268Y294581D01*
X1166441Y293934D01*
X1166441Y283849D01*
X1159899Y283849D01*
G37*
%LPD*%
%LPC*%
G36*
X893199Y766449D02*
X893199Y766449D01*
X893199Y778741D01*
X897534Y778741D01*
X898181Y778568D01*
X898760Y778233D01*
X899233Y777760D01*
X899568Y777181D01*
X899741Y776534D01*
X899741Y766449D01*
X893199Y766449D01*
G37*
%LPD*%
%LPC*%
G36*
X156599Y258449D02*
X156599Y258449D01*
X156599Y270741D01*
X160934Y270741D01*
X161581Y270568D01*
X162160Y270233D01*
X162633Y269760D01*
X162968Y269181D01*
X163141Y268534D01*
X163141Y258449D01*
X156599Y258449D01*
G37*
%LPD*%
%LPC*%
G36*
X245499Y347349D02*
X245499Y347349D01*
X245499Y359641D01*
X249834Y359641D01*
X250481Y359468D01*
X251060Y359133D01*
X251533Y358660D01*
X251868Y358081D01*
X252041Y357434D01*
X252041Y347349D01*
X245499Y347349D01*
G37*
%LPD*%
%LPC*%
G36*
X1020449Y250299D02*
X1020449Y250299D01*
X1020449Y256841D01*
X1030534Y256841D01*
X1031181Y256668D01*
X1031760Y256333D01*
X1032233Y255860D01*
X1032568Y255281D01*
X1032741Y254634D01*
X1032741Y250299D01*
X1020449Y250299D01*
G37*
%LPD*%
%LPC*%
G36*
X250299Y808849D02*
X250299Y808849D01*
X250299Y821141D01*
X254634Y821141D01*
X255281Y820968D01*
X255860Y820633D01*
X256333Y820160D01*
X256668Y819581D01*
X256841Y818934D01*
X256841Y808849D01*
X250299Y808849D01*
G37*
%LPD*%
%LPC*%
G36*
X791849Y186799D02*
X791849Y186799D01*
X791849Y193341D01*
X801934Y193341D01*
X802581Y193168D01*
X803160Y192833D01*
X803633Y192360D01*
X803968Y191781D01*
X804141Y191134D01*
X804141Y186799D01*
X791849Y186799D01*
G37*
%LPD*%
%LPC*%
G36*
X859559Y956699D02*
X859559Y956699D01*
X859559Y961034D01*
X859732Y961681D01*
X860067Y962260D01*
X860540Y962733D01*
X861119Y963068D01*
X861766Y963241D01*
X871851Y963241D01*
X871851Y956699D01*
X859559Y956699D01*
G37*
%LPD*%
%LPC*%
G36*
X580159Y994799D02*
X580159Y994799D01*
X580159Y999134D01*
X580332Y999781D01*
X580667Y1000360D01*
X581140Y1000833D01*
X581719Y1001168D01*
X582366Y1001341D01*
X592451Y1001341D01*
X592451Y994799D01*
X580159Y994799D01*
G37*
%LPD*%
%LPC*%
G36*
X389659Y296299D02*
X389659Y296299D01*
X389659Y300634D01*
X389832Y301281D01*
X390167Y301860D01*
X390640Y302333D01*
X391219Y302668D01*
X391866Y302841D01*
X401951Y302841D01*
X401951Y296299D01*
X389659Y296299D01*
G37*
%LPD*%
%LPC*%
G36*
X593199Y313051D02*
X593199Y313051D01*
X599741Y313051D01*
X599741Y302966D01*
X599568Y302319D01*
X599233Y301740D01*
X598760Y301267D01*
X598181Y300932D01*
X597534Y300759D01*
X593199Y300759D01*
X593199Y313051D01*
G37*
%LPD*%
%LPC*%
G36*
X351559Y918599D02*
X351559Y918599D01*
X351559Y922934D01*
X351732Y923581D01*
X352067Y924160D01*
X352540Y924633D01*
X353119Y924968D01*
X353766Y925141D01*
X363851Y925141D01*
X363851Y918599D01*
X351559Y918599D01*
G37*
%LPD*%
%LPC*%
G36*
X605899Y871851D02*
X605899Y871851D01*
X612441Y871851D01*
X612441Y861766D01*
X612268Y861119D01*
X611933Y860540D01*
X611460Y860067D01*
X610881Y859732D01*
X610234Y859559D01*
X605899Y859559D01*
X605899Y871851D01*
G37*
%LPD*%
%LPC*%
G36*
X1024659Y448699D02*
X1024659Y448699D01*
X1024659Y453034D01*
X1024832Y453681D01*
X1025167Y454260D01*
X1025640Y454733D01*
X1026219Y455068D01*
X1026866Y455241D01*
X1036951Y455241D01*
X1036951Y448699D01*
X1024659Y448699D01*
G37*
%LPD*%
%LPC*%
G36*
X529699Y744851D02*
X529699Y744851D01*
X536241Y744851D01*
X536241Y734766D01*
X536068Y734119D01*
X535733Y733540D01*
X535260Y733067D01*
X534681Y732732D01*
X534034Y732559D01*
X529699Y732559D01*
X529699Y744851D01*
G37*
%LPD*%
%LPC*%
G36*
X156599Y257951D02*
X156599Y257951D01*
X163141Y257951D01*
X163141Y247866D01*
X162968Y247219D01*
X162633Y246640D01*
X162160Y246167D01*
X161581Y245832D01*
X160934Y245659D01*
X156599Y245659D01*
X156599Y257951D01*
G37*
%LPD*%
%LPC*%
G36*
X1121799Y473851D02*
X1121799Y473851D01*
X1128341Y473851D01*
X1128341Y463766D01*
X1128168Y463119D01*
X1127833Y462540D01*
X1127360Y462067D01*
X1126781Y461732D01*
X1126134Y461559D01*
X1121799Y461559D01*
X1121799Y473851D01*
G37*
%LPD*%
%LPC*%
G36*
X516999Y465451D02*
X516999Y465451D01*
X523541Y465451D01*
X523541Y455366D01*
X523368Y454719D01*
X523033Y454140D01*
X522560Y453667D01*
X521981Y453332D01*
X521334Y453159D01*
X516999Y453159D01*
X516999Y465451D01*
G37*
%LPD*%
%LPC*%
G36*
X1007659Y250299D02*
X1007659Y250299D01*
X1007659Y254634D01*
X1007832Y255281D01*
X1008167Y255860D01*
X1008640Y256333D01*
X1009219Y256668D01*
X1009866Y256841D01*
X1019951Y256841D01*
X1019951Y250299D01*
X1007659Y250299D01*
G37*
%LPD*%
%LPC*%
G36*
X250299Y808351D02*
X250299Y808351D01*
X256841Y808351D01*
X256841Y798266D01*
X256668Y797619D01*
X256333Y797040D01*
X255860Y796567D01*
X255281Y796232D01*
X254634Y796059D01*
X250299Y796059D01*
X250299Y808351D01*
G37*
%LPD*%
%LPC*%
G36*
X207559Y491599D02*
X207559Y491599D01*
X207559Y495934D01*
X207732Y496581D01*
X208067Y497160D01*
X208540Y497633D01*
X209119Y497968D01*
X209766Y498141D01*
X219851Y498141D01*
X219851Y491599D01*
X207559Y491599D01*
G37*
%LPD*%
%LPC*%
G36*
X757959Y410599D02*
X757959Y410599D01*
X757959Y414934D01*
X758132Y415581D01*
X758467Y416160D01*
X758940Y416633D01*
X759519Y416968D01*
X760166Y417141D01*
X770251Y417141D01*
X770251Y410599D01*
X757959Y410599D01*
G37*
%LPD*%
%LPC*%
G36*
X779059Y186799D02*
X779059Y186799D01*
X779059Y191134D01*
X779232Y191781D01*
X779567Y192360D01*
X780040Y192833D01*
X780619Y193168D01*
X781266Y193341D01*
X791351Y193341D01*
X791351Y186799D01*
X779059Y186799D01*
G37*
%LPD*%
%LPC*%
G36*
X1159899Y283351D02*
X1159899Y283351D01*
X1166441Y283351D01*
X1166441Y273266D01*
X1166268Y272619D01*
X1165933Y272040D01*
X1165460Y271567D01*
X1164881Y271232D01*
X1164234Y271059D01*
X1159899Y271059D01*
X1159899Y283351D01*
G37*
%LPD*%
%LPC*%
G36*
X1274199Y384951D02*
X1274199Y384951D01*
X1280741Y384951D01*
X1280741Y374866D01*
X1280568Y374219D01*
X1280233Y373640D01*
X1279760Y373167D01*
X1279181Y372832D01*
X1278534Y372659D01*
X1274199Y372659D01*
X1274199Y384951D01*
G37*
%LPD*%
%LPC*%
G36*
X503959Y181999D02*
X503959Y181999D01*
X503959Y186334D01*
X504132Y186981D01*
X504467Y187560D01*
X504940Y188033D01*
X505519Y188368D01*
X506166Y188541D01*
X516251Y188541D01*
X516251Y181999D01*
X503959Y181999D01*
G37*
%LPD*%
%LPC*%
G36*
X376959Y67699D02*
X376959Y67699D01*
X376959Y72034D01*
X377132Y72681D01*
X377467Y73260D01*
X377940Y73733D01*
X378519Y74068D01*
X379166Y74241D01*
X389251Y74241D01*
X389251Y67699D01*
X376959Y67699D01*
G37*
%LPD*%
%LPC*%
G36*
X834159Y296299D02*
X834159Y296299D01*
X834159Y300634D01*
X834332Y301281D01*
X834667Y301860D01*
X835140Y302333D01*
X835719Y302668D01*
X836366Y302841D01*
X846451Y302841D01*
X846451Y296299D01*
X834159Y296299D01*
G37*
%LPD*%
%LPC*%
G36*
X245499Y346851D02*
X245499Y346851D01*
X252041Y346851D01*
X252041Y336766D01*
X251868Y336119D01*
X251533Y335540D01*
X251060Y335067D01*
X250481Y334732D01*
X249834Y334559D01*
X245499Y334559D01*
X245499Y346851D01*
G37*
%LPD*%
%LPC*%
G36*
X237259Y143899D02*
X237259Y143899D01*
X237259Y148234D01*
X237432Y148881D01*
X237767Y149460D01*
X238240Y149933D01*
X238819Y150268D01*
X239466Y150441D01*
X249551Y150441D01*
X249551Y143899D01*
X237259Y143899D01*
G37*
%LPD*%
%LPC*%
G36*
X893199Y765951D02*
X893199Y765951D01*
X899741Y765951D01*
X899741Y755866D01*
X899568Y755219D01*
X899233Y754640D01*
X898760Y754167D01*
X898181Y753832D01*
X897534Y753659D01*
X893199Y753659D01*
X893199Y765951D01*
G37*
%LPD*%
%LPC*%
G36*
X93099Y372251D02*
X93099Y372251D01*
X99641Y372251D01*
X99641Y362166D01*
X99468Y361519D01*
X99133Y360940D01*
X98660Y360467D01*
X98081Y360132D01*
X97434Y359959D01*
X93099Y359959D01*
X93099Y372251D01*
G37*
%LPD*%
%LPC*%
G36*
X643659Y131199D02*
X643659Y131199D01*
X643659Y135534D01*
X643832Y136181D01*
X644167Y136760D01*
X644640Y137233D01*
X645219Y137568D01*
X645866Y137741D01*
X655951Y137741D01*
X655951Y131199D01*
X643659Y131199D01*
G37*
%LPD*%
%LPC*%
G36*
X809099Y592859D02*
X809099Y592859D01*
X809099Y605151D01*
X815641Y605151D01*
X815641Y595066D01*
X815468Y594419D01*
X815133Y593840D01*
X814660Y593367D01*
X814081Y593032D01*
X813434Y592859D01*
X809099Y592859D01*
G37*
%LPD*%
%LPC*%
G36*
X1075799Y605559D02*
X1075799Y605559D01*
X1075799Y617851D01*
X1082341Y617851D01*
X1082341Y607766D01*
X1082168Y607119D01*
X1081833Y606540D01*
X1081360Y606067D01*
X1080781Y605732D01*
X1080134Y605559D01*
X1075799Y605559D01*
G37*
%LPD*%
%LPC*%
G36*
X1286899Y613959D02*
X1286899Y613959D01*
X1286899Y626251D01*
X1293441Y626251D01*
X1293441Y616166D01*
X1293268Y615519D01*
X1292933Y614940D01*
X1292460Y614467D01*
X1291881Y614132D01*
X1291234Y613959D01*
X1286899Y613959D01*
G37*
%LPD*%
%LPC*%
G36*
X372499Y575859D02*
X372499Y575859D01*
X372499Y588151D01*
X379041Y588151D01*
X379041Y578066D01*
X378868Y577419D01*
X378533Y576840D01*
X378060Y576367D01*
X377481Y576032D01*
X376834Y575859D01*
X372499Y575859D01*
G37*
%LPD*%
%LPC*%
G36*
X1109259Y85199D02*
X1109259Y85199D01*
X1109259Y89534D01*
X1109432Y90181D01*
X1109767Y90760D01*
X1110240Y91233D01*
X1110819Y91568D01*
X1111466Y91741D01*
X1121551Y91741D01*
X1121551Y85199D01*
X1109259Y85199D01*
G37*
%LPD*%
%LPC*%
G36*
X1126599Y719859D02*
X1126599Y719859D01*
X1126599Y732151D01*
X1133141Y732151D01*
X1133141Y722066D01*
X1132968Y721419D01*
X1132633Y720840D01*
X1132160Y720367D01*
X1131581Y720032D01*
X1130934Y719859D01*
X1126599Y719859D01*
G37*
%LPD*%
%LPC*%
G36*
X148699Y707159D02*
X148699Y707159D01*
X148699Y719451D01*
X155241Y719451D01*
X155241Y709366D01*
X155068Y708719D01*
X154733Y708140D01*
X154260Y707667D01*
X153681Y707332D01*
X153034Y707159D01*
X148699Y707159D01*
G37*
%LPD*%
%LPC*%
G36*
X1236099Y702859D02*
X1236099Y702859D01*
X1236099Y715151D01*
X1242641Y715151D01*
X1242641Y705066D01*
X1242468Y704419D01*
X1242133Y703840D01*
X1241660Y703367D01*
X1241081Y703032D01*
X1240434Y702859D01*
X1236099Y702859D01*
G37*
%LPD*%
%LPC*%
G36*
X334399Y715559D02*
X334399Y715559D01*
X334399Y727851D01*
X340941Y727851D01*
X340941Y717766D01*
X340768Y717119D01*
X340433Y716540D01*
X339960Y716067D01*
X339381Y715732D01*
X338734Y715559D01*
X334399Y715559D01*
G37*
%LPD*%
%LPC*%
G36*
X758299Y707159D02*
X758299Y707159D01*
X758299Y719451D01*
X764841Y719451D01*
X764841Y709366D01*
X764668Y708719D01*
X764333Y708140D01*
X763860Y707667D01*
X763281Y707332D01*
X762634Y707159D01*
X758299Y707159D01*
G37*
%LPD*%
%LPC*%
G36*
X1202459Y842399D02*
X1202459Y842399D01*
X1202459Y846734D01*
X1202632Y847381D01*
X1202967Y847960D01*
X1203440Y848433D01*
X1204019Y848768D01*
X1204666Y848941D01*
X1214751Y848941D01*
X1214751Y842399D01*
X1202459Y842399D01*
G37*
%LPD*%
%LPC*%
G36*
X1062759Y943999D02*
X1062759Y943999D01*
X1062759Y948334D01*
X1062932Y948981D01*
X1063267Y949560D01*
X1063740Y950033D01*
X1064319Y950368D01*
X1064966Y950541D01*
X1075051Y950541D01*
X1075051Y943999D01*
X1062759Y943999D01*
G37*
%LPD*%
%LPC*%
G36*
X867799Y550459D02*
X867799Y550459D01*
X867799Y562751D01*
X874341Y562751D01*
X874341Y552666D01*
X874168Y552019D01*
X873833Y551440D01*
X873360Y550967D01*
X872781Y550632D01*
X872134Y550459D01*
X867799Y550459D01*
G37*
%LPD*%
%LPC*%
G36*
X643999Y580159D02*
X643999Y580159D01*
X643999Y592451D01*
X650541Y592451D01*
X650541Y582366D01*
X650368Y581719D01*
X650033Y581140D01*
X649560Y580667D01*
X648981Y580332D01*
X648334Y580159D01*
X643999Y580159D01*
G37*
%LPD*%
%LPC*%
G36*
X1119559Y732649D02*
X1119559Y732649D01*
X1119559Y742734D01*
X1119732Y743381D01*
X1120067Y743960D01*
X1120540Y744433D01*
X1121119Y744768D01*
X1121766Y744941D01*
X1126101Y744941D01*
X1126101Y732649D01*
X1119559Y732649D01*
G37*
%LPD*%
%LPC*%
G36*
X327359Y728349D02*
X327359Y728349D01*
X327359Y738434D01*
X327532Y739081D01*
X327867Y739660D01*
X328340Y740133D01*
X328919Y740468D01*
X329566Y740641D01*
X333901Y740641D01*
X333901Y728349D01*
X327359Y728349D01*
G37*
%LPD*%
%LPC*%
G36*
X751259Y719949D02*
X751259Y719949D01*
X751259Y730034D01*
X751432Y730681D01*
X751767Y731260D01*
X752240Y731733D01*
X752819Y732068D01*
X753466Y732241D01*
X757801Y732241D01*
X757801Y719949D01*
X751259Y719949D01*
G37*
%LPD*%
%LPC*%
G36*
X141659Y719949D02*
X141659Y719949D01*
X141659Y730034D01*
X141832Y730681D01*
X142167Y731260D01*
X142640Y731733D01*
X143219Y732068D01*
X143866Y732241D01*
X148201Y732241D01*
X148201Y719949D01*
X141659Y719949D01*
G37*
%LPD*%
%LPC*%
G36*
X1229059Y715649D02*
X1229059Y715649D01*
X1229059Y725734D01*
X1229232Y726381D01*
X1229567Y726960D01*
X1230040Y727433D01*
X1230619Y727768D01*
X1231266Y727941D01*
X1235601Y727941D01*
X1235601Y715649D01*
X1229059Y715649D01*
G37*
%LPD*%
%LPC*%
G36*
X1020449Y243259D02*
X1020449Y243259D01*
X1020449Y249801D01*
X1032741Y249801D01*
X1032741Y245466D01*
X1032568Y244819D01*
X1032233Y244240D01*
X1031760Y243767D01*
X1031181Y243432D01*
X1030534Y243259D01*
X1020449Y243259D01*
G37*
%LPD*%
%LPC*%
G36*
X1279859Y626749D02*
X1279859Y626749D01*
X1279859Y636834D01*
X1280032Y637481D01*
X1280367Y638060D01*
X1280840Y638533D01*
X1281419Y638868D01*
X1282066Y639041D01*
X1286401Y639041D01*
X1286401Y626749D01*
X1279859Y626749D01*
G37*
%LPD*%
%LPC*%
G36*
X1068759Y618349D02*
X1068759Y618349D01*
X1068759Y628434D01*
X1068932Y629081D01*
X1069267Y629660D01*
X1069740Y630133D01*
X1070319Y630468D01*
X1070966Y630641D01*
X1075301Y630641D01*
X1075301Y618349D01*
X1068759Y618349D01*
G37*
%LPD*%
%LPC*%
G36*
X802059Y605649D02*
X802059Y605649D01*
X802059Y615734D01*
X802232Y616381D01*
X802567Y616960D01*
X803040Y617433D01*
X803619Y617768D01*
X804266Y617941D01*
X808601Y617941D01*
X808601Y605649D01*
X802059Y605649D01*
G37*
%LPD*%
%LPC*%
G36*
X636959Y592949D02*
X636959Y592949D01*
X636959Y603034D01*
X637132Y603681D01*
X637467Y604260D01*
X637940Y604733D01*
X638519Y605068D01*
X639166Y605241D01*
X643501Y605241D01*
X643501Y592949D01*
X636959Y592949D01*
G37*
%LPD*%
%LPC*%
G36*
X365459Y588649D02*
X365459Y588649D01*
X365459Y598734D01*
X365632Y599381D01*
X365967Y599960D01*
X366440Y600433D01*
X367019Y600768D01*
X367666Y600941D01*
X372001Y600941D01*
X372001Y588649D01*
X365459Y588649D01*
G37*
%LPD*%
%LPC*%
G36*
X860759Y563249D02*
X860759Y563249D01*
X860759Y573334D01*
X860932Y573981D01*
X861267Y574560D01*
X861740Y575033D01*
X862319Y575368D01*
X862966Y575541D01*
X867301Y575541D01*
X867301Y563249D01*
X860759Y563249D01*
G37*
%LPD*%
%LPC*%
G36*
X1267159Y385449D02*
X1267159Y385449D01*
X1267159Y395534D01*
X1267332Y396181D01*
X1267667Y396760D01*
X1268140Y397233D01*
X1268719Y397568D01*
X1269366Y397741D01*
X1273701Y397741D01*
X1273701Y385449D01*
X1267159Y385449D01*
G37*
%LPD*%
%LPC*%
G36*
X791849Y179759D02*
X791849Y179759D01*
X791849Y186301D01*
X804141Y186301D01*
X804141Y181966D01*
X803968Y181319D01*
X803633Y180740D01*
X803160Y180267D01*
X802581Y179932D01*
X801934Y179759D01*
X791849Y179759D01*
G37*
%LPD*%
%LPC*%
G36*
X516749Y174959D02*
X516749Y174959D01*
X516749Y181501D01*
X529041Y181501D01*
X529041Y177166D01*
X528868Y176519D01*
X528533Y175940D01*
X528060Y175467D01*
X527481Y175132D01*
X526834Y174959D01*
X516749Y174959D01*
G37*
%LPD*%
%LPC*%
G36*
X220349Y484559D02*
X220349Y484559D01*
X220349Y491101D01*
X232641Y491101D01*
X232641Y486766D01*
X232468Y486119D01*
X232133Y485540D01*
X231660Y485067D01*
X231081Y484732D01*
X230434Y484559D01*
X220349Y484559D01*
G37*
%LPD*%
%LPC*%
G36*
X1114759Y474349D02*
X1114759Y474349D01*
X1114759Y484434D01*
X1114932Y485081D01*
X1115267Y485660D01*
X1115740Y486133D01*
X1116319Y486468D01*
X1116966Y486641D01*
X1121301Y486641D01*
X1121301Y474349D01*
X1114759Y474349D01*
G37*
%LPD*%
%LPC*%
G36*
X509959Y465949D02*
X509959Y465949D01*
X509959Y476034D01*
X510132Y476681D01*
X510467Y477260D01*
X510940Y477733D01*
X511519Y478068D01*
X512166Y478241D01*
X516501Y478241D01*
X516501Y465949D01*
X509959Y465949D01*
G37*
%LPD*%
%LPC*%
G36*
X1037449Y441659D02*
X1037449Y441659D01*
X1037449Y448201D01*
X1049741Y448201D01*
X1049741Y443866D01*
X1049568Y443219D01*
X1049233Y442640D01*
X1048760Y442167D01*
X1048181Y441832D01*
X1047534Y441659D01*
X1037449Y441659D01*
G37*
%LPD*%
%LPC*%
G36*
X770749Y403559D02*
X770749Y403559D01*
X770749Y410101D01*
X783041Y410101D01*
X783041Y405766D01*
X782868Y405119D01*
X782533Y404540D01*
X782060Y404067D01*
X781481Y403732D01*
X780834Y403559D01*
X770749Y403559D01*
G37*
%LPD*%
%LPC*%
G36*
X86059Y372749D02*
X86059Y372749D01*
X86059Y382834D01*
X86232Y383481D01*
X86567Y384060D01*
X87040Y384533D01*
X87619Y384868D01*
X88266Y385041D01*
X92601Y385041D01*
X92601Y372749D01*
X86059Y372749D01*
G37*
%LPD*%
%LPC*%
G36*
X250049Y136859D02*
X250049Y136859D01*
X250049Y143401D01*
X262341Y143401D01*
X262341Y139066D01*
X262168Y138419D01*
X261833Y137840D01*
X261360Y137367D01*
X260781Y137032D01*
X260134Y136859D01*
X250049Y136859D01*
G37*
%LPD*%
%LPC*%
G36*
X238459Y347349D02*
X238459Y347349D01*
X238459Y357434D01*
X238632Y358081D01*
X238967Y358660D01*
X239440Y359133D01*
X240019Y359468D01*
X240666Y359641D01*
X245001Y359641D01*
X245001Y347349D01*
X238459Y347349D01*
G37*
%LPD*%
%LPC*%
G36*
X586159Y313549D02*
X586159Y313549D01*
X586159Y323634D01*
X586332Y324281D01*
X586667Y324860D01*
X587140Y325333D01*
X587719Y325668D01*
X588366Y325841D01*
X592701Y325841D01*
X592701Y313549D01*
X586159Y313549D01*
G37*
%LPD*%
%LPC*%
G36*
X656449Y124159D02*
X656449Y124159D01*
X656449Y130701D01*
X668741Y130701D01*
X668741Y126366D01*
X668568Y125719D01*
X668233Y125140D01*
X667760Y124667D01*
X667181Y124332D01*
X666534Y124159D01*
X656449Y124159D01*
G37*
%LPD*%
%LPC*%
G36*
X592949Y987759D02*
X592949Y987759D01*
X592949Y994301D01*
X605241Y994301D01*
X605241Y989966D01*
X605068Y989319D01*
X604733Y988740D01*
X604260Y988267D01*
X603681Y987932D01*
X603034Y987759D01*
X592949Y987759D01*
G37*
%LPD*%
%LPC*%
G36*
X872349Y949659D02*
X872349Y949659D01*
X872349Y956201D01*
X884641Y956201D01*
X884641Y951866D01*
X884468Y951219D01*
X884133Y950640D01*
X883660Y950167D01*
X883081Y949832D01*
X882434Y949659D01*
X872349Y949659D01*
G37*
%LPD*%
%LPC*%
G36*
X1075549Y936959D02*
X1075549Y936959D01*
X1075549Y943501D01*
X1087841Y943501D01*
X1087841Y939166D01*
X1087668Y938519D01*
X1087333Y937940D01*
X1086860Y937467D01*
X1086281Y937132D01*
X1085634Y936959D01*
X1075549Y936959D01*
G37*
%LPD*%
%LPC*%
G36*
X1152859Y283849D02*
X1152859Y283849D01*
X1152859Y293934D01*
X1153032Y294581D01*
X1153367Y295160D01*
X1153840Y295633D01*
X1154419Y295968D01*
X1155066Y296141D01*
X1159401Y296141D01*
X1159401Y283849D01*
X1152859Y283849D01*
G37*
%LPD*%
%LPC*%
G36*
X364349Y911559D02*
X364349Y911559D01*
X364349Y918101D01*
X376641Y918101D01*
X376641Y913766D01*
X376468Y913119D01*
X376133Y912540D01*
X375660Y912067D01*
X375081Y911732D01*
X374434Y911559D01*
X364349Y911559D01*
G37*
%LPD*%
%LPC*%
G36*
X598859Y872349D02*
X598859Y872349D01*
X598859Y882434D01*
X599032Y883081D01*
X599367Y883660D01*
X599840Y884133D01*
X600419Y884468D01*
X601066Y884641D01*
X605401Y884641D01*
X605401Y872349D01*
X598859Y872349D01*
G37*
%LPD*%
%LPC*%
G36*
X1215249Y835359D02*
X1215249Y835359D01*
X1215249Y841901D01*
X1227541Y841901D01*
X1227541Y837566D01*
X1227368Y836919D01*
X1227033Y836340D01*
X1226560Y835867D01*
X1225981Y835532D01*
X1225334Y835359D01*
X1215249Y835359D01*
G37*
%LPD*%
%LPC*%
G36*
X846949Y289259D02*
X846949Y289259D01*
X846949Y295801D01*
X859241Y295801D01*
X859241Y291466D01*
X859068Y290819D01*
X858733Y290240D01*
X858260Y289767D01*
X857681Y289432D01*
X857034Y289259D01*
X846949Y289259D01*
G37*
%LPD*%
%LPC*%
G36*
X1122049Y78159D02*
X1122049Y78159D01*
X1122049Y84701D01*
X1134341Y84701D01*
X1134341Y80366D01*
X1134168Y79719D01*
X1133833Y79140D01*
X1133360Y78667D01*
X1132781Y78332D01*
X1132134Y78159D01*
X1122049Y78159D01*
G37*
%LPD*%
%LPC*%
G36*
X402449Y289259D02*
X402449Y289259D01*
X402449Y295801D01*
X414741Y295801D01*
X414741Y291466D01*
X414568Y290819D01*
X414233Y290240D01*
X413760Y289767D01*
X413181Y289432D01*
X412534Y289259D01*
X402449Y289259D01*
G37*
%LPD*%
%LPC*%
G36*
X243259Y808849D02*
X243259Y808849D01*
X243259Y818934D01*
X243432Y819581D01*
X243767Y820160D01*
X244240Y820633D01*
X244819Y820968D01*
X245466Y821141D01*
X249801Y821141D01*
X249801Y808849D01*
X243259Y808849D01*
G37*
%LPD*%
%LPC*%
G36*
X886159Y766449D02*
X886159Y766449D01*
X886159Y776534D01*
X886332Y777181D01*
X886667Y777760D01*
X887140Y778233D01*
X887719Y778568D01*
X888366Y778741D01*
X892701Y778741D01*
X892701Y766449D01*
X886159Y766449D01*
G37*
%LPD*%
%LPC*%
G36*
X149559Y258449D02*
X149559Y258449D01*
X149559Y268534D01*
X149732Y269181D01*
X150067Y269760D01*
X150540Y270233D01*
X151119Y270568D01*
X151766Y270741D01*
X156101Y270741D01*
X156101Y258449D01*
X149559Y258449D01*
G37*
%LPD*%
%LPC*%
G36*
X522659Y745349D02*
X522659Y745349D01*
X522659Y755434D01*
X522832Y756081D01*
X523167Y756660D01*
X523640Y757133D01*
X524219Y757468D01*
X524866Y757641D01*
X529201Y757641D01*
X529201Y745349D01*
X522659Y745349D01*
G37*
%LPD*%
%LPC*%
G36*
X389749Y60659D02*
X389749Y60659D01*
X389749Y67201D01*
X402041Y67201D01*
X402041Y62866D01*
X401868Y62219D01*
X401533Y61640D01*
X401060Y61167D01*
X400481Y60832D01*
X399834Y60659D01*
X389749Y60659D01*
G37*
%LPD*%
%LPC*%
G36*
X1116966Y461559D02*
X1116966Y461559D01*
X1116319Y461732D01*
X1115740Y462067D01*
X1115267Y462540D01*
X1114932Y463119D01*
X1114759Y463766D01*
X1114759Y473851D01*
X1121301Y473851D01*
X1121301Y461559D01*
X1116966Y461559D01*
G37*
%LPD*%
%LPC*%
G36*
X861766Y949659D02*
X861766Y949659D01*
X861119Y949832D01*
X860540Y950167D01*
X860067Y950640D01*
X859732Y951219D01*
X859559Y951866D01*
X859559Y956201D01*
X871851Y956201D01*
X871851Y949659D01*
X861766Y949659D01*
G37*
%LPD*%
%LPC*%
G36*
X353766Y911559D02*
X353766Y911559D01*
X353119Y911732D01*
X352540Y912067D01*
X352067Y912540D01*
X351732Y913119D01*
X351559Y913766D01*
X351559Y918101D01*
X363851Y918101D01*
X363851Y911559D01*
X353766Y911559D01*
G37*
%LPD*%
%LPC*%
G36*
X1064966Y936959D02*
X1064966Y936959D01*
X1064319Y937132D01*
X1063740Y937467D01*
X1063267Y937940D01*
X1062932Y938519D01*
X1062759Y939166D01*
X1062759Y943501D01*
X1075051Y943501D01*
X1075051Y936959D01*
X1064966Y936959D01*
G37*
%LPD*%
%LPC*%
G36*
X760166Y403559D02*
X760166Y403559D01*
X759519Y403732D01*
X758940Y404067D01*
X758467Y404540D01*
X758132Y405119D01*
X757959Y405766D01*
X757959Y410101D01*
X770251Y410101D01*
X770251Y403559D01*
X760166Y403559D01*
G37*
%LPD*%
%LPC*%
G36*
X639166Y580159D02*
X639166Y580159D01*
X638519Y580332D01*
X637940Y580667D01*
X637467Y581140D01*
X637132Y581719D01*
X636959Y582366D01*
X636959Y592451D01*
X643501Y592451D01*
X643501Y580159D01*
X639166Y580159D01*
G37*
%LPD*%
%LPC*%
G36*
X209766Y484559D02*
X209766Y484559D01*
X209119Y484732D01*
X208540Y485067D01*
X208067Y485540D01*
X207732Y486119D01*
X207559Y486766D01*
X207559Y491101D01*
X219851Y491101D01*
X219851Y484559D01*
X209766Y484559D01*
G37*
%LPD*%
%LPC*%
G36*
X588366Y300759D02*
X588366Y300759D01*
X587719Y300932D01*
X587140Y301267D01*
X586667Y301740D01*
X586332Y302319D01*
X586159Y302966D01*
X586159Y313051D01*
X592701Y313051D01*
X592701Y300759D01*
X588366Y300759D01*
G37*
%LPD*%
%LPC*%
G36*
X781266Y179759D02*
X781266Y179759D01*
X780619Y179932D01*
X780040Y180267D01*
X779567Y180740D01*
X779232Y181319D01*
X779059Y181966D01*
X779059Y186301D01*
X791351Y186301D01*
X791351Y179759D01*
X781266Y179759D01*
G37*
%LPD*%
%LPC*%
G36*
X804266Y592859D02*
X804266Y592859D01*
X803619Y593032D01*
X803040Y593367D01*
X802567Y593840D01*
X802232Y594419D01*
X802059Y595066D01*
X802059Y605151D01*
X808601Y605151D01*
X808601Y592859D01*
X804266Y592859D01*
G37*
%LPD*%
%LPC*%
G36*
X1155066Y271059D02*
X1155066Y271059D01*
X1154419Y271232D01*
X1153840Y271567D01*
X1153367Y272040D01*
X1153032Y272619D01*
X1152859Y273266D01*
X1152859Y283351D01*
X1159401Y283351D01*
X1159401Y271059D01*
X1155066Y271059D01*
G37*
%LPD*%
%LPC*%
G36*
X1121766Y719859D02*
X1121766Y719859D01*
X1121119Y720032D01*
X1120540Y720367D01*
X1120067Y720840D01*
X1119732Y721419D01*
X1119559Y722066D01*
X1119559Y732151D01*
X1126101Y732151D01*
X1126101Y719859D01*
X1121766Y719859D01*
G37*
%LPD*%
%LPC*%
G36*
X379166Y60659D02*
X379166Y60659D01*
X378519Y60832D01*
X377940Y61167D01*
X377467Y61640D01*
X377132Y62219D01*
X376959Y62866D01*
X376959Y67201D01*
X389251Y67201D01*
X389251Y60659D01*
X379166Y60659D01*
G37*
%LPD*%
%LPC*%
G36*
X601066Y859559D02*
X601066Y859559D01*
X600419Y859732D01*
X599840Y860067D01*
X599367Y860540D01*
X599032Y861119D01*
X598859Y861766D01*
X598859Y871851D01*
X605401Y871851D01*
X605401Y859559D01*
X601066Y859559D01*
G37*
%LPD*%
%LPC*%
G36*
X512166Y453159D02*
X512166Y453159D01*
X511519Y453332D01*
X510940Y453667D01*
X510467Y454140D01*
X510132Y454719D01*
X509959Y455366D01*
X509959Y465451D01*
X516501Y465451D01*
X516501Y453159D01*
X512166Y453159D01*
G37*
%LPD*%
%LPC*%
G36*
X391866Y289259D02*
X391866Y289259D01*
X391219Y289432D01*
X390640Y289767D01*
X390167Y290240D01*
X389832Y290819D01*
X389659Y291466D01*
X389659Y295801D01*
X401951Y295801D01*
X401951Y289259D01*
X391866Y289259D01*
G37*
%LPD*%
%LPC*%
G36*
X836366Y289259D02*
X836366Y289259D01*
X835719Y289432D01*
X835140Y289767D01*
X834667Y290240D01*
X834332Y290819D01*
X834159Y291466D01*
X834159Y295801D01*
X846451Y295801D01*
X846451Y289259D01*
X836366Y289259D01*
G37*
%LPD*%
%LPC*%
G36*
X1070966Y605559D02*
X1070966Y605559D01*
X1070319Y605732D01*
X1069740Y606067D01*
X1069267Y606540D01*
X1068932Y607119D01*
X1068759Y607766D01*
X1068759Y617851D01*
X1075301Y617851D01*
X1075301Y605559D01*
X1070966Y605559D01*
G37*
%LPD*%
%LPC*%
G36*
X524866Y732559D02*
X524866Y732559D01*
X524219Y732732D01*
X523640Y733067D01*
X523167Y733540D01*
X522832Y734119D01*
X522659Y734766D01*
X522659Y744851D01*
X529201Y744851D01*
X529201Y732559D01*
X524866Y732559D01*
G37*
%LPD*%
%LPC*%
G36*
X1269366Y372659D02*
X1269366Y372659D01*
X1268719Y372832D01*
X1268140Y373167D01*
X1267667Y373640D01*
X1267332Y374219D01*
X1267159Y374866D01*
X1267159Y384951D01*
X1273701Y384951D01*
X1273701Y372659D01*
X1269366Y372659D01*
G37*
%LPD*%
%LPC*%
G36*
X239466Y136859D02*
X239466Y136859D01*
X238819Y137032D01*
X238240Y137367D01*
X237767Y137840D01*
X237432Y138419D01*
X237259Y139066D01*
X237259Y143401D01*
X249551Y143401D01*
X249551Y136859D01*
X239466Y136859D01*
G37*
%LPD*%
%LPC*%
G36*
X1282066Y613959D02*
X1282066Y613959D01*
X1281419Y614132D01*
X1280840Y614467D01*
X1280367Y614940D01*
X1280032Y615519D01*
X1279859Y616166D01*
X1279859Y626251D01*
X1286401Y626251D01*
X1286401Y613959D01*
X1282066Y613959D01*
G37*
%LPD*%
%LPC*%
G36*
X1231266Y702859D02*
X1231266Y702859D01*
X1230619Y703032D01*
X1230040Y703367D01*
X1229567Y703840D01*
X1229232Y704419D01*
X1229059Y705066D01*
X1229059Y715151D01*
X1235601Y715151D01*
X1235601Y702859D01*
X1231266Y702859D01*
G37*
%LPD*%
%LPC*%
G36*
X888366Y753659D02*
X888366Y753659D01*
X887719Y753832D01*
X887140Y754167D01*
X886667Y754640D01*
X886332Y755219D01*
X886159Y755866D01*
X886159Y765951D01*
X892701Y765951D01*
X892701Y753659D01*
X888366Y753659D01*
G37*
%LPD*%
%LPC*%
G36*
X88266Y359959D02*
X88266Y359959D01*
X87619Y360132D01*
X87040Y360467D01*
X86567Y360940D01*
X86232Y361519D01*
X86059Y362166D01*
X86059Y372251D01*
X92601Y372251D01*
X92601Y359959D01*
X88266Y359959D01*
G37*
%LPD*%
%LPC*%
G36*
X151766Y245659D02*
X151766Y245659D01*
X151119Y245832D01*
X150540Y246167D01*
X150067Y246640D01*
X149732Y247219D01*
X149559Y247866D01*
X149559Y257951D01*
X156101Y257951D01*
X156101Y245659D01*
X151766Y245659D01*
G37*
%LPD*%
%LPC*%
G36*
X143866Y707159D02*
X143866Y707159D01*
X143219Y707332D01*
X142640Y707667D01*
X142167Y708140D01*
X141832Y708719D01*
X141659Y709366D01*
X141659Y719451D01*
X148201Y719451D01*
X148201Y707159D01*
X143866Y707159D01*
G37*
%LPD*%
%LPC*%
G36*
X1111466Y78159D02*
X1111466Y78159D01*
X1110819Y78332D01*
X1110240Y78667D01*
X1109767Y79140D01*
X1109432Y79719D01*
X1109259Y80366D01*
X1109259Y84701D01*
X1121551Y84701D01*
X1121551Y78159D01*
X1111466Y78159D01*
G37*
%LPD*%
%LPC*%
G36*
X862966Y550459D02*
X862966Y550459D01*
X862319Y550632D01*
X861740Y550967D01*
X861267Y551440D01*
X860932Y552019D01*
X860759Y552666D01*
X860759Y562751D01*
X867301Y562751D01*
X867301Y550459D01*
X862966Y550459D01*
G37*
%LPD*%
%LPC*%
G36*
X1026866Y441659D02*
X1026866Y441659D01*
X1026219Y441832D01*
X1025640Y442167D01*
X1025167Y442640D01*
X1024832Y443219D01*
X1024659Y443866D01*
X1024659Y448201D01*
X1036951Y448201D01*
X1036951Y441659D01*
X1026866Y441659D01*
G37*
%LPD*%
%LPC*%
G36*
X245466Y796059D02*
X245466Y796059D01*
X244819Y796232D01*
X244240Y796567D01*
X243767Y797040D01*
X243432Y797619D01*
X243259Y798266D01*
X243259Y808351D01*
X249801Y808351D01*
X249801Y796059D01*
X245466Y796059D01*
G37*
%LPD*%
%LPC*%
G36*
X753466Y707159D02*
X753466Y707159D01*
X752819Y707332D01*
X752240Y707667D01*
X751767Y708140D01*
X751432Y708719D01*
X751259Y709366D01*
X751259Y719451D01*
X757801Y719451D01*
X757801Y707159D01*
X753466Y707159D01*
G37*
%LPD*%
%LPC*%
G36*
X1009866Y243259D02*
X1009866Y243259D01*
X1009219Y243432D01*
X1008640Y243767D01*
X1008167Y244240D01*
X1007832Y244819D01*
X1007659Y245466D01*
X1007659Y249801D01*
X1019951Y249801D01*
X1019951Y243259D01*
X1009866Y243259D01*
G37*
%LPD*%
%LPC*%
G36*
X367666Y575859D02*
X367666Y575859D01*
X367019Y576032D01*
X366440Y576367D01*
X365967Y576840D01*
X365632Y577419D01*
X365459Y578066D01*
X365459Y588151D01*
X372001Y588151D01*
X372001Y575859D01*
X367666Y575859D01*
G37*
%LPD*%
%LPC*%
G36*
X240666Y334559D02*
X240666Y334559D01*
X240019Y334732D01*
X239440Y335067D01*
X238967Y335540D01*
X238632Y336119D01*
X238459Y336766D01*
X238459Y346851D01*
X245001Y346851D01*
X245001Y334559D01*
X240666Y334559D01*
G37*
%LPD*%
%LPC*%
G36*
X329566Y715559D02*
X329566Y715559D01*
X328919Y715732D01*
X328340Y716067D01*
X327867Y716540D01*
X327532Y717119D01*
X327359Y717766D01*
X327359Y727851D01*
X333901Y727851D01*
X333901Y715559D01*
X329566Y715559D01*
G37*
%LPD*%
%LPC*%
G36*
X1204666Y835359D02*
X1204666Y835359D01*
X1204019Y835532D01*
X1203440Y835867D01*
X1202967Y836340D01*
X1202632Y836919D01*
X1202459Y837566D01*
X1202459Y841901D01*
X1214751Y841901D01*
X1214751Y835359D01*
X1204666Y835359D01*
G37*
%LPD*%
%LPC*%
G36*
X582366Y987759D02*
X582366Y987759D01*
X581719Y987932D01*
X581140Y988267D01*
X580667Y988740D01*
X580332Y989319D01*
X580159Y989966D01*
X580159Y994301D01*
X592451Y994301D01*
X592451Y987759D01*
X582366Y987759D01*
G37*
%LPD*%
%LPC*%
G36*
X506166Y174959D02*
X506166Y174959D01*
X505519Y175132D01*
X504940Y175467D01*
X504467Y175940D01*
X504132Y176519D01*
X503959Y177166D01*
X503959Y181501D01*
X516251Y181501D01*
X516251Y174959D01*
X506166Y174959D01*
G37*
%LPD*%
%LPC*%
G36*
X645866Y124159D02*
X645866Y124159D01*
X645219Y124332D01*
X644640Y124667D01*
X644167Y125140D01*
X643832Y125719D01*
X643659Y126366D01*
X643659Y130701D01*
X655951Y130701D01*
X655951Y124159D01*
X645866Y124159D01*
G37*
%LPD*%
%LPC*%
G36*
X916949Y139949D02*
X916949Y139949D01*
X916949Y148991D01*
X920034Y148991D01*
X920681Y148818D01*
X921260Y148483D01*
X921733Y148010D01*
X922068Y147431D01*
X922241Y146784D01*
X922241Y139949D01*
X916949Y139949D01*
G37*
%LPD*%
%LPC*%
G36*
X916949Y130409D02*
X916949Y130409D01*
X916949Y139451D01*
X922241Y139451D01*
X922241Y132616D01*
X922068Y131969D01*
X921733Y131390D01*
X921260Y130917D01*
X920681Y130582D01*
X920034Y130409D01*
X916949Y130409D01*
G37*
%LPD*%
%LPC*%
G36*
X835659Y74929D02*
X835659Y74929D01*
X835659Y74931D01*
X835661Y74931D01*
X835661Y74929D01*
X835659Y74929D01*
G37*
%LPD*%
%LPC*%
G36*
X808849Y605399D02*
X808849Y605399D01*
X808849Y605401D01*
X808851Y605401D01*
X808851Y605399D01*
X808849Y605399D01*
G37*
%LPD*%
%LPC*%
G36*
X516749Y465699D02*
X516749Y465699D01*
X516749Y465701D01*
X516751Y465701D01*
X516751Y465699D01*
X516749Y465699D01*
G37*
%LPD*%
%LPC*%
G36*
X1159649Y283599D02*
X1159649Y283599D01*
X1159649Y283601D01*
X1159651Y283601D01*
X1159651Y283599D01*
X1159649Y283599D01*
G37*
%LPD*%
%LPC*%
G36*
X1075549Y618099D02*
X1075549Y618099D01*
X1075549Y618101D01*
X1075551Y618101D01*
X1075551Y618099D01*
X1075549Y618099D01*
G37*
%LPD*%
%LPC*%
G36*
X1075299Y943749D02*
X1075299Y943749D01*
X1075299Y943751D01*
X1075301Y943751D01*
X1075301Y943749D01*
X1075299Y943749D01*
G37*
%LPD*%
%LPC*%
G36*
X1235849Y715399D02*
X1235849Y715399D01*
X1235849Y715401D01*
X1235851Y715401D01*
X1235851Y715399D01*
X1235849Y715399D01*
G37*
%LPD*%
%LPC*%
G36*
X156349Y258199D02*
X156349Y258199D01*
X156349Y258201D01*
X156351Y258201D01*
X156351Y258199D01*
X156349Y258199D01*
G37*
%LPD*%
%LPC*%
G36*
X1037199Y448449D02*
X1037199Y448449D01*
X1037199Y448451D01*
X1037201Y448451D01*
X1037201Y448449D01*
X1037199Y448449D01*
G37*
%LPD*%
%LPC*%
G36*
X1020199Y250049D02*
X1020199Y250049D01*
X1020199Y250051D01*
X1020201Y250051D01*
X1020201Y250049D01*
X1020199Y250049D01*
G37*
%LPD*%
%LPC*%
G36*
X148449Y719699D02*
X148449Y719699D01*
X148449Y719701D01*
X148451Y719701D01*
X148451Y719699D01*
X148449Y719699D01*
G37*
%LPD*%
%LPC*%
G36*
X758049Y719699D02*
X758049Y719699D01*
X758049Y719701D01*
X758051Y719701D01*
X758051Y719699D01*
X758049Y719699D01*
G37*
%LPD*%
%LPC*%
G36*
X334149Y728099D02*
X334149Y728099D01*
X334149Y728101D01*
X334151Y728101D01*
X334151Y728099D01*
X334149Y728099D01*
G37*
%LPD*%
%LPC*%
G36*
X770499Y410349D02*
X770499Y410349D01*
X770499Y410351D01*
X770501Y410351D01*
X770501Y410349D01*
X770499Y410349D01*
G37*
%LPD*%
%LPC*%
G36*
X867549Y562999D02*
X867549Y562999D01*
X867549Y563001D01*
X867551Y563001D01*
X867551Y562999D01*
X867549Y562999D01*
G37*
%LPD*%
%LPC*%
G36*
X791599Y186549D02*
X791599Y186549D01*
X791599Y186551D01*
X791601Y186551D01*
X791601Y186549D01*
X791599Y186549D01*
G37*
%LPD*%
%LPC*%
G36*
X1286649Y626499D02*
X1286649Y626499D01*
X1286649Y626501D01*
X1286651Y626501D01*
X1286651Y626499D01*
X1286649Y626499D01*
G37*
%LPD*%
%LPC*%
G36*
X92849Y372499D02*
X92849Y372499D01*
X92849Y372501D01*
X92851Y372501D01*
X92851Y372499D01*
X92849Y372499D01*
G37*
%LPD*%
%LPC*%
G36*
X656199Y130949D02*
X656199Y130949D01*
X656199Y130951D01*
X656201Y130951D01*
X656201Y130949D01*
X656199Y130949D01*
G37*
%LPD*%
%LPC*%
G36*
X872099Y956449D02*
X872099Y956449D01*
X872099Y956451D01*
X872101Y956451D01*
X872101Y956449D01*
X872099Y956449D01*
G37*
%LPD*%
%LPC*%
G36*
X1273949Y385199D02*
X1273949Y385199D01*
X1273949Y385201D01*
X1273951Y385201D01*
X1273951Y385199D01*
X1273949Y385199D01*
G37*
%LPD*%
%LPC*%
G36*
X892949Y766199D02*
X892949Y766199D01*
X892949Y766201D01*
X892951Y766201D01*
X892951Y766199D01*
X892949Y766199D01*
G37*
%LPD*%
%LPC*%
G36*
X529449Y745099D02*
X529449Y745099D01*
X529449Y745101D01*
X529451Y745101D01*
X529451Y745099D01*
X529449Y745099D01*
G37*
%LPD*%
%LPC*%
G36*
X220099Y491349D02*
X220099Y491349D01*
X220099Y491351D01*
X220101Y491351D01*
X220101Y491349D01*
X220099Y491349D01*
G37*
%LPD*%
%LPC*%
G36*
X250049Y808599D02*
X250049Y808599D01*
X250049Y808601D01*
X250051Y808601D01*
X250051Y808599D01*
X250049Y808599D01*
G37*
%LPD*%
%LPC*%
G36*
X245249Y347099D02*
X245249Y347099D01*
X245249Y347101D01*
X245251Y347101D01*
X245251Y347099D01*
X245249Y347099D01*
G37*
%LPD*%
%LPC*%
G36*
X592699Y994549D02*
X592699Y994549D01*
X592699Y994551D01*
X592701Y994551D01*
X592701Y994549D01*
X592699Y994549D01*
G37*
%LPD*%
%LPC*%
G36*
X249799Y143649D02*
X249799Y143649D01*
X249799Y143651D01*
X249801Y143651D01*
X249801Y143649D01*
X249799Y143649D01*
G37*
%LPD*%
%LPC*%
G36*
X1214999Y842149D02*
X1214999Y842149D01*
X1214999Y842151D01*
X1215001Y842151D01*
X1215001Y842149D01*
X1214999Y842149D01*
G37*
%LPD*%
%LPC*%
G36*
X1121799Y84949D02*
X1121799Y84949D01*
X1121799Y84951D01*
X1121801Y84951D01*
X1121801Y84949D01*
X1121799Y84949D01*
G37*
%LPD*%
%LPC*%
G36*
X643749Y592699D02*
X643749Y592699D01*
X643749Y592701D01*
X643751Y592701D01*
X643751Y592699D01*
X643749Y592699D01*
G37*
%LPD*%
%LPC*%
G36*
X372249Y588399D02*
X372249Y588399D01*
X372249Y588401D01*
X372251Y588401D01*
X372251Y588399D01*
X372249Y588399D01*
G37*
%LPD*%
%LPC*%
G36*
X1121549Y474099D02*
X1121549Y474099D01*
X1121549Y474101D01*
X1121551Y474101D01*
X1121551Y474099D01*
X1121549Y474099D01*
G37*
%LPD*%
%LPC*%
G36*
X605649Y872099D02*
X605649Y872099D01*
X605649Y872101D01*
X605651Y872101D01*
X605651Y872099D01*
X605649Y872099D01*
G37*
%LPD*%
%LPC*%
G36*
X516499Y181749D02*
X516499Y181749D01*
X516499Y181751D01*
X516501Y181751D01*
X516501Y181749D01*
X516499Y181749D01*
G37*
%LPD*%
%LPC*%
G36*
X364099Y918349D02*
X364099Y918349D01*
X364099Y918351D01*
X364101Y918351D01*
X364101Y918349D01*
X364099Y918349D01*
G37*
%LPD*%
%LPC*%
G36*
X1126349Y732399D02*
X1126349Y732399D01*
X1126349Y732401D01*
X1126351Y732401D01*
X1126351Y732399D01*
X1126349Y732399D01*
G37*
%LPD*%
%LPC*%
G36*
X592949Y313299D02*
X592949Y313299D01*
X592949Y313301D01*
X592951Y313301D01*
X592951Y313299D01*
X592949Y313299D01*
G37*
%LPD*%
%LPC*%
G36*
X389499Y67449D02*
X389499Y67449D01*
X389499Y67451D01*
X389501Y67451D01*
X389501Y67449D01*
X389499Y67449D01*
G37*
%LPD*%
%LPC*%
G36*
X846699Y296049D02*
X846699Y296049D01*
X846699Y296051D01*
X846701Y296051D01*
X846701Y296049D01*
X846699Y296049D01*
G37*
%LPD*%
%LPC*%
G36*
X402199Y296049D02*
X402199Y296049D01*
X402199Y296051D01*
X402201Y296051D01*
X402201Y296049D01*
X402199Y296049D01*
G37*
%LPD*%
D10*
X835660Y74930D03*
X810260Y74930D03*
X784860Y74930D03*
X759460Y74930D03*
D11*
X130950Y702200D03*
D12*
X148450Y697700D03*
D13*
X130950Y723950D03*
D14*
X148450Y719700D03*
D11*
X232550Y791100D03*
D12*
X250050Y786600D03*
D13*
X232550Y812850D03*
D14*
X250050Y808600D03*
D15*
X346600Y935850D03*
D16*
X342100Y918350D03*
D17*
X368350Y935850D03*
D18*
X364100Y918350D03*
D11*
X351650Y745600D03*
D12*
X334150Y750100D03*
D13*
X351650Y723850D03*
D14*
X334150Y728100D03*
D11*
X389750Y605900D03*
D12*
X372250Y610400D03*
D13*
X389750Y584150D03*
D14*
X372250Y588400D03*
D15*
X237600Y473850D03*
D16*
X242100Y491350D03*
D17*
X215850Y473850D03*
D18*
X220100Y491350D03*
D11*
X110350Y390000D03*
D12*
X92850Y394500D03*
D13*
X110350Y368250D03*
D14*
X92850Y372500D03*
D11*
X262750Y364600D03*
D12*
X245250Y369100D03*
D13*
X262750Y342850D03*
D14*
X245250Y347100D03*
D11*
X173850Y275700D03*
D12*
X156350Y280200D03*
D13*
X173850Y253950D03*
D14*
X156350Y258200D03*
D15*
X232300Y161150D03*
D16*
X227800Y143650D03*
D17*
X254050Y161150D03*
D18*
X249800Y143650D03*
D15*
X372000Y84950D03*
D16*
X367500Y67450D03*
D17*
X393750Y84950D03*
D18*
X389500Y67450D03*
D15*
X384700Y313550D03*
D16*
X380200Y296050D03*
D17*
X406450Y313550D03*
D18*
X402200Y296050D03*
D15*
X499000Y199250D03*
D16*
X494500Y181750D03*
D17*
X520750Y199250D03*
D18*
X516500Y181750D03*
D15*
X638700Y148450D03*
D16*
X634200Y130950D03*
D17*
X660450Y148450D03*
D18*
X656200Y130950D03*
D11*
X575450Y295800D03*
D12*
X592950Y291300D03*
D13*
X575450Y317550D03*
D14*
X592950Y313300D03*
D11*
X499250Y448200D03*
D12*
X516750Y443700D03*
D13*
X499250Y469950D03*
D14*
X516750Y465700D03*
D11*
X626250Y575200D03*
D12*
X643750Y570700D03*
D13*
X626250Y596950D03*
D14*
X643750Y592700D03*
D11*
X511950Y727600D03*
D12*
X529450Y723100D03*
D13*
X511950Y749350D03*
D14*
X529450Y745100D03*
D11*
X588150Y854600D03*
D12*
X605650Y850100D03*
D13*
X588150Y876350D03*
D14*
X605650Y872100D03*
D15*
X575200Y1012050D03*
D16*
X570700Y994550D03*
D17*
X596950Y1012050D03*
D18*
X592700Y994550D03*
D15*
X753000Y427850D03*
D16*
X748500Y410350D03*
D17*
X774750Y427850D03*
D18*
X770500Y410350D03*
D11*
X791350Y587900D03*
D12*
X808850Y583400D03*
D13*
X791350Y609650D03*
D14*
X808850Y605400D03*
D11*
X740550Y702200D03*
D12*
X758050Y697700D03*
D13*
X740550Y723950D03*
D14*
X758050Y719700D03*
D15*
X854600Y973950D03*
D16*
X850100Y956450D03*
D17*
X876350Y973950D03*
D18*
X872100Y956450D03*
D11*
X910450Y783700D03*
D12*
X892950Y788200D03*
D13*
X910450Y761950D03*
D14*
X892950Y766200D03*
D11*
X885050Y580500D03*
D12*
X867550Y585000D03*
D13*
X885050Y558750D03*
D14*
X867550Y563000D03*
D15*
X829200Y313550D03*
D16*
X824700Y296050D03*
D17*
X850950Y313550D03*
D18*
X846700Y296050D03*
D15*
X1019700Y465950D03*
D16*
X1015200Y448450D03*
D17*
X1041450Y465950D03*
D18*
X1037200Y448450D03*
D11*
X1058050Y600600D03*
D12*
X1075550Y596100D03*
D13*
X1058050Y622350D03*
D14*
X1075550Y618100D03*
D11*
X1108850Y714900D03*
D12*
X1126350Y710400D03*
D13*
X1108850Y736650D03*
D14*
X1126350Y732400D03*
D15*
X1057800Y961250D03*
D16*
X1053300Y943750D03*
D17*
X1079550Y961250D03*
D18*
X1075300Y943750D03*
D15*
X1197500Y859650D03*
D16*
X1193000Y842150D03*
D17*
X1219250Y859650D03*
D18*
X1215000Y842150D03*
D11*
X1253350Y732900D03*
D12*
X1235850Y737400D03*
D13*
X1253350Y711150D03*
D14*
X1235850Y715400D03*
D11*
X1304150Y644000D03*
D12*
X1286650Y648500D03*
D13*
X1304150Y622250D03*
D14*
X1286650Y626500D03*
D11*
X1139050Y491600D03*
D12*
X1121550Y496100D03*
D13*
X1139050Y469850D03*
D14*
X1121550Y474100D03*
D11*
X1291450Y402700D03*
D12*
X1273950Y407200D03*
D13*
X1291450Y380950D03*
D14*
X1273950Y385200D03*
D11*
X1177150Y301100D03*
D12*
X1159650Y305600D03*
D13*
X1177150Y279350D03*
D14*
X1159650Y283600D03*
D15*
X1139300Y67450D03*
D16*
X1143800Y84950D03*
D17*
X1117550Y67450D03*
D18*
X1121800Y84950D03*
D15*
X1037700Y232550D03*
D16*
X1042200Y250050D03*
D17*
X1015950Y232550D03*
D18*
X1020200Y250050D03*
D15*
X809100Y169050D03*
D16*
X813600Y186550D03*
D17*
X787350Y169050D03*
D18*
X791600Y186550D03*
D19*
X929700Y102950D03*
X873700Y102950D03*
D20*
X916700Y139700D03*
X906700Y139700D03*
X896700Y139700D03*
X886700Y139700D03*
D21*
X732790Y775953D03*
X732790Y267953D03*
D22*
X816610Y205994D03*
X1069594Y109982D03*
X1170686Y148844D03*
X1273810Y295656D03*
X1171956Y485140D03*
X1325118Y535178D03*
X1286510Y676656D03*
X1140714Y829818D03*
X1052322Y905764D03*
X1081532Y744728D03*
X1215390Y619506D03*
X1114044Y237744D03*
X892810Y307340D03*
X905764Y561848D03*
X829056Y713994D03*
X860044Y829310D03*
X771906Y956056D03*
X784098Y708914D03*
X808990Y403352D03*
X643382Y302260D03*
X593598Y92964D03*
X525018Y268986D03*
X550164Y523748D03*
X638302Y715010D03*
X575310Y789940D03*
X639064Y954786D03*
X504952Y956818D03*
X389636Y505714D03*
X325120Y364998D03*
X390398Y187706D03*
X263906Y105664D03*
X98806Y206756D03*
X169164Y358902D03*
X131064Y574294D03*
X320294Y592328D03*
X371602Y790194D03*
X302260Y930402D03*
X224536Y835152D03*
X211836Y657860D03*
X1070102Y453898D03*
X886460Y154940D03*
X685800Y778510D03*
X683006Y269748D03*
D23*
X130950Y684416D02*
X130950Y702200D01*
X130950Y684416D02*
X130556Y684022D01*
D22*
X130556Y684022D03*
D23*
X232550Y772046D02*
X232550Y791100D01*
X232550Y772046D02*
X232410Y771906D01*
D22*
X232410Y771906D03*
D23*
X346600Y935850D02*
X346600Y951120D01*
X351282Y955802D01*
D22*
X359410Y955802D03*
D23*
X351282Y955802D01*
X351650Y765442D02*
X351650Y745600D01*
X351650Y765442D02*
X351536Y765556D01*
D22*
X351536Y765556D03*
D23*
X389750Y624980D02*
X389750Y605900D01*
X389750Y624980D02*
X389382Y625348D01*
D22*
X389382Y625348D03*
D23*
X256426Y473850D02*
X237600Y473850D01*
X256426Y473850D02*
X256540Y473964D01*
D22*
X256540Y473964D03*
D23*
X110350Y408800D02*
X110350Y390000D01*
X110350Y408800D02*
X110744Y409194D01*
D22*
X110744Y409194D03*
D23*
X262750Y383400D02*
X262750Y364600D01*
X262750Y383400D02*
X263398Y384048D01*
D22*
X263398Y384048D03*
D23*
X173850Y289722D02*
X173850Y275700D01*
X173850Y289722D02*
X178816Y294688D01*
D22*
X178816Y294688D03*
D23*
X213474Y161150D02*
X232300Y161150D01*
X213474Y161150D02*
X212852Y160528D01*
D22*
X212852Y160528D03*
D23*
X352412Y84950D02*
X372000Y84950D01*
X352412Y84950D02*
X352298Y84836D01*
D22*
X352298Y84836D03*
D23*
X366662Y313550D02*
X384700Y313550D01*
X366662Y313550D02*
X365760Y314452D01*
D22*
X365760Y314452D03*
D23*
X477634Y199250D02*
X499000Y199250D01*
X477634Y199250D02*
X477266Y198882D01*
D22*
X477266Y198882D03*
D23*
X619366Y148450D02*
X638700Y148450D01*
X619366Y148450D02*
X619252Y148336D01*
D22*
X619252Y148336D03*
D23*
X575450Y277000D02*
X575450Y295800D01*
X575450Y277000D02*
X574548Y276098D01*
D22*
X574548Y276098D03*
D23*
X499250Y428866D02*
X499250Y448200D01*
X499250Y428866D02*
X499364Y428752D01*
D22*
X499364Y428752D03*
D23*
X626250Y556400D02*
X626250Y575200D01*
X626250Y556400D02*
X625856Y556006D01*
D22*
X625856Y556006D03*
D23*
X511950Y709308D02*
X511950Y727600D01*
X511950Y709308D02*
X511556Y708914D01*
D22*
X511556Y708914D03*
D23*
X588150Y834276D02*
X588150Y854600D01*
X588150Y834276D02*
X588010Y834136D01*
D22*
X588010Y834136D03*
D23*
X575200Y1012050D02*
X556882Y1012050D01*
X556260Y1011428D01*
D22*
X556260Y1011428D03*
D23*
X733666Y427850D02*
X753000Y427850D01*
X733666Y427850D02*
X733044Y427228D01*
D22*
X733044Y427228D03*
D23*
X791350Y569354D02*
X791350Y587900D01*
X791350Y569354D02*
X790956Y568960D01*
D22*
X790956Y568960D03*
D23*
X740550Y683628D02*
X740550Y702200D01*
X740550Y683628D02*
X740918Y683260D01*
D22*
X740918Y683260D03*
D23*
X834758Y973950D02*
X854600Y973950D01*
X834758Y973950D02*
X834644Y973836D01*
D22*
X834644Y973836D03*
D23*
X910450Y802018D02*
X910450Y783700D01*
X910450Y802018D02*
X909828Y802640D01*
D22*
X909828Y802640D03*
D23*
X885050Y600316D02*
X885050Y580500D01*
X885050Y600316D02*
X885444Y600710D01*
D22*
X885444Y600710D03*
D23*
X829200Y313550D02*
X810654Y313550D01*
X810260Y313944D01*
D22*
X810260Y313944D03*
D23*
X1000112Y465950D02*
X1019700Y465950D01*
X1000112Y465950D02*
X999236Y465074D01*
D22*
X999236Y465074D03*
D23*
X1058050Y583924D02*
X1058050Y600600D01*
X1058050Y583924D02*
X1055024Y580898D01*
D22*
X1055024Y580898D03*
D23*
X1108850Y697370D02*
X1108850Y714900D01*
X1108850Y697370D02*
X1108710Y697230D01*
D22*
X1108710Y697230D03*
D23*
X1057800Y961250D02*
X1038212Y961250D01*
X1037590Y960628D01*
D22*
X1037590Y960628D03*
D23*
X1178954Y859650D02*
X1197500Y859650D01*
X1178954Y859650D02*
X1178814Y859790D01*
D22*
X1178814Y859790D03*
D23*
X1253350Y751192D02*
X1253350Y732900D01*
X1253350Y751192D02*
X1253998Y751840D01*
D22*
X1253998Y751840D03*
D23*
X1304150Y661530D02*
X1304150Y644000D01*
X1304150Y661530D02*
X1314196Y671576D01*
D22*
X1314196Y671576D03*
D23*
X1139050Y510934D02*
X1139050Y491600D01*
X1139050Y510934D02*
X1138936Y511048D01*
D22*
X1138936Y511048D03*
D23*
X1291450Y422262D02*
X1291450Y402700D01*
X1291450Y422262D02*
X1291590Y422402D01*
D22*
X1291590Y422402D03*
D23*
X1177150Y319138D02*
X1177150Y301100D01*
X1177150Y319138D02*
X1177290Y319278D01*
D22*
X1177290Y319278D03*
D23*
X1158354Y67450D02*
X1139300Y67450D01*
X1158354Y67450D02*
X1159002Y66802D01*
D22*
X1159002Y66802D03*
D23*
X1051954Y232550D02*
X1037700Y232550D01*
X1051954Y232550D02*
X1057148Y237744D01*
D22*
X1057148Y237744D03*
D23*
X809100Y169050D02*
X806196Y166146D01*
X806196Y151638D01*
D22*
X806196Y151638D03*
D23*
X906700Y154860D02*
X906700Y139700D01*
X906700Y154860D02*
X906780Y154940D01*
D22*
X906780Y154940D03*
X736600Y774700D03*
X731520Y266700D03*
D23*
X768300Y169050D02*
X759460Y160210D01*
X768300Y169050D02*
X787350Y169050D01*
X759460Y118110D02*
X759460Y74930D01*
X759460Y118110D02*
X759460Y160210D01*
X896700Y139700D02*
X896700Y127080D01*
X887730Y118110D02*
X759460Y118110D01*
X887730Y118110D02*
X896700Y127080D01*
X148450Y651650D02*
X148450Y697700D01*
X148450Y651650D02*
X152400Y647700D01*
D22*
X152400Y647700D03*
D23*
X130950Y723950D02*
X130950Y741058D01*
X144018Y754126D02*
X234188Y754126D01*
X250050Y769988D01*
X250050Y786600D01*
X144018Y754126D02*
X130950Y741058D01*
X232550Y812850D02*
X232550Y874916D01*
X275984Y918350D02*
X342100Y918350D01*
X275984Y918350D02*
X232550Y874916D01*
X368350Y935850D02*
X385458Y935850D01*
X392176Y929132D01*
X392176Y865632D01*
X370078Y843534D02*
X347726Y843534D01*
X334150Y829958D01*
X334150Y750100D01*
X370078Y843534D02*
X392176Y865632D01*
X351650Y723850D02*
X351650Y676542D01*
X372618Y655574D01*
X372618Y610768D01*
X372250Y610400D01*
X215850Y473850D02*
X116218Y473850D01*
X92850Y450482D02*
X92850Y394500D01*
X92850Y450482D02*
X116218Y473850D01*
X110350Y368250D02*
X110350Y355232D01*
X119888Y345694D01*
X173990Y345694D01*
X188468Y360172D02*
X188468Y378714D01*
X204470Y394716D01*
X235966Y394716D01*
X245250Y385432D01*
X245250Y369100D01*
X188468Y360172D02*
X173990Y345694D01*
X262750Y342850D02*
X262750Y321932D01*
X243332Y302514D02*
X166624Y302514D01*
X156350Y292240D01*
X156350Y280200D01*
X243332Y302514D02*
X262750Y321932D01*
X173850Y253950D02*
X173850Y164224D01*
X194424Y143650D02*
X227800Y143650D01*
X194424Y143650D02*
X173850Y164224D01*
X389750Y523100D02*
X389750Y584150D01*
X358000Y491350D02*
X242100Y491350D01*
X358000Y491350D02*
X389750Y523100D01*
X393750Y84950D02*
X408546Y84950D01*
X414528Y90932D01*
X414528Y207264D01*
X394716Y227076D02*
X368046Y227076D01*
X348488Y246634D01*
X364122Y296050D02*
X380200Y296050D01*
X394716Y227076D02*
X414528Y207264D01*
X348488Y246634D02*
X348488Y280416D01*
X364122Y296050D01*
X406450Y313550D02*
X424066Y313550D01*
X446532Y291084D02*
X446532Y198374D01*
X463156Y181750D01*
X494500Y181750D01*
X446532Y291084D02*
X424066Y313550D01*
X520750Y199250D02*
X540906Y199250D01*
X582028Y130950D02*
X634200Y130950D01*
X556514Y183642D02*
X540906Y199250D01*
X556514Y183642D02*
X556514Y156464D01*
X582028Y130950D01*
X660450Y148450D02*
X675754Y148450D01*
X685292Y157988D01*
X685292Y193548D01*
X592950Y226454D02*
X592950Y291300D01*
X666242Y212598D02*
X685292Y193548D01*
X666242Y212598D02*
X606806Y212598D01*
X592950Y226454D01*
X499250Y469950D02*
X499250Y483756D01*
X643750Y508876D02*
X643750Y570700D01*
X509524Y494030D02*
X499250Y483756D01*
X509524Y494030D02*
X628904Y494030D01*
X643750Y508876D01*
X626250Y596950D02*
X626250Y631558D01*
X529450Y669430D02*
X529450Y723100D01*
X611632Y646176D02*
X626250Y631558D01*
X611632Y646176D02*
X552704Y646176D01*
X529450Y669430D01*
X511950Y749350D02*
X511950Y777380D01*
X605650Y813422D02*
X605650Y850100D01*
X535178Y800608D02*
X511950Y777380D01*
X535178Y800608D02*
X592836Y800608D01*
X605650Y813422D01*
X588150Y876350D02*
X588150Y902068D01*
X581660Y908558D02*
X549148Y908558D01*
X543052Y914654D01*
X543052Y988568D02*
X549656Y995172D01*
X570078Y995172D01*
X570700Y994550D01*
X581660Y908558D02*
X588150Y902068D01*
X543052Y914654D02*
X543052Y988568D01*
X575450Y388480D02*
X575450Y317550D01*
X567690Y396240D02*
X524256Y396240D01*
X516750Y403746D01*
X516750Y443700D01*
X567690Y396240D02*
X575450Y388480D01*
X774750Y427850D02*
X796150Y427850D01*
X808850Y440550D02*
X808850Y583400D01*
X808850Y440550D02*
X796150Y427850D01*
X791350Y609650D02*
X791350Y647814D01*
X782574Y656590D02*
X764286Y656590D01*
X758050Y662826D01*
X758050Y697700D01*
X782574Y656590D02*
X791350Y647814D01*
X740550Y723950D02*
X740550Y735380D01*
X758330Y753160D01*
X758330Y922668D01*
X792112Y956450D02*
X850100Y956450D01*
X792112Y956450D02*
X758330Y922668D01*
X876350Y973950D02*
X893204Y973950D01*
X900938Y966216D01*
X900938Y862838D01*
X892950Y854850D02*
X892950Y788200D01*
X892950Y854850D02*
X900938Y862838D01*
X885050Y558750D02*
X885050Y370954D01*
X873252Y359156D02*
X808482Y359156D01*
X792734Y343408D01*
X792734Y307594D02*
X804418Y295910D01*
X824560Y295910D01*
X824700Y296050D01*
X873252Y359156D02*
X885050Y370954D01*
X792734Y343408D02*
X792734Y307594D01*
X850950Y313550D02*
X876160Y313550D01*
X931558Y448450D02*
X1015200Y448450D01*
X903478Y340868D02*
X876160Y313550D01*
X903478Y340868D02*
X903478Y420370D01*
X931558Y448450D01*
X1041450Y465950D02*
X1063612Y465950D01*
X1075550Y477888D02*
X1075550Y596100D01*
X1075550Y477888D02*
X1063612Y465950D01*
X1058050Y622350D02*
X1058050Y638950D01*
X1073912Y654812D02*
X1115314Y654812D01*
X1126350Y665848D01*
X1126350Y710400D01*
X1073912Y654812D02*
X1058050Y638950D01*
X910450Y650862D02*
X910450Y761950D01*
X901700Y642112D02*
X874014Y642112D01*
X867550Y635648D01*
X867550Y585000D01*
X901700Y642112D02*
X910450Y650862D01*
X1079550Y961250D02*
X1110882Y961250D01*
X1128522Y858520D02*
X1145032Y842010D01*
X1192860Y842010D01*
X1193000Y842150D01*
X1128522Y943610D02*
X1110882Y961250D01*
X1128522Y943610D02*
X1128522Y858520D01*
X1219250Y859650D02*
X1233564Y859650D01*
X1244854Y848360D01*
X1244854Y786638D01*
X1235456Y777240D01*
X1235456Y737794D01*
X1235850Y737400D01*
X1253350Y711150D02*
X1253350Y674510D01*
X1261364Y666496D02*
X1281938Y666496D01*
X1286650Y661784D01*
X1286650Y648500D01*
X1261364Y666496D02*
X1253350Y674510D01*
X1304150Y622250D02*
X1304150Y557898D01*
X1290574Y544322D02*
X1135126Y544322D01*
X1121550Y530746D01*
X1121550Y496100D01*
X1290574Y544322D02*
X1304150Y557898D01*
X1291450Y380950D02*
X1291450Y359270D01*
X1270508Y338328D02*
X1175512Y338328D01*
X1159650Y322466D01*
X1159650Y305600D01*
X1270508Y338328D02*
X1291450Y359270D01*
X1177150Y279350D02*
X1177150Y153448D01*
X1178512Y152086D01*
X1178512Y100028D01*
X1163320Y84836D01*
X1143914Y84836D01*
X1143800Y84950D01*
X1117550Y67450D02*
X1092822Y67450D01*
X1082294Y77978D02*
X1082294Y238252D01*
X1070496Y250050D01*
X1042200Y250050D01*
X1082294Y77978D02*
X1092822Y67450D01*
X1015950Y232550D02*
X888632Y232550D01*
X842632Y186550D02*
X813600Y186550D01*
X842632Y186550D02*
X888632Y232550D01*
X1139050Y444640D02*
X1139050Y469850D01*
X1144778Y438912D02*
X1264666Y438912D01*
X1273950Y429628D01*
X1273950Y407200D01*
X1144778Y438912D02*
X1139050Y444640D01*
X281572Y161150D02*
X254050Y161150D01*
X301752Y140970D02*
X301752Y83058D01*
X317754Y67056D01*
X367106Y67056D02*
X367500Y67450D01*
X301752Y140970D02*
X281572Y161150D01*
X317754Y67056D02*
X367106Y67056D01*
X596950Y1012050D02*
X646062Y1012050D01*
X703694Y410350D02*
X748500Y410350D01*
X674878Y983234D02*
X646062Y1012050D01*
X674878Y983234D02*
X674878Y439166D01*
X703694Y410350D01*
X1108850Y736650D02*
X1108850Y752716D01*
X1053300Y943750D02*
X1032650Y943750D01*
X1089660Y771906D02*
X1108850Y752716D01*
X1089660Y771906D02*
X1029462Y771906D01*
X1007618Y793750D01*
X1007618Y918718D01*
X1032650Y943750D01*
M02*
