G04 EAGLE Gerber RS-274X export*
G75*
%MOMM*%
%FSLAX34Y34*%
%LPD*%
%INSolderpaste Bottom*%
%IPPOS*%
%AMOC8*
5,1,8,0,0,1.08239X$1,22.5*%
G01*
%ADD10R,0.850000X1.900000*%
%ADD11R,0.850000X1.000000*%
%ADD12R,0.850000X1.150000*%
%ADD13R,0.850000X2.000000*%
%ADD14R,1.900000X0.850000*%
%ADD15R,1.000000X0.850000*%
%ADD16R,1.150000X0.850000*%
%ADD17R,2.000000X0.850000*%
%ADD18R,1.200000X2.000000*%
%ADD19R,0.600000X1.350000*%
%ADD20R,3.000000X5.000000*%


D10*
X130950Y702200D03*
D11*
X148450Y697700D03*
D12*
X130950Y723950D03*
D13*
X148450Y719700D03*
D10*
X232550Y791100D03*
D11*
X250050Y786600D03*
D12*
X232550Y812850D03*
D13*
X250050Y808600D03*
D14*
X346600Y935850D03*
D15*
X342100Y918350D03*
D16*
X368350Y935850D03*
D17*
X364100Y918350D03*
D10*
X351650Y745600D03*
D11*
X334150Y750100D03*
D12*
X351650Y723850D03*
D13*
X334150Y728100D03*
D10*
X389750Y605900D03*
D11*
X372250Y610400D03*
D12*
X389750Y584150D03*
D13*
X372250Y588400D03*
D14*
X237600Y473850D03*
D15*
X242100Y491350D03*
D16*
X215850Y473850D03*
D17*
X220100Y491350D03*
D10*
X110350Y390000D03*
D11*
X92850Y394500D03*
D12*
X110350Y368250D03*
D13*
X92850Y372500D03*
D10*
X262750Y364600D03*
D11*
X245250Y369100D03*
D12*
X262750Y342850D03*
D13*
X245250Y347100D03*
D10*
X173850Y275700D03*
D11*
X156350Y280200D03*
D12*
X173850Y253950D03*
D13*
X156350Y258200D03*
D14*
X232300Y161150D03*
D15*
X227800Y143650D03*
D16*
X254050Y161150D03*
D17*
X249800Y143650D03*
D14*
X372000Y84950D03*
D15*
X367500Y67450D03*
D16*
X393750Y84950D03*
D17*
X389500Y67450D03*
D14*
X384700Y313550D03*
D15*
X380200Y296050D03*
D16*
X406450Y313550D03*
D17*
X402200Y296050D03*
D14*
X499000Y199250D03*
D15*
X494500Y181750D03*
D16*
X520750Y199250D03*
D17*
X516500Y181750D03*
D14*
X638700Y148450D03*
D15*
X634200Y130950D03*
D16*
X660450Y148450D03*
D17*
X656200Y130950D03*
D10*
X575450Y295800D03*
D11*
X592950Y291300D03*
D12*
X575450Y317550D03*
D13*
X592950Y313300D03*
D10*
X499250Y448200D03*
D11*
X516750Y443700D03*
D12*
X499250Y469950D03*
D13*
X516750Y465700D03*
D10*
X626250Y575200D03*
D11*
X643750Y570700D03*
D12*
X626250Y596950D03*
D13*
X643750Y592700D03*
D10*
X511950Y727600D03*
D11*
X529450Y723100D03*
D12*
X511950Y749350D03*
D13*
X529450Y745100D03*
D10*
X588150Y854600D03*
D11*
X605650Y850100D03*
D12*
X588150Y876350D03*
D13*
X605650Y872100D03*
D14*
X575200Y1012050D03*
D15*
X570700Y994550D03*
D16*
X596950Y1012050D03*
D17*
X592700Y994550D03*
D14*
X753000Y427850D03*
D15*
X748500Y410350D03*
D16*
X774750Y427850D03*
D17*
X770500Y410350D03*
D10*
X791350Y587900D03*
D11*
X808850Y583400D03*
D12*
X791350Y609650D03*
D13*
X808850Y605400D03*
D10*
X740550Y702200D03*
D11*
X758050Y697700D03*
D12*
X740550Y723950D03*
D13*
X758050Y719700D03*
D14*
X854600Y973950D03*
D15*
X850100Y956450D03*
D16*
X876350Y973950D03*
D17*
X872100Y956450D03*
D10*
X910450Y783700D03*
D11*
X892950Y788200D03*
D12*
X910450Y761950D03*
D13*
X892950Y766200D03*
D10*
X885050Y580500D03*
D11*
X867550Y585000D03*
D12*
X885050Y558750D03*
D13*
X867550Y563000D03*
D14*
X829200Y313550D03*
D15*
X824700Y296050D03*
D16*
X850950Y313550D03*
D17*
X846700Y296050D03*
D14*
X1019700Y465950D03*
D15*
X1015200Y448450D03*
D16*
X1041450Y465950D03*
D17*
X1037200Y448450D03*
D10*
X1058050Y600600D03*
D11*
X1075550Y596100D03*
D12*
X1058050Y622350D03*
D13*
X1075550Y618100D03*
D10*
X1108850Y714900D03*
D11*
X1126350Y710400D03*
D12*
X1108850Y736650D03*
D13*
X1126350Y732400D03*
D14*
X1057800Y961250D03*
D15*
X1053300Y943750D03*
D16*
X1079550Y961250D03*
D17*
X1075300Y943750D03*
D14*
X1197500Y859650D03*
D15*
X1193000Y842150D03*
D16*
X1219250Y859650D03*
D17*
X1215000Y842150D03*
D10*
X1253350Y732900D03*
D11*
X1235850Y737400D03*
D12*
X1253350Y711150D03*
D13*
X1235850Y715400D03*
D10*
X1304150Y644000D03*
D11*
X1286650Y648500D03*
D12*
X1304150Y622250D03*
D13*
X1286650Y626500D03*
D10*
X1139050Y491600D03*
D11*
X1121550Y496100D03*
D12*
X1139050Y469850D03*
D13*
X1121550Y474100D03*
D10*
X1291450Y402700D03*
D11*
X1273950Y407200D03*
D12*
X1291450Y380950D03*
D13*
X1273950Y385200D03*
D10*
X1177150Y301100D03*
D11*
X1159650Y305600D03*
D12*
X1177150Y279350D03*
D13*
X1159650Y283600D03*
D14*
X1139300Y67450D03*
D15*
X1143800Y84950D03*
D16*
X1117550Y67450D03*
D17*
X1121800Y84950D03*
D14*
X1037700Y232550D03*
D15*
X1042200Y250050D03*
D16*
X1015950Y232550D03*
D17*
X1020200Y250050D03*
D14*
X809100Y169050D03*
D15*
X813600Y186550D03*
D16*
X787350Y169050D03*
D17*
X791600Y186550D03*
D18*
X929700Y102950D03*
X873700Y102950D03*
D19*
X916700Y139700D03*
X906700Y139700D03*
X896700Y139700D03*
X886700Y139700D03*
D20*
X732790Y775953D03*
X732790Y267953D03*
M02*
