G04 EAGLE Gerber RS-274X export*
G75*
%MOMM*%
%FSLAX34Y34*%
%LPD*%
%INSoldermask Top*%
%IPPOS*%
%AMOC8*
5,1,8,0,0,1.08239X$1,22.5*%
G01*
%ADD10C,2.082800*%
%ADD11R,1.053200X2.103200*%
%ADD12R,1.053200X1.203200*%
%ADD13R,1.053200X1.353200*%
%ADD14R,1.053200X2.203200*%
%ADD15R,2.103200X1.053200*%
%ADD16R,1.203200X1.053200*%
%ADD17R,1.353200X1.053200*%
%ADD18R,2.203200X1.053200*%
%ADD19R,1.403200X2.203200*%
%ADD20R,0.803200X1.553200*%
%ADD21R,3.203200X5.203200*%
%ADD22C,1.209600*%


D10*
X835660Y74930D03*
X810260Y74930D03*
X784860Y74930D03*
X759460Y74930D03*
D11*
X834250Y168800D03*
D12*
X816750Y164300D03*
D13*
X834250Y190550D03*
D14*
X816750Y186300D03*
D15*
X1045100Y727850D03*
D16*
X1040600Y745350D03*
D17*
X1066850Y727850D03*
D18*
X1062600Y745350D03*
D11*
X1197750Y656700D03*
D12*
X1215250Y661200D03*
D13*
X1197750Y634950D03*
D14*
X1215250Y639200D03*
D11*
X1045350Y504300D03*
D12*
X1062850Y508800D03*
D13*
X1045350Y482550D03*
D14*
X1062850Y486800D03*
D11*
X1096150Y275700D03*
D12*
X1113650Y280200D03*
D13*
X1096150Y253950D03*
D14*
X1113650Y258200D03*
D11*
X910450Y270400D03*
D12*
X892950Y265900D03*
D13*
X910450Y292150D03*
D14*
X892950Y287900D03*
D11*
X923150Y524400D03*
D12*
X905650Y519900D03*
D13*
X923150Y546150D03*
D14*
X905650Y541900D03*
D11*
X846950Y676800D03*
D12*
X829450Y672300D03*
D13*
X846950Y698550D03*
D14*
X829450Y694300D03*
D15*
X898000Y846950D03*
D16*
X902500Y829450D03*
D17*
X876250Y846950D03*
D18*
X880500Y829450D03*
D15*
X809100Y973950D03*
D16*
X813600Y956450D03*
D17*
X787350Y973950D03*
D18*
X791600Y956450D03*
D11*
X765950Y745600D03*
D12*
X783450Y750100D03*
D13*
X765950Y723850D03*
D14*
X783450Y728100D03*
D15*
X1032400Y92850D03*
D16*
X1027900Y110350D03*
D17*
X1054150Y92850D03*
D18*
X1049900Y110350D03*
D11*
X791350Y440800D03*
D12*
X808850Y445300D03*
D13*
X791350Y419050D03*
D14*
X808850Y423300D03*
D11*
X626250Y339200D03*
D12*
X643750Y343700D03*
D13*
X626250Y317450D03*
D14*
X643750Y321700D03*
D15*
X631300Y110350D03*
D16*
X635800Y92850D03*
D17*
X609550Y110350D03*
D18*
X613800Y92850D03*
D11*
X542150Y232300D03*
D12*
X524650Y227800D03*
D13*
X542150Y254050D03*
D14*
X524650Y249800D03*
D11*
X567550Y486300D03*
D12*
X550050Y481800D03*
D13*
X567550Y508050D03*
D14*
X550050Y503800D03*
D11*
X656450Y676800D03*
D12*
X638950Y672300D03*
D13*
X656450Y698550D03*
D14*
X638950Y694300D03*
D11*
X592950Y753000D03*
D12*
X575450Y748500D03*
D13*
X592950Y774750D03*
D14*
X575450Y770500D03*
D11*
X656450Y918100D03*
D12*
X638950Y913600D03*
D13*
X656450Y939850D03*
D14*
X638950Y935600D03*
D15*
X542400Y973950D03*
D16*
X546900Y956450D03*
D17*
X520650Y973950D03*
D18*
X524900Y956450D03*
D11*
X372250Y542400D03*
D12*
X389750Y546900D03*
D13*
X372250Y520650D03*
D14*
X389750Y524900D03*
D15*
X1134000Y130950D03*
D16*
X1129500Y148450D03*
D17*
X1155750Y130950D03*
D18*
X1151500Y148450D03*
D11*
X308750Y402700D03*
D12*
X326250Y407200D03*
D13*
X308750Y380950D03*
D14*
X326250Y385200D03*
D11*
X372250Y224900D03*
D12*
X389750Y229400D03*
D13*
X372250Y203150D03*
D14*
X389750Y207400D03*
D15*
X301100Y123050D03*
D16*
X305600Y105550D03*
D17*
X279350Y123050D03*
D18*
X283600Y105550D03*
D15*
X136000Y224650D03*
D16*
X140500Y207150D03*
D17*
X114250Y224650D03*
D18*
X118500Y207150D03*
D11*
X186550Y321200D03*
D12*
X169050Y316700D03*
D13*
X186550Y342950D03*
D14*
X169050Y338700D03*
D11*
X148450Y537100D03*
D12*
X130950Y532600D03*
D13*
X148450Y558850D03*
D14*
X130950Y554600D03*
D15*
X283100Y575450D03*
D16*
X278600Y592950D03*
D17*
X304850Y575450D03*
D18*
X300600Y592950D03*
D11*
X389750Y753000D03*
D12*
X372250Y748500D03*
D13*
X389750Y774750D03*
D14*
X372250Y770500D03*
D15*
X339200Y948550D03*
D16*
X343700Y931050D03*
D17*
X317450Y948550D03*
D18*
X321700Y931050D03*
D11*
X207150Y872600D03*
D12*
X224650Y877100D03*
D13*
X207150Y850850D03*
D14*
X224650Y855100D03*
D11*
X1291450Y257700D03*
D12*
X1273950Y253200D03*
D13*
X1291450Y279450D03*
D14*
X1273950Y275200D03*
D11*
X194450Y694800D03*
D12*
X211950Y699300D03*
D13*
X194450Y673050D03*
D14*
X211950Y677300D03*
D11*
X1189850Y448200D03*
D12*
X1172350Y443700D03*
D13*
X1189850Y469950D03*
D14*
X1172350Y465700D03*
D11*
X1342250Y499000D03*
D12*
X1324750Y494500D03*
D13*
X1342250Y520750D03*
D14*
X1324750Y516500D03*
D11*
X1304150Y638700D03*
D12*
X1286650Y634200D03*
D13*
X1304150Y660450D03*
D14*
X1286650Y656200D03*
D15*
X1177400Y846950D03*
D16*
X1181900Y829450D03*
D17*
X1155650Y846950D03*
D18*
X1159900Y829450D03*
D15*
X1088500Y923150D03*
D16*
X1093000Y905650D03*
D17*
X1066750Y923150D03*
D18*
X1071000Y905650D03*
D19*
X873700Y102950D03*
X929700Y102950D03*
D20*
X886700Y139700D03*
X896700Y139700D03*
X906700Y139700D03*
X916700Y139700D03*
D21*
X686562Y775953D03*
X686562Y267953D03*
D22*
X816610Y205994D03*
X1069594Y109982D03*
X1170686Y148844D03*
X1273810Y295656D03*
X1171956Y485140D03*
X1325118Y535178D03*
X1286510Y676656D03*
X1140714Y829818D03*
X1052322Y905764D03*
X1081532Y744728D03*
X1215390Y619506D03*
X1114044Y237744D03*
X892810Y307340D03*
X905764Y561848D03*
X829056Y713994D03*
X860044Y829310D03*
X771906Y956056D03*
X784098Y708914D03*
X808990Y403352D03*
X643382Y302260D03*
X593598Y92964D03*
X525018Y268986D03*
X550164Y523748D03*
X638302Y715010D03*
X575310Y789940D03*
X639064Y954786D03*
X504952Y956818D03*
X389636Y505714D03*
X325120Y364998D03*
X390398Y187706D03*
X263906Y105664D03*
X98806Y206756D03*
X169164Y358902D03*
X131064Y574294D03*
X320294Y592328D03*
X371602Y790194D03*
X302260Y930402D03*
X224536Y835152D03*
X211836Y657860D03*
X1070102Y453898D03*
X886460Y154940D03*
X685800Y778510D03*
X683006Y269748D03*
X130556Y684022D03*
X232410Y771906D03*
X359410Y955802D03*
X351536Y765556D03*
X389382Y625348D03*
X256540Y473964D03*
X110744Y409194D03*
X263398Y384048D03*
X178816Y294688D03*
X212852Y160528D03*
X352298Y84836D03*
X365760Y314452D03*
X477266Y198882D03*
X619252Y148336D03*
X574548Y276098D03*
X499364Y428752D03*
X625856Y556006D03*
X511556Y708914D03*
X588010Y834136D03*
X556260Y1011428D03*
X733044Y427228D03*
X790956Y568960D03*
X740918Y683260D03*
X834644Y973836D03*
X909828Y802640D03*
X885444Y600710D03*
X810260Y313944D03*
X999236Y465074D03*
X1055024Y580898D03*
X1108710Y697230D03*
X1037590Y960628D03*
X1178814Y859790D03*
X1253998Y751840D03*
X1314196Y671576D03*
X1138936Y511048D03*
X1291590Y422402D03*
X1177290Y319278D03*
X1159002Y66802D03*
X1057148Y237744D03*
X806196Y151638D03*
X906780Y154940D03*
X736600Y774700D03*
X731520Y266700D03*
X152400Y647700D03*
M02*
