G04 EAGLE Gerber RS-274X export*
G75*
%MOMM*%
%FSLAX34Y34*%
%LPD*%
%INSoldermask Bottom*%
%IPPOS*%
%AMOC8*
5,1,8,0,0,1.08239X$1,22.5*%
G01*
%ADD10R,1.053200X2.103200*%
%ADD11R,1.053200X1.203200*%
%ADD12R,1.053200X1.353200*%
%ADD13R,1.053200X2.203200*%
%ADD14R,2.103200X1.053200*%
%ADD15R,1.203200X1.053200*%
%ADD16R,1.353200X1.053200*%
%ADD17R,2.203200X1.053200*%
%ADD18R,1.403200X2.203200*%
%ADD19R,0.803200X1.553200*%
%ADD20C,2.082800*%
%ADD21R,3.203200X5.203200*%
%ADD22C,1.209600*%


D10*
X823608Y850028D03*
D11*
X841108Y845528D03*
D12*
X823608Y871778D03*
D13*
X841108Y867528D03*
D10*
X601332Y853550D03*
D11*
X583832Y858050D03*
D12*
X601332Y831800D03*
D13*
X583832Y836050D03*
D14*
X724806Y781164D03*
D15*
X720306Y763664D03*
D16*
X746556Y781164D03*
D17*
X742306Y763664D03*
D14*
X1079390Y792340D03*
D15*
X1074890Y774840D03*
D16*
X1101140Y792340D03*
D17*
X1096890Y774840D03*
D14*
X999600Y905650D03*
D15*
X1004100Y923150D03*
D16*
X977850Y905650D03*
D17*
X982100Y923150D03*
D14*
X809100Y956450D03*
D15*
X813600Y973950D03*
D16*
X787350Y956450D03*
D17*
X791600Y973950D03*
D14*
X580500Y957720D03*
D15*
X585000Y975220D03*
D16*
X558750Y957720D03*
D17*
X563000Y975220D03*
D10*
X402450Y923400D03*
D11*
X384950Y927900D03*
D12*
X402450Y901650D03*
D13*
X384950Y905900D03*
D10*
X554850Y783700D03*
D11*
X537350Y788200D03*
D12*
X554850Y761950D03*
D13*
X537350Y766200D03*
D14*
X761636Y683882D03*
D15*
X757136Y666382D03*
D16*
X783386Y683882D03*
D17*
X779136Y666382D03*
D14*
X1067960Y617588D03*
D15*
X1063460Y600088D03*
D16*
X1089710Y617588D03*
D17*
X1085460Y600088D03*
D14*
X1324754Y638162D03*
D15*
X1320254Y620662D03*
D16*
X1346504Y638162D03*
D17*
X1342254Y620662D03*
D10*
X1407046Y740554D03*
D11*
X1424546Y736054D03*
D12*
X1407046Y762304D03*
D13*
X1424546Y758054D03*
D10*
X1273950Y880000D03*
D11*
X1291450Y875500D03*
D12*
X1273950Y901750D03*
D13*
X1291450Y897500D03*
D10*
X1096150Y1007000D03*
D11*
X1113650Y1002500D03*
D12*
X1096150Y1028750D03*
D13*
X1113650Y1024500D03*
D14*
X910700Y1058050D03*
D15*
X915200Y1075550D03*
D16*
X888950Y1058050D03*
D17*
X893200Y1075550D03*
D14*
X631300Y1083450D03*
D15*
X635800Y1100950D03*
D16*
X609550Y1083450D03*
D17*
X613800Y1100950D03*
D14*
X377300Y1032650D03*
D15*
X381800Y1050150D03*
D16*
X355550Y1032650D03*
D17*
X359800Y1050150D03*
D10*
X288150Y834500D03*
D11*
X270650Y839000D03*
D12*
X288150Y812750D03*
D13*
X270650Y817000D03*
D14*
X397400Y656450D03*
D15*
X392900Y638950D03*
D16*
X419150Y656450D03*
D17*
X414900Y638950D03*
D14*
X689500Y542150D03*
D15*
X685000Y524650D03*
D16*
X711250Y542150D03*
D17*
X707000Y524650D03*
D14*
X943500Y516750D03*
D15*
X939000Y499250D03*
D16*
X965250Y516750D03*
D17*
X961000Y499250D03*
D14*
X1108600Y465950D03*
D15*
X1104100Y448450D03*
D16*
X1130350Y465950D03*
D17*
X1126100Y448450D03*
D14*
X1347360Y454774D03*
D15*
X1342860Y437274D03*
D16*
X1369110Y454774D03*
D17*
X1364860Y437274D03*
D14*
X1512460Y543928D03*
D15*
X1507960Y526428D03*
D16*
X1534210Y543928D03*
D17*
X1529960Y526428D03*
D10*
X1553350Y714900D03*
D11*
X1570850Y710400D03*
D12*
X1553350Y736650D03*
D13*
X1570850Y732400D03*
D10*
X1437272Y914036D03*
D11*
X1454772Y909536D03*
D12*
X1437272Y935786D03*
D13*
X1454772Y931536D03*
D14*
X1298558Y1065162D03*
D15*
X1303058Y1082662D03*
D16*
X1276808Y1065162D03*
D17*
X1281058Y1082662D03*
D14*
X1075800Y1172350D03*
D15*
X1080300Y1189850D03*
D16*
X1054050Y1172350D03*
D17*
X1058300Y1189850D03*
D14*
X803258Y1211974D03*
D15*
X807758Y1229474D03*
D16*
X781508Y1211974D03*
D17*
X785758Y1229474D03*
D14*
X546718Y1221626D03*
D15*
X551218Y1239126D03*
D16*
X524968Y1221626D03*
D17*
X529218Y1239126D03*
D14*
X264524Y1115454D03*
D15*
X269024Y1132954D03*
D16*
X242774Y1115454D03*
D17*
X247024Y1132954D03*
D10*
X104000Y959976D03*
D11*
X86500Y964476D03*
D12*
X104000Y938226D03*
D13*
X86500Y942476D03*
D10*
X135750Y809100D03*
D11*
X118250Y813600D03*
D12*
X135750Y787350D03*
D13*
X118250Y791600D03*
D10*
X237350Y644000D03*
D11*
X219850Y648500D03*
D12*
X237350Y622250D03*
D13*
X219850Y626500D03*
D14*
X397400Y516750D03*
D15*
X392900Y499250D03*
D16*
X419150Y516750D03*
D17*
X414900Y499250D03*
D14*
X613300Y389750D03*
D15*
X608800Y372250D03*
D16*
X635050Y389750D03*
D17*
X630800Y372250D03*
D14*
X930800Y338950D03*
D15*
X926300Y321450D03*
D16*
X952550Y338950D03*
D17*
X948300Y321450D03*
D14*
X1146700Y313550D03*
D15*
X1142200Y296050D03*
D16*
X1168450Y313550D03*
D17*
X1164200Y296050D03*
D10*
X1418450Y301100D03*
D11*
X1400950Y305600D03*
D12*
X1418450Y279350D03*
D13*
X1400950Y283600D03*
D18*
X1450400Y141050D03*
X1394400Y141050D03*
D19*
X1437400Y177800D03*
X1427400Y177800D03*
X1417400Y177800D03*
X1407400Y177800D03*
D20*
X1358900Y50800D03*
X1333500Y50800D03*
X1308100Y50800D03*
X1282700Y50800D03*
D21*
X843788Y514388D03*
X843788Y1022388D03*
D22*
X1370838Y264668D03*
X1510792Y450850D03*
X1550924Y637794D03*
X1467866Y804672D03*
X1324356Y981710D03*
X1156462Y1119632D03*
X955294Y1208532D03*
X658876Y1208532D03*
X425958Y1188720D03*
X244602Y1077468D03*
X139192Y941070D03*
X119126Y770382D03*
X199136Y619760D03*
X360426Y557784D03*
X609092Y408940D03*
X829056Y358140D03*
X1098550Y279400D03*
X1338072Y378460D03*
X1371600Y588010D03*
X1306322Y732282D03*
X1092454Y987044D03*
X802894Y1100582D03*
X590550Y1092708D03*
X421132Y1041146D03*
X269240Y891286D03*
X330962Y750062D03*
X623824Y596392D03*
X769112Y509270D03*
X1009142Y458724D03*
X1151636Y589026D03*
X1161542Y829056D03*
X1004316Y842010D03*
X890524Y960374D03*
X612394Y960120D03*
X439166Y861060D03*
X581152Y758190D03*
X738886Y638810D03*
X989330Y668274D03*
X762508Y880872D03*
X690372Y807466D03*
X1407160Y162560D03*
X894080Y515620D03*
X890270Y1022350D03*
X1418663Y320729D03*
X1128268Y312928D03*
X931164Y358902D03*
X622046Y408432D03*
X378714Y516382D03*
X237744Y662940D03*
X135382Y828294D03*
X104140Y978662D03*
X283972Y1115822D03*
X567944Y1221740D03*
X821944Y1211580D03*
X1094540Y1172010D03*
X1316736Y1065022D03*
X1437640Y895350D03*
X1553210Y696722D03*
X1493774Y543052D03*
X1327658Y454914D03*
X1089660Y465328D03*
X943356Y536448D03*
X671776Y542236D03*
X378968Y655828D03*
X288036Y853440D03*
X397764Y1033018D03*
X654812Y1083424D03*
X929894Y1058164D03*
X1075690Y1015238D03*
X1273810Y861314D03*
X1407160Y721868D03*
X1303528Y638810D03*
X1047496Y617982D03*
X741172Y683768D03*
X554990Y802640D03*
X402082Y945134D03*
X599694Y958088D03*
X828802Y955548D03*
X1023112Y906780D03*
X1057656Y791718D03*
X705104Y780288D03*
X601726Y872998D03*
X823214Y831088D03*
X1427480Y162560D03*
X843280Y513080D03*
X843280Y1022350D03*
X838454Y813054D03*
M02*
