G04 EAGLE Gerber RS-274X export*
G75*
%MOMM*%
%FSLAX34Y34*%
%LPD*%
%INSoldermask Top*%
%IPPOS*%
%AMOC8*
5,1,8,0,0,1.08239X$1,22.5*%
G01*
%ADD10R,1.403200X2.203200*%
%ADD11R,0.803200X1.553200*%
%ADD12R,1.053200X2.103200*%
%ADD13R,1.053200X1.203200*%
%ADD14R,1.053200X1.353200*%
%ADD15R,1.053200X2.203200*%
%ADD16R,2.103200X1.053200*%
%ADD17R,1.203200X1.053200*%
%ADD18R,1.353200X1.053200*%
%ADD19R,2.203200X1.053200*%
%ADD20C,2.082800*%
%ADD21R,3.203200X5.203200*%
%ADD22C,1.209600*%


D10*
X1394400Y141050D03*
X1450400Y141050D03*
D11*
X1407400Y177800D03*
X1417400Y177800D03*
X1427400Y177800D03*
X1437400Y177800D03*
D12*
X1388450Y226900D03*
D13*
X1370950Y222400D03*
D14*
X1388450Y248650D03*
D15*
X1370950Y244400D03*
D16*
X283100Y1095150D03*
D17*
X287600Y1077650D03*
D18*
X261350Y1095150D03*
D19*
X265600Y1077650D03*
D12*
X1528450Y413900D03*
D13*
X1510950Y409400D03*
D14*
X1528450Y435650D03*
D15*
X1510950Y431400D03*
D12*
X1568450Y600900D03*
D13*
X1550950Y596400D03*
D14*
X1568450Y622650D03*
D15*
X1550950Y618400D03*
D16*
X1504500Y821550D03*
D17*
X1509000Y804050D03*
D18*
X1482750Y821550D03*
D19*
X1487000Y804050D03*
D16*
X1362900Y999050D03*
D17*
X1367400Y981550D03*
D18*
X1341150Y999050D03*
D19*
X1345400Y981550D03*
D16*
X1193700Y1137350D03*
D17*
X1198200Y1119850D03*
D18*
X1171950Y1137350D03*
D19*
X1176200Y1119850D03*
D16*
X993100Y1226250D03*
D17*
X997600Y1208750D03*
D18*
X971350Y1226250D03*
D19*
X975600Y1208750D03*
D16*
X696100Y1226250D03*
D17*
X700600Y1208750D03*
D18*
X674350Y1226250D03*
D19*
X678600Y1208750D03*
D16*
X463700Y1206250D03*
D17*
X468200Y1188750D03*
D18*
X441950Y1206250D03*
D19*
X446200Y1188750D03*
D12*
X121250Y979000D03*
D13*
X138750Y983500D03*
D14*
X121250Y957250D03*
D15*
X138750Y961500D03*
D12*
X101250Y809000D03*
D13*
X118750Y813500D03*
D14*
X101250Y787250D03*
D15*
X118750Y791500D03*
D12*
X181250Y659000D03*
D13*
X198750Y663500D03*
D14*
X181250Y637250D03*
D15*
X198750Y641500D03*
D16*
X321000Y541250D03*
D17*
X316500Y558750D03*
D18*
X342750Y541250D03*
D19*
X338500Y558750D03*
D16*
X571000Y391250D03*
D17*
X566500Y408750D03*
D18*
X592750Y391250D03*
D19*
X588500Y408750D03*
D16*
X791000Y341250D03*
D17*
X786500Y358750D03*
D18*
X812750Y341250D03*
D19*
X808500Y358750D03*
D16*
X1061000Y261250D03*
D17*
X1056500Y278750D03*
D18*
X1082750Y261250D03*
D19*
X1078500Y278750D03*
D16*
X1301000Y361250D03*
D17*
X1296500Y378750D03*
D18*
X1322750Y361250D03*
D19*
X1318500Y378750D03*
D12*
X1388750Y551000D03*
D13*
X1371250Y546500D03*
D14*
X1388750Y572750D03*
D15*
X1371250Y568500D03*
D16*
X1345300Y749950D03*
D17*
X1349800Y732450D03*
D18*
X1323550Y749950D03*
D19*
X1327800Y732450D03*
D16*
X1129900Y1004450D03*
D17*
X1134400Y986950D03*
D18*
X1108150Y1004450D03*
D19*
X1112400Y986950D03*
D16*
X840900Y1118750D03*
D17*
X845400Y1101250D03*
D18*
X819150Y1118750D03*
D19*
X823400Y1101250D03*
D16*
X629000Y1108750D03*
D17*
X633500Y1091250D03*
D18*
X607250Y1108750D03*
D19*
X611500Y1091250D03*
D16*
X459000Y1058750D03*
D17*
X463500Y1041250D03*
D18*
X437250Y1058750D03*
D19*
X441500Y1041250D03*
D12*
X251250Y929000D03*
D13*
X268750Y933500D03*
D14*
X251250Y907250D03*
D15*
X268750Y911500D03*
D16*
X292400Y733050D03*
D17*
X287900Y750550D03*
D18*
X314150Y733050D03*
D19*
X309900Y750550D03*
D16*
X586400Y578550D03*
D17*
X581900Y596050D03*
D18*
X608150Y578550D03*
D19*
X603900Y596050D03*
D16*
X731000Y491250D03*
D17*
X726500Y508750D03*
D18*
X752750Y491250D03*
D19*
X748500Y508750D03*
D16*
X971000Y441250D03*
D17*
X966500Y458750D03*
D18*
X992750Y441250D03*
D19*
X988500Y458750D03*
D12*
X1168750Y551000D03*
D13*
X1151250Y546500D03*
D14*
X1168750Y572750D03*
D15*
X1151250Y568500D03*
D12*
X1178750Y791000D03*
D13*
X1161250Y786500D03*
D14*
X1178750Y812750D03*
D15*
X1161250Y808500D03*
D16*
X929000Y978750D03*
D17*
X933500Y961250D03*
D18*
X907250Y978750D03*
D19*
X911500Y961250D03*
D16*
X649000Y978750D03*
D17*
X653500Y961250D03*
D18*
X627250Y978750D03*
D19*
X631500Y961250D03*
D12*
X421250Y899000D03*
D13*
X438750Y903500D03*
D14*
X421250Y877250D03*
D15*
X438750Y881500D03*
D16*
X543700Y741250D03*
D17*
X539200Y758750D03*
D18*
X565450Y741250D03*
D19*
X561200Y758750D03*
D16*
X701000Y621250D03*
D17*
X696500Y638750D03*
D18*
X722750Y621250D03*
D19*
X718500Y638750D03*
D16*
X951000Y651250D03*
D17*
X946500Y668750D03*
D18*
X972750Y651250D03*
D19*
X968500Y668750D03*
D16*
X1040500Y859050D03*
D17*
X1045000Y841550D03*
D18*
X1018750Y859050D03*
D19*
X1023000Y841550D03*
D16*
X799000Y898750D03*
D17*
X803500Y881250D03*
D18*
X777250Y898750D03*
D19*
X781500Y881250D03*
D16*
X651500Y790950D03*
D17*
X647000Y808450D03*
D18*
X673250Y790950D03*
D19*
X669000Y808450D03*
D20*
X1358900Y50800D03*
X1333500Y50800D03*
X1308100Y50800D03*
X1282700Y50800D03*
D21*
X890270Y514388D03*
X890270Y1022388D03*
D22*
X1370838Y264668D03*
X1510792Y450850D03*
X1550924Y637794D03*
X1467866Y804672D03*
X1324356Y981710D03*
X1156462Y1119632D03*
X955294Y1208532D03*
X658876Y1208532D03*
X425958Y1188720D03*
X244602Y1077468D03*
X139192Y941070D03*
X119126Y770382D03*
X199136Y619760D03*
X360426Y557784D03*
X609092Y408940D03*
X829056Y358140D03*
X1098550Y279400D03*
X1338072Y378460D03*
X1371600Y588010D03*
X1306322Y732282D03*
X1092454Y987044D03*
X802894Y1100582D03*
X590550Y1092708D03*
X421132Y1041146D03*
X269240Y891286D03*
X330962Y750062D03*
X623824Y596392D03*
X769112Y509270D03*
X1009142Y458724D03*
X1151636Y589026D03*
X1161542Y829056D03*
X1004316Y842010D03*
X890524Y960374D03*
X612394Y960120D03*
X439166Y861060D03*
X581152Y758190D03*
X738886Y638810D03*
X989330Y668274D03*
X762508Y880872D03*
X690372Y807466D03*
X1407160Y162560D03*
X894080Y515620D03*
X890270Y1022350D03*
X1418663Y320729D03*
X1128268Y312928D03*
X931164Y358902D03*
X622046Y408432D03*
X378714Y516382D03*
X237744Y662940D03*
X135382Y828294D03*
X104140Y978662D03*
X283972Y1115822D03*
X567944Y1221740D03*
X821944Y1211580D03*
X1094540Y1172010D03*
X1316736Y1065022D03*
X1437640Y895350D03*
X1553210Y696722D03*
X1493774Y543052D03*
X1327658Y454914D03*
X1089660Y465328D03*
X943356Y536448D03*
X671776Y542236D03*
X378968Y655828D03*
X288036Y853440D03*
X397764Y1033018D03*
X654812Y1083424D03*
X929894Y1058164D03*
X1075690Y1015238D03*
X1273810Y861314D03*
X1407160Y721868D03*
X1303528Y638810D03*
X1047496Y617982D03*
X741172Y683768D03*
X554990Y802640D03*
X402082Y945134D03*
X599694Y958088D03*
X828802Y955548D03*
X1023112Y906780D03*
X1057656Y791718D03*
X705104Y780288D03*
X601726Y872998D03*
X823214Y831088D03*
X1427480Y162560D03*
X843280Y513080D03*
X843280Y1022350D03*
X838454Y813054D03*
M02*
