G04 EAGLE Gerber RS-274X export*
G75*
%MOMM*%
%FSLAX34Y34*%
%LPD*%
%INSolderpaste Top*%
%IPPOS*%
%AMOC8*
5,1,8,0,0,1.08239X$1,22.5*%
G01*
%ADD10R,0.850000X1.900000*%
%ADD11R,0.850000X1.000000*%
%ADD12R,0.850000X1.150000*%
%ADD13R,0.850000X2.000000*%
%ADD14R,1.900000X0.850000*%
%ADD15R,1.000000X0.850000*%
%ADD16R,1.150000X0.850000*%
%ADD17R,2.000000X0.850000*%


D10*
X1388450Y226900D03*
D11*
X1370950Y222400D03*
D12*
X1388450Y248650D03*
D13*
X1370950Y244400D03*
D14*
X283100Y1095150D03*
D15*
X287600Y1077650D03*
D16*
X261350Y1095150D03*
D17*
X265600Y1077650D03*
D10*
X1528450Y413900D03*
D11*
X1510950Y409400D03*
D12*
X1528450Y435650D03*
D13*
X1510950Y431400D03*
D10*
X1568450Y600900D03*
D11*
X1550950Y596400D03*
D12*
X1568450Y622650D03*
D13*
X1550950Y618400D03*
D14*
X1504500Y821550D03*
D15*
X1509000Y804050D03*
D16*
X1482750Y821550D03*
D17*
X1487000Y804050D03*
D14*
X1362900Y999050D03*
D15*
X1367400Y981550D03*
D16*
X1341150Y999050D03*
D17*
X1345400Y981550D03*
D14*
X1193700Y1137350D03*
D15*
X1198200Y1119850D03*
D16*
X1171950Y1137350D03*
D17*
X1176200Y1119850D03*
D14*
X993100Y1226250D03*
D15*
X997600Y1208750D03*
D16*
X971350Y1226250D03*
D17*
X975600Y1208750D03*
D14*
X696100Y1226250D03*
D15*
X700600Y1208750D03*
D16*
X674350Y1226250D03*
D17*
X678600Y1208750D03*
D14*
X463700Y1206250D03*
D15*
X468200Y1188750D03*
D16*
X441950Y1206250D03*
D17*
X446200Y1188750D03*
D10*
X121250Y979000D03*
D11*
X138750Y983500D03*
D12*
X121250Y957250D03*
D13*
X138750Y961500D03*
D10*
X101250Y809000D03*
D11*
X118750Y813500D03*
D12*
X101250Y787250D03*
D13*
X118750Y791500D03*
D10*
X181250Y659000D03*
D11*
X198750Y663500D03*
D12*
X181250Y637250D03*
D13*
X198750Y641500D03*
D14*
X321000Y541250D03*
D15*
X316500Y558750D03*
D16*
X342750Y541250D03*
D17*
X338500Y558750D03*
D14*
X571000Y391250D03*
D15*
X566500Y408750D03*
D16*
X592750Y391250D03*
D17*
X588500Y408750D03*
D14*
X791000Y341250D03*
D15*
X786500Y358750D03*
D16*
X812750Y341250D03*
D17*
X808500Y358750D03*
D14*
X1061000Y261250D03*
D15*
X1056500Y278750D03*
D16*
X1082750Y261250D03*
D17*
X1078500Y278750D03*
D14*
X1301000Y361250D03*
D15*
X1296500Y378750D03*
D16*
X1322750Y361250D03*
D17*
X1318500Y378750D03*
D10*
X1388750Y551000D03*
D11*
X1371250Y546500D03*
D12*
X1388750Y572750D03*
D13*
X1371250Y568500D03*
D14*
X1345300Y749950D03*
D15*
X1349800Y732450D03*
D16*
X1323550Y749950D03*
D17*
X1327800Y732450D03*
D14*
X1129900Y1004450D03*
D15*
X1134400Y986950D03*
D16*
X1108150Y1004450D03*
D17*
X1112400Y986950D03*
D14*
X840900Y1118750D03*
D15*
X845400Y1101250D03*
D16*
X819150Y1118750D03*
D17*
X823400Y1101250D03*
D14*
X629000Y1108750D03*
D15*
X633500Y1091250D03*
D16*
X607250Y1108750D03*
D17*
X611500Y1091250D03*
D14*
X459000Y1058750D03*
D15*
X463500Y1041250D03*
D16*
X437250Y1058750D03*
D17*
X441500Y1041250D03*
D10*
X251250Y929000D03*
D11*
X268750Y933500D03*
D12*
X251250Y907250D03*
D13*
X268750Y911500D03*
D14*
X292400Y733050D03*
D15*
X287900Y750550D03*
D16*
X314150Y733050D03*
D17*
X309900Y750550D03*
D14*
X586400Y578550D03*
D15*
X581900Y596050D03*
D16*
X608150Y578550D03*
D17*
X603900Y596050D03*
D14*
X731000Y491250D03*
D15*
X726500Y508750D03*
D16*
X752750Y491250D03*
D17*
X748500Y508750D03*
D14*
X971000Y441250D03*
D15*
X966500Y458750D03*
D16*
X992750Y441250D03*
D17*
X988500Y458750D03*
D10*
X1168750Y551000D03*
D11*
X1151250Y546500D03*
D12*
X1168750Y572750D03*
D13*
X1151250Y568500D03*
D10*
X1178750Y791000D03*
D11*
X1161250Y786500D03*
D12*
X1178750Y812750D03*
D13*
X1161250Y808500D03*
D14*
X929000Y978750D03*
D15*
X933500Y961250D03*
D16*
X907250Y978750D03*
D17*
X911500Y961250D03*
D14*
X649000Y978750D03*
D15*
X653500Y961250D03*
D16*
X627250Y978750D03*
D17*
X631500Y961250D03*
D10*
X421250Y899000D03*
D11*
X438750Y903500D03*
D12*
X421250Y877250D03*
D13*
X438750Y881500D03*
D14*
X543700Y741250D03*
D15*
X539200Y758750D03*
D16*
X565450Y741250D03*
D17*
X561200Y758750D03*
D14*
X701000Y621250D03*
D15*
X696500Y638750D03*
D16*
X722750Y621250D03*
D17*
X718500Y638750D03*
D14*
X951000Y651250D03*
D15*
X946500Y668750D03*
D16*
X972750Y651250D03*
D17*
X968500Y668750D03*
D14*
X1040500Y859050D03*
D15*
X1045000Y841550D03*
D16*
X1018750Y859050D03*
D17*
X1023000Y841550D03*
D14*
X799000Y898750D03*
D15*
X803500Y881250D03*
D16*
X777250Y898750D03*
D17*
X781500Y881250D03*
D14*
X651500Y790950D03*
D15*
X647000Y808450D03*
D16*
X673250Y790950D03*
D17*
X669000Y808450D03*
M02*
