M48
;GenerationSoftware,Autodesk,EAGLE,9.6.2*%
;CreationDate,2023-12-01T01:33:11Z*%
FMAT,2
ICI,OFF
METRIC,TZ,000.000
T3C0.350
T2C0.600
T1C1.016
%
G90
M71
T1
X137330Y9640
X129710Y9640
X132250Y9640
X134790Y9640
T2
X146787Y80467
X132436Y98171
X115646Y111963
X95529Y120853
X65888Y120853
X42596Y118872
X24460Y107747
X13919Y94107
X11913Y77038
X19914Y61976
X36043Y55778
X60909Y40894
X82906Y35814
X109855Y27940
X133807Y37846
X137160Y58801
X130632Y73228
X109245Y98704
X80289Y110058
X59055Y109271
X42113Y104115
X26924Y89129
X33096Y75006
X62382Y59639
X76911Y50927
X100914Y45872
X115164Y58903
X116154Y82906
X100432Y84201
X89052Y96037
X61239Y96012
X43917Y86106
X58115Y75819
X73889Y63881
X98933Y66827
X76251Y88087
X69037Y80747
X141866Y32073
X112827Y31293
X91211Y33858
X62205Y40843
X37871Y51638
X23774Y66294
X13538Y82829
X10414Y97866
X28397Y111582
X56794Y122174
X82194Y121158
X109454Y117201
X131674Y106502
X143764Y89535
X155321Y69672
X149377Y54305
X132766Y45491
X108966Y46533
X94336Y53645
X67178Y54224
X37897Y65583
X28804Y85344
X39776Y103302
X65481Y108342
X107569Y101524
X127381Y86131
X140716Y72187
X130353Y63881
X104750Y61798
X74117Y68377
X55499Y80264
X40208Y94513
X59969Y95809
X92989Y105816
X102311Y90678
X105766Y79172
X70510Y78029
X60173Y87300
X82321Y83109
X83845Y81305
X137084Y26467
X151079Y45085
X155092Y63779
X82880Y95555
T3
X88925Y51435
M30