999
"DXF R12 Output" (www.mydxf.blogspot.com)
 0 
SECTION
 2 
HEADER
 9 
$ACADVER
 1 
AC1009
 9 
$EXTMIN
 10 
 0 
 20 
 0 
 9 
$EXTMAX
 10 
 8.5 
 20 
 11 
 0 
ENDSEC
 0 
SECTION
 2 
ENTITIES
0
LINE
8
Layer 1
10
163.297000
20
54.883300
11
163.967906
21
57.909201
0
LINE
8
Layer 1
10
163.967906
20
57.909201
11
164.346089
21
60.628754
0
LINE
8
Layer 1
10
164.346089
20
60.628754
11
164.465969
21
63.057291
0
LINE
8
Layer 1
10
164.465969
20
63.057291
11
164.361962
21
65.210147
0
LINE
8
Layer 1
10
164.361962
20
65.210147
11
164.068487
21
67.102655
0
LINE
8
Layer 1
10
164.068487
20
67.102655
11
163.619963
21
68.750150
0
LINE
8
Layer 1
10
163.619963
20
68.750150
11
163.050805
21
70.167966
0
LINE
8
Layer 1
10
163.050805
20
70.167966
11
162.395434
21
71.371436
0
LINE
8
Layer 1
10
162.395434
20
71.371436
11
160.963721
21
73.196674
0
LINE
8
Layer 1
10
160.963721
20
73.196674
11
159.600167
21
74.348537
0
LINE
8
Layer 1
10
159.600167
20
74.348537
11
158.580116
21
74.949696
0
LINE
8
Layer 1
10
158.580116
20
74.949696
11
158.178911
21
75.122822
0
LINE
8
Layer 1
10
158.178911
20
75.122822
11
158.481325
21
77.964007
0
LINE
8
Layer 1
10
158.481325
20
77.964007
11
158.537007
21
80.481121
0
LINE
8
Layer 1
10
158.537007
20
80.481121
11
158.377309
21
82.693587
0
LINE
8
Layer 1
10
158.377309
20
82.693587
11
158.033584
21
84.620830
0
LINE
8
Layer 1
10
158.033584
20
84.620830
11
157.537184
21
86.282273
0
LINE
8
Layer 1
10
157.537184
20
86.282273
11
156.919462
21
87.697338
0
LINE
8
Layer 1
10
156.919462
20
87.697338
11
156.211771
21
88.885451
0
LINE
8
Layer 1
10
156.211771
20
88.885451
11
155.445463
21
89.866034
0
LINE
8
Layer 1
10
155.445463
20
89.866034
11
153.862406
21
91.282307
0
LINE
8
Layer 1
10
153.862406
20
91.282307
11
152.421111
21
92.101544
0
LINE
8
Layer 1
10
152.421111
20
92.101544
11
150.967091
21
92.570467
0
LINE
8
Layer 1
10
150.967091
20
92.570467
11
150.644787
21
94.821872
0
LINE
8
Layer 1
10
150.644787
20
94.821872
11
150.133350
21
96.710690
0
LINE
8
Layer 1
10
150.133350
20
96.710690
11
149.461747
21
98.266911
0
LINE
8
Layer 1
10
149.461747
20
98.266911
11
148.658943
21
99.520521
0
LINE
8
Layer 1
10
148.658943
20
99.520521
11
147.753905
21
100.501510
0
LINE
8
Layer 1
10
147.753905
20
100.501510
11
146.775598
21
101.239866
0
LINE
8
Layer 1
10
146.775598
20
101.239866
11
145.752989
21
101.765577
0
LINE
8
Layer 1
10
145.752989
20
101.765577
11
144.715045
21
102.108631
0
LINE
8
Layer 1
10
144.715045
20
102.108631
11
142.709012
21
102.366722
0
LINE
8
Layer 1
10
142.709012
20
102.366722
11
140.989229
21
102.254047
0
LINE
8
Layer 1
10
140.989229
20
102.254047
11
139.335328
21
101.876019
0
LINE
8
Layer 1
10
139.335328
20
101.876019
11
138.541668
21
104.591759
0
LINE
8
Layer 1
10
138.541668
20
104.591759
11
137.576942
21
106.993987
0
LINE
8
Layer 1
10
137.576942
20
106.993987
11
136.471818
21
109.101784
0
LINE
8
Layer 1
10
136.471818
20
109.101784
11
135.256967
21
110.934235
0
LINE
8
Layer 1
10
135.256967
20
110.934235
11
133.963056
21
112.510423
0
LINE
8
Layer 1
10
133.963056
20
112.510423
11
132.620757
21
113.849432
0
LINE
8
Layer 1
10
132.620757
20
113.849432
11
131.260738
21
114.970345
0
LINE
8
Layer 1
10
131.260738
20
114.970345
11
129.913668
21
115.892246
0
LINE
8
Layer 1
10
129.913668
20
115.892246
11
127.381055
21
117.215345
0
LINE
8
Layer 1
10
127.381055
20
117.215345
11
125.268273
21
117.971398
0
LINE
8
Layer 1
10
125.268273
20
117.971398
11
123.283622
21
118.393038
0
LINE
8
Layer 1
10
123.283622
20
118.393038
11
122.252078
21
119.789677
0
LINE
8
Layer 1
10
122.252078
20
119.789677
11
121.094450
21
120.940622
0
LINE
8
Layer 1
10
121.094450
20
120.940622
11
119.837319
21
121.867342
0
LINE
8
Layer 1
10
119.837319
20
121.867342
11
118.507264
21
122.591305
0
LINE
8
Layer 1
10
118.507264
20
122.591305
11
117.130865
21
123.133978
0
LINE
8
Layer 1
10
117.130865
20
123.133978
11
115.734704
21
123.516832
0
LINE
8
Layer 1
10
115.734704
20
123.516832
11
112.989412
21
123.888951
0
LINE
8
Layer 1
10
112.989412
20
123.888951
11
110.484031
21
123.879409
0
LINE
8
Layer 1
10
110.484031
20
123.879409
11
108.431203
21
123.659954
0
LINE
8
Layer 1
10
108.431203
20
123.659954
11
106.533770
21
123.278294
0
LINE
8
Layer 1
10
106.533770
20
123.278294
11
104.598697
21
124.799618
0
LINE
8
Layer 1
10
104.598697
20
124.799618
11
102.645224
21
125.983227
0
LINE
8
Layer 1
10
102.645224
20
125.983227
11
100.693116
21
126.862176
0
LINE
8
Layer 1
10
100.693116
20
126.862176
11
98.762136
21
127.469521
0
LINE
8
Layer 1
10
98.762136
20
127.469521
11
96.872052
21
127.838318
0
LINE
8
Layer 1
10
96.872052
20
127.838318
11
95.042627
21
128.001623
0
LINE
8
Layer 1
10
95.042627
20
128.001623
11
93.293626
21
127.992491
0
LINE
8
Layer 1
10
93.293626
20
127.992491
11
91.644816
21
127.843978
0
LINE
8
Layer 1
10
91.644816
20
127.843978
11
88.726827
21
127.261032
0
LINE
8
Layer 1
10
88.726827
20
127.261032
11
86.446780
21
126.517233
0
LINE
8
Layer 1
10
86.446780
20
126.517233
11
84.432996
21
125.604858
0
LINE
8
Layer 1
10
84.432996
20
125.604858
11
83.387534
21
126.601597
0
LINE
8
Layer 1
10
83.387534
20
126.601597
11
82.350242
21
127.341399
0
LINE
8
Layer 1
10
82.350242
20
127.341399
11
81.329301
21
127.850844
0
LINE
8
Layer 1
10
81.329301
20
127.850844
11
80.332890
21
128.156511
0
LINE
8
Layer 1
10
80.332890
20
128.156511
11
79.369187
21
128.284979
0
LINE
8
Layer 1
10
79.369187
20
128.284979
11
78.446373
21
128.262829
0
LINE
8
Layer 1
10
78.446373
20
128.262829
11
76.756128
21
127.872994
0
LINE
8
Layer 1
10
76.756128
20
127.872994
11
75.327587
21
127.199641
0
LINE
8
Layer 1
10
75.327587
20
127.199641
11
74.226187
21
126.455409
0
LINE
8
Layer 1
10
74.226187
20
126.455409
11
73.266546
21
125.604858
0
LINE
8
Layer 1
10
73.266546
20
125.604858
11
69.292743
21
127.392779
0
LINE
8
Layer 1
10
69.292743
20
127.392779
11
65.412315
21
128.610927
0
LINE
8
Layer 1
10
65.412315
20
128.610927
11
61.647753
21
129.322002
0
LINE
8
Layer 1
10
61.647753
20
129.322002
11
58.021547
21
129.588708
0
LINE
8
Layer 1
10
58.021547
20
129.588708
11
54.556189
21
129.473747
0
LINE
8
Layer 1
10
54.556189
20
129.473747
11
51.274169
21
129.039822
0
LINE
8
Layer 1
10
51.274169
20
129.039822
11
48.197980
21
128.349635
0
LINE
8
Layer 1
10
48.197980
20
128.349635
11
45.350111
21
127.465889
0
LINE
8
Layer 1
10
45.350111
20
127.465889
11
42.753055
21
126.451286
0
LINE
8
Layer 1
10
42.753055
20
126.451286
11
40.429301
21
125.368528
0
LINE
8
Layer 1
10
40.429301
20
125.368528
11
36.691668
21
123.249360
0
LINE
8
Layer 1
10
36.691668
20
123.249360
11
34.317141
21
121.610005
0
LINE
8
Layer 1
10
34.317141
20
121.610005
11
33.485647
21
120.952082
0
LINE
8
Layer 1
10
33.485647
20
120.952082
11
30.546878
21
120.818837
0
LINE
8
Layer 1
10
30.546878
20
120.818837
11
27.913777
21
120.442275
0
LINE
8
Layer 1
10
27.913777
20
120.442275
11
25.570328
21
119.857156
0
LINE
8
Layer 1
10
25.570328
20
119.857156
11
23.500515
21
119.098239
0
LINE
8
Layer 1
10
23.500515
20
119.098239
11
21.688323
21
118.200284
0
LINE
8
Layer 1
10
21.688323
20
118.200284
11
20.117736
21
117.198050
0
LINE
8
Layer 1
10
20.117736
20
117.198050
11
18.772739
21
116.126297
0
LINE
8
Layer 1
10
18.772739
20
116.126297
11
17.637317
21
115.019784
0
LINE
8
Layer 1
10
17.637317
20
115.019784
11
15.931133
21
112.841518
0
LINE
8
Layer 1
10
15.931133
20
112.841518
11
14.871060
21
110.941329
0
LINE
8
Layer 1
10
14.871060
20
110.941329
11
14.176751
21
109.087486
0
LINE
8
Layer 1
10
14.176751
20
109.087486
11
10.930347
21
107.537618
0
LINE
8
Layer 1
10
10.930347
20
107.537618
11
8.226807
21
105.793841
0
LINE
8
Layer 1
10
8.226807
20
105.793841
11
6.020125
21
103.896708
0
LINE
8
Layer 1
10
6.020125
20
103.896708
11
4.264296
21
101.886773
0
LINE
8
Layer 1
10
4.264296
20
101.886773
11
2.913314
21
99.804588
0
LINE
8
Layer 1
10
2.913314
20
99.804588
11
1.921173
21
97.690706
0
LINE
8
Layer 1
10
1.921173
20
97.690706
11
1.241866
21
95.585681
0
LINE
8
Layer 1
10
1.241866
20
95.585681
11
0.829389
21
93.530064
0
LINE
8
Layer 1
10
0.829389
20
93.530064
11
0.637735
21
91.564411
0
LINE
8
Layer 1
10
0.637735
20
91.564411
11
0.620899
21
89.729272
0
LINE
8
Layer 1
10
0.620899
20
89.729272
11
0.927654
21
86.612752
0
LINE
8
Layer 1
10
0.927654
20
86.612752
11
1.381608
21
84.504930
0
LINE
8
Layer 1
10
1.381608
20
84.504930
11
1.614715
21
83.730228
0
LINE
8
Layer 1
10
1.614715
20
83.730228
11
0.889758
21
81.793424
0
LINE
8
Layer 1
10
0.889758
20
81.793424
11
0.438780
21
79.914893
0
LINE
8
Layer 1
10
0.438780
20
79.914893
11
0.230429
21
78.103836
0
LINE
8
Layer 1
10
0.230429
20
78.103836
11
0.233356
21
76.369453
0
LINE
8
Layer 1
10
0.233356
20
76.369453
11
0.416209
21
74.720946
0
LINE
8
Layer 1
10
0.416209
20
74.720946
11
0.747638
21
73.167516
0
LINE
8
Layer 1
10
0.747638
20
73.167516
11
1.730823
21
70.382690
0
LINE
8
Layer 1
10
1.730823
20
70.382690
11
2.932106
21
68.088582
0
LINE
8
Layer 1
10
2.932106
20
68.088582
11
4.100685
21
66.358800
0
LINE
8
Layer 1
10
4.100685
20
66.358800
11
5.336512
21
64.886645
0
LINE
8
Layer 1
10
5.336512
20
64.886645
11
5.206686
21
63.314044
0
LINE
8
Layer 1
10
5.206686
20
63.314044
11
5.398880
21
61.825610
0
LINE
8
Layer 1
10
5.398880
20
61.825610
11
5.869817
21
60.423729
0
LINE
8
Layer 1
10
5.869817
20
60.423729
11
6.576220
21
59.110787
0
LINE
8
Layer 1
10
6.576220
20
59.110787
11
7.474811
21
57.889169
0
LINE
8
Layer 1
10
7.474811
20
57.889169
11
8.522314
21
56.761261
0
LINE
8
Layer 1
10
8.522314
20
56.761261
11
10.890942
21
54.796120
0
LINE
8
Layer 1
10
10.890942
20
54.796120
11
13.335886
21
53.234451
0
LINE
8
Layer 1
10
13.335886
20
53.234451
11
15.510926
21
52.095342
0
LINE
8
Layer 1
10
15.510926
20
52.095342
11
17.666421
21
51.161150
0
LINE
8
Layer 1
10
17.666421
20
51.161150
11
18.716253
21
49.886461
0
LINE
8
Layer 1
10
18.716253
20
49.886461
11
19.925564
21
48.760692
0
LINE
8
Layer 1
10
19.925564
20
48.760692
11
21.263003
21
47.774642
0
LINE
8
Layer 1
10
21.263003
20
47.774642
11
22.697220
21
46.919111
0
LINE
8
Layer 1
10
22.697220
20
46.919111
11
25.730581
21
45.562800
0
LINE
8
Layer 1
10
25.730581
20
45.562800
11
28.774840
21
44.618151
0
LINE
8
Layer 1
10
28.774840
20
44.618151
11
31.579188
21
44.011556
0
LINE
8
Layer 1
10
31.579188
20
44.011556
11
33.892818
21
43.669407
0
LINE
8
Layer 1
10
33.892818
20
43.669407
11
36.044692
21
43.484017
0
LINE
8
Layer 1
10
36.044692
20
43.484017
11
35.744938
21
41.221264
0
LINE
8
Layer 1
10
35.744938
20
41.221264
11
35.692829
21
39.203612
0
LINE
8
Layer 1
10
35.692829
20
39.203612
11
35.864490
21
37.417245
0
LINE
8
Layer 1
10
35.864490
20
37.417245
11
36.236046
21
35.848346
0
LINE
8
Layer 1
10
36.236046
20
35.848346
11
36.783621
21
34.483097
0
LINE
8
Layer 1
10
36.783621
20
34.483097
11
37.483342
21
33.307681
0
LINE
8
Layer 1
10
37.483342
20
33.307681
11
38.311332
21
32.308280
0
LINE
8
Layer 1
10
38.311332
20
32.308280
11
39.243718
21
31.471078
0
LINE
8
Layer 1
10
39.243718
20
31.471078
11
40.256623
21
30.782257
0
LINE
8
Layer 1
10
40.256623
20
30.782257
11
41.326173
21
30.228001
0
LINE
8
Layer 1
10
41.326173
20
30.228001
11
43.539709
21
29.467911
0
LINE
8
Layer 1
10
43.539709
20
29.467911
11
45.693325
21
29.080271
0
LINE
8
Layer 1
10
45.693325
20
29.080271
11
47.596022
21
28.954543
0
LINE
8
Layer 1
10
47.596022
20
28.954543
11
47.596022
21
69.117852
0
LINE
8
Layer 1
10
47.596022
20
69.117852
11
50.771015
21
69.117852
0
LINE
8
Layer 1
10
50.771015
20
69.117852
11
50.771015
21
27.673963
0
LINE
8
Layer 1
10
50.771015
20
27.673963
11
51.638258
21
26.418803
0
LINE
8
Layer 1
10
51.638258
20
26.418803
11
52.582756
21
25.321572
0
LINE
8
Layer 1
10
52.582756
20
25.321572
11
53.597638
21
24.374525
0
LINE
8
Layer 1
10
53.597638
20
24.374525
11
54.676031
21
23.569920
0
LINE
8
Layer 1
10
54.676031
20
23.569920
11
56.995864
21
22.357056
0
LINE
8
Layer 1
10
56.995864
20
22.357056
11
59.487280
21
21.621032
0
LINE
8
Layer 1
10
59.487280
20
21.621032
11
62.095305
21
21.299895
0
LINE
8
Layer 1
10
62.095305
20
21.299895
11
64.764964
21
21.331697
0
LINE
8
Layer 1
10
64.764964
20
21.331697
11
67.441282
21
21.654488
0
LINE
8
Layer 1
10
67.441282
20
21.654488
11
70.069284
21
22.206316
0
LINE
8
Layer 1
10
70.069284
20
22.206316
11
72.593995
21
22.925233
0
LINE
8
Layer 1
10
72.593995
20
22.925233
11
74.960441
21
23.749288
0
LINE
8
Layer 1
10
74.960441
20
23.749288
11
78.998637
21
25.465011
0
LINE
8
Layer 1
10
78.998637
20
25.465011
11
81.744074
21
26.857886
0
LINE
8
Layer 1
10
81.744074
20
26.857886
11
82.756953
21
27.432311
0
LINE
8
Layer 1
10
82.756953
20
27.432311
11
84.515546
21
26.090347
0
LINE
8
Layer 1
10
84.515546
20
26.090347
11
84.515546
21
75.628704
0
LINE
8
Layer 1
10
84.515546
20
75.628704
11
86.115742
21
75.628704
0
LINE
8
Layer 1
10
86.115742
20
75.628704
11
86.115742
21
25.316354
0
LINE
8
Layer 1
10
86.115742
20
25.316354
11
87.218697
21
25.025531
0
LINE
8
Layer 1
10
87.218697
20
25.025531
11
88.214347
21
24.934385
0
LINE
8
Layer 1
10
88.214347
20
24.934385
11
89.834718
21
25.152754
0
LINE
8
Layer 1
10
89.834718
20
25.152754
11
90.878827
21
25.574719
0
LINE
8
Layer 1
10
90.878827
20
25.574719
11
91.248648
21
25.803539
0
LINE
8
Layer 1
10
91.248648
20
25.803539
11
91.274998
21
23.793879
0
LINE
8
Layer 1
10
91.274998
20
23.793879
11
91.735805
21
22.114087
0
LINE
8
Layer 1
10
91.735805
20
22.114087
11
92.496079
21
20.745081
0
LINE
8
Layer 1
10
92.496079
20
20.745081
11
93.420828
21
19.667777
0
LINE
8
Layer 1
10
93.420828
20
19.667777
11
94.375062
21
18.863093
0
LINE
8
Layer 1
10
94.375062
20
18.863093
11
95.223789
21
18.311945
0
LINE
8
Layer 1
10
95.223789
20
18.311945
11
96.064759
21
17.893926
0
LINE
8
Layer 1
10
96.064759
20
17.893926
11
95.596858
21
15.984130
0
LINE
8
Layer 1
10
95.596858
20
15.984130
11
95.472796
21
14.261760
0
LINE
8
Layer 1
10
95.472796
20
14.261760
11
95.649295
21
12.717957
0
LINE
8
Layer 1
10
95.649295
20
12.717957
11
96.083076
21
11.343860
0
LINE
8
Layer 1
10
96.083076
20
11.343860
11
96.730861
21
10.130609
0
LINE
8
Layer 1
10
96.730861
20
10.130609
11
97.549372
21
9.069343
0
LINE
8
Layer 1
10
97.549372
20
9.069343
11
98.495331
21
8.151202
0
LINE
8
Layer 1
10
98.495331
20
8.151202
11
99.525458
21
7.367325
0
LINE
8
Layer 1
10
99.525458
20
7.367325
11
101.665105
21
6.166923
0
LINE
8
Layer 1
10
101.665105
20
6.166923
11
103.622086
21
5.397253
0
LINE
8
Layer 1
10
103.622086
20
5.397253
11
105.603144
21
4.866577
0
LINE
8
Layer 1
10
105.603144
20
4.866577
11
109.511031
21
3.336533
0
LINE
8
Layer 1
10
109.511031
20
3.336533
11
113.188202
21
2.169200
0
LINE
8
Layer 1
10
113.188202
20
2.169200
11
116.640213
21
1.336233
0
LINE
8
Layer 1
10
116.640213
20
1.336233
11
119.872621
21
0.809289
0
LINE
8
Layer 1
10
119.872621
20
0.809289
11
119.872621
21
69.117852
0
LINE
8
Layer 1
10
119.872621
20
69.117852
11
123.047614
21
69.117852
0
LINE
8
Layer 1
10
123.047614
20
69.117852
11
123.047614
21
0.554231
0
LINE
8
Layer 1
10
123.047614
20
0.554231
11
126.123092
21
0.584758
0
LINE
8
Layer 1
10
126.123092
20
0.584758
11
128.950286
21
0.882555
0
LINE
8
Layer 1
10
128.950286
20
0.882555
11
131.536076
21
1.410470
0
LINE
8
Layer 1
10
131.536076
20
1.410470
11
133.887343
21
2.131354
0
LINE
8
Layer 1
10
133.887343
20
2.131354
11
136.010967
21
3.008056
0
LINE
8
Layer 1
10
136.010967
20
3.008056
11
137.913830
21
4.003427
0
LINE
8
Layer 1
10
137.913830
20
4.003427
11
139.602812
21
5.080316
0
LINE
8
Layer 1
10
139.602812
20
5.080316
11
141.084793
21
6.201573
0
LINE
8
Layer 1
10
141.084793
20
6.201573
11
143.455277
21
8.428592
0
LINE
8
Layer 1
10
143.455277
20
8.428592
11
145.080329
21
10.387283
0
LINE
8
Layer 1
10
145.080329
20
10.387283
11
146.314315
21
12.310877
0
LINE
8
Layer 1
10
146.314315
20
12.310877
11
147.623884
21
12.972992
0
LINE
8
Layer 1
10
147.623884
20
12.972992
11
148.688433
21
13.725754
0
LINE
8
Layer 1
10
148.688433
20
13.725754
11
149.530112
21
14.550762
0
LINE
8
Layer 1
10
149.530112
20
14.550762
11
150.171072
21
15.429613
0
LINE
8
Layer 1
10
150.171072
20
15.429613
11
150.633463
21
16.343906
0
LINE
8
Layer 1
10
150.633463
20
16.343906
11
150.939437
21
17.275239
0
LINE
8
Layer 1
10
150.939437
20
17.275239
11
151.170732
21
19.115416
0
LINE
8
Layer 1
10
151.170732
20
19.115416
11
151.042161
21
20.802929
0
LINE
8
Layer 1
10
151.042161
20
20.802929
11
150.730929
21
22.190562
0
LINE
8
Layer 1
10
150.730929
20
22.190562
11
150.269298
21
23.477328
0
LINE
8
Layer 1
10
150.269298
20
23.477328
11
153.193309
21
24.485358
0
LINE
8
Layer 1
10
153.193309
20
24.485358
11
155.624908
21
25.576534
0
LINE
8
Layer 1
10
155.624908
20
25.576534
11
157.606012
21
26.730410
0
LINE
8
Layer 1
10
157.606012
20
26.730410
11
159.178532
21
27.926540
0
LINE
8
Layer 1
10
159.178532
20
27.926540
11
160.384385
21
29.144477
0
LINE
8
Layer 1
10
160.384385
20
29.144477
11
161.265483
21
30.363776
0
LINE
8
Layer 1
10
161.265483
20
30.363776
11
161.863742
21
31.563989
0
LINE
8
Layer 1
10
161.863742
20
31.563989
11
162.221074
21
32.724671
0
LINE
8
Layer 1
10
162.221074
20
32.724671
11
162.379395
21
33.825375
0
LINE
8
Layer 1
10
162.379395
20
33.825375
11
162.380618
21
34.845656
0
LINE
8
Layer 1
10
162.380618
20
34.845656
11
162.079429
21
36.563160
0
LINE
8
Layer 1
10
162.079429
20
36.563160
11
161.652819
21
37.713614
0
LINE
8
Layer 1
10
161.652819
20
37.713614
11
161.436101
21
38.133448
0
LINE
8
Layer 1
10
161.436101
20
38.133448
11
162.683725
21
39.970057
0
LINE
8
Layer 1
10
162.683725
20
39.970057
11
163.653289
21
41.725222
0
LINE
8
Layer 1
10
163.653289
20
41.725222
11
164.372054
21
43.393832
0
LINE
8
Layer 1
10
164.372054
20
43.393832
11
164.867282
21
44.970773
0
LINE
8
Layer 1
10
164.867282
20
44.970773
11
165.166233
21
46.450936
0
LINE
8
Layer 1
10
165.166233
20
46.450936
11
165.296167
21
47.829207
0
LINE
8
Layer 1
10
165.296167
20
47.829207
11
165.158031
21
50.259628
0
LINE
8
Layer 1
10
165.158031
20
50.259628
11
164.670960
21
52.221143
0
LINE
8
Layer 1
10
164.670960
20
52.221143
11
164.053040
21
53.672856
0
LINE
8
Layer 1
10
164.053040
20
53.672856
11
163.297000
21
54.883300
0
LINE
8
Layer 1
10
163.297000
20
54.883300
11
163.297000
21
54.883300
 0 
ENDSEC
 0 
EOF