<?xml version="1.0" encoding="utf-8"?>
<!-- Generator: Adobe Adobe Illustrator 24.2.0, SVG Export Plug-In . SVG Version: 6.00 Build 0)  -->
<svg version="1.1" id="Layer_1" xmlns="http://www.w3.org/2000/svg" xmlns:xlink="http://www.w3.org/1999/xlink" x="0px" y="0px"
	 width="720px" height="720px" viewBox="0 0 720 720" style="enable-background:new 0 0 720 720;" xml:space="preserve">
<style type="text/css">
	.st0{fill:none;stroke:#231F20;stroke-miterlimit:10;stroke-dasharray:0,0,0,0,0,0;}
</style>
<g>
	<g>
		<path class="st0" d="M379.11,550.67c0.6-89.27-53.36-90.59-53.36-90.59c-14.99-32.98-45.57-25.78-45.57-25.78
			c-1.88-1.65-3.74-3.13-5.6-4.48v130.52h-9V424.27c-32.08-16.24-58.55,7.4-65.26,14.26v135.85h-4.54V437.26
			c-24.47-24.6-49.67-19.72-65.2-12.53v135.61h-9V429.7c-4,2.58-6.28,4.6-6.28,4.6c-32.38-6-46.76,23.38-46.76,23.38
			c-67.67,13.29-52.16,95.93-52.16,95.93c-37.66,31.36,1.4,65.82,1.4,65.82c-27.46,47.27,19.79,61.75,19.79,61.75
			c11.4,58.72,49.97,33.37,49.97,33.37c44.97,13.79,56.54-15.67,56.54-15.67c37.1,24.07,54.59-5.59,54.59-5.59
			c12.8,31.59,52.79,4.19,52.79,4.19c44.97,30.58,63.08,18.56,63.08,18.56c45.18,0,46.57-34.86,46.57-34.86
			c40.26-22.81,18.59-59.95,18.59-59.95C409.24,582.94,379.11,550.67,379.11,550.67z"/>
	</g>
</g>
</svg>
