999
"DXF R12 Output" (www.mydxf.blogspot.com)
 0 
SECTION
 2 
HEADER
 9 
$ACADVER
 1 
AC1009
 9 
$EXTMIN
 10 
 0 
 20 
 0 
 9 
$EXTMAX
 10 
 8.5 
 20 
 11 
 0 
ENDSEC
 0 
SECTION
 2 
ENTITIES
0
LINE
8
Layer 1
10
100.306000
20
44.802100
11
100.173608
21
48.963619
0
LINE
8
Layer 1
10
100.173608
20
48.963619
11
99.744942
21
52.613323
0
LINE
8
Layer 1
10
99.744942
20
52.613323
11
99.062059
21
55.784787
0
LINE
8
Layer 1
10
99.062059
20
55.784787
11
98.167020
21
58.511586
0
LINE
8
Layer 1
10
98.167020
20
58.511586
11
97.101883
21
60.827295
0
LINE
8
Layer 1
10
97.101883
20
60.827295
11
95.908708
21
62.765490
0
LINE
8
Layer 1
10
95.908708
20
62.765490
11
94.629554
21
64.359746
0
LINE
8
Layer 1
10
94.629554
20
64.359746
11
93.306481
21
65.643638
0
LINE
8
Layer 1
10
93.306481
20
65.643638
11
91.981548
21
66.650741
0
LINE
8
Layer 1
10
91.981548
20
66.650741
11
90.696813
21
67.414630
0
LINE
8
Layer 1
10
90.696813
20
67.414630
11
88.416177
21
68.347070
0
LINE
8
Layer 1
10
88.416177
20
68.347070
11
86.801048
21
68.709560
0
LINE
8
Layer 1
10
86.801048
20
68.709560
11
86.187900
21
68.770700
0
LINE
8
Layer 1
10
86.187900
20
68.770700
11
85.398901
21
70.285295
0
LINE
8
Layer 1
10
85.398901
20
70.285295
11
84.531121
21
71.569090
0
LINE
8
Layer 1
10
84.531121
20
71.569090
11
83.602455
21
72.640448
0
LINE
8
Layer 1
10
83.602455
20
72.640448
11
82.630795
21
73.517734
0
LINE
8
Layer 1
10
82.630795
20
73.517734
11
80.630075
21
74.763537
0
LINE
8
Layer 1
10
80.630075
20
74.763537
11
78.672112
21
75.453406
0
LINE
8
Layer 1
10
78.672112
20
75.453406
11
76.900061
21
75.734246
0
LINE
8
Layer 1
10
76.900061
20
75.734246
11
75.457073
21
75.752963
0
LINE
8
Layer 1
10
75.457073
20
75.752963
11
74.130900
21
75.591650
0
LINE
8
Layer 1
10
74.130900
20
75.591650
11
72.649240
21
76.776980
0
LINE
8
Layer 1
10
72.649240
20
76.776980
11
72.649200
21
42.243600
0
LINE
8
Layer 1
10
72.649200
20
42.243600
11
70.268000
21
42.243600
0
LINE
8
Layer 1
10
70.268000
20
42.243600
11
70.268000
21
78.245400
0
LINE
8
Layer 1
10
70.268000
20
78.245400
11
68.694842
21
78.931064
0
LINE
8
Layer 1
10
68.694842
20
78.931064
11
67.161958
21
79.391386
0
LINE
8
Layer 1
10
67.161958
20
79.391386
11
65.674831
21
79.648325
0
LINE
8
Layer 1
10
65.674831
20
79.648325
11
64.238945
21
79.723842
0
LINE
8
Layer 1
10
64.238945
20
79.723842
11
62.859784
21
79.639895
0
LINE
8
Layer 1
10
62.859784
20
79.639895
11
61.542832
21
79.418445
0
LINE
8
Layer 1
10
61.542832
20
79.418445
11
59.117492
21
78.650876
0
LINE
8
Layer 1
10
59.117492
20
78.650876
11
57.006797
21
77.596813
0
LINE
8
Layer 1
10
57.006797
20
77.596813
11
55.254619
21
76.431935
0
LINE
8
Layer 1
10
55.254619
20
76.431935
11
53.001300
21
74.472450
0
LINE
8
Layer 1
10
53.001300
20
74.472450
11
53.001300
21
38.528800
0
LINE
8
Layer 1
10
53.001300
20
38.528800
11
51.800100
21
38.528800
0
LINE
8
Layer 1
10
51.800100
20
38.528800
11
51.800100
21
74.808400
0
LINE
8
Layer 1
10
51.800100
20
74.808400
11
49.368541
21
76.897598
0
LINE
8
Layer 1
10
49.368541
20
76.897598
11
46.951124
21
78.339797
0
LINE
8
Layer 1
10
46.951124
20
78.339797
11
44.580093
21
79.219241
0
LINE
8
Layer 1
10
44.580093
20
79.219241
11
42.287694
21
79.620172
0
LINE
8
Layer 1
10
42.287694
20
79.620172
11
40.106170
21
79.626833
0
LINE
8
Layer 1
10
40.106170
20
79.626833
11
38.067766
21
79.323467
0
LINE
8
Layer 1
10
38.067766
20
79.323467
11
36.204728
21
78.794315
0
LINE
8
Layer 1
10
36.204728
20
78.794315
11
34.549300
21
78.123620
0
LINE
8
Layer 1
10
34.549300
20
78.123620
11
34.549200
21
42.243600
0
LINE
8
Layer 1
10
34.549200
20
42.243600
11
32.168000
21
42.243600
0
LINE
8
Layer 1
10
32.168000
20
42.243600
11
32.168000
21
76.808700
0
LINE
8
Layer 1
10
32.168000
20
76.808700
11
30.506420
21
75.591620
0
LINE
8
Layer 1
10
30.506420
20
75.591620
11
28.955647
21
75.783761
0
LINE
8
Layer 1
10
28.955647
20
75.783761
11
27.515091
21
75.781604
0
LINE
8
Layer 1
10
27.515091
20
75.781604
11
26.183351
21
75.610248
0
LINE
8
Layer 1
10
26.183351
20
75.610248
11
24.959023
21
75.294792
0
LINE
8
Layer 1
10
24.959023
20
75.294792
11
22.826991
21
74.331979
0
LINE
8
Layer 1
10
22.826991
20
74.331979
11
21.107770
21
73.093958
0
LINE
8
Layer 1
10
21.107770
20
73.093958
11
19.790137
21
71.781522
0
LINE
8
Layer 1
10
19.790137
20
71.781522
11
18.862867
21
70.595467
0
LINE
8
Layer 1
10
18.862867
20
70.595467
11
18.134520
21
69.405670
0
LINE
8
Layer 1
10
18.134520
20
69.405670
11
15.028995
21
68.541155
0
LINE
8
Layer 1
10
15.028995
20
68.541155
11
12.401033
21
67.305497
0
LINE
8
Layer 1
10
12.401033
20
67.305497
11
10.212384
21
65.757604
0
LINE
8
Layer 1
10
10.212384
20
65.757604
11
8.424800
21
63.956383
0
LINE
8
Layer 1
10
8.424800
20
63.956383
11
7.000029
21
61.960740
0
LINE
8
Layer 1
10
7.000029
20
61.960740
11
5.899823
21
59.829583
0
LINE
8
Layer 1
10
5.899823
20
59.829583
11
5.085933
21
57.621819
0
LINE
8
Layer 1
10
5.085933
20
57.621819
11
4.520107
21
55.396354
0
LINE
8
Layer 1
10
4.520107
20
55.396354
11
4.164098
21
53.212096
0
LINE
8
Layer 1
10
4.164098
20
53.212096
11
3.979656
21
51.127952
0
LINE
8
Layer 1
10
3.979656
20
51.127952
11
3.972472
21
47.495633
0
LINE
8
Layer 1
10
3.972472
20
47.495633
11
4.192558
21
44.970653
0
LINE
8
Layer 1
10
4.192558
20
44.970653
11
4.333920
21
44.024270
0
LINE
8
Layer 1
10
4.333920
20
44.024270
11
2.696030
21
42.461336
0
LINE
8
Layer 1
10
2.696030
20
42.461336
11
1.489021
21
40.893735
0
LINE
8
Layer 1
10
1.489021
20
40.893735
11
0.668019
21
39.336024
0
LINE
8
Layer 1
10
0.668019
20
39.336024
11
0.188151
21
37.802760
0
LINE
8
Layer 1
10
0.188151
20
37.802760
11
0.004543
21
36.308501
0
LINE
8
Layer 1
10
0.004543
20
36.308501
11
0.072323
21
34.867804
0
LINE
8
Layer 1
10
0.072323
20
34.867804
11
0.346617
21
33.495226
0
LINE
8
Layer 1
10
0.346617
20
33.495226
11
0.782553
21
32.205325
0
LINE
8
Layer 1
10
0.782553
20
32.205325
11
1.959855
21
29.931783
0
LINE
8
Layer 1
10
1.959855
20
29.931783
11
3.245243
21
28.163638
0
LINE
8
Layer 1
10
3.245243
20
28.163638
11
4.704336
21
26.609370
0
LINE
8
Layer 1
10
4.704336
20
26.609370
11
3.565831
21
24.364829
0
LINE
8
Layer 1
10
3.565831
20
24.364829
11
2.843346
21
22.316527
0
LINE
8
Layer 1
10
2.843346
20
22.316527
11
2.489613
21
20.457366
0
LINE
8
Layer 1
10
2.489613
20
20.457366
11
2.457365
21
18.780251
0
LINE
8
Layer 1
10
2.457365
20
18.780251
11
2.699332
21
17.278085
0
LINE
8
Layer 1
10
2.699332
20
17.278085
11
3.168246
21
15.943772
0
LINE
8
Layer 1
10
3.168246
20
15.943772
11
3.816839
21
14.770216
0
LINE
8
Layer 1
10
3.816839
20
14.770216
11
4.597842
21
13.750320
0
LINE
8
Layer 1
10
4.597842
20
13.750320
11
6.368006
21
12.143124
0
LINE
8
Layer 1
10
6.368006
20
12.143124
11
8.100591
21
11.065414
0
LINE
8
Layer 1
10
8.100591
20
11.065414
11
9.940436
21
10.271370
0
LINE
8
Layer 1
10
9.940436
20
10.271370
11
10.585979
21
7.611911
0
LINE
8
Layer 1
10
10.585979
20
7.611911
11
11.374528
21
5.431376
0
LINE
8
Layer 1
10
11.374528
20
5.431376
11
12.280604
21
3.687355
0
LINE
8
Layer 1
10
12.280604
20
3.687355
11
13.278729
21
2.337442
0
LINE
8
Layer 1
10
13.278729
20
2.337442
11
14.343423
21
1.339227
0
LINE
8
Layer 1
10
14.343423
20
1.339227
11
15.449207
21
0.650303
0
LINE
8
Layer 1
10
15.449207
20
0.650303
11
16.570602
21
0.228260
0
LINE
8
Layer 1
10
16.570602
20
0.228260
11
17.682130
21
0.030693
0
LINE
8
Layer 1
10
17.682130
20
0.030693
11
18.758311
21
0.015191
0
LINE
8
Layer 1
10
18.758311
20
0.015191
11
19.773666
21
0.139347
0
LINE
8
Layer 1
10
19.773666
20
0.139347
11
21.519984
21
0.636999
0
LINE
8
Layer 1
10
21.519984
20
0.636999
11
23.161636
21
1.442240
0
LINE
8
Layer 1
10
23.161636
20
1.442240
11
25.290418
21
0.887531
0
LINE
8
Layer 1
10
25.290418
20
0.887531
11
27.220540
21
0.572842
0
LINE
8
Layer 1
10
27.220540
20
0.572842
11
28.960465
21
0.469993
0
LINE
8
Layer 1
10
28.960465
20
0.469993
11
30.518653
21
0.550803
0
LINE
8
Layer 1
10
30.518653
20
0.550803
11
31.903565
21
0.787091
0
LINE
8
Layer 1
10
31.903565
20
0.787091
11
33.123660
21
1.150678
0
LINE
8
Layer 1
10
33.123660
20
1.150678
11
35.103248
21
2.147025
0
LINE
8
Layer 1
10
35.103248
20
2.147025
11
36.525104
21
3.314400
0
LINE
8
Layer 1
10
36.525104
20
3.314400
11
37.456913
21
4.427360
0
LINE
8
Layer 1
10
37.456913
20
4.427360
11
38.121136
21
5.588260
0
LINE
8
Layer 1
10
38.121136
20
5.588260
11
39.900976
21
4.555372
0
LINE
8
Layer 1
10
39.900976
20
4.555372
11
41.560034
21
3.823353
0
LINE
8
Layer 1
10
41.560034
20
3.823353
11
43.099130
21
3.359883
0
LINE
8
Layer 1
10
43.099130
20
3.359883
11
44.519086
21
3.132642
0
LINE
8
Layer 1
10
44.519086
20
3.132642
11
45.820724
21
3.109311
0
LINE
8
Layer 1
10
45.820724
20
3.109311
11
47.004866
21
3.257570
0
LINE
8
Layer 1
10
47.004866
20
3.257570
11
49.023947
21
3.939579
0
LINE
8
Layer 1
10
49.023947
20
3.939579
11
50.582902
21
4.920112
0
LINE
8
Layer 1
10
50.582902
20
4.920112
11
51.688303
21
5.940611
0
LINE
8
Layer 1
10
51.688303
20
5.940611
11
52.564736
21
7.067280
0
LINE
8
Layer 1
10
52.564736
20
7.067280
11
53.279700
21
5.677444
0
LINE
8
Layer 1
10
53.279700
20
5.677444
11
54.137235
21
4.619933
0
LINE
8
Layer 1
10
54.137235
20
4.619933
11
55.111306
21
3.861264
0
LINE
8
Layer 1
10
55.111306
20
3.861264
11
56.175874
21
3.367954
0
LINE
8
Layer 1
10
56.175874
20
3.367954
11
57.304903
21
3.106522
0
LINE
8
Layer 1
10
57.304903
20
3.106522
11
58.472355
21
3.043484
0
LINE
8
Layer 1
10
58.472355
20
3.043484
11
60.818383
21
3.378663
0
LINE
8
Layer 1
10
60.818383
20
3.378663
11
63.005662
21
4.105631
0
LINE
8
Layer 1
10
63.005662
20
4.105631
11
64.825894
21
4.956530
0
LINE
8
Layer 1
10
64.825894
20
4.956530
11
66.532036
21
5.958680
0
LINE
8
Layer 1
10
66.532036
20
5.958680
11
70.665294
21
3.424687
0
LINE
8
Layer 1
10
70.665294
20
3.424687
11
74.159428
21
1.778020
0
LINE
8
Layer 1
10
74.159428
20
1.778020
11
77.041570
21
0.849323
0
LINE
8
Layer 1
10
77.041570
20
0.849323
11
79.338848
21
0.469244
0
LINE
8
Layer 1
10
79.338848
20
0.469244
11
81.078394
21
0.468428
0
LINE
8
Layer 1
10
81.078394
20
0.468428
11
82.287338
21
0.677521
0
LINE
8
Layer 1
10
82.287338
20
0.677521
11
83.221936
21
1.048020
0
LINE
8
Layer 1
10
83.221936
20
1.048020
11
85.330255
21
1.151603
0
LINE
8
Layer 1
10
85.330255
20
1.151603
11
87.183457
21
1.444336
0
LINE
8
Layer 1
10
87.183457
20
1.444336
11
88.797973
21
1.899199
0
LINE
8
Layer 1
10
88.797973
20
1.899199
11
90.190238
21
2.489170
0
LINE
8
Layer 1
10
90.190238
20
2.489170
11
91.376684
21
3.187227
0
LINE
8
Layer 1
10
91.376684
20
3.187227
11
92.373746
21
3.966349
0
LINE
8
Layer 1
10
92.373746
20
3.966349
11
93.865449
21
5.659700
0
LINE
8
Layer 1
10
93.865449
20
5.659700
11
94.796812
21
7.353051
0
LINE
8
Layer 1
10
94.796812
20
7.353051
11
95.299303
21
8.830230
0
LINE
8
Layer 1
10
95.299303
20
8.830230
11
95.543536
21
10.271380
0
LINE
8
Layer 1
10
95.543536
20
10.271380
11
97.354186
21
11.444076
0
LINE
8
Layer 1
10
97.354186
20
11.444076
11
98.813200
21
12.685687
0
LINE
8
Layer 1
10
98.813200
20
12.685687
11
99.952978
21
13.976265
0
LINE
8
Layer 1
10
99.952978
20
13.976265
11
100.805922
21
15.295861
0
LINE
8
Layer 1
10
100.805922
20
15.295861
11
101.404432
21
16.624527
0
LINE
8
Layer 1
10
101.404432
20
16.624527
11
101.780910
21
17.942314
0
LINE
8
Layer 1
10
101.780910
20
17.942314
11
101.967757
21
19.229274
0
LINE
8
Layer 1
10
101.967757
20
19.229274
11
101.997374
21
20.465457
0
LINE
8
Layer 1
10
101.997374
20
20.465457
11
101.714519
21
22.705704
0
LINE
8
Layer 1
10
101.714519
20
22.705704
11
101.191556
21
24.503465
0
LINE
8
Layer 1
10
101.191556
20
24.503465
11
100.462136
21
26.133180
0
LINE
8
Layer 1
10
100.462136
20
26.133180
11
101.748397
21
28.012348
0
LINE
8
Layer 1
10
101.748397
20
28.012348
11
102.699435
21
29.844014
0
LINE
8
Layer 1
10
102.699435
20
29.844014
11
103.350053
21
31.618002
0
LINE
8
Layer 1
10
103.350053
20
31.618002
11
103.735057
21
33.324138
0
LINE
8
Layer 1
10
103.735057
20
33.324138
11
103.889251
21
34.952250
0
LINE
8
Layer 1
10
103.889251
20
34.952250
11
103.847439
21
36.492163
0
LINE
8
Layer 1
10
103.847439
20
36.492163
11
103.644427
21
37.933704
0
LINE
8
Layer 1
10
103.644427
20
37.933704
11
103.315017
21
39.266697
0
LINE
8
Layer 1
10
103.315017
20
39.266697
11
102.416226
21
41.566349
0
LINE
8
Layer 1
10
102.416226
20
41.566349
11
101.429502
21
43.309728
0
LINE
8
Layer 1
10
101.429502
20
43.309728
11
100.306000
21
44.802100
0
LINE
8
Layer 1
10
100.306000
20
44.802100
11
100.306000
21
44.802100
 0 
ENDSEC
 0 
EOF