G04 EAGLE Gerber RS-274X export*
G75*
%MOMM*%
%FSLAX34Y34*%
%LPD*%
%INSoldermask Bottom*%
%IPPOS*%
%AMOC8*
5,1,8,0,0,1.08239X$1,22.5*%
G01*
%ADD10C,2.082800*%
%ADD11R,1.103200X3.203200*%
%ADD12R,1.053200X2.103200*%
%ADD13R,1.053200X1.203200*%
%ADD14R,1.053200X1.353200*%
%ADD15R,1.053200X2.203200*%
%ADD16R,2.103200X1.053200*%
%ADD17R,1.203200X1.053200*%
%ADD18R,1.353200X1.053200*%
%ADD19R,2.203200X1.053200*%
%ADD20C,1.209600*%


D10*
X762000Y88900D03*
X787400Y88900D03*
X812800Y88900D03*
X838200Y88900D03*
D11*
X722884Y267953D03*
D12*
X130950Y702200D03*
D13*
X148450Y697700D03*
D14*
X130950Y723950D03*
D15*
X148450Y719700D03*
D12*
X232550Y791100D03*
D13*
X250050Y786600D03*
D14*
X232550Y812850D03*
D15*
X250050Y808600D03*
D16*
X346600Y935850D03*
D17*
X342100Y918350D03*
D18*
X368350Y935850D03*
D19*
X364100Y918350D03*
D12*
X351650Y745600D03*
D13*
X334150Y750100D03*
D14*
X351650Y723850D03*
D15*
X334150Y728100D03*
D12*
X389750Y605900D03*
D13*
X372250Y610400D03*
D14*
X389750Y584150D03*
D15*
X372250Y588400D03*
D16*
X237600Y473850D03*
D17*
X242100Y491350D03*
D18*
X215850Y473850D03*
D19*
X220100Y491350D03*
D12*
X110350Y390000D03*
D13*
X92850Y394500D03*
D14*
X110350Y368250D03*
D15*
X92850Y372500D03*
D12*
X262750Y364600D03*
D13*
X245250Y369100D03*
D14*
X262750Y342850D03*
D15*
X245250Y347100D03*
D12*
X173850Y275700D03*
D13*
X156350Y280200D03*
D14*
X173850Y253950D03*
D15*
X156350Y258200D03*
D16*
X232300Y161150D03*
D17*
X227800Y143650D03*
D18*
X254050Y161150D03*
D19*
X249800Y143650D03*
D16*
X372000Y84950D03*
D17*
X367500Y67450D03*
D18*
X393750Y84950D03*
D19*
X389500Y67450D03*
D16*
X384700Y313550D03*
D17*
X380200Y296050D03*
D18*
X406450Y313550D03*
D19*
X402200Y296050D03*
D16*
X499000Y199250D03*
D17*
X494500Y181750D03*
D18*
X520750Y199250D03*
D19*
X516500Y181750D03*
D16*
X638700Y148450D03*
D17*
X634200Y130950D03*
D18*
X660450Y148450D03*
D19*
X656200Y130950D03*
D12*
X575450Y295800D03*
D13*
X592950Y291300D03*
D14*
X575450Y317550D03*
D15*
X592950Y313300D03*
D12*
X499250Y448200D03*
D13*
X516750Y443700D03*
D14*
X499250Y469950D03*
D15*
X516750Y465700D03*
D12*
X626250Y575200D03*
D13*
X643750Y570700D03*
D14*
X626250Y596950D03*
D15*
X643750Y592700D03*
D12*
X511950Y727600D03*
D13*
X529450Y723100D03*
D14*
X511950Y749350D03*
D15*
X529450Y745100D03*
D12*
X588150Y854600D03*
D13*
X605650Y850100D03*
D14*
X588150Y876350D03*
D15*
X605650Y872100D03*
D16*
X575200Y1012050D03*
D17*
X570700Y994550D03*
D18*
X596950Y1012050D03*
D19*
X592700Y994550D03*
D16*
X753000Y427850D03*
D17*
X748500Y410350D03*
D18*
X774750Y427850D03*
D19*
X770500Y410350D03*
D12*
X791350Y587900D03*
D13*
X808850Y583400D03*
D14*
X791350Y609650D03*
D15*
X808850Y605400D03*
D12*
X740550Y702200D03*
D13*
X758050Y697700D03*
D14*
X740550Y723950D03*
D15*
X758050Y719700D03*
D16*
X854600Y973950D03*
D17*
X850100Y956450D03*
D18*
X876350Y973950D03*
D19*
X872100Y956450D03*
D12*
X910450Y783700D03*
D13*
X892950Y788200D03*
D14*
X910450Y761950D03*
D15*
X892950Y766200D03*
D12*
X885050Y580500D03*
D13*
X867550Y585000D03*
D14*
X885050Y558750D03*
D15*
X867550Y563000D03*
D16*
X829200Y313550D03*
D17*
X824700Y296050D03*
D18*
X850950Y313550D03*
D19*
X846700Y296050D03*
D16*
X1019700Y465950D03*
D17*
X1015200Y448450D03*
D18*
X1041450Y465950D03*
D19*
X1037200Y448450D03*
D12*
X1058050Y600600D03*
D13*
X1075550Y596100D03*
D14*
X1058050Y622350D03*
D15*
X1075550Y618100D03*
D12*
X1108850Y714900D03*
D13*
X1126350Y710400D03*
D14*
X1108850Y736650D03*
D15*
X1126350Y732400D03*
D16*
X1057800Y961250D03*
D17*
X1053300Y943750D03*
D18*
X1079550Y961250D03*
D19*
X1075300Y943750D03*
D16*
X1197500Y859650D03*
D17*
X1193000Y842150D03*
D18*
X1219250Y859650D03*
D19*
X1215000Y842150D03*
D12*
X1253350Y732900D03*
D13*
X1235850Y737400D03*
D14*
X1253350Y711150D03*
D15*
X1235850Y715400D03*
D12*
X1304150Y644000D03*
D13*
X1286650Y648500D03*
D14*
X1304150Y622250D03*
D15*
X1286650Y626500D03*
D12*
X1139050Y491600D03*
D13*
X1121550Y496100D03*
D14*
X1139050Y469850D03*
D15*
X1121550Y474100D03*
D12*
X1291450Y402700D03*
D13*
X1273950Y407200D03*
D14*
X1291450Y380950D03*
D15*
X1273950Y385200D03*
D12*
X1177150Y301100D03*
D13*
X1159650Y305600D03*
D14*
X1177150Y279350D03*
D15*
X1159650Y283600D03*
D16*
X1139300Y67450D03*
D17*
X1143800Y84950D03*
D18*
X1117550Y67450D03*
D19*
X1121800Y84950D03*
D16*
X1037700Y232550D03*
D17*
X1042200Y250050D03*
D18*
X1015950Y232550D03*
D19*
X1020200Y250050D03*
D16*
X809100Y169050D03*
D17*
X813600Y186550D03*
D18*
X787350Y169050D03*
D19*
X791600Y186550D03*
D20*
X816610Y205994D03*
X1069594Y109982D03*
X1170686Y148844D03*
X1273810Y295656D03*
X1171956Y485140D03*
X1325118Y535178D03*
X1286510Y676656D03*
X1140714Y829818D03*
X1052322Y905764D03*
X1081532Y744728D03*
X1215390Y619506D03*
X1114044Y237744D03*
X892810Y307340D03*
X905764Y561848D03*
X829056Y713994D03*
X860044Y829310D03*
X771906Y956056D03*
X784098Y708914D03*
X808990Y403352D03*
X643382Y302260D03*
X593598Y92964D03*
X525018Y268986D03*
X550164Y523748D03*
X638302Y715010D03*
X575310Y789940D03*
X639064Y954786D03*
X504952Y956818D03*
X389636Y505714D03*
X325120Y364998D03*
X390398Y187706D03*
X263906Y105664D03*
X98806Y206756D03*
X169164Y358902D03*
X131064Y574294D03*
X320294Y592328D03*
X371602Y790194D03*
X302260Y930402D03*
X224536Y835152D03*
X211836Y657860D03*
X685800Y774700D03*
X1070102Y453898D03*
X130556Y684022D03*
X232410Y771906D03*
X359410Y955802D03*
X351536Y765556D03*
X389382Y625348D03*
X256540Y473964D03*
X110744Y409194D03*
X263398Y384048D03*
X178816Y294688D03*
X212852Y160528D03*
X352298Y84836D03*
X365760Y314452D03*
X477266Y198882D03*
X619252Y148336D03*
X574548Y276098D03*
X499364Y428752D03*
X625856Y556006D03*
X511556Y708914D03*
X588010Y834136D03*
X556260Y1011428D03*
X733044Y427228D03*
X790956Y568960D03*
X740918Y683260D03*
X834644Y973836D03*
X909828Y802640D03*
X885444Y600710D03*
X810260Y313944D03*
X999236Y465074D03*
X1055024Y580898D03*
X1108710Y697230D03*
X1037590Y960628D03*
X1178814Y859790D03*
X1253998Y751840D03*
X1314196Y671576D03*
X1138936Y511048D03*
X1291590Y422402D03*
X1177290Y319278D03*
X1159002Y66802D03*
X1057148Y237744D03*
X831596Y147828D03*
X152400Y647700D03*
M02*
